<svg width="110" height="112" viewBox="0 0 110 112" fill="none" xmlns="http://www.w3.org/2000/svg">
<path d="M65.5114 0.538464C66.3636 0.717951 67.1922 0.964748 67.9972 1.27885C68.8021 1.59295 69.6307 2.01924 70.483 2.5577L71.4773 3.09616C71.9508 3.45514 72.5189 3.90385 73.1818 4.44231C73.8447 4.98077 74.6496 5.69873 75.5966 6.59616L97.0455 26.9231C98.6553 28.4487 99.8153 29.6154 100.526 30.4231C101.236 31.2308 101.828 31.9936 102.301 32.7115C102.869 33.5192 103.319 34.3045 103.651 35.0673C103.982 35.8301 104.242 36.6154 104.432 37.4231L104.716 38.6346C104.811 39.2628 104.882 40.0705 104.929 41.0577C104.976 42.0449 105 43.391 105 45.0962V84.4038C105 89.1603 104.74 92.6827 104.219 94.9712C103.698 97.2596 102.964 99.2564 102.017 100.962C100.975 102.756 99.7443 104.327 98.3239 105.673C96.9034 107.019 95.2936 108.141 93.4943 109.038L93.3523 109.173C91.553 110.071 89.446 110.766 87.0312 111.26C84.6165 111.753 80.8996 112 75.8807 112H34.1193C29.1004 112 25.3835 111.753 22.9687 111.26C20.554 110.766 18.447 110.071 16.6477 109.173C14.7538 108.186 13.0966 107.019 11.6761 105.673C10.2557 104.327 9.07197 102.801 8.125 101.096L7.98295 100.962C7.13068 99.3462 6.44413 97.5064 5.9233 95.4423C5.40246 93.3782 5.0947 90.3269 5 86.2885V26.1154C5 22.2564 5.26042 19.2051 5.78125 16.9615C6.30208 14.7179 7.03598 12.7436 7.98295 11.0385C9.02462 9.24359 10.2557 7.67308 11.6761 6.32693C13.0966 4.98077 14.7538 3.81411 16.6477 2.82693C18.447 1.92949 20.5303 1.23398 22.8977 0.740388C25.2652 0.246799 28.4848 1.90735e-06 32.5568 1.90735e-06H57.4148C59.6875 1.90735e-06 61.3684 0.0448719 62.4574 0.134615C63.5464 0.224359 64.5644 0.358977 65.5114 0.538464ZM80 77.5385H30C28.1061 77.5385 26.4962 78.1667 25.1705 79.4231C23.8447 80.6795 23.1818 82.2051 23.1818 84C23.1818 85.7949 23.8447 87.3205 25.1705 88.5769C26.4962 89.8333 28.1061 90.4615 30 90.4615H80C81.8939 90.4615 83.5038 89.8333 84.8295 88.5769C86.1553 87.3205 86.8182 85.7949 86.8182 84C86.8182 82.2051 86.1553 80.6795 84.8295 79.4231C83.5038 78.1667 81.8939 77.5385 80 77.5385ZM80 51.6923H30C28.1061 51.6923 26.4962 52.3205 25.1705 53.5769C23.8447 54.8333 23.1818 56.359 23.1818 58.1538C23.1818 59.9487 23.8447 61.4744 25.1705 62.7308C26.4962 63.9872 28.1061 64.6154 30 64.6154H80C81.8939 64.6154 83.5038 63.9872 84.8295 62.7308C86.1553 61.4744 86.8182 59.9487 86.8182 58.1538C86.8182 56.359 86.1553 54.8333 84.8295 53.5769C83.5038 52.3205 81.8939 51.6923 80 51.6923Z" fill="#A2AAD3"/>
</svg>
