<svg width="110" height="110" viewBox="0 0 110 110" fill="none" xmlns="http://www.w3.org/2000/svg">
<path d="M5 76.612V34.9557C5 30.9991 5.20461 28.069 5.61384 26.1654C6.02307 24.2617 6.5997 22.6007 7.34375 21.1823C8.1622 19.6892 9.12946 18.3828 10.2455 17.263C11.3616 16.1432 12.6637 15.1727 14.1518 14.3516C15.4911 13.6797 17.0164 13.1385 18.7277 12.7279C20.439 12.3173 22.9687 12.0747 26.317 12H33.5714C34.4643 12 35.3013 12.0373 36.0826 12.112C36.8638 12.1866 37.5893 12.2986 38.2589 12.4479C38.9286 12.5972 39.5796 12.8025 40.2121 13.0638C40.8445 13.3251 41.4583 13.6424 42.0536 14.0156C42.6488 14.3889 43.2626 14.8368 43.8951 15.3594C44.5275 15.8819 45.1414 16.4418 45.7366 17.0391L55 26.3333H82.1205C86.064 26.3333 88.9844 26.5386 90.8817 26.9492C92.779 27.3598 94.4345 27.9384 95.8482 28.6849C97.3363 29.5061 98.6384 30.4766 99.7545 31.5964C100.871 32.7161 101.838 34.0226 102.656 35.5156C103.4 36.934 103.977 38.5951 104.386 40.4987C104.795 42.4023 105 45.3325 105 49.2891V75.0443C105 79.0009 104.795 81.931 104.386 83.8346C103.977 85.7383 103.4 87.3993 102.656 88.8177C101.838 90.3108 100.871 91.6172 99.7545 92.737C98.6384 93.8568 97.3735 94.7899 95.9598 95.5365L95.8482 95.6484C94.4345 96.395 92.779 96.9735 90.8817 97.3841C88.9844 97.7947 86.064 98 82.1205 98H27.8795C23.936 98 21.0156 97.7947 19.1183 97.3841C17.221 96.9735 15.5655 96.395 14.1518 95.6484C12.6637 94.8273 11.3616 93.8568 10.2455 92.737C9.12946 91.6172 8.1994 90.3481 7.45536 88.9297L7.34375 88.8177C6.67411 87.474 6.13467 85.9436 5.72545 84.2266C5.31622 82.5095 5.0744 79.9714 5 76.612Z" fill="#A2AAD3"/>
</svg>
