<svg width="110" height="110" viewBox="0 0 110 110" fill="none" xmlns="http://www.w3.org/2000/svg">
<path d="M22.0213 37.9167H87.9787C92.6596 37.9167 96.6667 39.5894 100 42.9349C103.333 46.2804 105 50.3021 105 55C105 55.7118 104.965 56.4058 104.894 57.082C104.823 57.7582 104.716 58.4167 104.574 59.0573V58.9505L100 78.4896C99.2199 81.7639 98.5106 84.1306 97.8723 85.5898C97.234 87.049 96.5248 88.3125 95.7447 89.3802C94.8936 90.4479 93.9539 91.4089 92.9255 92.263C91.8972 93.1172 90.7801 93.7934 89.5745 94.2917L89.4681 94.3984C88.1915 94.8967 86.7908 95.2882 85.266 95.5729C83.7411 95.8576 81.3121 96 77.9787 96H29.2553C26.9858 95.9288 25.2305 95.7509 23.9894 95.4661C22.7482 95.1814 21.5957 94.8255 20.5319 94.3984C19.2553 93.829 18.1028 93.1172 17.0745 92.263C16.0461 91.4089 15.1418 90.4835 14.3617 89.487L14.2553 89.3802C13.5461 88.3837 12.8901 87.227 12.2872 85.9102C11.6844 84.5933 11.0638 82.6181 10.4255 79.9844L5.42553 58.9505C5.28369 58.3099 5.1773 57.6693 5.10638 57.0286C5.03546 56.388 5 55.7118 5 55C5 50.5156 6.50709 46.6363 9.52128 43.362C12.5355 40.0877 16.2411 38.2726 20.6383 37.9167H20.7447H22.0213ZM35.6383 14H73.1915C74.4681 14 75.5851 14.0356 76.5426 14.1068C77.5 14.1779 78.4043 14.3203 79.2553 14.5339C80.1064 14.7474 80.922 15.0143 81.7021 15.3346C82.4823 15.6549 83.227 16.0286 83.9362 16.4557C84.5745 16.8828 85.195 17.3277 85.7979 17.7904C86.4007 18.253 87.0567 18.8403 87.766 19.5521L90 21.7943C90.3546 22.1502 90.6206 22.5239 90.7979 22.9154C90.9752 23.3069 91.0638 23.7517 91.0638 24.25C91.0638 25.1753 90.727 25.9761 90.0532 26.6523C89.3794 27.3286 88.5816 27.6667 87.6596 27.6667H22.3404C21.4184 27.6667 20.6206 27.3286 19.9468 26.6523C19.273 25.9761 18.9362 25.1753 18.9362 24.25C18.9362 23.7517 19.0248 23.3069 19.2021 22.9154C19.3794 22.5239 19.6454 22.1502 20 21.7943L21.383 20.4062C22.305 19.4809 23.1383 18.7157 23.883 18.1107C24.6277 17.5056 25.3546 16.954 26.0638 16.4557C26.7731 16.0286 27.5177 15.6549 28.2979 15.3346C29.078 15.0143 29.8936 14.7474 30.7447 14.5339C31.4539 14.3915 32.1986 14.2669 32.9787 14.1602C33.7589 14.0534 34.6454 14 35.6383 14Z" fill="#A2AAD3"/>
</svg>
