<svg width="110" height="112" viewBox="0 0 110 112" fill="none" xmlns="http://www.w3.org/2000/svg">
<path fill-rule="evenodd" clip-rule="evenodd" d="M51.6734 1.08979C49.1946 1.61667 46.8631 2.96279 42.2 5.65503L17.8 19.7424C13.1369 22.4346 10.8054 23.7807 9.10968 25.664C7.60934 27.3303 6.47598 29.2933 5.7831 31.4258C5 33.8359 5 36.5281 5 41.9126V70.0873C5 75.4718 5 78.164 5.7831 80.5742C6.47598 82.7066 7.60934 84.6697 9.10968 86.336C10.8054 88.2192 13.1369 89.5653 17.8 92.2576L42.2 106.345L42.2001 106.345C46.8631 109.037 49.1946 110.383 51.6734 110.91C53.8666 111.376 56.1334 111.376 58.3266 110.91C60.8054 110.383 63.1369 109.037 67.8 106.345L92.2 92.2576C96.8631 89.5653 99.1946 88.2192 100.89 86.336C102.391 84.6697 103.524 82.7066 104.217 80.5742C105 78.164 105 75.4718 105 70.0873V41.9126C105 36.5281 105 33.8359 104.217 31.4258C103.524 29.2933 102.391 27.3303 100.89 25.664C99.1946 23.7807 96.8631 22.4346 92.2 19.7424L67.8 5.65503C63.1369 2.96279 60.8054 1.61667 58.3266 1.08979C56.1334 0.623604 53.8666 0.623604 51.6734 1.08979ZM55 77.9393C67.1167 77.9393 76.9393 68.1167 76.9393 56C76.9393 43.8832 67.1167 34.0607 55 34.0607C42.8833 34.0607 33.0607 43.8832 33.0607 56C33.0607 68.1167 42.8833 77.9393 55 77.9393Z" fill="#A2AAD3"/>
</svg>
