<svg width="110" height="110" viewBox="0 0 110 110" fill="none" xmlns="http://www.w3.org/2000/svg">
<rect x="6" y="5" width="98" height="100" rx="16" fill="#326EDD"/>
<path d="M24.4203 58.3182V49.7273H58.5538V58.3182H46.7413V89H36.2328V58.3182H24.4203ZM83.7369 62C83.6346 60.7216 83.1552 59.7244 82.2987 59.0085C81.4549 58.2926 80.1701 57.9347 78.4442 57.9347C77.3448 57.9347 76.4435 58.0689 75.7404 58.3374C75.0501 58.593 74.5387 58.9446 74.2063 59.392C73.8739 59.8395 73.7013 60.3509 73.6886 60.9261C73.663 61.3991 73.7461 61.8274 73.9379 62.2109C74.1424 62.5817 74.462 62.9205 74.8967 63.2273C75.3313 63.5213 75.8874 63.7898 76.565 64.0327C77.2425 64.2756 78.0479 64.4929 78.9812 64.6847L82.2028 65.375C84.3761 65.8352 86.2362 66.4425 87.783 67.1967C89.3299 67.951 90.5955 68.8395 91.5799 69.8622C92.5643 70.8722 93.2866 72.0099 93.7468 73.2756C94.2198 74.5412 94.4627 75.9219 94.4755 77.4176C94.4627 80 93.8171 82.1861 92.5387 83.9759C91.2603 85.7656 89.4322 87.1271 87.0543 88.0604C84.6893 88.9936 81.8448 89.4602 78.521 89.4602C75.1076 89.4602 72.1289 88.9553 69.5849 87.9453C67.0536 86.9354 65.0849 85.3821 63.6786 83.2855C62.2852 81.1761 61.582 78.4787 61.5692 75.1932H71.6942C71.7582 76.3949 72.0586 77.4048 72.5955 78.223C73.1325 79.0412 73.8867 79.6612 74.8583 80.0831C75.8427 80.505 77.0124 80.7159 78.3675 80.7159C79.5053 80.7159 80.4577 80.5753 81.2248 80.294C81.9918 80.0128 82.5735 79.6229 82.9698 79.1243C83.3661 78.6257 83.5707 78.0568 83.5835 77.4176C83.5707 76.8168 83.3725 76.2926 82.989 75.8452C82.6183 75.3849 82.0046 74.9759 81.1481 74.6179C80.2915 74.2472 79.1346 73.902 77.6772 73.5824L73.7653 72.7386C70.288 71.9844 67.5458 70.7251 65.5387 68.9609C63.5444 67.1839 62.5536 64.7614 62.5664 61.6932C62.5536 59.2003 63.2184 57.0206 64.5607 55.1541C65.9158 53.2749 67.7887 51.8111 70.1793 50.7628C72.5827 49.7145 75.3377 49.1903 78.4442 49.1903C81.6147 49.1903 84.3569 49.7209 86.6708 50.782C88.9847 51.843 90.7681 53.3388 92.021 55.2692C93.2866 57.1868 93.9258 59.4304 93.9386 62H83.7369Z" fill="#EEEEEE"/>
</svg>
