<svg width="110" height="110" viewBox="0 0 110 110" fill="none" xmlns="http://www.w3.org/2000/svg">
<g clip-path="url(#clip0_121_155)">
<path fill-rule="evenodd" clip-rule="evenodd" d="M62.9159 35.3575L59.5945 36.5914H62.7629L62.9159 35.3575ZM50.4055 36.5914L43.151 33.8962V36.5914H50.4055ZM87.4614 26.2384C91.2944 29.9662 92.5253 36.184 89.2347 41.3457L65.2359 78.9909C59.7546 87.5891 46.5365 83.6747 46.5365 73.4529V53.6607H41.4583C33.0446 53.6607 26.224 46.7827 26.224 38.2983V27.6075L19.5411 25.1247C10.3551 21.712 2.16974 32.09 7.53471 40.3475L46.5047 100.328C50.5147 106.5 59.4853 106.5 63.4953 100.328L102.466 40.3475C107.83 32.09 99.6448 21.712 90.4589 25.1247L87.4614 26.2384ZM63.4635 45.126V40.0052H69.9662L63.4635 50.2058V45.126Z" fill="#7380F9"/>
<path d="M66.3544 5.66522L40.3452 10.0365C37.0804 10.5852 34.6875 13.4337 34.6875 16.7714V38.2983C34.6875 42.0691 37.7189 45.126 41.4583 45.126H55V73.4529C55 75.1565 57.203 75.8092 58.1165 74.376L82.1158 36.7305C83.5641 34.4585 81.9466 31.4706 79.268 31.4706H71.9271L74.1858 13.247C74.7478 8.71413 70.8228 4.91423 66.3544 5.66522Z" fill="#F5AA52"/>
</g>
<defs>
<clipPath id="clip0_121_155">
<rect width="100" height="100" fill="white" transform="translate(5 5)"/>
</clipPath>
</defs>
</svg>
