<svg width="110" height="110" viewBox="0 0 110 110" fill="none" xmlns="http://www.w3.org/2000/svg">
<g clip-path="url(#clip0_121_159)">
<path d="M45.5432 87.9379C48.6704 93.0293 50.234 95.575 52.2435 96.4442C53.9981 97.2036 55.9877 97.2036 57.7423 96.4442C59.7518 95.575 61.3154 93.0293 64.4426 87.9379L100.065 29.9428C103.465 24.407 105.165 21.6391 104.971 19.3575C104.801 17.3684 103.786 15.5484 102.184 14.3615C100.347 13 97.1025 13 90.6149 13H75.3015C72.9561 13 71.7842 13 70.7349 13.3429C69.807 13.6464 68.9541 14.1426 68.2306 14.7991C67.4131 15.5412 66.8314 16.5612 65.6679 18.6013L54.9929 37.3176L44.3179 18.6013C43.1544 16.5612 42.5726 15.5412 41.7552 14.7991C41.0319 14.1426 40.1785 13.6464 39.2506 13.3429C38.202 13 37.0294 13 34.6842 13H19.3708C12.883 13 9.63915 13 7.80142 14.3615C6.19937 15.5484 5.18428 17.3684 5.01496 19.3575C4.82074 21.6391 6.52084 24.407 9.92112 29.9428L45.5432 87.9379Z" fill="#56B292"/>
<path d="M54.9929 80.7392L89.667 25.2607H75.3015C72.9562 25.2607 71.7842 25.2607 70.735 25.603C69.8071 25.9059 68.9541 26.4012 68.2307 27.0564C67.4132 27.7971 66.8314 28.8153 65.6679 30.8514L54.9929 49.5326L44.318 30.8514C43.1545 28.8153 42.5727 27.7971 41.7552 27.0564C41.032 26.4012 40.1785 25.9059 39.2506 25.603C38.202 25.2607 37.0294 25.2607 34.6842 25.2607H20.3189L54.9929 80.7392Z" fill="#35445A"/>
</g>
<defs>
<clipPath id="clip0_121_159">
<rect width="100" height="84" fill="white" transform="translate(5 13)"/>
</clipPath>
</defs>
</svg>
