<svg width="110" height="110" viewBox="0 0 110 110" fill="none" xmlns="http://www.w3.org/2000/svg">
<path fill-rule="evenodd" clip-rule="evenodd" d="M5.74196 59.6849C6.8667 63.1464 9.86859 66.1483 15.8723 72.1516L37.8482 94.128C43.8519 100.131 46.8538 103.133 50.3153 104.258C53.3601 105.247 56.64 105.247 59.6848 104.258C63.1464 103.133 66.1483 100.131 72.1516 94.128L94.128 72.1516C100.131 66.1483 103.133 63.1464 104.258 59.6849C105.247 56.64 105.247 53.3602 104.258 50.3153C103.133 46.8538 100.131 43.8519 94.128 37.8482L72.1516 15.8723C66.1483 9.86857 63.1464 6.86669 59.6848 5.74202C56.64 4.75266 53.3601 4.75266 50.3153 5.74202C47.8267 6.55052 45.5758 8.32927 42.2763 11.496L81.7602 50.9801C83.9805 53.2003 83.9805 56.7999 81.7602 59.02C79.54 61.2403 75.941 61.2403 73.7207 59.02L58.7901 44.0897V77.7405C58.7901 80.8802 56.2448 83.4256 53.105 83.4256C49.9653 83.4256 47.4199 80.8802 47.4199 77.7405V32.7194L34.2105 19.51L15.8723 37.8482C9.86859 43.8519 6.8667 46.8538 5.74196 50.3153C4.75268 53.3602 4.75268 56.64 5.74196 59.6849Z" fill="#F17F66"/>
</svg>
