<svg width="110" height="110" viewBox="0 0 110 110" fill="none" xmlns="http://www.w3.org/2000/svg">
<path fill-rule="evenodd" clip-rule="evenodd" d="M104.405 51.862C103.907 49.524 102.633 47.3272 100.085 42.9336L87.9323 21.9797C85.4211 17.6503 84.1659 15.4856 82.4174 13.9118C80.8698 12.5192 79.0498 11.4677 77.0736 10.825C74.8415 10.0987 72.3497 10.0987 67.3661 10.0987H42.6338C37.6505 10.0987 35.1588 10.0987 32.926 10.825C30.9503 11.4677 29.1303 12.5192 27.5829 13.9117C25.8341 15.4856 24.5786 17.6503 22.0676 21.9797L9.91486 42.9336C7.36672 47.3272 6.09261 49.5239 5.59418 51.862C5.15318 53.9305 5.15318 56.0696 5.59418 58.1381C6.09261 60.4761 7.36672 62.6728 9.91486 67.0664L22.0676 88.0205C24.5785 92.3497 25.8341 94.5147 27.5829 96.0885C29.1303 97.4812 30.9503 98.5326 32.926 99.1747C35.1588 99.9013 37.6505 99.9013 42.6338 99.9013H67.3661C72.3497 99.9013 74.8415 99.9013 77.0736 99.1747C79.0498 98.5326 80.8698 97.4812 82.4174 96.0885C84.1659 94.5147 85.4211 92.3497 87.9323 88.0205L100.085 67.0664C102.633 62.6728 103.907 60.4761 104.405 58.1381C104.847 56.0696 104.847 53.9305 104.405 51.862ZM52.6599 19.602C50.9165 19.978 49.2784 20.9391 46.0022 22.8613L31.9716 31.0932C28.7433 32.9873 27.1291 33.9343 25.9555 35.2536C24.9171 36.4209 24.133 37.7938 23.6538 39.2842C23.1122 40.9684 23.1122 42.848 23.1122 46.6071V63.3929C23.1122 67.152 23.1122 69.0316 23.6538 70.7162C24.133 72.2062 24.9171 73.5794 25.9555 74.7461C27.1291 76.0655 28.7433 77.0129 31.9716 78.907L46.0022 87.1389C49.2784 89.0607 50.9165 90.0223 52.6599 90.398C54.2024 90.731 55.7974 90.731 57.3399 90.398C59.0833 90.0223 60.7214 89.0607 63.9976 87.1389L78.0282 78.907C81.2567 77.0129 82.8705 76.0655 84.0446 74.7461C85.0826 73.5794 85.8668 72.2062 86.3459 70.7162C86.8876 69.0316 86.8876 67.152 86.8876 63.3929V46.6071C86.8876 42.848 86.8876 40.9684 86.3459 39.2842C85.8668 37.7938 85.0826 36.4209 84.0446 35.2536C82.8705 33.9343 81.2567 32.9873 78.0282 31.0932L63.9976 22.8613C60.7214 20.9391 59.0833 19.978 57.3399 19.602C55.7974 19.2693 54.2024 19.2693 52.6599 19.602Z" fill="#7380F9"/>
<path d="M49.0015 36.0687C51.1857 34.7872 52.2777 34.1466 53.44 33.8959C54.4683 33.674 55.5317 33.674 56.5599 33.8959C57.7223 34.1466 58.8143 34.7872 60.9985 36.0687L68.2263 40.3094C70.3787 41.5721 71.4546 42.2035 72.2373 43.083C72.9293 43.8612 73.4523 44.7765 73.7715 45.77C74.1324 46.8928 74.1324 48.1459 74.1324 50.652V59.348C74.1324 61.8541 74.1324 63.1072 73.7715 64.23C73.4523 65.2235 72.9293 66.1388 72.2373 66.917C71.4546 67.7965 70.3787 68.4279 68.2263 69.6906L60.9985 73.9311C58.8143 75.2131 57.7223 75.8537 56.5599 76.1044C55.5317 76.3259 54.4683 76.3259 53.44 76.1044C52.2777 75.8537 51.1857 75.2131 49.0015 73.9311L41.7736 69.6906C39.6214 68.4279 38.5453 67.7965 37.7629 66.917C37.0706 66.1388 36.5479 65.2235 36.2284 64.23C35.8673 63.1072 35.8673 61.8541 35.8673 59.348V50.652C35.8673 48.1459 35.8673 46.8928 36.2284 45.77C36.5479 44.7765 37.0706 43.8612 37.7629 43.083C38.5453 42.2035 39.6214 41.5721 41.7736 40.3094L49.0015 36.0687Z" fill="#7380F9"/>
<path d="M49.0015 36.0687C51.1857 34.7872 52.2777 34.1466 53.44 33.8959C54.4683 33.674 55.5317 33.674 56.5599 33.8959C57.7223 34.1466 58.8143 34.7872 60.9985 36.0687L68.2263 40.3094C70.3787 41.5721 71.4546 42.2035 72.2373 43.083C72.9293 43.8612 73.4523 44.7765 73.7715 45.77C74.1324 46.8928 74.1324 48.1459 74.1324 50.652V59.348C74.1324 61.8541 74.1324 63.1071 73.7715 64.23C73.4523 65.2235 72.9293 66.1388 72.2373 66.917C71.4546 67.7965 70.3787 68.4279 68.2263 69.6906L60.9985 73.9311C58.8143 75.2131 57.7223 75.8537 56.5599 76.1044C55.5317 76.3259 54.4683 76.3259 53.44 76.1044C52.2777 75.8537 51.1857 75.2131 49.0015 73.9311L41.7736 69.6906C39.6214 68.4279 38.5453 67.7965 37.7629 66.917C37.0706 66.1388 36.5479 65.2235 36.2284 64.23C35.8673 63.1071 35.8673 61.8541 35.8673 59.348V50.652C35.8673 48.1459 35.8673 46.8928 36.2284 45.77C36.5479 44.7765 37.0706 43.8612 37.7629 43.083C38.5453 42.2035 39.6214 41.5721 41.7736 40.3094L49.0015 36.0687Z" fill="white" fill-opacity="0.25"/>
</svg>
