<svg width="115" height="115" viewBox="0 0 115 115" fill="none" xmlns="http://www.w3.org/2000/svg">
<path fill-rule="evenodd" clip-rule="evenodd" d="M54.1734 2.58979C51.6946 3.11667 49.3631 4.46279 44.7 7.15503L20.3 21.2424C15.6369 23.9346 13.3054 25.2807 11.6097 27.164C10.1093 28.8303 8.97598 30.7933 8.2831 32.9258C7.5 35.3359 7.5 38.0281 7.5 43.4126V71.5873C7.5 76.9718 7.5 79.664 8.2831 82.0742C8.97598 84.2066 10.1093 86.1697 11.6097 87.836C13.3054 89.7192 15.6369 91.0653 20.3 93.7576L44.7 107.845L44.7001 107.845C49.3631 110.537 51.6946 111.883 54.1734 112.41C56.3666 112.876 58.6334 112.876 60.8266 112.41C63.3054 111.883 65.6369 110.537 70.3 107.845L94.7 93.7576C99.3631 91.0653 101.695 89.7192 103.39 87.836C104.891 86.1697 106.024 84.2066 106.717 82.0742C107.5 79.664 107.5 76.9718 107.5 71.5873V43.4126C107.5 38.0281 107.5 35.3359 106.717 32.9258C106.024 30.7933 104.891 28.8303 103.39 27.164C101.695 25.2807 99.3631 23.9346 94.7 21.2424L70.3 7.15503C65.6369 4.46279 63.3054 3.11667 60.8266 2.58979C58.6334 2.1236 56.3666 2.1236 54.1734 2.58979ZM57.5 79.4393C69.6167 79.4393 79.4393 69.6167 79.4393 57.5C79.4393 45.3832 69.6167 35.5607 57.5 35.5607C45.3833 35.5607 35.5607 45.3832 35.5607 57.5C35.5607 69.6167 45.3833 79.4393 57.5 79.4393Z" fill="#A2AAD3"/>
</svg>
