<svg width="115" height="115" viewBox="0 0 115 115" fill="none" xmlns="http://www.w3.org/2000/svg">
<g clip-path="url(#clip0_121_171)">
<path fill-rule="evenodd" clip-rule="evenodd" d="M106.905 54.362C106.407 52.024 105.133 49.8272 102.585 45.4336L90.4323 24.4797C87.9211 20.1503 86.6659 17.9856 84.9174 16.4118C83.3698 15.0192 81.5498 13.9677 79.5736 13.325C77.3415 12.5987 74.8497 12.5987 69.8661 12.5987H45.1338C40.1505 12.5987 37.6588 12.5987 35.426 13.325C33.4503 13.9677 31.6303 15.0192 30.0829 16.4117C28.3341 17.9856 27.0786 20.1503 24.5676 24.4797L12.4149 45.4336C9.86672 49.8272 8.59261 52.0239 8.09418 54.362C7.65318 56.4305 7.65318 58.5696 8.09418 60.6381C8.59261 62.9761 9.86672 65.1728 12.4149 69.5664L24.5676 90.5205C27.0785 94.8497 28.3341 97.0147 30.0829 98.5885C31.6303 99.9812 33.4503 101.033 35.426 101.675C37.6588 102.401 40.1505 102.401 45.1338 102.401H69.8661C74.8497 102.401 77.3415 102.401 79.5736 101.675C81.5498 101.033 83.3698 99.9812 84.9174 98.5885C86.6659 97.0147 87.9211 94.8497 90.4323 90.5205L102.585 69.5664C105.133 65.1728 106.407 62.9761 106.905 60.6381C107.347 58.5696 107.347 56.4305 106.905 54.362ZM55.1599 22.102C53.4165 22.478 51.7784 23.4391 48.5022 25.3613L34.4716 33.5932C31.2433 35.4873 29.6291 36.4343 28.4555 37.7536C27.4171 38.9209 26.633 40.2938 26.1538 41.7842C25.6122 43.4684 25.6122 45.348 25.6122 49.1071V65.8929C25.6122 69.652 25.6122 71.5316 26.1538 73.2162C26.633 74.7062 27.4171 76.0794 28.4555 77.2461C29.6291 78.5655 31.2433 79.5129 34.4716 81.407L48.5022 89.6389C51.7784 91.5607 53.4165 92.5223 55.1599 92.898C56.7024 93.231 58.2974 93.231 59.8399 92.898C61.5833 92.5223 63.2214 91.5607 66.4976 89.6389L80.5282 81.407C83.7567 79.5129 85.3705 78.5655 86.5446 77.2461C87.5826 76.0794 88.3668 74.7062 88.8459 73.2162C89.3876 71.5316 89.3876 69.652 89.3876 65.8929V49.1071C89.3876 45.348 89.3876 43.4684 88.8459 41.7842C88.3668 40.2938 87.5826 38.9209 86.5446 37.7536C85.3705 36.4343 83.7567 35.4873 80.5282 33.5932L66.4976 25.3613C63.2214 23.4391 61.5833 22.478 59.8399 22.102C58.2974 21.7693 56.7024 21.7693 55.1599 22.102Z" fill="#7380F9"/>
<path d="M51.5015 38.5687C53.6857 37.2872 54.7777 36.6466 55.94 36.3959C56.9683 36.174 58.0317 36.174 59.0599 36.3959C60.2223 36.6466 61.3143 37.2872 63.4985 38.5687L70.7263 42.8094C72.8787 44.0721 73.9546 44.7035 74.7373 45.583C75.4293 46.3612 75.9524 47.2765 76.2715 48.27C76.6324 49.3928 76.6324 50.6459 76.6324 53.152V61.848C76.6324 64.3541 76.6324 65.6072 76.2715 66.73C75.9524 67.7235 75.4293 68.6388 74.7373 69.417C73.9546 70.2965 72.8787 70.9279 70.7263 72.1906L63.4985 76.4311C61.3143 77.7131 60.2223 78.3537 59.0599 78.6044C58.0317 78.8259 56.9683 78.8259 55.94 78.6044C54.7777 78.3537 53.6857 77.7131 51.5015 76.4311L44.2736 72.1906C42.1214 70.9279 41.0453 70.2965 40.2629 69.417C39.5706 68.6388 39.0479 67.7235 38.7284 66.73C38.3673 65.6072 38.3673 64.3541 38.3673 61.848V53.152C38.3673 50.6459 38.3673 49.3928 38.7284 48.27C39.0479 47.2765 39.5706 46.3612 40.2629 45.583C41.0453 44.7035 42.1214 44.0721 44.2736 42.8094L51.5015 38.5687Z" fill="#7380F9"/>
<path d="M51.5015 38.5687C53.6857 37.2872 54.7777 36.6466 55.94 36.3959C56.9683 36.174 58.0317 36.174 59.0599 36.3959C60.2223 36.6466 61.3143 37.2872 63.4985 38.5687L70.7263 42.8094C72.8787 44.0721 73.9546 44.7035 74.7373 45.583C75.4293 46.3612 75.9523 47.2765 76.2715 48.27C76.6324 49.3928 76.6324 50.6459 76.6324 53.152V61.848C76.6324 64.3541 76.6324 65.6071 76.2715 66.73C75.9523 67.7235 75.4293 68.6388 74.7373 69.417C73.9546 70.2965 72.8787 70.9279 70.7263 72.1906L63.4985 76.4311C61.3143 77.7131 60.2223 78.3537 59.0599 78.6044C58.0317 78.8259 56.9683 78.8259 55.94 78.6044C54.7777 78.3537 53.6857 77.7131 51.5015 76.4311L44.2736 72.1906C42.1214 70.9279 41.0453 70.2965 40.2629 69.417C39.5706 68.6388 39.0479 67.7235 38.7284 66.73C38.3673 65.6071 38.3673 64.3541 38.3673 61.848V53.152C38.3673 50.6459 38.3673 49.3928 38.7284 48.27C39.0479 47.2765 39.5706 46.3612 40.2629 45.583C41.0453 44.7035 42.1214 44.0721 44.2736 42.8094L51.5015 38.5687Z" fill="white" fill-opacity="0.25"/>
</g>
<defs>
<clipPath id="clip0_121_171">
<rect width="100" height="91" fill="white" transform="translate(7.5 12)"/>
</clipPath>
</defs>
</svg>
