<svg width="115" height="115" viewBox="0 0 115 115" fill="none" xmlns="http://www.w3.org/2000/svg">
<path d="M68.0114 7.98077C68.8636 8.14102 69.6922 8.36138 70.4972 8.64183C71.3021 8.92227 72.1307 9.30289 72.983 9.78366L73.9773 10.2644C74.4508 10.5849 75.0189 10.9856 75.6818 11.4663C76.3447 11.9471 77.1496 12.5881 78.0966 13.3894L99.5455 31.5385C101.155 32.9006 102.315 33.9423 103.026 34.6635C103.736 35.3846 104.328 36.0657 104.801 36.7067C105.369 37.4279 105.819 38.129 106.151 38.8101C106.482 39.4912 106.742 40.1923 106.932 40.9135L107.216 41.9952C107.311 42.5561 107.382 43.2772 107.429 44.1587C107.476 45.0401 107.5 46.242 107.5 47.7644V82.8606C107.5 87.1074 107.24 90.2524 106.719 92.2957C106.198 94.3389 105.464 96.1218 104.517 97.6442C103.475 99.2468 102.244 100.649 100.824 101.851C99.4034 103.053 97.7936 104.054 95.9943 104.856L95.8523 104.976C94.053 105.777 91.946 106.398 89.5312 106.839C87.1165 107.28 83.3996 107.5 78.3807 107.5H36.6193C31.6004 107.5 27.8835 107.28 25.4687 106.839C23.054 106.398 20.947 105.777 19.1477 104.976C17.2538 104.095 15.5966 103.053 14.1761 101.851C12.7557 100.649 11.572 99.2869 10.625 97.7644L10.483 97.6442C9.63068 96.2019 8.94413 94.5593 8.4233 92.7163C7.90246 90.8734 7.5947 88.149 7.5 84.5433V30.8173C7.5 27.3718 7.76042 24.6474 8.28125 22.6442C8.80208 20.641 9.53598 18.8782 10.483 17.3558C11.5246 15.7532 12.7557 14.351 14.1761 13.149C15.5966 11.9471 17.2538 10.9054 19.1477 10.024C20.947 9.22275 23.0303 8.60176 25.3977 8.16106C27.7652 7.72035 30.9848 7.5 35.0568 7.5H59.9148C62.1875 7.5 63.8684 7.54006 64.9574 7.62019C66.0464 7.70032 67.0644 7.82051 68.0114 7.98077ZM82.5 76.7308H32.5C30.6061 76.7308 28.9962 77.2917 27.6705 78.4135C26.3447 79.5353 25.6818 80.8974 25.6818 82.5C25.6818 84.1026 26.3447 85.4647 27.6705 86.5865C28.9962 87.7083 30.6061 88.2692 32.5 88.2692H82.5C84.3939 88.2692 86.0038 87.7083 87.3295 86.5865C88.6553 85.4647 89.3182 84.1026 89.3182 82.5C89.3182 80.8974 88.6553 79.5353 87.3295 78.4135C86.0038 77.2917 84.3939 76.7308 82.5 76.7308ZM82.5 53.6538H32.5C30.6061 53.6538 28.9962 54.2147 27.6705 55.3365C26.3447 56.4583 25.6818 57.8205 25.6818 59.4231C25.6818 61.0256 26.3447 62.3878 27.6705 63.5096C28.9962 64.6314 30.6061 65.1923 32.5 65.1923H82.5C84.3939 65.1923 86.0038 64.6314 87.3295 63.5096C88.6553 62.3878 89.3182 61.0256 89.3182 59.4231C89.3182 57.8205 88.6553 56.4583 87.3295 55.3365C86.0038 54.2147 84.3939 53.6538 82.5 53.6538Z" fill="#A2AAD3"/>
</svg>
