<svg width="115" height="115" viewBox="0 0 115 115" fill="none" xmlns="http://www.w3.org/2000/svg">
<path d="M24.5213 40.4167H90.4787C95.1596 40.4167 99.1667 42.0894 102.5 45.4349C105.833 48.7804 107.5 52.8021 107.5 57.5C107.5 58.2118 107.465 58.9058 107.394 59.582C107.323 60.2582 107.216 60.9167 107.074 61.5573V61.4505L102.5 80.9896C101.72 84.2639 101.011 86.6306 100.372 88.0898C99.734 89.549 99.0248 90.8125 98.2447 91.8802C97.3936 92.9479 96.4539 93.9089 95.4255 94.763C94.3972 95.6172 93.2801 96.2934 92.0745 96.7917L91.9681 96.8984C90.6915 97.3967 89.2908 97.7882 87.766 98.0729C86.2411 98.3576 83.8121 98.5 80.4787 98.5H31.7553C29.4858 98.4288 27.7305 98.2509 26.4894 97.9661C25.2482 97.6814 24.0957 97.3255 23.0319 96.8984C21.7553 96.329 20.6028 95.6172 19.5745 94.763C18.5461 93.9089 17.6418 92.9835 16.8617 91.987L16.7553 91.8802C16.0461 90.8837 15.3901 89.727 14.7872 88.4102C14.1844 87.0933 13.5638 85.1181 12.9255 82.4844L7.92553 61.4505C7.78369 60.8099 7.6773 60.1693 7.60638 59.5286C7.53546 58.888 7.5 58.2118 7.5 57.5C7.5 53.0156 9.00709 49.1363 12.0213 45.862C15.0355 42.5877 18.7411 40.7726 23.1383 40.4167H23.2447H24.5213ZM38.1383 16.5H75.6915C76.9681 16.5 78.0851 16.5356 79.0426 16.6068C80 16.6779 80.9043 16.8203 81.7553 17.0339C82.6064 17.2474 83.422 17.5143 84.2021 17.8346C84.9823 18.1549 85.727 18.5286 86.4362 18.9557C87.0745 19.3828 87.695 19.8277 88.2979 20.2904C88.9007 20.753 89.5567 21.3403 90.266 22.0521L92.5 24.2943C92.8546 24.6502 93.1206 25.0239 93.2979 25.4154C93.4752 25.8069 93.5638 26.2517 93.5638 26.75C93.5638 27.6753 93.227 28.4761 92.5532 29.1523C91.8794 29.8286 91.0816 30.1667 90.1596 30.1667H24.8404C23.9184 30.1667 23.1206 29.8286 22.4468 29.1523C21.7731 28.4761 21.4362 27.6753 21.4362 26.75C21.4362 26.2517 21.5248 25.8069 21.7021 25.4154C21.8794 25.0239 22.1454 24.6502 22.5 24.2943L23.883 22.9062C24.805 21.9809 25.6383 21.2157 26.383 20.6107C27.1277 20.0056 27.8546 19.454 28.5638 18.9557C29.2731 18.5286 30.0177 18.1549 30.7979 17.8346C31.578 17.5143 32.3936 17.2474 33.2447 17.0339C33.9539 16.8915 34.6986 16.7669 35.4787 16.6602C36.2589 16.5534 37.1454 16.5 38.1383 16.5Z" fill="#A2AAD3"/>
</svg>
