<svg width="115" height="115" viewBox="0 0 115 115" fill="none" xmlns="http://www.w3.org/2000/svg">
<path d="M7.5 79.112V37.4557C7.5 33.4991 7.70461 30.569 8.11384 28.6654C8.52307 26.7617 9.0997 25.1007 9.84375 23.6823C10.6622 22.1892 11.6295 20.8828 12.7455 19.763C13.8616 18.6432 15.1637 17.6727 16.6518 16.8516C17.9911 16.1797 19.5164 15.6385 21.2277 15.2279C22.939 14.8173 25.4688 14.5747 28.817 14.5H36.0714C36.9643 14.5 37.8013 14.5373 38.5826 14.612C39.3638 14.6866 40.0893 14.7986 40.7589 14.9479C41.4286 15.0972 42.0796 15.3025 42.7121 15.5638C43.3445 15.8251 43.9583 16.1424 44.5536 16.5156C45.1488 16.8889 45.7626 17.3368 46.3951 17.8594C47.0275 18.3819 47.6414 18.9418 48.2366 19.5391L57.5 28.8333H84.6205C88.564 28.8333 91.4844 29.0386 93.3817 29.4492C95.279 29.8598 96.9345 30.4384 98.3482 31.1849C99.8363 32.0061 101.138 32.9766 102.254 34.0964C103.371 35.2161 104.338 36.5226 105.156 38.0156C105.9 39.434 106.477 41.0951 106.886 42.9987C107.295 44.9023 107.5 47.8325 107.5 51.7891V77.5443C107.5 81.5009 107.295 84.431 106.886 86.3346C106.477 88.2383 105.9 89.8993 105.156 91.3177C104.338 92.8108 103.371 94.1172 102.254 95.237C101.138 96.3568 99.8735 97.2899 98.4598 98.0365L98.3482 98.1484C96.9345 98.895 95.279 99.4735 93.3817 99.8841C91.4844 100.295 88.564 100.5 84.6205 100.5H30.3795C26.436 100.5 23.5156 100.295 21.6183 99.8841C19.721 99.4735 18.0655 98.895 16.6518 98.1484C15.1637 97.3273 13.8616 96.3568 12.7455 95.237C11.6295 94.1172 10.6994 92.8481 9.95536 91.4297L9.84375 91.3177C9.17411 89.974 8.63467 88.4436 8.22545 86.7266C7.81622 85.0095 7.5744 82.4714 7.5 79.112Z" fill="#A2AAD3"/>
</svg>
