<svg width="115" height="115" viewBox="0 0 115 115" fill="none" xmlns="http://www.w3.org/2000/svg">
<path fill-rule="evenodd" clip-rule="evenodd" d="M8.24196 62.1849C9.3667 65.6464 12.3686 68.6483 18.3723 74.6516L40.3482 96.628C46.3519 102.631 49.3538 105.633 52.8153 106.758C55.8601 107.747 59.14 107.747 62.1848 106.758C65.6464 105.633 68.6483 102.631 74.6516 96.628L96.628 74.6516C102.631 68.6483 105.633 65.6464 106.758 62.1849C107.747 59.14 107.747 55.8602 106.758 52.8153C105.633 49.3538 102.631 46.3519 96.628 40.3482L74.6516 18.3723C68.6483 12.3686 65.6464 9.36669 62.1848 8.24202C59.14 7.25266 55.8601 7.25266 52.8153 8.24202C50.3267 9.05052 48.0758 10.8293 44.7763 13.996L84.2602 53.4801C86.4805 55.7003 86.4805 59.2999 84.2602 61.52C82.04 63.7403 78.441 63.7403 76.2207 61.52L61.2901 46.5897V80.2405C61.2901 83.3802 58.7448 85.9256 55.605 85.9256C52.4653 85.9256 49.9199 83.3802 49.9199 80.2405V35.2194L36.7105 22.01L18.3723 40.3482C12.3686 46.3519 9.3667 49.3538 8.24196 52.8153C7.25268 55.8602 7.25268 59.14 8.24196 62.1849Z" fill="#F17F66"/>
</svg>
