<svg width="115" height="115" viewBox="0 0 115 115" fill="none" xmlns="http://www.w3.org/2000/svg">
<rect x="8.5" y="7.5" width="98" height="100" rx="16" fill="#D6C436"/>
<path d="M49.505 52.2273H60.0135V79.1506C60.0007 81.7074 59.3551 83.9574 58.0767 85.9006C56.8111 87.831 55.0597 89.3395 52.8224 90.4261C50.598 91.5 48.0348 92.0369 45.1328 92.0369C42.6143 92.0369 40.3132 91.6023 38.2294 90.733C36.1456 89.8509 34.4837 88.4702 33.2436 86.5909C32.0036 84.6989 31.3899 82.2443 31.4027 79.2273H42.0646C42.103 80.2116 42.2692 81.0426 42.5632 81.7202C42.87 82.3977 43.2919 82.9091 43.8288 83.2543C44.3786 83.5866 45.0433 83.7528 45.8232 83.7528C46.6158 83.7528 47.2805 83.5803 47.8175 83.2351C48.3672 82.8899 48.7827 82.3786 49.0639 81.701C49.3452 81.0107 49.4922 80.1605 49.505 79.1506V52.2273ZM86.2369 64.5C86.1346 63.2216 85.6552 62.2244 84.7987 61.5085C83.9549 60.7926 82.6701 60.4347 80.9442 60.4347C79.8448 60.4347 78.9435 60.5689 78.2404 60.8374C77.5501 61.093 77.0387 61.4446 76.7063 61.892C76.3739 62.3395 76.2013 62.8509 76.1886 63.4261C76.163 63.8991 76.2461 64.3274 76.4379 64.7109C76.6424 65.0817 76.962 65.4205 77.3967 65.7273C77.8313 66.0213 78.3874 66.2898 79.065 66.5327C79.7425 66.7756 80.5479 66.9929 81.4812 67.1847L84.7028 67.875C86.8761 68.3352 88.7362 68.9425 90.283 69.6967C91.8299 70.451 93.0955 71.3395 94.0799 72.3622C95.0643 73.3722 95.7866 74.5099 96.2468 75.7756C96.7198 77.0412 96.9627 78.4219 96.9755 79.9176C96.9627 82.5 96.3171 84.6861 95.0387 86.4759C93.7603 88.2656 91.9322 89.6271 89.5543 90.5604C87.1893 91.4936 84.3448 91.9602 81.021 91.9602C77.6076 91.9602 74.6289 91.4553 72.0849 90.4453C69.5536 89.4354 67.5849 87.8821 66.1786 85.7855C64.7852 83.6761 64.082 80.9787 64.0692 77.6932H74.1942C74.2582 78.8949 74.5586 79.9048 75.0955 80.723C75.6325 81.5412 76.3867 82.1612 77.3583 82.5831C78.3427 83.005 79.5124 83.2159 80.8675 83.2159C82.0053 83.2159 82.9577 83.0753 83.7248 82.794C84.4918 82.5128 85.0735 82.1229 85.4698 81.6243C85.8661 81.1257 86.0707 80.5568 86.0835 79.9176C86.0707 79.3168 85.8725 78.7926 85.489 78.3452C85.1183 77.8849 84.5046 77.4759 83.6481 77.1179C82.7915 76.7472 81.6346 76.402 80.1772 76.0824L76.2653 75.2386C72.788 74.4844 70.0458 73.2251 68.0387 71.4609C66.0444 69.6839 65.0536 67.2614 65.0664 64.1932C65.0536 61.7003 65.7184 59.5206 67.0607 57.6541C68.4158 55.7749 70.2887 54.3111 72.6793 53.2628C75.0827 52.2145 77.8377 51.6903 80.9442 51.6903C84.1147 51.6903 86.8569 52.2209 89.1708 53.282C91.4847 54.343 93.2681 55.8388 94.521 57.7692C95.7866 59.6868 96.4258 61.9304 96.4386 64.5H86.2369Z" fill="#1A1B26"/>
</svg>
