<svg width="115" height="115" viewBox="0 0 115 115" fill="none" xmlns="http://www.w3.org/2000/svg">
<path d="M68.0114 2.03847C68.8636 2.21795 69.6922 2.46474 70.4972 2.77885C71.3021 3.09296 72.1307 3.51923 72.983 4.0577L73.9773 4.59616C74.4508 4.95514 75.0189 5.40385 75.6818 5.94231C76.3447 6.48077 77.1496 7.19872 78.0966 8.09616L99.5455 28.4231C101.155 29.9487 102.315 31.1154 103.026 31.9231C103.736 32.7308 104.328 33.4936 104.801 34.2115C105.369 35.0192 105.819 35.8045 106.151 36.5673C106.482 37.3301 106.742 38.1154 106.932 38.9231L107.216 40.1346C107.311 40.7628 107.382 41.5705 107.429 42.5577C107.476 43.5449 107.5 44.891 107.5 46.5962V85.9038C107.5 90.6603 107.24 94.1827 106.719 96.4712C106.198 98.7596 105.464 100.756 104.517 102.462C103.475 104.256 102.244 105.827 100.824 107.173C99.4034 108.519 97.7936 109.641 95.9943 110.538L95.8523 110.673C94.053 111.571 91.946 112.266 89.5312 112.76C87.1165 113.253 83.3996 113.5 78.3807 113.5H36.6193C31.6004 113.5 27.8835 113.253 25.4688 112.76C23.054 112.266 20.947 111.571 19.1477 110.673C17.2538 109.686 15.5966 108.519 14.1761 107.173C12.7557 105.827 11.572 104.301 10.625 102.596L10.483 102.462C9.63068 100.846 8.94413 99.0064 8.4233 96.9423C7.90246 94.8782 7.5947 91.8269 7.5 87.7885V27.6154C7.5 23.7564 7.76042 20.7051 8.28125 18.4615C8.80208 16.2179 9.53598 14.2436 10.483 12.5385C11.5246 10.7436 12.7557 9.17308 14.1761 7.82693C15.5966 6.48077 17.2538 5.3141 19.1477 4.32693C20.947 3.42949 23.0303 2.73398 25.3977 2.24039C27.7652 1.7468 30.9848 1.5 35.0568 1.5H59.9148C62.1875 1.5 63.8684 1.54487 64.9574 1.63461C66.0464 1.72436 67.0644 1.85898 68.0114 2.03847ZM82.5 79.0385H32.5C30.6061 79.0385 28.9962 79.6667 27.6705 80.9231C26.3447 82.1795 25.6818 83.7051 25.6818 85.5C25.6818 87.2949 26.3447 88.8205 27.6705 90.0769C28.9962 91.3333 30.6061 91.9615 32.5 91.9615H82.5C84.3939 91.9615 86.0038 91.3333 87.3295 90.0769C88.6553 88.8205 89.3182 87.2949 89.3182 85.5C89.3182 83.7051 88.6553 82.1795 87.3295 80.9231C86.0038 79.6667 84.3939 79.0385 82.5 79.0385ZM82.5 53.1923H32.5C30.6061 53.1923 28.9962 53.8205 27.6705 55.0769C26.3447 56.3333 25.6818 57.859 25.6818 59.6539C25.6818 61.4487 26.3447 62.9744 27.6705 64.2308C28.9962 65.4872 30.6061 66.1154 32.5 66.1154H82.5C84.3939 66.1154 86.0038 65.4872 87.3295 64.2308C88.6553 62.9744 89.3182 61.4487 89.3182 59.6539C89.3182 57.859 88.6553 56.3333 87.3295 55.0769C86.0038 53.8205 84.3939 53.1923 82.5 53.1923Z" fill="#A2AAD3"/>
</svg>
