<svg width="115" height="115" viewBox="0 0 115 115" fill="none" xmlns="http://www.w3.org/2000/svg">
<rect x="7.5" y="8" width="100" height="100" rx="24" fill="#7380F9"/>
<path d="M31.6648 57.7368C30.7141 57.7368 29.8874 57.3854 29.1848 56.6828C28.4821 55.9801 28.1308 55.1534 28.1308 54.2028V52.5288C28.1308 51.5781 28.4821 50.7514 29.1848 50.0488C29.8874 49.3461 30.7141 48.9948 31.6648 48.9948H59.3168C60.2674 48.9948 61.0941 49.3461 61.7968 50.0488C62.4994 50.7514 62.8508 51.5781 62.8508 52.5288V54.2028C62.8508 55.1534 62.4994 55.9801 61.7968 56.6828C61.0941 57.3854 60.2674 57.7368 59.3168 57.7368H51.3808C51.0501 57.7368 50.8848 57.9021 50.8848 58.2328V90.7208C50.8848 91.6714 50.5334 92.4981 49.8308 93.2008C49.1281 93.9034 48.3014 94.2548 47.3508 94.2548H43.6308C42.6801 94.2548 41.8534 93.9034 41.1508 93.2008C40.4481 92.4981 40.0968 91.6714 40.0968 90.7208V58.2328C40.0968 57.9021 39.9314 57.7368 39.6008 57.7368H31.6648ZM82.3633 76.1508C77.1553 74.4974 73.394 72.4514 71.0793 70.0128C68.7646 67.5328 67.6073 64.5154 67.6073 60.9608C67.6073 57.0754 68.9506 54.0168 71.6373 51.7848C74.3653 49.5114 78.2506 48.3748 83.2933 48.3748C87.096 48.3748 90.5473 48.8088 93.6473 49.6768C94.6393 49.9661 95.4246 50.5654 96.0033 51.4748C96.6233 52.3428 96.9333 53.3141 96.9333 54.3888V56.1868C96.9333 57.0134 96.582 57.6541 95.8793 58.1088C95.1766 58.5634 94.4326 58.6461 93.6473 58.3568C90.134 57.1168 86.8893 56.4968 83.9133 56.4968C80.1106 56.4968 78.2093 57.9848 78.2093 60.9608C78.2093 63.4821 79.8626 65.2801 83.1693 66.3548C88.8733 68.0908 92.8206 70.1161 95.0113 72.4308C97.2433 74.7454 98.3593 77.7834 98.3593 81.5448C98.3593 90.4314 92.7586 94.8748 81.5573 94.8748C78.0026 94.8748 74.7786 94.3168 71.8853 93.2008C70.8933 92.8288 70.108 92.1881 69.5293 91.2788C68.992 90.3281 68.7233 89.2948 68.7233 88.1788V86.1948C68.7233 85.4508 69.054 84.8928 69.7153 84.5208C70.3766 84.1074 71.038 84.0661 71.6993 84.3968C74.7166 85.8848 77.796 86.6288 80.9373 86.6288C83.128 86.6288 84.7813 86.2154 85.8973 85.3888C87.0546 84.5208 87.6333 83.3014 87.6333 81.7308C87.6333 80.3668 87.2406 79.2508 86.4553 78.3828C85.67 77.5148 84.306 76.7708 82.3633 76.1508Z" fill="black"/>
</svg>
