<svg width="115" height="115" viewBox="0 0 115 115" fill="none" xmlns="http://www.w3.org/2000/svg">
<g clip-path="url(#clip0_121_155)">
<path fill-rule="evenodd" clip-rule="evenodd" d="M65.4159 37.8575L62.0945 39.0914H65.2629L65.4159 37.8575ZM52.9055 39.0914L45.651 36.3962V39.0914H52.9055ZM89.9614 28.7384C93.7944 32.4662 95.0253 38.684 91.7347 43.8457L67.7359 81.4909C62.2546 90.0891 49.0365 86.1747 49.0365 75.9529V56.1607H43.9583C35.5446 56.1607 28.724 49.2827 28.724 40.7983V30.1075L22.0411 27.6247C12.8551 24.212 4.66974 34.59 10.0347 42.8475L49.0047 102.828C53.0147 109 61.9853 109 65.9953 102.828L104.966 42.8475C110.33 34.59 102.145 24.212 92.9589 27.6247L89.9614 28.7384ZM65.9635 47.626V42.5052H72.4662L65.9635 52.7058V47.626Z" fill="#7380F9"/>
<path d="M68.8544 8.16522L42.8452 12.5365C39.5804 13.0852 37.1875 15.9337 37.1875 19.2714V40.7983C37.1875 44.5691 40.2189 47.626 43.9583 47.626H57.5V75.9529C57.5 77.6565 59.703 78.3092 60.6165 76.876L84.6158 39.2305C86.0641 36.9585 84.4466 33.9706 81.768 33.9706H74.4271L76.6858 15.747C77.2478 11.2141 73.3228 7.41423 68.8544 8.16522Z" fill="#F5AA52"/>
</g>
<defs>
<clipPath id="clip0_121_155">
<rect width="100" height="100" fill="white" transform="translate(7.5 7.5)"/>
</clipPath>
</defs>
</svg>
