<svg width="135" height="130" viewBox="0 0 135 130" fill="none" xmlns="http://www.w3.org/2000/svg">
<path fill-rule="evenodd" clip-rule="evenodd" d="M73.6734 13.8248C71.1946 14.3517 68.8631 15.6978 64.2 18.3901L39.5705 32.6099C34.9074 35.3022 32.5759 36.6483 30.8802 38.5315C29.3799 40.1978 28.2465 42.1608 27.5536 44.2933C26.7705 46.7034 26.7705 49.3957 26.7705 54.7802V83.2198C26.7705 88.6043 26.7705 91.2965 27.5536 93.7067C28.2465 95.8391 29.3799 97.8022 30.8802 99.4685C32.5759 101.352 34.9074 102.698 39.5704 105.39L39.5705 105.39L64.2 119.61L64.2001 119.61C68.8631 122.302 71.1946 123.648 73.6734 124.175C75.8666 124.641 78.1334 124.641 80.3266 124.175C82.8054 123.648 85.1369 122.302 89.8 119.61L114.429 105.39L114.43 105.39C119.093 102.698 121.424 101.352 123.12 99.4685C124.62 97.8022 125.753 95.8391 126.446 93.7067C127.229 91.2965 127.229 88.6043 127.229 83.2198V54.7802C127.229 49.3957 127.229 46.7034 126.446 44.2933C125.753 42.1608 124.62 40.1978 123.12 38.5315C121.424 36.6483 119.093 35.3021 114.429 32.6099L89.8 18.3901C85.1369 15.6978 82.8054 14.3517 80.3266 13.8248C78.1334 13.3587 75.8666 13.3587 73.6734 13.8248ZM77 91.04C89.1724 91.04 99.04 81.1724 99.04 69C99.04 56.8276 89.1724 46.96 77 46.96C64.8276 46.96 54.96 56.8276 54.96 69C54.96 81.1724 64.8276 91.04 77 91.04Z" fill="#A2AAD3"/>
</svg>
