<svg width="130" height="130" viewBox="0 0 130 130" fill="none" xmlns="http://www.w3.org/2000/svg">
<path fill-rule="evenodd" clip-rule="evenodd" d="M30.2253 29.1477C28 33.515 28 39.2323 28 50.6667V83.3333C28 94.7675 28 100.485 30.2253 104.853C32.1827 108.694 35.3061 111.817 39.1477 113.775C43.515 116 49.2323 116 60.6667 116H93.3333C104.767 116 110.485 116 114.853 113.775C118.694 111.817 121.817 108.694 123.775 104.853C126 100.485 126 94.7675 126 83.3333V50.6667C126 39.2323 126 33.515 123.775 29.1477C121.817 25.3061 118.694 22.1827 114.853 20.2253C110.485 18 104.767 18 93.3333 18H60.6667C49.2323 18 43.515 18 39.1477 20.2253C35.3061 22.1827 32.1827 25.3061 30.2253 29.1477ZM57.4 99.6667H70.4667C72.7536 99.6667 73.897 99.6667 74.7705 99.2216C75.5388 98.8304 76.1635 98.2057 76.5549 97.4372C77 96.5633 77 95.42 77 93.1333V57.2C77 54.9131 77 53.7697 77.4451 52.8962C77.8365 52.1278 78.4612 51.5032 79.2295 51.1118C80.103 50.6667 81.2464 50.6667 83.5333 50.6667H86.8C89.0869 50.6667 90.2303 50.6667 91.1038 51.1118C91.8722 51.5032 92.4968 52.1278 92.8883 52.8962C93.3333 53.7697 93.3333 54.9131 93.3333 57.2V94.222C93.3333 95.4878 93.3333 96.1207 93.4722 96.6401C93.8503 98.0497 94.9503 99.1497 96.3599 99.5278C96.8793 99.6667 97.5122 99.6667 98.7781 99.6667C101.31 99.6667 102.576 99.6667 103.614 99.3882C106.432 98.6336 108.634 96.4318 109.388 93.6135C109.667 92.5755 109.667 91.3097 109.667 88.7781V47.4C109.667 42.8263 109.667 40.5393 108.777 38.7924C107.993 37.2558 106.745 36.0064 105.208 35.2234C103.461 34.3333 101.174 34.3333 96.6 34.3333H57.4C52.8263 34.3333 50.5393 34.3333 48.7924 35.2234C47.2558 36.0064 46.0064 37.2558 45.2234 38.7924C44.3333 40.5393 44.3333 42.8263 44.3333 47.4V86.6C44.3333 91.1741 44.3333 93.4608 45.2234 95.2077C46.0064 96.7446 47.2558 97.9933 48.7924 98.7765C50.5393 99.6667 52.8263 99.6667 57.4 99.6667Z" fill="#F1667F"/>
</svg>
