<svg width="130" height="130" viewBox="0 0 130 130" fill="none" xmlns="http://www.w3.org/2000/svg">
<path fill-rule="evenodd" clip-rule="evenodd" d="M99.0095 29.7573C96.7693 29.7573 95.6492 29.7573 94.7935 30.1933C94.0409 30.5768 93.4289 31.1887 93.0454 31.9413C92.6095 32.797 92.6095 33.9171 92.6095 36.1573V44.9905C92.6095 47.2307 92.6095 48.3508 93.0454 49.2065C93.4289 49.9591 94.0409 50.571 94.7935 50.9545C95.6492 51.3905 96.7693 51.3905 99.0095 51.3905H107.843C110.083 51.3905 111.203 51.3905 112.059 50.9545C112.811 50.571 113.423 49.9591 113.807 49.2065C114.243 48.3508 114.243 47.2307 114.243 44.9905V36.1573C114.243 33.9171 114.243 32.797 113.807 31.9413C113.423 31.1887 112.811 30.5768 112.059 30.1933C111.203 29.7573 110.083 29.7573 107.843 29.7573H99.0095ZM83.7741 20.9219C85.8004 18.8956 88.5486 17.7573 91.4142 17.7573H115.438C118.304 17.7573 121.052 18.8956 123.078 20.9219C125.104 22.9482 126.243 25.6965 126.243 28.562V52.5858C126.243 55.4514 125.104 58.1996 123.078 60.2259C121.052 62.2522 118.304 63.3905 115.438 63.3905H91.4142C88.5486 63.3905 85.8004 62.2522 83.7741 60.2259C81.7478 58.1996 80.6095 55.4514 80.6095 52.5858V28.562C80.6095 25.6964 81.7478 22.9482 83.7741 20.9219ZM43.3668 48.9763C42.4095 48.9763 41.4914 49.3566 40.8145 50.0335C40.1375 50.7104 39.7573 51.6285 39.7573 52.5858V64.2095C39.7573 66.4497 39.7573 67.5698 40.1932 68.4255C40.5767 69.1781 41.1887 69.79 41.9413 70.1735C42.7969 70.6095 43.9171 70.6095 46.1573 70.6095H54.9905C57.2307 70.6095 58.3508 70.6095 59.2064 70.1735C59.9591 69.79 60.571 69.1781 60.9545 68.4255C61.3905 67.5698 61.3905 66.4497 61.3905 64.2095V52.5858C61.3905 51.6285 61.0102 50.7104 60.3333 50.0335C59.6564 49.3566 58.7383 48.9763 57.781 48.9763H43.3668ZM79.7905 70.6095C77.5503 70.6095 76.4302 70.6095 75.5745 70.1735C74.8219 69.79 74.21 69.1781 73.8265 68.4255C73.3905 67.5698 73.3905 66.4497 73.3905 64.2095V52.5858C73.3905 48.4459 71.7459 44.4755 68.8186 41.5482C65.8912 38.6208 61.9209 36.9763 57.781 36.9763H43.3668C39.2269 36.9763 35.2565 38.6208 32.3292 41.5482C29.4018 44.4755 27.7573 48.4459 27.7573 52.5858V100.633C27.7573 104.773 29.4018 108.743 32.3292 111.671C35.2565 114.598 39.2269 116.243 43.3668 116.243H91.4142C95.5541 116.243 99.5244 114.598 102.452 111.671C105.379 108.743 107.024 104.773 107.024 100.633V86.219C107.024 82.0791 105.379 78.1088 102.452 75.1814C99.5244 72.2541 95.5541 70.6095 91.4142 70.6095H79.7905ZM61.3905 89.0095C61.3905 86.7693 61.3905 85.6492 60.9545 84.7935C60.571 84.0409 59.9591 83.429 59.2064 83.0455C58.3508 82.6095 57.2307 82.6095 54.9905 82.6095H46.1573C43.9171 82.6095 42.7969 82.6095 41.9413 83.0455C41.1887 83.429 40.5767 84.0409 40.1932 84.7935C39.7573 85.6492 39.7573 86.7693 39.7573 89.0095V100.633C39.7573 101.591 40.1375 102.509 40.8145 103.186C41.4914 103.862 42.4095 104.243 43.3668 104.243H54.9905C57.2307 104.243 58.3508 104.243 59.2064 103.807C59.9591 103.423 60.571 102.811 60.9545 102.059C61.3905 101.203 61.3905 100.083 61.3905 97.8427V89.0095ZM79.7905 104.243C77.5503 104.243 76.4302 104.243 75.5745 103.807C74.8219 103.423 74.21 102.811 73.8265 102.059C73.3905 101.203 73.3905 100.083 73.3905 97.8427V89.0095C73.3905 86.7693 73.3905 85.6492 73.8265 84.7935C74.21 84.0409 74.8219 83.429 75.5745 83.0455C76.4302 82.6095 77.5503 82.6095 79.7905 82.6095H91.4142C92.3715 82.6095 93.2896 82.9898 93.9665 83.6667C94.6434 84.3436 95.0237 85.2617 95.0237 86.219V100.633C95.0237 101.591 94.6434 102.509 93.9665 103.186C93.2896 103.862 92.3715 104.243 91.4142 104.243H79.7905Z" fill="#F1667F"/>
</svg>
