<svg width="130" height="130" viewBox="0 0 130 130" fill="none" xmlns="http://www.w3.org/2000/svg">
<g clip-path="url(#clip0_46_123)">
<path fill-rule="evenodd" clip-rule="evenodd" d="M127.376 63.6896C126.852 61.2231 125.515 58.9056 122.839 54.2706L110.079 32.1653C107.442 27.5982 106.124 25.3144 104.288 23.6542C102.663 22.1851 100.752 21.0758 98.6773 20.3978C96.3336 19.6316 93.7172 19.6316 88.4844 19.6316H62.5155C57.283 19.6316 54.6668 19.6316 52.3223 20.3978C50.2479 21.0758 48.3369 22.1851 46.712 23.6541C44.8758 25.3144 43.5576 27.5981 40.921 32.1653L28.1606 54.2706C25.4851 58.9056 24.1473 61.223 23.6239 63.6896C23.1608 65.8717 23.1608 68.1283 23.6239 70.3105C24.1473 72.777 25.4851 75.0944 28.1606 79.7294L40.921 101.835C43.5575 106.402 44.8758 108.686 46.712 110.346C48.3369 111.815 50.2479 112.924 52.3223 113.602C54.6668 114.368 57.283 114.368 62.5155 114.368H88.4844C93.7172 114.368 96.3336 114.368 98.6773 113.602C100.752 112.924 102.663 111.815 104.288 110.346C106.124 108.686 107.442 106.402 110.079 101.835L122.839 79.7294C125.515 75.0944 126.852 72.777 127.376 70.3105C127.839 68.1283 127.839 65.8717 127.376 63.6896ZM73.043 29.657C71.2123 30.0537 69.4923 31.0676 66.0523 33.0954L51.3202 41.7796C47.9305 43.7778 46.2355 44.7769 45.0033 46.1686C43.913 47.4001 43.0897 48.8484 42.5865 50.4207C42.0178 52.1974 42.0178 54.1803 42.0178 58.146V75.854C42.0178 79.8197 42.0178 81.8026 42.5865 83.5797C43.0897 85.1516 43.913 86.6003 45.0033 87.8311C46.2355 89.2229 47.9305 90.2224 51.3202 92.2205L66.0523 100.905C69.4923 102.932 71.2123 103.947 73.043 104.343C74.6626 104.694 76.3373 104.694 77.9569 104.343C79.7875 103.947 81.5075 102.932 84.9475 100.905L99.6797 92.2205C103.07 90.2224 104.764 89.2229 105.997 87.8311C107.087 86.6003 107.91 85.1516 108.413 83.5797C108.982 81.8026 108.982 79.8197 108.982 75.854V58.146C108.982 54.1803 108.982 52.1974 108.413 50.4207C107.91 48.8484 107.087 47.4001 105.997 46.1686C104.764 44.7769 103.07 43.7778 99.6797 41.7796L84.9475 33.0954C81.5075 31.0677 79.7875 30.0537 77.9569 29.657C76.3373 29.3061 74.6626 29.3061 73.043 29.657Z" fill="#7380F9"/>
<path d="M69.2016 47.0285C71.4949 45.6766 72.6416 45.0008 73.862 44.7363C74.9417 44.5023 76.0582 44.5023 77.1379 44.7363C78.3584 45.0008 79.505 45.6766 81.7984 47.0285L89.3876 51.5022C91.6476 52.8343 92.7773 53.5004 93.5992 54.4282C94.3257 55.2492 94.8749 56.2148 95.2101 57.2629C95.589 58.4474 95.589 59.7693 95.589 62.4131V71.5869C95.589 74.2307 95.589 75.5526 95.2101 76.7371C94.8749 77.7852 94.3257 78.7508 93.5992 79.5718C92.7773 80.4996 91.6476 81.1657 89.3876 82.4978L81.7984 86.9713C79.505 88.3237 78.3584 88.9995 77.1379 89.2639C76.0582 89.4976 74.9417 89.4976 73.862 89.2639C72.6416 88.9995 71.4949 88.3237 69.2016 86.9713L61.6123 82.4978C59.3524 81.1657 58.2225 80.4996 57.401 79.5718C56.6741 78.7508 56.1253 77.7852 55.7898 76.7371C55.4106 75.5526 55.4106 74.2307 55.4106 71.5869V62.4131C55.4106 59.7693 55.4106 58.4474 55.7898 57.2629C56.1253 56.2148 56.6741 55.2492 57.401 54.4282C58.2225 53.5004 59.3524 52.8343 61.6123 51.5022L69.2016 47.0285Z" fill="#7380F9"/>
<path d="M69.2016 47.0285C71.4949 45.6766 72.6416 45.0008 73.862 44.7363C74.9417 44.5023 76.0582 44.5023 77.1379 44.7363C78.3584 45.0008 79.505 45.6766 81.7984 47.0285L89.3876 51.5022C91.6476 52.8343 92.7773 53.5004 93.5992 54.4282C94.3257 55.2492 94.8749 56.2148 95.2101 57.2629C95.589 58.4474 95.589 59.7693 95.589 62.4131V71.5869C95.589 74.2307 95.589 75.5526 95.2101 76.7371C94.8749 77.7852 94.3257 78.7508 93.5992 79.5718C92.7773 80.4996 91.6476 81.1657 89.3876 82.4978L81.7984 86.9713C79.505 88.3237 78.3584 88.9995 77.1379 89.2639C76.0582 89.4976 74.9417 89.4976 73.862 89.2639C72.6416 88.9995 71.4949 88.3237 69.2016 86.9713L61.6123 82.4978C59.3524 81.1657 58.2225 80.4996 57.401 79.5718C56.6741 78.7508 56.1253 77.7852 55.7898 76.7371C55.4106 75.5526 55.4106 74.2307 55.4106 71.5869V62.4131C55.4106 59.7693 55.4106 58.4474 55.7898 57.2629C56.1253 56.2148 56.6741 55.2492 57.401 54.4282C58.2225 53.5004 59.3524 52.8343 61.6123 51.5022L69.2016 47.0285Z" fill="white" fill-opacity="0.25"/>
</g>
<defs>
<clipPath id="clip0_46_123">
<rect width="105" height="96" fill="white" transform="translate(23 19)"/>
</clipPath>
</defs>
</svg>
