<svg width="130" height="130" viewBox="0 0 130 130" fill="none" xmlns="http://www.w3.org/2000/svg">
<g clip-path="url(#clip0_47_134)">
<path d="M28 44.6923C28 32.1988 28 25.9521 30.4275 21.1802C32.563 16.9828 35.9702 13.5701 40.1611 11.4314C44.9255 9 51.1625 9 63.6364 9H78.5548C82.913 9 85.092 9 87.1426 9.49309C88.9608 9.93023 90.6986 10.6513 92.2933 11.6298C94.0912 12.7334 95.6325 14.2767 98.7141 17.3632L117.65 36.3291C120.731 39.4156 122.272 40.9589 123.374 42.7598C124.351 44.3565 125.071 46.0973 125.507 47.9184C126 49.9722 126 52.1547 126 56.5197V89.3077C126 101.801 126 108.048 123.572 112.82C121.437 117.017 118.03 120.43 113.839 122.568C109.075 125 102.837 125 90.3636 125H63.6364C51.1625 125 44.9255 125 40.1611 122.568C35.9702 120.43 32.563 117.017 30.4275 112.82C28 108.048 28 101.801 28 89.3077V44.6923Z" fill="#808090" fill-opacity="0.6"/>
</g>
<defs>
<clipPath id="clip0_47_134">
<rect width="98" height="116" fill="white" transform="translate(28 9)"/>
</clipPath>
</defs>
</svg>
