<svg width="130" height="130" viewBox="0 0 130 130" fill="none" xmlns="http://www.w3.org/2000/svg">
<path fill-rule="evenodd" clip-rule="evenodd" d="M44.6617 116.128C43.7979 118.243 42.1253 119.929 40.0119 120.817C37.8985 121.705 35.5173 121.72 33.3923 120.861C31.2672 120.001 29.5723 118.336 28.6805 116.233C27.7886 114.13 27.7728 111.76 28.6366 109.645L65.0216 20.5237C65.9898 18.1522 67.6468 16.122 69.7805 14.6927C71.9143 13.2635 74.4279 12.5 77 12.5C79.5721 12.5 82.0857 13.2635 84.2195 14.6927C86.3532 16.122 88.0102 18.1522 88.9784 20.5237L125.363 109.651C126.227 111.766 126.211 114.136 125.32 116.239C124.428 118.342 122.733 120.007 120.608 120.866C118.483 121.726 116.102 121.71 113.988 120.823C111.875 119.935 110.202 118.248 109.338 116.134L105.218 106.035C102.658 99.7598 101.378 96.6223 99.3712 94.227C96.9427 91.3283 93.7422 89.1775 90.1409 88.024C87.165 87.0708 83.7764 87.0708 76.9992 87.0708V87.0708C70.2225 87.0708 66.8341 87.0708 63.8584 88.0239C60.2573 89.1772 57.0569 91.3278 54.6285 94.2263C52.6218 96.6213 51.3415 99.7585 48.7811 106.033L44.6617 116.128ZM68.6308 57.4041C66.2034 63.3504 70.5774 69.8603 77 69.8603V69.8603C83.4226 69.8603 87.7966 63.3504 85.3692 57.4041V57.4041C82.3086 49.9065 71.6914 49.9065 68.6308 57.4041V57.4041Z" fill="#14B8A6"/>
</svg>
