<svg width="130" height="130" viewBox="0 0 130 130" fill="none" xmlns="http://www.w3.org/2000/svg">
<path d="M43.3385 60.68H61.6641L48.6794 47.6952C43.7305 47.6952 39.7125 43.6773 39.7125 38.6794C39.7125 36.3012 40.6572 34.0205 42.3389 32.3389C44.0205 30.6572 46.3012 29.7125 48.6794 29.7125C53.6773 29.7125 57.6952 33.7305 57.6952 38.6794L70.68 51.6641V33.3385C69.0073 31.6501 68.0689 29.3697 68.0689 26.9931C68.0689 24.6165 69.0073 22.336 70.68 20.6477C71.5053 19.8092 72.4892 19.1432 73.5744 18.6887C74.6595 18.2341 75.8243 18 77.0009 18C78.1774 18 79.3422 18.2341 80.4274 18.6887C81.5126 19.1432 82.4965 19.8092 83.3218 20.6477C86.8007 24.1266 86.8007 29.8105 83.3218 33.3385V51.6641L96.3555 38.6794C96.3555 36.3012 97.3003 34.0205 98.9819 32.3389C100.663 30.6572 102.944 29.7125 105.322 29.7125C107.701 29.7125 109.981 30.6572 111.663 32.3389C113.344 34.0205 114.289 36.3012 114.289 38.6794C114.289 43.6773 110.271 47.6952 105.322 47.6952L92.3376 60.68H110.663C112.352 59.0073 114.632 58.0689 117.009 58.0689C119.385 58.0689 121.666 59.0073 123.354 60.68C126.882 64.1589 126.882 69.8428 123.354 73.3218C119.875 76.8007 114.191 76.8007 110.663 73.3218H92.3376L105.322 86.3555C110.271 86.3555 114.289 90.3245 114.289 95.3224C114.289 97.7005 113.344 99.9813 111.663 101.663C109.981 103.344 107.701 104.289 105.322 104.289C100.324 104.289 96.3555 100.271 96.3555 95.3224L83.3218 82.3376V100.663C86.8007 104.191 86.8007 109.875 83.3218 113.354C79.8428 116.882 74.1589 116.882 70.68 113.354C69.0073 111.666 68.0689 109.385 68.0689 107.009C68.0689 104.632 69.0073 102.352 70.68 100.663V82.3376L57.6952 95.3224C57.6952 100.271 53.6773 104.289 48.6794 104.289C46.3012 104.289 44.0205 103.344 42.3389 101.663C40.6572 99.9813 39.7125 97.7005 39.7125 95.3224C39.7125 92.9442 40.6572 90.6635 42.3389 88.9819C44.0205 87.3003 46.3012 86.3555 48.6794 86.3555L61.6641 73.3218H43.3385C39.8105 76.8007 34.1266 76.8007 30.6477 73.3218C29.8092 72.4965 29.1432 71.5126 28.6887 70.4274C28.2341 69.3422 28 68.1774 28 67.0009C28 65.8243 28.2341 64.6595 28.6887 63.5744C29.1432 62.4892 29.8092 61.5053 30.6477 60.68C32.336 59.0073 34.6165 58.0689 36.9931 58.0689C39.3697 58.0689 41.6501 59.0073 43.3385 60.68Z" fill="#F17F66"/>
</svg>
