<svg width="130" height="130" viewBox="0 0 130 130" fill="none" xmlns="http://www.w3.org/2000/svg">
<path d="M57.4766 18H94.6094C100.054 18 104.052 18.2765 106.604 18.8294C109.156 19.3824 111.453 20.2118 113.495 21.3177C115.451 22.3385 117.217 23.6358 118.79 25.2096C120.364 26.7834 121.661 28.5486 122.682 30.5052L123.448 32.0365C124.299 33.8229 124.937 35.9709 125.362 38.4805C125.787 40.99 126 44.6267 126 49.3906V84.6094C126 90.0538 125.724 94.0521 125.171 96.6042C124.618 99.1562 123.788 101.453 122.682 103.495C121.661 105.451 120.364 107.217 118.79 108.79C117.217 110.364 115.494 111.661 113.622 112.682H113.495L111.964 113.448C110.177 114.299 108.029 114.937 105.52 115.362C103.01 115.787 99.3733 116 94.6094 116H59.3906C53.9462 116 49.9479 115.724 47.3958 115.171C44.8438 114.618 42.5469 113.788 40.5052 112.682C38.5486 111.661 36.7834 110.364 35.2096 108.79C33.6359 107.217 32.3385 105.494 31.3177 103.622V103.495L30.5521 101.964C29.7865 100.262 29.191 98.2843 28.7656 96.0299C28.3403 93.7756 28.0851 90.6068 28 86.5234V49.3906C28 43.9462 28.2765 39.9479 28.8294 37.3958C29.3824 34.8437 30.2118 32.5469 31.3177 30.5052C32.3385 28.5486 33.6359 26.7834 35.2096 25.2096C36.7834 23.6358 38.5061 22.3385 40.3776 21.3177H40.5052L42.0365 20.5521C43.7378 19.7865 45.7157 19.191 47.9701 18.7656C50.2244 18.3403 53.3932 18.0851 57.4766 18ZM92.8229 54.2396C92.5677 54.3247 92.3763 54.431 92.2487 54.5586L91.8021 55.0052L71.6406 79.7604C71.3003 80.2708 70.8537 80.6536 70.3008 80.9089C69.7478 81.1641 69.1736 81.2917 68.5781 81.2917C68.0677 81.2917 67.5786 81.2066 67.1107 81.0365C66.6428 80.8663 66.2387 80.6536 65.8984 80.3984L65.6432 80.1432L56.2005 70.7005C55.52 70.02 55.0095 69.5733 54.6693 69.3607C54.329 69.148 53.9887 68.9991 53.6484 68.9141C53.4783 68.829 53.2869 68.7652 53.0742 68.7227C52.8615 68.6801 52.6701 68.6589 52.5 68.6589C52.3299 68.6589 52.1385 68.6801 51.9258 68.7227C51.7131 68.7652 51.5217 68.829 51.3516 68.9141C51.0113 68.9991 50.671 69.148 50.3307 69.3607C49.9905 69.5733 49.48 70.02 48.7995 70.7005L41.3984 78.2292L41.1432 78.4844C41.1432 78.4844 41.0582 78.612 40.888 78.8672C40.7179 79.0373 40.6115 79.2075 40.569 79.3776C40.5265 79.5477 40.4627 79.7179 40.3776 79.888V80.0156L40.25 80.526V80.8451V81.1641V91.5C40.25 94.9028 41.441 97.7951 43.8229 100.177C46.2049 102.559 49.0972 103.75 52.5 103.75H101.5C104.903 103.75 107.795 102.559 110.177 100.177C112.559 97.7951 113.75 94.9028 113.75 91.5V80.2708V80.0156C113.75 80.0156 113.707 79.9306 113.622 79.7604V79.25L113.367 78.8672C113.367 78.697 113.325 78.5482 113.24 78.4206C113.155 78.293 113.069 78.1866 112.984 78.1016L98.4375 55.388C98.0972 54.7925 97.6081 54.3246 96.9701 53.9844C96.332 53.6441 95.6727 53.474 94.9922 53.474C94.5668 53.474 94.1628 53.5378 93.78 53.6654C93.3971 53.793 93.0781 53.9844 92.8229 54.2396ZM54.5417 34.3333C51.7344 34.3333 49.3312 35.3329 47.332 37.332C45.3329 39.3312 44.3333 41.7344 44.3333 44.5417C44.3333 47.349 45.3329 49.7522 47.332 51.7513C49.3312 53.7504 51.7344 54.75 54.5417 54.75C57.349 54.75 59.7522 53.7504 61.7513 51.7513C63.7504 49.7522 64.75 47.349 64.75 44.5417C64.75 41.7344 63.7504 39.3312 61.7513 37.332C59.7522 35.3329 57.349 34.3333 54.5417 34.3333Z" fill="#5BAFD4"/>
</svg>
