<svg width="130" height="130" viewBox="0 0 130 130" fill="none" xmlns="http://www.w3.org/2000/svg">
<g clip-path="url(#clip0_62_123)">
<path d="M106.463 41.9773L109.816 38.6364L111.78 40.5934C114.815 43.6187 116.521 47.7217 116.521 52C120.814 52 124.932 53.6995 127.968 56.7248L129.932 58.6818L126.579 62.0227C121.024 67.5581 112.018 67.5581 106.463 62.0227C100.909 56.4873 100.909 47.5127 106.463 41.9773Z" fill="#5BAFD4"/>
<path d="M86.3474 65.3636V72.0455L113.168 65.3636V58.6818L106.463 55.3409C106.463 60.8763 101.96 65.3636 96.4053 65.3636H86.3474Z" fill="#5BAFD4"/>
<path d="M89.7 45.3182H82.9947C81.1431 45.3182 79.6421 46.814 79.6421 48.6591V55.3409C79.6421 57.186 81.1431 58.6818 82.9947 58.6818H89.7C91.5516 58.6818 93.0526 57.186 93.0526 55.3409V48.6591C93.0526 46.814 91.5516 45.3182 89.7 45.3182Z" fill="#5BAFD4"/>
<path d="M69.5843 45.3182H62.879C61.0274 45.3182 59.5264 46.814 59.5264 48.6591V55.3409C59.5264 57.186 61.0274 58.6818 62.879 58.6818H69.5843C71.4359 58.6818 72.9369 57.186 72.9369 55.3409V48.6591C72.9369 46.814 71.4359 45.3182 69.5843 45.3182Z" fill="#5BAFD4"/>
<path d="M49.4684 45.3182H42.7632C40.9115 45.3182 39.4105 46.814 39.4105 48.6591V55.3409C39.4105 57.186 40.9115 58.6818 42.7632 58.6818H49.4684C51.32 58.6818 52.821 57.186 52.821 55.3409V48.6591C52.821 46.814 51.32 45.3182 49.4684 45.3182Z" fill="#5BAFD4"/>
<path d="M59.5263 25.2727H52.821C50.9694 25.2727 49.4684 26.7685 49.4684 28.6136V35.2954C49.4684 37.1406 50.9694 38.6364 52.821 38.6364H59.5263C61.3779 38.6364 62.8789 37.1406 62.8789 35.2954V28.6136C62.8789 26.7685 61.3779 25.2727 59.5263 25.2727Z" fill="#5BAFD4"/>
<path d="M79.6421 25.2727H72.9369C71.0853 25.2727 69.5842 26.7685 69.5842 28.6136V35.2954C69.5842 37.1406 71.0853 38.6364 72.9369 38.6364H79.6421C81.4937 38.6364 82.9948 37.1406 82.9948 35.2954V28.6136C82.9948 26.7685 81.4937 25.2727 79.6421 25.2727Z" fill="#5BAFD4"/>
<path fill-rule="evenodd" clip-rule="evenodd" d="M26 72.0455V75.3864C26 93.8375 41.0103 108.795 59.5263 108.795H69.5842L76.7183 107.702C97.6887 104.487 113.168 86.5063 113.168 65.3636H32.7053C29.002 65.3636 26 68.3552 26 72.0455ZM46.1158 85.4091C46.1158 89.0995 49.1179 92.0909 52.8211 92.0909C56.5242 92.0909 59.5263 89.0995 59.5263 85.4091C59.5263 81.7187 56.5242 78.7273 52.8211 78.7273C49.1179 78.7273 46.1158 81.7187 46.1158 85.4091Z" fill="#5BAFD4"/>
</g>
<defs>
<clipPath id="clip0_62_123">
<rect width="104" height="84" fill="white" transform="translate(26 25)"/>
</clipPath>
</defs>
</svg>
