<svg width="130" height="130" viewBox="0 0 130 130" fill="none" xmlns="http://www.w3.org/2000/svg">
<rect x="28" y="17" width="98" height="100" rx="16" fill="#326EDD"/>
<path d="M46.4203 70.3182V61.7273H80.5538V70.3182H68.7413V101H58.2328V70.3182H46.4203ZM105.737 74C105.635 72.7216 105.155 71.7244 104.299 71.0085C103.455 70.2926 102.17 69.9347 100.444 69.9347C99.3448 69.9347 98.4435 70.0689 97.7404 70.3374C97.0501 70.593 96.5387 70.9446 96.2063 71.392C95.8739 71.8395 95.7013 72.3509 95.6886 72.9261C95.663 73.3991 95.7461 73.8274 95.9379 74.2109C96.1424 74.5817 96.462 74.9205 96.8967 75.2273C97.3313 75.5213 97.8874 75.7898 98.565 76.0327C99.2425 76.2756 100.048 76.4929 100.981 76.6847L104.203 77.375C106.376 77.8352 108.236 78.4425 109.783 79.1967C111.33 79.951 112.596 80.8395 113.58 81.8622C114.564 82.8722 115.287 84.0099 115.747 85.2756C116.22 86.5412 116.463 87.9219 116.475 89.4176C116.463 92 115.817 94.1861 114.539 95.9759C113.26 97.7656 111.432 99.1271 109.054 100.06C106.689 100.994 103.845 101.46 100.521 101.46C97.1076 101.46 94.1289 100.955 91.5849 99.9453C89.0536 98.9354 87.0849 97.3821 85.6786 95.2855C84.2852 93.1761 83.582 90.4787 83.5692 87.1932H93.6942C93.7582 88.3949 94.0586 89.4048 94.5955 90.223C95.1325 91.0412 95.8867 91.6612 96.8583 92.0831C97.8427 92.505 99.0124 92.7159 100.368 92.7159C101.505 92.7159 102.458 92.5753 103.225 92.294C103.992 92.0128 104.574 91.6229 104.97 91.1243C105.366 90.6257 105.571 90.0568 105.583 89.4176C105.571 88.8168 105.373 88.2926 104.989 87.8452C104.618 87.3849 104.005 86.9759 103.148 86.6179C102.292 86.2472 101.135 85.902 99.6772 85.5824L95.7653 84.7386C92.288 83.9844 89.5458 82.7251 87.5387 80.9609C85.5444 79.1839 84.5536 76.7614 84.5664 73.6932C84.5536 71.2003 85.2184 69.0206 86.5607 67.1541C87.9158 65.2749 89.7887 63.8111 92.1793 62.7628C94.5827 61.7145 97.3377 61.1903 100.444 61.1903C103.615 61.1903 106.357 61.7209 108.671 62.782C110.985 63.843 112.768 65.3388 114.021 67.2692C115.287 69.1868 115.926 71.4304 115.939 74H105.737Z" fill="#EEEEEE"/>
</svg>
