<svg width="130" height="130" viewBox="0 0 130 130" fill="none" xmlns="http://www.w3.org/2000/svg">
<path d="M44.6809 50.3333H109.319C113.906 50.3333 117.833 51.9653 121.1 55.2292C124.367 58.4931 126 62.4167 126 67C126 67.6944 125.965 68.3715 125.896 69.0313C125.826 69.691 125.722 70.3333 125.583 70.9583V70.8542L121.1 89.9167C120.335 93.1111 119.64 95.4201 119.015 96.8438C118.389 98.2674 117.694 99.5 116.93 100.542C116.096 101.583 115.175 102.521 114.167 103.354C113.159 104.188 112.065 104.847 110.883 105.333L110.779 105.438C109.528 105.924 108.155 106.306 106.661 106.583C105.166 106.861 102.786 107 99.5191 107H51.7702C49.5461 106.931 47.8259 106.757 46.6096 106.479C45.3933 106.201 44.2638 105.854 43.2213 105.438C41.9702 104.882 40.8408 104.188 39.833 103.354C38.8252 102.521 37.939 101.618 37.1745 100.646L37.0702 100.542C36.3752 99.5694 35.7323 98.441 35.1415 97.1563C34.5507 95.8715 33.9426 93.9444 33.317 91.375L28.417 70.8542C28.278 70.2292 28.1738 69.6042 28.1043 68.9792C28.0348 68.3542 28 67.6944 28 67C28 62.625 29.477 58.8403 32.4309 55.6458C35.3848 52.4514 39.0163 50.6806 43.3255 50.3333H43.4298H44.6809ZM58.0255 27H94.8277C96.0787 27 97.1734 27.0347 98.1117 27.1042C99.05 27.1736 99.9362 27.3125 100.77 27.5208C101.604 27.7292 102.404 27.9896 103.168 28.3021C103.933 28.6146 104.662 28.9792 105.357 29.3958C105.983 29.8125 106.591 30.2465 107.182 30.6979C107.773 31.1493 108.416 31.7222 109.111 32.4167L111.3 34.6042C111.648 34.9514 111.908 35.316 112.082 35.6979C112.256 36.0799 112.343 36.5139 112.343 37C112.343 37.9028 112.012 38.684 111.352 39.3438C110.692 40.0035 109.91 40.3333 109.006 40.3333H44.9936C44.0901 40.3333 43.3082 40.0035 42.6479 39.3438C41.9876 38.684 41.6574 37.9028 41.6574 37C41.6574 36.5139 41.7443 36.0799 41.9181 35.6979C42.0918 35.316 42.3525 34.9514 42.7 34.6042L44.0553 33.25C44.9589 32.3472 45.7755 31.6007 46.5053 31.0104C47.2351 30.4201 47.9475 29.8819 48.6426 29.3958C49.3376 28.9792 50.0674 28.6146 50.8319 28.3021C51.5965 27.9896 52.3957 27.7292 53.2298 27.5208C53.9248 27.3819 54.6546 27.2604 55.4191 27.1563C56.1837 27.0521 57.0525 27 58.0255 27Z" fill="#A2AAD3"/>
</svg>
