<svg width="131" height="130" viewBox="0 0 131 130" fill="none" xmlns="http://www.w3.org/2000/svg">
<path d="M126 67C126 79.9956 120.838 92.459 111.648 101.648C102.459 110.838 89.9956 116 77 116C64.0044 116 51.5411 110.838 42.3518 101.648C33.1625 92.459 28 79.9956 28 67M126 67C126 54.0044 120.838 41.5411 111.648 32.3518C102.459 23.1625 89.9956 18 77 18C64.0044 18 51.5411 23.1625 42.3518 32.3518C33.1625 41.5411 28 54.0044 28 67M126 67H28" stroke="#F17F66" stroke-width="10" stroke-linecap="round" stroke-linejoin="round"/>
<path d="M95.8461 67C94.9628 84.0991 88.9123 100.507 78.5239 114.069C77.7525 115.076 76.2474 115.076 75.476 114.069C65.0876 100.507 59.0372 84.0991 58.1538 67C59.0372 49.9009 65.0876 33.4926 75.476 19.9307C76.2474 18.9236 77.7525 18.9236 78.5239 19.9307C88.9123 33.4926 94.9628 49.9009 95.8461 67Z" stroke="#F17F66" stroke-width="10" stroke-linecap="round" stroke-linejoin="round"/>
</svg>
