<svg width="130" height="130" viewBox="0 0 130 130" fill="none" xmlns="http://www.w3.org/2000/svg">
<path d="M126 90.653C126 92.6134 125.851 94.4033 125.553 96.0228C125.256 97.6423 124.766 99.1339 124.086 100.498C123.49 101.861 122.725 103.097 121.789 104.205C120.853 105.314 119.79 106.294 118.599 107.146C117.323 107.998 115.919 108.723 114.388 109.32C112.857 109.916 111.113 110.385 109.156 110.726L107.497 111.11C107.157 111.11 106.753 111.131 106.285 111.174C105.817 111.216 105.328 111.237 104.818 111.237C100.99 111.237 97.6506 110.023 94.8008 107.594C91.951 105.164 90.1858 102.117 89.5052 98.4521L89.3776 97.5571C89.3776 97.1309 89.3563 96.6834 89.3138 96.2146C89.2713 95.7458 89.25 95.2983 89.25 94.8721C89.25 93.6788 89.3351 92.5495 89.5052 91.484C89.6753 90.4186 89.9731 89.3744 90.3984 88.3516L90.2708 88.4795C90.7813 87.1157 91.4405 85.9011 92.2487 84.8356C93.0569 83.7702 94.0564 82.8113 95.2474 81.9589C96.4384 81.1065 97.7357 80.382 99.1393 79.7854C100.543 79.1887 102.01 78.8052 103.542 78.6347H103.669L107.497 77.9954C109.284 77.6545 110.773 76.8021 111.964 75.4384C113.155 74.0746 113.75 72.4977 113.75 70.7078V44.7534L64.75 54.3425V103.822C64.75 106.123 64.6224 107.977 64.3672 109.384C64.112 110.79 63.6866 112.09 63.0911 113.283C62.5807 114.476 61.9214 115.542 61.1133 116.479C60.3051 117.417 59.3906 118.269 58.3698 119.037C57.2639 119.804 56.0304 120.443 54.6693 120.954C53.3082 121.466 51.5217 121.892 49.3099 122.233L46.2474 122.872C45.9071 122.872 45.503 122.893 45.0352 122.936C44.5673 122.979 44.0781 123 43.5677 123C39.7396 123 36.4006 121.785 33.5508 119.356C30.701 116.927 28.9358 113.88 28.2552 110.215V110.087L28.1276 109.32C28.1276 108.893 28.1063 108.446 28.0638 107.977C28.0213 107.508 28 107.061 28 106.635C28 105.441 28.0851 104.312 28.2552 103.247C28.4253 102.181 28.7231 101.137 29.1484 100.114L29.0208 100.242C29.5313 98.8782 30.1905 97.6636 30.9987 96.5982C31.8069 95.5327 32.8064 94.5738 33.9974 93.7215C35.1884 92.8691 36.4857 92.1446 37.8893 91.5479C39.293 90.9513 40.7604 90.5677 42.2917 90.3973H42.4193L46.2474 89.758C48.0339 89.417 49.5226 88.5647 50.7135 87.2009C51.9045 85.8371 52.5 84.2603 52.5 82.4703V30.6895V28.8995L52.7552 27.621C52.7552 27.621 52.8828 27.1948 53.138 26.3425C53.3082 25.9163 53.5634 25.5114 53.9036 25.1279C54.2439 24.7443 54.5842 24.4247 54.9245 24.1689H55.0521C55.3924 23.828 55.839 23.551 56.3919 23.3379C56.9449 23.1248 57.8168 22.8904 59.0078 22.6347L118.727 11H119.301H119.875C121.576 11 123.023 11.5966 124.214 12.7899C125.405 13.9833 126 15.4323 126 17.137V90.653Z" fill="#A2AAD3"/>
</svg>
