<svg width="130" height="130" viewBox="0 0 130 130" fill="none" xmlns="http://www.w3.org/2000/svg">
<path d="M103.906 80.5625L115.938 96.0938C116.521 96.75 117.195 97.2786 117.961 97.6797C118.727 98.0807 119.547 98.2812 120.422 98.2812C121.953 98.2812 123.266 97.7344 124.359 96.6406C125.453 95.5469 126 94.2344 126 92.7031V41.2969C126 39.7656 125.453 38.4531 124.359 37.3594C123.266 36.2656 121.953 35.7188 120.422 35.7188C119.547 35.7188 118.727 35.9193 117.961 36.3203C117.195 36.7214 116.557 37.25 116.047 37.9062H115.938L104.344 52.7812C103.76 53.5833 103.341 54.1667 103.086 54.5312C102.831 54.8958 102.594 55.2604 102.375 55.625C102.229 55.9167 102.102 56.2448 101.992 56.6094C101.883 56.974 101.792 57.3385 101.719 57.7031L101.609 58.3594C101.536 58.651 101.5 58.9792 101.5 59.3438V60.3281V60.3828V60.4375V72.7969C101.5 73.8177 101.518 74.5469 101.555 74.9844C101.591 75.4219 101.646 75.8594 101.719 76.2969C101.792 76.6615 101.883 77.0078 101.992 77.3359C102.102 77.6641 102.229 78.0104 102.375 78.375L102.703 78.9219C102.922 79.2865 103.122 79.5964 103.305 79.8516C103.487 80.1068 103.688 80.3802 103.906 80.6719V80.5625ZM48.8906 102H68.5781C72.4427 102 75.3047 101.799 77.1641 101.398C79.0234 100.997 80.6458 100.432 82.0312 99.7031C83.4896 98.901 84.7656 97.9531 85.8594 96.8594C86.9531 95.7656 87.901 94.4896 88.7031 93.0312L89.25 91.9375C89.8333 90.625 90.2708 89.0755 90.5625 87.2891C90.8542 85.5026 91 82.9323 91 79.5781V54.4219V51.5781C90.8542 48.7344 90.599 46.5651 90.2344 45.0703C89.8698 43.5755 89.3594 42.2083 88.7031 40.9688C87.901 39.5104 86.9531 38.2344 85.8594 37.1406C84.7656 36.0469 83.526 35.1354 82.1406 34.4062L82.0312 34.2969L80.9375 33.75C79.625 33.1667 78.0755 32.7292 76.2891 32.4375C74.5026 32.1458 71.9323 32 68.5781 32H50.4219C46.5573 32 43.6953 32.2005 41.8359 32.6016C39.9766 33.0026 38.3542 33.5677 36.9688 34.2969C35.5104 35.099 34.2344 36.0469 33.1406 37.1406C32.0469 38.2344 31.1354 39.474 30.4062 40.8594L30.2969 40.9688C29.5677 42.3542 29.0026 43.9766 28.6016 45.8359C28.2005 47.6953 28 50.5573 28 54.4219V79.5781C28 83.4427 28.2005 86.3047 28.6016 88.1641C29.0026 90.0234 29.5677 91.6458 30.2969 93.0312C31.099 94.4896 32.0469 95.7656 33.1406 96.8594C34.2344 97.9531 35.5104 98.901 36.9688 99.7031C38.2812 100.359 39.776 100.888 41.4531 101.289C43.1302 101.69 45.6094 101.927 48.8906 102Z" fill="#A2AAD3"/>
</svg>
