<svg width="130" height="130" viewBox="0 0 130 130" fill="none" xmlns="http://www.w3.org/2000/svg">
<path d="M87.3011 12.5288C88.1364 12.7051 88.9484 12.9475 89.7372 13.256C90.526 13.5645 91.3381 13.9832 92.1733 14.512L93.1477 15.0409C93.6117 15.3934 94.1686 15.8341 94.8182 16.363C95.4678 16.8918 96.2566 17.597 97.1847 18.4784L118.205 38.4423C119.782 39.9407 120.919 41.0865 121.615 41.8798C122.311 42.6731 122.891 43.4223 123.355 44.1274C123.912 44.9207 124.353 45.6919 124.678 46.4411C125.002 47.1903 125.258 47.9615 125.443 48.7548L125.722 49.9447C125.814 50.5617 125.884 51.355 125.93 52.3245C125.977 53.2941 126 54.6162 126 56.2909V94.8966C126 99.5681 125.745 103.028 125.234 105.275C124.724 107.523 124.005 109.484 123.077 111.159C122.056 112.921 120.849 114.464 119.457 115.786C118.065 117.108 116.488 118.21 114.724 119.091L114.585 119.224C112.822 120.105 110.757 120.788 108.391 121.273C106.024 121.758 102.382 122 97.4631 122H56.5369C51.6184 122 47.9759 121.758 45.6094 121.273C43.2429 120.788 41.178 120.105 39.4148 119.224C37.5587 118.254 35.9347 117.108 34.5426 115.786C33.1506 114.464 31.9905 112.966 31.0625 111.291L30.9233 111.159C30.0881 109.572 29.4152 107.765 28.9048 105.738C28.3944 103.711 28.0928 100.714 28 96.7476V37.649C28 33.859 28.2552 30.8622 28.7656 28.6587C29.276 26.4551 29.9953 24.516 30.9233 22.8413C31.9441 21.0785 33.1506 19.5361 34.5426 18.2139C35.9347 16.8918 37.5587 15.746 39.4148 14.7764C41.178 13.895 43.2197 13.2119 45.5398 12.7272C47.8598 12.2424 51.0152 12 55.0057 12H79.3665C81.5938 12 83.241 12.0441 84.3082 12.1322C85.3755 12.2204 86.3731 12.3526 87.3011 12.5288ZM101.5 88.1538H52.5C50.6439 88.1538 49.0663 88.7708 47.767 90.0048C46.4678 91.2388 45.8182 92.7372 45.8182 94.5C45.8182 96.2628 46.4678 97.7612 47.767 98.9952C49.0663 100.229 50.6439 100.846 52.5 100.846H101.5C103.356 100.846 104.934 100.229 106.233 98.9952C107.532 97.7612 108.182 96.2628 108.182 94.5C108.182 92.7372 107.532 91.2388 106.233 90.0048C104.934 88.7708 103.356 88.1538 101.5 88.1538ZM101.5 62.7692H52.5C50.6439 62.7692 49.0663 63.3862 47.767 64.6202C46.4678 65.8542 45.8182 67.3526 45.8182 69.1154C45.8182 70.8782 46.4678 72.3766 47.767 73.6106C49.0663 74.8446 50.6439 75.4615 52.5 75.4615H101.5C103.356 75.4615 104.934 74.8446 106.233 73.6106C107.532 72.3766 108.182 70.8782 108.182 69.1154C108.182 67.3526 107.532 65.8542 106.233 64.6202C104.934 63.3862 103.356 62.7692 101.5 62.7692Z" fill="#A2AAD3"/>
</svg>
