<svg width="130" height="130" viewBox="0 0 130 130" fill="none" xmlns="http://www.w3.org/2000/svg">
<path fill-rule="evenodd" clip-rule="evenodd" d="M28 50.6667C28 39.2323 28 33.515 30.2253 29.1477C32.1827 25.3061 35.3061 22.1827 39.1477 20.2253C43.515 18 49.2323 18 60.6667 18V21.2667C60.6667 25.8404 60.6667 28.1273 61.5568 29.8743C62.3398 31.4109 63.5891 32.6602 65.1257 33.4432C66.8727 34.3333 69.1596 34.3333 73.7333 34.3333H77V50.6667H68.8333C64.323 50.6667 60.6667 54.323 60.6667 58.8333C60.6667 63.3436 64.323 67 68.8333 67H77V83.3333H68.8333C64.323 83.3333 60.6667 86.9896 60.6667 91.5C60.6667 96.0105 64.323 99.6667 68.8333 99.6667H77V116H60.6667C49.2323 116 43.515 116 39.1477 113.775C35.3061 111.817 32.1827 108.694 30.2253 104.853C28 100.485 28 94.7675 28 83.3333V50.6667ZM77 99.6667V83.3333H85.1667C89.677 83.3333 93.3333 79.677 93.3333 75.1667C93.3333 70.6564 89.677 67 85.1667 67H77V50.6667H85.1667C89.677 50.6667 93.3333 47.0103 93.3333 42.5C93.3333 37.9897 89.677 34.3333 85.1667 34.3333H77V18H93.3333C104.767 18 110.485 18 114.853 20.2253C118.694 22.1827 121.817 25.3061 123.775 29.1477C126 33.515 126 39.2323 126 50.6667V83.3333C126 94.7675 126 100.485 123.775 104.853C121.817 108.694 118.694 111.817 114.853 113.775C110.485 116 104.767 116 93.3333 116V112.733C93.3333 108.159 93.3333 105.873 92.4433 104.126C91.6602 102.589 90.4109 101.34 88.8743 100.557C87.1273 99.6667 84.8404 99.6667 80.2667 99.6667H77Z" fill="#8CC162"/>
</svg>
