<svg width="130" height="130" viewBox="0 0 130 130" fill="none" xmlns="http://www.w3.org/2000/svg">
<g clip-path="url(#clip0_73_219)">
<path d="M67.7323 99.1536C70.7969 104.124 72.3293 106.609 74.2986 107.457C76.0181 108.199 77.9679 108.199 79.6874 107.457C81.6567 106.609 83.1891 104.124 86.2538 99.1536L121.164 42.5394C124.496 37.1354 126.162 34.4334 125.971 32.2061C125.805 30.2644 124.811 28.4877 123.241 27.3291C121.44 26 118.26 26 111.903 26H96.8955C94.597 26 93.4485 26 92.4202 26.3348C91.5109 26.631 90.675 27.1154 89.966 27.7563C89.1649 28.4807 88.5948 29.4764 87.4545 31.4679L76.993 49.7386L66.5316 31.4679C65.3913 29.4764 64.8212 28.4807 64.0201 27.7563C63.3113 27.1154 62.4749 26.631 61.5656 26.3348C60.5379 26 59.3888 26 57.0905 26H42.0834C35.7254 26 32.5464 26 30.7454 27.3291C29.1754 28.4877 28.1806 30.2644 28.0147 32.2061C27.8243 34.4334 29.4904 37.1354 32.8227 42.5394L67.7323 99.1536Z" fill="#56B292"/>
<path d="M76.9932 92.1845L110.974 37.8155H96.8956C94.5971 37.8155 93.4486 37.8155 92.4203 38.151C91.511 38.4478 90.6751 38.9332 89.9661 39.5753C89.165 40.3012 88.5949 41.299 87.4546 43.2944L76.9932 61.6019L66.5317 43.2944C65.3914 41.299 64.8213 40.3012 64.0202 39.5753C63.3114 38.9332 62.475 38.4478 61.5657 38.151C60.5381 37.8155 59.3889 37.8155 57.0906 37.8155H43.0126L76.9932 92.1845Z" fill="#35445A"/>
</g>
<defs>
<clipPath id="clip0_73_219">
<rect width="98" height="82" fill="white" transform="translate(28 26)"/>
</clipPath>
</defs>
</svg>
