<svg width="120" height="120" viewBox="0 0 120 120" fill="none" xmlns="http://www.w3.org/2000/svg">
<path fill-rule="evenodd" clip-rule="evenodd" d="M60 15.4752C55.7128 15.4752 51.8085 17.7293 44 22.2376L32.6987 28.7624C24.8902 33.2707 20.9859 35.5248 18.8423 39.2376C16.6987 42.9504 16.6987 47.4587 16.6987 56.4752V69.5248C16.6987 78.5413 16.6987 83.0496 18.8423 86.7624C20.9859 90.4752 24.8902 92.7293 32.6987 97.2376L44 103.762C51.8085 108.271 55.7128 110.525 60 110.525C64.2872 110.525 68.1915 108.271 76 103.762L87.3013 97.2376C95.1098 92.7293 99.0141 90.4752 101.158 86.7624C103.301 83.0496 103.301 78.5413 103.301 69.5248V56.4752C103.301 47.4587 103.301 42.9504 101.158 39.2376C99.0141 35.5248 95.1098 33.2707 87.3013 28.7624L76 22.2376C68.1915 17.7293 64.2872 15.4752 60 15.4752ZM60 81C69.9411 81 78 72.9411 78 63C78 53.0589 69.9411 45 60 45C50.0589 45 42 53.0589 42 63C42 72.9411 50.0589 81 60 81Z" fill="#A2AAD3"/>
</svg>
