<svg width="130" height="130" viewBox="0 0 130 130" fill="none" xmlns="http://www.w3.org/2000/svg">
<rect x="16" y="16" width="98" height="100" rx="16" fill="#D6C436"/>
<path d="M57.6573 100.52C55.6813 100.52 53.8439 100.121 52.1452 99.324C50.4466 98.5267 49.0599 97.3827 47.9853 95.892C47.5693 95.268 47.3613 94.6613 47.3613 94.072C47.3613 93.2053 47.6906 92.4773 48.3493 91.888C49.0426 91.2987 49.7186 91.004 50.3773 91.004C50.8973 91.004 51.3999 91.16 51.8853 91.472C52.4053 91.784 52.8733 92.148 53.2893 92.564C53.9826 93.188 54.6586 93.6387 55.3173 93.916C56.0106 94.1587 56.7906 94.28 57.6573 94.28C58.6973 94.28 59.6679 94.02 60.5692 93.5C61.4706 92.98 62.1986 92.2867 62.7533 91.42C63.3079 90.5533 63.5853 89.6173 63.5853 88.612V66.772C63.5853 65.8707 63.9146 65.1253 64.5733 64.536C65.2319 63.912 65.9946 63.6 66.8613 63.6C67.8319 63.6 68.6119 63.912 69.2013 64.536C69.7906 65.1253 70.0853 65.8707 70.0853 66.772V88.612C70.0853 90.7267 69.5306 92.6853 68.4213 94.488C67.3119 96.2907 65.8213 97.7467 63.9493 98.856C62.0773 99.9653 59.9799 100.52 57.6573 100.52ZM89.5727 100.52C87.146 100.52 84.962 100.225 83.0207 99.636C81.0793 99.012 79.2247 97.9373 77.4567 96.412C77.006 96.0307 76.6593 95.5973 76.4167 95.112C76.174 94.6267 76.0527 94.1413 76.0527 93.656C76.0527 92.8587 76.33 92.1653 76.8847 91.576C77.474 90.952 78.202 90.64 79.0687 90.64C79.7273 90.64 80.3167 90.848 80.8367 91.264C82.154 92.3387 83.454 93.1533 84.7367 93.708C86.054 94.2627 87.666 94.54 89.5727 94.54C90.8553 94.54 92.034 94.3493 93.1087 93.968C94.1833 93.552 95.05 93.0147 95.7087 92.356C96.3673 91.6627 96.6967 90.8827 96.6967 90.016C96.6967 88.976 96.3847 88.092 95.7607 87.364C95.1367 86.636 94.1833 86.0293 92.9007 85.544C91.618 85.024 89.9887 84.6253 88.0127 84.348C86.1407 84.0707 84.494 83.6547 83.0727 83.1C81.6513 82.5107 80.4553 81.7827 79.4847 80.916C78.5487 80.0147 77.838 78.9747 77.3527 77.796C76.8673 76.5827 76.6247 75.2307 76.6247 73.74C76.6247 71.4867 77.1967 69.5627 78.3407 67.968C79.5193 66.3733 81.0967 65.16 83.0727 64.328C85.0487 63.496 87.2327 63.08 89.6247 63.08C91.878 63.08 93.958 63.4267 95.8647 64.12C97.806 64.7787 99.3833 65.628 100.597 66.668C101.602 67.4653 102.105 68.384 102.105 69.424C102.105 70.1867 101.81 70.88 101.221 71.504C100.631 72.128 99.938 72.44 99.1407 72.44C98.6207 72.44 98.1527 72.284 97.7367 71.972C97.182 71.4867 96.4367 71.036 95.5007 70.62C94.5647 70.1693 93.5767 69.8053 92.5367 69.528C91.4967 69.216 90.526 69.06 89.6247 69.06C88.134 69.06 86.8687 69.2507 85.8287 69.632C84.8233 70.0133 84.0607 70.5333 83.5407 71.192C83.0207 71.8507 82.7607 72.6133 82.7607 73.48C82.7607 74.52 83.0553 75.3867 83.6447 76.08C84.2687 76.7387 85.1527 77.276 86.2967 77.692C87.4407 78.0733 88.81 78.42 90.4047 78.732C92.4847 79.1133 94.3047 79.564 95.8647 80.084C97.4593 80.604 98.7767 81.28 99.8167 82.112C100.857 82.9093 101.637 83.932 102.157 85.18C102.677 86.3933 102.937 87.884 102.937 89.652C102.937 91.9053 102.313 93.8467 101.065 95.476C99.8167 97.1053 98.17 98.3533 96.1247 99.22C94.114 100.087 91.93 100.52 89.5727 100.52Z" fill="black"/>
</svg>
