<svg width="135" height="133" viewBox="0 0 135 133" fill="none" xmlns="http://www.w3.org/2000/svg">
<path fill-rule="evenodd" clip-rule="evenodd" d="M31.6734 2.82485C29.1946 3.35173 26.8631 4.69785 22.2 7.39008L17.4891 10.1099C12.826 12.8022 10.4945 14.1483 8.7988 16.0315C7.29846 17.6978 6.1651 19.6609 5.47221 21.7933C4.68912 24.2035 4.68912 26.8957 4.68912 32.2802V37.7198C4.68912 43.1043 4.68912 45.7965 5.47221 48.2067C6.1651 50.3391 7.29846 52.3022 8.7988 53.9685C10.4945 55.8517 12.826 57.1978 17.4891 59.8901L22.2 62.6099C26.8631 65.3022 29.1946 66.6483 31.6734 67.1752C33.8666 67.6413 36.1334 67.6413 38.3266 67.1752C40.8054 66.6483 43.1369 65.3022 47.8 62.6099L52.5109 59.8901C57.174 57.1978 59.5055 55.8517 61.2012 53.9685C62.7016 52.3022 63.8349 50.3391 64.5278 48.2067C65.3109 45.7965 65.3109 43.1043 65.3109 37.7198V32.2802C65.3109 26.8957 65.3109 24.2035 64.5278 21.7933C63.8349 19.6609 62.7016 17.6978 61.2012 16.0315C59.5055 14.1483 57.174 12.8022 52.5109 10.1099L47.8 7.39008C43.1369 4.69785 40.8054 3.35173 38.3266 2.82485C36.1334 2.35866 33.8666 2.35866 31.6734 2.82485ZM35 48.3C42.3454 48.3 48.3 42.3454 48.3 35C48.3 27.6546 42.3454 21.7 35 21.7C27.6546 21.7 21.7 27.6546 21.7 35C21.7 42.3454 27.6546 48.3 35 48.3Z" fill="#A2AAD3"/>
<path fill-rule="evenodd" clip-rule="evenodd" d="M33 74.6502V94.4C33 103.361 33 107.841 34.7439 111.264C36.2779 114.274 38.7256 116.722 41.7362 118.256C45.1587 120 49.6392 120 58.6 120H105.4C114.361 120 118.841 120 122.264 118.256C125.274 116.722 127.722 114.274 129.256 111.264C131 107.841 131 103.361 131 94.4V45.6C131 36.6392 131 32.1587 129.256 28.7362C127.722 25.7256 125.274 23.2779 122.264 21.7439C118.841 20 114.361 20 105.4 20H72.8088C72.8879 21.5818 72.8879 23.5038 72.8879 26.0097V40.4903C72.8879 45.8677 72.8879 48.5564 72.1065 50.964C71.4152 53.0942 70.2844 55.0557 68.7871 56.7213C67.095 58.6038 64.7681 59.9509 60.1144 62.6452L47.7144 69.8241C43.0423 72.529 40.7062 73.8815 38.2219 74.4108C36.5029 74.777 34.7387 74.8568 33 74.6502Z" fill="#326EDD"/>
<path d="M73.8246 104C72.8166 104 71.9886 103.694 71.3406 103.082C70.6926 102.434 70.3686 101.642 70.3686 100.706V69.386H77.3886V100.706C77.3886 101.642 77.0466 102.434 76.3626 103.082C75.7146 103.694 74.8686 104 73.8246 104ZM61.8906 72.41C60.9546 72.41 60.1626 72.122 59.5146 71.546C58.9026 70.97 58.5966 70.214 58.5966 69.278C58.5966 68.342 58.9026 67.604 59.5146 67.064C60.1626 66.488 60.9546 66.2 61.8906 66.2H85.8666C86.8026 66.2 87.5766 66.488 88.1886 67.064C88.8366 67.64 89.1606 68.396 89.1606 69.332C89.1606 70.268 88.8366 71.024 88.1886 71.6C87.5766 72.14 86.8026 72.41 85.8666 72.41H61.8906ZM106.979 104.54C104.459 104.54 102.191 104.234 100.175 103.622C98.1593 102.974 96.2333 101.858 94.3973 100.274C93.9293 99.878 93.5693 99.428 93.3173 98.924C93.0653 98.42 92.9393 97.916 92.9393 97.412C92.9393 96.584 93.2273 95.864 93.8033 95.252C94.4153 94.604 95.1713 94.28 96.0713 94.28C96.7553 94.28 97.3673 94.496 97.9073 94.928C99.2753 96.044 100.625 96.89 101.957 97.466C103.325 98.042 104.999 98.33 106.979 98.33C108.311 98.33 109.535 98.132 110.651 97.736C111.767 97.304 112.667 96.746 113.351 96.062C114.035 95.342 114.377 94.532 114.377 93.632C114.377 92.552 114.053 91.634 113.405 90.878C112.757 90.122 111.767 89.492 110.435 88.988C109.103 88.448 107.411 88.034 105.359 87.746C103.415 87.458 101.705 87.026 100.229 86.45C98.7533 85.838 97.5113 85.082 96.5033 84.182C95.5313 83.246 94.7933 82.166 94.2893 80.942C93.7853 79.682 93.5333 78.278 93.5333 76.73C93.5333 74.39 94.1273 72.392 95.3153 70.736C96.5393 69.08 98.1773 67.82 100.229 66.956C102.281 66.092 104.549 65.66 107.033 65.66C109.373 65.66 111.533 66.02 113.513 66.74C115.529 67.424 117.167 68.306 118.427 69.386C119.471 70.214 119.993 71.168 119.993 72.248C119.993 73.04 119.687 73.76 119.075 74.408C118.463 75.056 117.743 75.38 116.915 75.38C116.375 75.38 115.889 75.218 115.457 74.894C114.881 74.39 114.107 73.922 113.135 73.49C112.163 73.022 111.137 72.644 110.057 72.356C108.977 72.032 107.969 71.87 107.033 71.87C105.485 71.87 104.171 72.068 103.091 72.464C102.047 72.86 101.255 73.4 100.715 74.084C100.175 74.768 99.9053 75.56 99.9053 76.46C99.9053 77.54 100.211 78.44 100.823 79.16C101.471 79.844 102.389 80.402 103.577 80.834C104.765 81.23 106.187 81.59 107.843 81.914C110.003 82.31 111.893 82.778 113.513 83.318C115.169 83.858 116.537 84.56 117.617 85.424C118.697 86.252 119.507 87.314 120.047 88.61C120.587 89.87 120.857 91.418 120.857 93.254C120.857 95.594 120.209 97.61 118.913 99.302C117.617 100.994 115.907 102.29 113.783 103.19C111.695 104.09 109.427 104.54 106.979 104.54Z" fill="#EEEEEE"/>
</svg>
