<svg width="130" height="130" viewBox="0 0 130 130" fill="none" xmlns="http://www.w3.org/2000/svg">
<path d="M126 101.531V105.643C126 108.05 124.055 110 121.656 110H119.875L119.717 109.527C117.983 104.307 113.112 100.786 107.625 100.786L95.7691 104.947C68.3147 114.584 38.2133 100.458 28 73.1429H34.125C46.2089 79.2025 59.5336 82.3571 73.0439 82.3571H77L40.7908 48.8358C39.4632 47.6068 38.7995 46.9923 38.3237 46.2605C37.902 45.6118 37.5902 44.8976 37.401 44.1469C37.1875 43.2999 37.1875 42.3939 37.1875 40.582V39.3571H39.7233C41.0561 39.3571 41.7224 39.3571 42.3643 39.4783C42.9339 39.5859 43.488 39.764 44.0139 40.0085C44.6064 40.284 45.1487 40.6725 46.2332 41.4494L64.75 54.7143L52.0335 39.4099C51.072 38.2528 50.5912 37.6743 50.2491 37.0251C49.9456 36.4493 49.7234 35.8339 49.589 35.1966C49.4375 34.4782 49.4375 33.7252 49.4375 32.2189V30.1429H51.2059C52.8165 30.1429 53.6219 30.1429 54.3849 30.316C55.0615 30.4697 55.7116 30.7232 56.3139 31.0686C56.993 31.458 57.5867 32.0038 58.774 33.0953L92.3125 63.9286V63.4093C92.3125 51.6904 89.1368 40.1918 83.125 30.1429V24L91.182 27.463C111.248 36.0881 122.107 58.0439 116.812 79.2857C122.695 85.1857 126 93.1875 126 101.531Z" fill="#F17F66"/>
</svg>
