<svg width="120" height="120" viewBox="0 0 120 120" fill="none" xmlns="http://www.w3.org/2000/svg">
<rect x="10" y="7" width="100" height="100" rx="16" fill="#E7C623"/>
<path d="M52.6573 91.52C50.6813 91.52 48.8439 91.1213 47.1452 90.324C45.4466 89.5267 44.0599 88.3827 42.9853 86.892C42.5693 86.268 42.3613 85.6613 42.3613 85.072C42.3613 84.2053 42.6906 83.4773 43.3493 82.888C44.0426 82.2987 44.7186 82.004 45.3773 82.004C45.8973 82.004 46.3999 82.16 46.8853 82.472C47.4053 82.784 47.8733 83.148 48.2893 83.564C48.9826 84.188 49.6586 84.6387 50.3173 84.916C51.0106 85.1587 51.7906 85.28 52.6573 85.28C53.6973 85.28 54.6679 85.02 55.5692 84.5C56.4706 83.98 57.1986 83.2867 57.7533 82.42C58.3079 81.5533 58.5853 80.6173 58.5853 79.612V57.772C58.5853 56.8707 58.9146 56.1253 59.5733 55.536C60.2319 54.912 60.9946 54.6 61.8613 54.6C62.8319 54.6 63.6119 54.912 64.2013 55.536C64.7906 56.1253 65.0853 56.8707 65.0853 57.772V79.612C65.0853 81.7267 64.5306 83.6853 63.4213 85.488C62.3119 87.2907 60.8213 88.7467 58.9493 89.856C57.0773 90.9653 54.9799 91.52 52.6573 91.52ZM84.5727 91.52C82.146 91.52 79.962 91.2253 78.0207 90.636C76.0793 90.012 74.2247 88.9373 72.4567 87.412C72.006 87.0307 71.6593 86.5973 71.4167 86.112C71.174 85.6267 71.0527 85.1413 71.0527 84.656C71.0527 83.8587 71.33 83.1653 71.8847 82.576C72.474 81.952 73.202 81.64 74.0687 81.64C74.7273 81.64 75.3167 81.848 75.8367 82.264C77.154 83.3387 78.454 84.1533 79.7367 84.708C81.054 85.2627 82.666 85.54 84.5727 85.54C85.8553 85.54 87.034 85.3493 88.1087 84.968C89.1833 84.552 90.05 84.0147 90.7087 83.356C91.3673 82.6627 91.6967 81.8827 91.6967 81.016C91.6967 79.976 91.3847 79.092 90.7607 78.364C90.1367 77.636 89.1833 77.0293 87.9007 76.544C86.618 76.024 84.9887 75.6253 83.0127 75.348C81.1407 75.0707 79.494 74.6547 78.0727 74.1C76.6513 73.5107 75.4553 72.7827 74.4847 71.916C73.5487 71.0147 72.838 69.9747 72.3527 68.796C71.8673 67.5827 71.6247 66.2307 71.6247 64.74C71.6247 62.4867 72.1967 60.5627 73.3407 58.968C74.5193 57.3733 76.0967 56.16 78.0727 55.328C80.0487 54.496 82.2327 54.08 84.6247 54.08C86.878 54.08 88.958 54.4267 90.8647 55.12C92.806 55.7787 94.3833 56.628 95.5967 57.668C96.602 58.4653 97.1047 59.384 97.1047 60.424C97.1047 61.1867 96.81 61.88 96.2207 62.504C95.6313 63.128 94.938 63.44 94.1407 63.44C93.6207 63.44 93.1527 63.284 92.7367 62.972C92.182 62.4867 91.4367 62.036 90.5007 61.62C89.5647 61.1693 88.5767 60.8053 87.5367 60.528C86.4967 60.216 85.526 60.06 84.6247 60.06C83.134 60.06 81.8687 60.2507 80.8287 60.632C79.8233 61.0133 79.0607 61.5333 78.5407 62.192C78.0207 62.8507 77.7607 63.6133 77.7607 64.48C77.7607 65.52 78.0553 66.3867 78.6447 67.08C79.2687 67.7387 80.1527 68.276 81.2967 68.692C82.4407 69.0733 83.81 69.42 85.4047 69.732C87.4847 70.1133 89.3047 70.564 90.8647 71.084C92.4593 71.604 93.7767 72.28 94.8167 73.112C95.8567 73.9093 96.6367 74.932 97.1567 76.18C97.6767 77.3933 97.9367 78.884 97.9367 80.652C97.9367 82.9053 97.3127 84.8467 96.0647 86.476C94.8167 88.1053 93.17 89.3533 91.1247 90.22C89.114 91.0867 86.93 91.52 84.5727 91.52Z" fill="black"/>
</svg>
