<svg width="135" height="133" viewBox="0 0 135 133" fill="none" xmlns="http://www.w3.org/2000/svg">
<path fill-rule="evenodd" clip-rule="evenodd" d="M31.6734 2.82485C29.1946 3.35173 26.8631 4.69785 22.2 7.39008L17.4891 10.1099C12.826 12.8022 10.4945 14.1483 8.7988 16.0315C7.29846 17.6978 6.1651 19.6609 5.47221 21.7933C4.68912 24.2035 4.68912 26.8957 4.68912 32.2802V37.7198C4.68912 43.1043 4.68912 45.7965 5.47221 48.2067C6.1651 50.3391 7.29846 52.3022 8.7988 53.9685C10.4945 55.8517 12.826 57.1978 17.4891 59.8901L22.2 62.6099C26.8631 65.3022 29.1946 66.6483 31.6734 67.1752C33.8666 67.6413 36.1334 67.6413 38.3266 67.1752C40.8054 66.6483 43.1369 65.3022 47.8 62.6099L52.5109 59.8901C57.174 57.1978 59.5055 55.8517 61.2012 53.9685C62.7016 52.3022 63.8349 50.3391 64.5278 48.2067C65.3109 45.7965 65.3109 43.1043 65.3109 37.7198V32.2802C65.3109 26.8957 65.3109 24.2035 64.5278 21.7933C63.8349 19.6609 62.7016 17.6978 61.2012 16.0315C59.5055 14.1483 57.174 12.8022 52.5109 10.1099L47.8 7.39008C43.1369 4.69785 40.8054 3.35173 38.3266 2.82485C36.1334 2.35866 33.8666 2.35866 31.6734 2.82485ZM35 48.3C42.3454 48.3 48.3 42.3454 48.3 35C48.3 27.6546 42.3454 21.7 35 21.7C27.6546 21.7 21.7 27.6546 21.7 35C21.7 42.3454 27.6546 48.3 35 48.3Z" fill="#A2AAD3"/>
<path fill-rule="evenodd" clip-rule="evenodd" d="M33 74.6752V94.4C33 103.361 33 107.841 34.7439 111.264C36.2779 114.274 38.7256 116.722 41.7362 118.256C45.1587 120 49.6392 120 58.6 120H105.4C114.361 120 118.841 120 122.264 118.256C125.274 116.722 127.722 114.274 129.256 111.264C131 107.841 131 103.361 131 94.4V45.6C131 36.6392 131 32.1587 129.256 28.7362C127.722 25.7256 125.274 23.2779 122.264 21.7439C118.841 20 114.361 20 105.4 20H72.808C72.8879 21.5862 72.8879 23.5143 72.8879 26.0302V40.4698C72.8879 45.8543 72.8879 48.5466 72.1048 50.9567C71.4119 53.0892 70.2785 55.0522 68.7782 56.7185C67.0825 58.6017 64.7509 59.9478 60.0879 62.6401L47.5827 69.8599C42.9196 72.5522 40.5881 73.8983 38.1093 74.4252C36.4273 74.7827 34.7021 74.866 33 74.6752Z" fill="#D6C436"/>
<path d="M74.005 64.7273H84.5135V91.6506C84.5007 94.2074 83.8551 96.4574 82.5767 98.4006C81.3111 100.331 79.5597 101.839 77.3224 102.926C75.098 104 72.5348 104.537 69.6328 104.537C67.1143 104.537 64.8132 104.102 62.7294 103.233C60.6456 102.351 58.9837 100.97 57.7436 99.0909C56.5036 97.1989 55.8899 94.7443 55.9027 91.7273H66.5646C66.603 92.7116 66.7692 93.5426 67.0632 94.2202C67.37 94.8977 67.7919 95.4091 68.3288 95.7543C68.8786 96.0866 69.5433 96.2528 70.3232 96.2528C71.1158 96.2528 71.7805 96.0803 72.3175 95.7351C72.8672 95.3899 73.2827 94.8786 73.5639 94.201C73.8452 93.5107 73.9922 92.6605 74.005 91.6506V64.7273ZM110.737 77C110.635 75.7216 110.155 74.7244 109.299 74.0085C108.455 73.2926 107.17 72.9347 105.444 72.9347C104.345 72.9347 103.444 73.0689 102.74 73.3374C102.05 73.593 101.539 73.9446 101.206 74.392C100.874 74.8395 100.701 75.3509 100.689 75.9261C100.663 76.3991 100.746 76.8274 100.938 77.2109C101.142 77.5817 101.462 77.9205 101.897 78.2273C102.331 78.5213 102.887 78.7898 103.565 79.0327C104.243 79.2756 105.048 79.4929 105.981 79.6847L109.203 80.375C111.376 80.8352 113.236 81.4425 114.783 82.1967C116.33 82.951 117.596 83.8395 118.58 84.8622C119.564 85.8722 120.287 87.0099 120.747 88.2756C121.22 89.5412 121.463 90.9219 121.475 92.4176C121.463 95 120.817 97.1861 119.539 98.9759C118.26 100.766 116.432 102.127 114.054 103.06C111.689 103.994 108.845 104.46 105.521 104.46C102.108 104.46 99.1289 103.955 96.5849 102.945C94.0536 101.935 92.0849 100.382 90.6786 98.2855C89.2852 96.1761 88.582 93.4787 88.5692 90.1932H98.6942C98.7582 91.3949 99.0586 92.4048 99.5955 93.223C100.132 94.0412 100.887 94.6612 101.858 95.0831C102.843 95.505 104.012 95.7159 105.368 95.7159C106.505 95.7159 107.458 95.5753 108.225 95.294C108.992 95.0128 109.574 94.6229 109.97 94.1243C110.366 93.6257 110.571 93.0568 110.583 92.4176C110.571 91.8168 110.373 91.2926 109.989 90.8452C109.618 90.3849 109.005 89.9759 108.148 89.6179C107.292 89.2472 106.135 88.902 104.677 88.5824L100.765 87.7386C97.288 86.9844 94.5458 85.7251 92.5387 83.9609C90.5444 82.1839 89.5536 79.7614 89.5664 76.6932C89.5536 74.2003 90.2184 72.0206 91.5607 70.1541C92.9158 68.2749 94.7887 66.8111 97.1793 65.7628C99.5827 64.7145 102.338 64.1903 105.444 64.1903C108.615 64.1903 111.357 64.7209 113.671 65.782C115.985 66.843 117.768 68.3388 119.021 70.2692C120.287 72.1868 120.926 74.4304 120.939 77H110.737Z" fill="#1A1B26"/>
</svg>
