<svg width="120" height="120" viewBox="0 0 120 120" fill="none" xmlns="http://www.w3.org/2000/svg">
<path fill-rule="evenodd" clip-rule="evenodd" d="M14.6863 17.6863C10 22.3726 10 29.9151 10 45V81C10 96.0849 10 103.627 14.6863 108.314C19.3726 113 26.9151 113 42 113H78C93.0849 113 100.627 113 105.314 108.314C110 103.627 110 96.0849 110 81V45C110 29.9151 110 22.3726 105.314 17.6863C100.627 13 93.0849 13 78 13H42C26.9151 13 19.3726 13 14.6863 17.6863ZM36 27C29.3726 27 24 32.3726 24 39V87C24 93.6274 29.3726 99 36 99H84C90.6274 99 96 93.6274 96 87V39C96 32.3726 90.6274 27 84 27H36Z" fill="#A2AAD3"/>
</svg>
