<svg width="130" height="130" viewBox="0 0 130 130" fill="none" xmlns="http://www.w3.org/2000/svg">
<path fill-rule="evenodd" clip-rule="evenodd" d="M2.53737 32.3825L6.44614 46.9702C7.66233 51.5091 8.27036 53.7785 9.61825 55.2754C10.8038 56.5921 12.3758 57.4998 14.1089 57.8681C16.0792 58.2869 18.3487 57.6788 22.8875 56.4627L53.1753 48.3471C55.1576 47.8159 56.1487 47.5503 57.0214 47.0766C57.7951 46.6564 58.4979 46.1171 59.104 45.4785C59.7875 44.7582 60.3006 43.8696 61.3266 42.0924L66.6661 32.844C69.0156 28.7747 70.1904 26.74 70.2957 24.7285C70.3885 22.959 69.9187 21.2057 68.9536 19.7197C67.8566 18.0304 65.8219 16.8556 61.7525 14.5062L52.5043 9.16666C50.7271 8.14061 49.8384 7.62754 48.8862 7.34551C48.0421 7.09545 47.1638 6.97983 46.2837 7.00288C45.291 7.02887 44.2998 7.29443 42.3177 7.82557L12.0298 15.9412C7.49094 17.1573 5.22153 17.7654 3.7246 19.1133C2.40788 20.2989 1.50028 21.8708 1.13189 23.604C0.713096 25.5743 1.32118 27.8437 2.53737 32.3825ZM51.2369 35.8372C55.7128 34.6379 58.369 30.0373 57.1697 25.5613C55.9703 21.0855 51.3697 18.4294 46.8938 19.6286C42.418 20.8279 39.7618 25.4286 40.961 29.9044C42.1604 34.3804 46.761 37.0365 51.2369 35.8372Z" fill="#A2AAD3"/>
<path fill-rule="evenodd" clip-rule="evenodd" d="M54.0971 58.7762L19 68.1804V97.4C19 106.361 19 110.841 20.7439 114.264C22.2779 117.274 24.7256 119.722 27.7362 121.256C31.1587 123 35.6392 123 44.6 123H91.4C100.361 123 104.841 123 108.264 121.256C111.274 119.722 113.722 117.274 115.256 114.264C117 110.841 117 106.361 117 97.4V48.6C117 39.6392 117 35.1587 115.256 31.7362C113.722 28.7256 111.274 26.2779 108.264 24.7439C104.841 23 100.361 23 91.4 23H82.666C81.6049 25.1627 80.1124 27.7478 78.1697 31.1126L78.169 31.1138L68.6416 47.6158C66.8109 50.7869 65.8954 52.3724 64.6757 53.6577C63.5942 54.7972 62.3403 55.7594 60.9597 56.5091C59.4029 57.3544 57.6348 57.8282 54.0991 58.7756L54.099 58.7757L54.0971 58.7762Z" fill="#326EDD"/>
<path d="M37.4203 76.3182V67.7273H71.5538V76.3182H59.7413V107H49.2328V76.3182H37.4203ZM96.7369 80C96.6346 78.7216 96.1552 77.7244 95.2987 77.0085C94.4549 76.2926 93.1701 75.9347 91.4442 75.9347C90.3448 75.9347 89.4435 76.0689 88.7404 76.3374C88.0501 76.593 87.5387 76.9446 87.2063 77.392C86.8739 77.8395 86.7013 78.3509 86.6886 78.9261C86.663 79.3991 86.7461 79.8274 86.9379 80.2109C87.1424 80.5817 87.462 80.9205 87.8967 81.2273C88.3313 81.5213 88.8874 81.7898 89.565 82.0327C90.2425 82.2756 91.0479 82.4929 91.9812 82.6847L95.2028 83.375C97.3761 83.8352 99.2362 84.4425 100.783 85.1967C102.33 85.951 103.596 86.8395 104.58 87.8622C105.564 88.8722 106.287 90.0099 106.747 91.2756C107.22 92.5412 107.463 93.9219 107.475 95.4176C107.463 98 106.817 100.186 105.539 101.976C104.26 103.766 102.432 105.127 100.054 106.06C97.6893 106.994 94.8448 107.46 91.521 107.46C88.1076 107.46 85.1289 106.955 82.5849 105.945C80.0536 104.935 78.0849 103.382 76.6786 101.286C75.2852 99.1761 74.582 96.4787 74.5692 93.1932H84.6942C84.7582 94.3949 85.0586 95.4048 85.5955 96.223C86.1325 97.0412 86.8867 97.6612 87.8583 98.0831C88.8427 98.505 90.0124 98.7159 91.3675 98.7159C92.5053 98.7159 93.4577 98.5753 94.2248 98.294C94.9918 98.0128 95.5735 97.6229 95.9698 97.1243C96.3661 96.6257 96.5707 96.0568 96.5835 95.4176C96.5707 94.8168 96.3725 94.2926 95.989 93.8452C95.6183 93.3849 95.0046 92.9759 94.1481 92.6179C93.2915 92.2472 92.1346 91.902 90.6772 91.5824L86.7653 90.7386C83.288 89.9844 80.5458 88.7251 78.5387 86.9609C76.5444 85.1839 75.5536 82.7614 75.5664 79.6932C75.5536 77.2003 76.2184 75.0206 77.5607 73.1541C78.9158 71.2749 80.7887 69.8111 83.1793 68.7628C85.5827 67.7145 88.3377 67.1903 91.4442 67.1903C94.6147 67.1903 97.3569 67.7209 99.6708 68.782C101.985 69.843 103.768 71.3388 105.021 73.2692C106.287 75.1868 106.926 77.4304 106.939 80H96.7369Z" fill="#EEEEEE"/>
</svg>
