<svg width="130" height="130" viewBox="0 0 130 130" fill="none" xmlns="http://www.w3.org/2000/svg">
<g clip-path="url(#clip0_45_106)">
<path fill-rule="evenodd" clip-rule="evenodd" d="M84.7576 47.7503L81.5026 48.9596H84.6076L84.7576 47.7503ZM72.4974 48.9596L65.388 46.3183V48.9596H72.4974ZM108.812 38.8137C112.569 42.4669 113.775 48.5603 110.55 53.6188L87.0312 90.5111C81.6595 98.9373 68.7057 95.1012 68.7057 85.0839V65.6875H63.7292C55.4837 65.6875 48.7995 58.9471 48.7995 50.6323V40.1554L42.2503 37.7223C33.248 34.3777 25.2264 44.5483 30.484 52.6406L68.6746 111.421C72.6044 117.47 81.3956 117.47 85.3254 111.421L123.516 52.6406C128.774 44.5483 120.752 34.3777 111.75 37.7223L108.812 38.8137ZM85.2943 57.3235V52.3051H91.6669L85.2943 62.3017V57.3235Z" fill="#7380F9"/>
<path d="M88.1273 18.6519L62.6383 22.9358C59.4388 23.4735 57.0938 26.265 57.0938 29.536V50.6324C57.0938 54.3278 60.0646 57.3235 63.7292 57.3235H77V85.0839C77 86.7533 79.159 87.393 80.0542 85.9885L103.574 49.0959C104.993 46.8694 103.408 43.9412 100.783 43.9412H93.5885L95.8021 26.082C96.3529 21.6399 92.5063 17.916 88.1273 18.6519Z" fill="#F5AA52"/>
</g>
<defs>
<clipPath id="clip0_45_106">
<rect width="98" height="98" fill="white" transform="translate(28 18)"/>
</clipPath>
</defs>
</svg>
