<svg width="130" height="130" viewBox="0 0 130 130" fill="none" xmlns="http://www.w3.org/2000/svg">
<g clip-path="url(#clip0_47_134)">
<path fill-rule="evenodd" clip-rule="evenodd" d="M104.216 30.2174C99.8943 23.5612 97.7334 20.2332 94.8499 17.8219C92.2973 15.6873 89.3444 14.0838 86.1641 13.1054C82.5714 12 78.6033 12 70.6672 12H68C53.9987 12 46.998 12 41.6502 14.7248C36.9462 17.1217 33.1217 20.9462 30.7248 25.6502C28 30.998 28 37.9987 28 52V82C28 96.0013 28 103.002 30.7248 108.35C33.1217 113.054 36.9462 116.878 41.6502 119.275C46.998 122 53.9987 122 68 122H86C100.001 122 107.002 122 112.35 119.275C117.054 116.878 120.878 113.054 123.275 108.35C126 103.002 126 96.0013 126 82V75.6149C126 71.2099 126 69.0075 125.628 66.8748C125.297 64.9817 124.75 63.133 123.996 61.3653C123.147 59.374 121.947 57.5267 119.549 53.8322L104.216 30.2174Z" fill="#A2AAD3"/>
</g>
<defs>
<clipPath id="clip0_47_134">
<rect width="98" height="110" fill="white" transform="translate(28 12)"/>
</clipPath>
</defs>
</svg>
