<svg width="130" height="130" viewBox="0 0 130 130" fill="none" xmlns="http://www.w3.org/2000/svg">
<g clip-path="url(#clip0_48_151)">
<path fill-rule="evenodd" clip-rule="evenodd" d="M58.8559 22.9574H59.7621C61.0683 22.9574 62.321 23.473 63.2447 24.3908C64.1683 25.3085 64.6872 26.5532 64.6872 27.8511C64.6872 29.1489 64.1683 30.3936 63.2447 31.3114C62.321 32.2291 61.0683 32.7447 59.7621 32.7447H58.8756C54.8123 32.7691 53.3594 33.2389 52.8176 33.6353C52.7093 33.7136 51.9262 34.2421 51.9262 37.6872V56.7381C51.9262 61.0445 49.7099 64.2057 47.139 66.3296C49.7148 68.424 51.9213 71.5657 51.9213 75.8966V96.3128C51.9213 99.7872 52.7093 100.306 52.8078 100.374C53.3496 100.766 54.7975 101.231 58.8706 101.255H59.7621C61.0683 101.255 62.321 101.771 63.2447 102.689C64.1683 103.606 64.6872 104.851 64.6872 106.149C64.6872 107.447 64.1683 108.692 63.2447 109.609C62.321 110.527 61.0683 111.043 59.7621 111.043H58.8312C54.9059 111.023 50.424 110.739 47.0405 108.307C43.1693 105.527 42.071 101.084 42.071 96.3128V75.8966C42.071 75.2017 41.7509 74.3698 40.2192 73.4155C38.6382 72.4319 36.4613 71.8202 34.6882 71.6587C33.4646 71.5476 32.3269 70.986 31.4986 70.0843C30.6703 69.1825 30.2111 68.0056 30.2113 66.7847V65.9723C30.2112 64.7507 30.6711 63.5731 31.5004 62.6712C32.3297 61.7693 33.4686 61.2082 34.6932 61.0983C36.417 60.9466 38.584 60.3055 40.1748 59.2828C41.741 58.2796 42.071 57.4085 42.071 56.7381V37.6872C42.071 32.9306 43.1742 28.497 47.0306 25.7125C50.4142 23.2755 54.8911 22.977 58.8312 22.9574H58.8559ZM89.3128 27.8511C89.3128 26.5532 89.8317 25.3085 90.7554 24.3908C91.679 23.473 92.9317 22.9574 94.238 22.9574H95.1688C99.1089 22.977 103.591 23.2755 106.969 25.7125C110.831 28.497 111.929 32.9306 111.929 37.6872V56.7381C111.929 57.4085 112.259 58.2796 113.825 59.2828C115.416 60.3055 117.583 60.9466 119.307 61.0983C120.531 61.2082 121.67 61.7693 122.5 62.6712C123.329 63.5731 123.789 64.7507 123.789 65.9723V66.7847C123.789 68.0063 123.329 69.1839 122.5 70.0858C121.67 70.9877 120.531 71.5488 119.307 71.6587C117.539 71.8202 115.362 72.4319 113.781 73.4204C112.254 74.3698 111.929 75.2017 111.929 75.8966V96.3128C111.929 101.084 110.831 105.527 106.96 108.307C103.576 110.739 99.0941 111.023 95.1688 111.043H94.238C92.9317 111.043 91.679 110.527 90.7554 109.609C89.8317 108.692 89.3128 107.447 89.3128 106.149C89.3128 104.851 89.8317 103.606 90.7554 102.689C91.679 101.771 92.9317 101.255 94.238 101.255H95.1245C99.2025 101.231 100.646 100.766 101.192 100.374C101.291 100.306 102.079 99.7872 102.079 96.3128V75.8966C102.079 71.5706 104.285 68.424 106.861 66.3247C104.295 64.2057 102.079 61.0396 102.079 56.7332V37.6872C102.079 34.2421 101.296 33.7136 101.192 33.6402L101.182 33.6353C100.641 33.2438 99.1877 32.7691 95.1245 32.7447H94.238C92.9317 32.7447 91.679 32.2291 90.7554 31.3114C89.8317 30.3936 89.3128 29.1489 89.3128 27.8511Z" fill="#A67CF8" stroke="#A67CF8" stroke-width="3"/>
</g>
<defs>
<clipPath id="clip0_48_151">
<rect width="98" height="92" fill="white" transform="translate(28 21)"/>
</clipPath>
</defs>
</svg>
