<svg width="130" height="130" viewBox="0 0 130 130" fill="none" xmlns="http://www.w3.org/2000/svg">
<path fill-rule="evenodd" clip-rule="evenodd" d="M30.7248 31.6502C28 36.998 28 43.9987 28 58V76C28 90.0013 28 97.002 30.7248 102.35C33.1217 107.054 36.9462 110.878 41.6502 113.275C46.998 116 53.9987 116 68 116H86C100.001 116 107.002 116 112.35 113.275C117.054 110.878 120.878 107.054 123.275 102.35C126 97.002 126 90.0013 126 76V58C126 43.9987 126 36.998 123.275 31.6502C120.878 26.9462 117.054 23.1217 112.35 20.7248C107.002 18 100.001 18 86 18H68C53.9987 18 46.998 18 41.6502 20.7248C36.9462 23.1217 33.1217 26.9462 30.7248 31.6502ZM95.5734 44.68C94.7094 43.816 93.7254 43.384 92.6214 43.384C91.2294 43.384 90.0294 44.104 89.0214 45.544L77.1546 62.9083L64.4694 45.4C63.4614 44.056 62.2854 43.384 60.9414 43.384C59.8854 43.384 58.8534 43.792 57.8454 44.608C56.8374 45.424 56.3334 46.48 56.3334 47.776C56.3334 48.256 56.4294 48.784 56.6214 49.36C56.8134 49.936 57.1494 50.536 57.6294 51.16L72.6054 71.0587V89.608C72.6054 90.856 73.0134 91.912 73.8294 92.776C74.6934 93.592 75.7254 94 76.9254 94C78.0294 94 78.9894 93.592 79.8054 92.776C80.6694 91.912 81.1014 90.856 81.1014 89.608V72.0565L96.1494 50.512C96.4374 50.08 96.6294 49.648 96.7254 49.216C96.8694 48.736 96.9414 48.28 96.9414 47.848C96.9414 46.552 96.4854 45.496 95.5734 44.68Z" fill="#F1667F"/>
</svg>
