<svg width="130" height="130" viewBox="0 0 130 130" fill="none" xmlns="http://www.w3.org/2000/svg">
<path d="M28 88.1094V47.4219C28 43.5573 28.2005 40.6953 28.6016 38.8359C29.0026 36.9766 29.5677 35.3542 30.2969 33.9688C31.099 32.5104 32.0469 31.2344 33.1406 30.1406C34.2344 29.0469 35.5104 28.099 36.9688 27.2969C38.2812 26.6406 39.776 26.112 41.4531 25.7109C43.1302 25.3099 45.6094 25.0729 48.8906 25H56C56.875 25 57.6953 25.0365 58.4609 25.1094C59.2266 25.1823 59.9375 25.2917 60.5938 25.4375C61.25 25.5833 61.888 25.7839 62.5078 26.0391C63.1276 26.2943 63.7292 26.6042 64.3125 26.9688C64.8958 27.3333 65.4974 27.7708 66.1172 28.2812C66.737 28.7917 67.3385 29.3385 67.9219 29.9219L77 39H103.578C107.443 39 110.305 39.2005 112.164 39.6016C114.023 40.0026 115.646 40.5677 117.031 41.2969C118.49 42.099 119.766 43.0469 120.859 44.1406C121.953 45.2344 122.901 46.5104 123.703 47.9688C124.432 49.3542 124.997 50.9766 125.398 52.8359C125.799 54.6953 126 57.5573 126 61.4219V86.5781C126 90.4427 125.799 93.3047 125.398 95.1641C124.997 97.0234 124.432 98.6458 123.703 100.031C122.901 101.49 121.953 102.766 120.859 103.859C119.766 104.953 118.526 105.865 117.141 106.594L117.031 106.703C115.646 107.432 114.023 107.997 112.164 108.398C110.305 108.799 107.443 109 103.578 109H50.4219C46.5573 109 43.6953 108.799 41.8359 108.398C39.9766 107.997 38.3542 107.432 36.9688 106.703C35.5104 105.901 34.2344 104.953 33.1406 103.859C32.0469 102.766 31.1354 101.526 30.4062 100.141L30.2969 100.031C29.6406 98.7188 29.112 97.224 28.7109 95.5469C28.3099 93.8698 28.0729 91.3906 28 88.1094Z" fill="#A2AAD3"/>
</svg>
