<svg width="130" height="130" viewBox="0 0 130 130" fill="none" xmlns="http://www.w3.org/2000/svg">
<path d="M69.0909 56.6152C70.2424 57.7691 74.6182 60.0767 82.9091 60.0767C93.2727 60.0767 114 53.1537 114 35.8461C114 25.4619 103.636 22 93.2727 22C76 22 38 35.8461 38 56.6152C38 80.846 65.6364 70.4614 65.6364 94.6924C65.6364 101.615 58.7273 111.999 48.3636 112C43.8295 112 41.4545 108.538 41.4545 105.077C41.4545 98.8033 51.8182 84.3078 72.5455 84.3078C89.0625 84.3078 89.8182 91.2309 89.8182 94.6924C89.8182 97.4616 87.5152 100.461 86.3636 101.615" stroke="#F165A0" stroke-width="12" stroke-linecap="round"/>
</svg>
