<svg width="130" height="130" viewBox="0 0 130 130" fill="none" xmlns="http://www.w3.org/2000/svg">
<rect x="28" y="17" width="98" height="100" rx="16" fill="#F165A0"/>
<path d="M68.5096 85.6364H61.2994C61.2482 85.0398 61.1119 84.4986 60.8903 84.0128C60.6772 83.527 60.3789 83.1094 59.9954 82.7599C59.6204 82.402 59.1644 82.1293 58.6275 81.9418C58.0906 81.7457 57.4812 81.6477 56.7994 81.6477C55.6062 81.6477 54.5962 81.9375 53.7695 82.517C52.9513 83.0966 52.3292 83.9276 51.9031 85.0099C51.4854 86.0923 51.2766 87.392 51.2766 88.9091C51.2766 90.5114 51.4897 91.8537 51.9158 92.9361C52.3505 94.0099 52.9769 94.8196 53.7951 95.3651C54.6133 95.902 55.5977 96.1705 56.7482 96.1705C57.4045 96.1705 57.9925 96.0895 58.5124 95.9276C59.0323 95.7571 59.484 95.5142 59.8675 95.1989C60.2511 94.8835 60.5621 94.5043 60.8008 94.0611C61.0479 93.6094 61.2141 93.1023 61.2994 92.5398L68.5096 92.5909C68.4244 93.6989 68.1133 94.8281 67.5764 95.9787C67.0394 97.1207 66.2766 98.1776 65.288 99.1491C64.3079 100.112 63.0934 100.888 61.6445 101.476C60.1957 102.064 58.5124 102.358 56.5948 102.358C54.1914 102.358 52.0352 101.842 50.1261 100.811C48.2255 99.7798 46.7212 98.2628 45.6133 96.2599C44.5138 94.2571 43.9641 91.8068 43.9641 88.9091C43.9641 85.9943 44.5266 83.5398 45.6516 81.5455C46.7766 79.5426 48.2937 78.0298 50.2028 77.0071C52.1119 75.9759 54.2425 75.4602 56.5948 75.4602C58.2482 75.4602 59.7695 75.6861 61.1587 76.1378C62.5479 76.5895 63.7667 77.25 64.815 78.1193C65.8633 78.9801 66.707 80.0412 67.3462 81.3026C67.9854 82.5639 68.3732 84.0085 68.5096 85.6364ZM85.848 84C85.7798 83.1477 85.4602 82.483 84.8892 82.0057C84.3267 81.5284 83.4702 81.2898 82.3196 81.2898C81.5866 81.2898 80.9858 81.3793 80.517 81.5582C80.0568 81.7287 79.7159 81.9631 79.4943 82.2614C79.2727 82.5597 79.1577 82.9006 79.1491 83.2841C79.1321 83.5994 79.1875 83.8849 79.3153 84.1406C79.4517 84.3878 79.6648 84.6136 79.9545 84.8182C80.2443 85.0142 80.6151 85.1932 81.0668 85.3551C81.5185 85.517 82.0554 85.6619 82.6776 85.7898L84.8253 86.25C86.2741 86.5568 87.5142 86.9616 88.5455 87.4645C89.5767 87.9673 90.4205 88.5597 91.0767 89.2415C91.733 89.9148 92.2145 90.6733 92.5213 91.517C92.8366 92.3608 92.9986 93.2812 93.0071 94.2784C92.9986 96 92.5682 97.4574 91.7159 98.6506C90.8636 99.8438 89.6449 100.751 88.0597 101.374C86.483 101.996 84.5866 102.307 82.3707 102.307C80.0952 102.307 78.1094 101.97 76.4134 101.297C74.7259 100.624 73.4134 99.5881 72.4759 98.1903C71.5469 96.7841 71.0781 94.9858 71.0696 92.7955H77.8196C77.8622 93.5966 78.0625 94.2699 78.4205 94.8153C78.7784 95.3608 79.2813 95.7741 79.929 96.0554C80.5852 96.3366 81.3651 96.4773 82.2685 96.4773C83.027 96.4773 83.6619 96.3835 84.1733 96.196C84.6847 96.0085 85.0724 95.7486 85.3366 95.4162C85.6009 95.0838 85.7372 94.7045 85.7457 94.2784C85.7372 93.8778 85.6051 93.5284 85.3494 93.2301C85.1023 92.9233 84.6932 92.6506 84.1222 92.4119C83.5511 92.1648 82.7798 91.9347 81.8082 91.7216L79.2003 91.1591C76.8821 90.6562 75.054 89.8168 73.7159 88.6406C72.3864 87.456 71.7259 85.8409 71.7344 83.7955C71.7259 82.1335 72.169 80.6804 73.0639 79.4361C73.9673 78.1832 75.2159 77.2074 76.8097 76.5085C78.4119 75.8097 80.2486 75.4602 82.3196 75.4602C84.4332 75.4602 86.2614 75.8139 87.804 76.5213C89.3466 77.2287 90.5355 78.2259 91.3707 79.5128C92.2145 80.7912 92.6406 82.2869 92.6491 84H85.848ZM109.825 84C109.756 83.1477 109.437 82.483 108.866 82.0057C108.303 81.5284 107.447 81.2898 106.296 81.2898C105.563 81.2898 104.962 81.3793 104.494 81.5582C104.033 81.7287 103.692 81.9631 103.471 82.2614C103.249 82.5597 103.134 82.9006 103.126 83.2841C103.109 83.5994 103.164 83.8849 103.292 84.1406C103.428 84.3878 103.641 84.6136 103.931 84.8182C104.221 85.0142 104.592 85.1932 105.043 85.3551C105.495 85.517 106.032 85.6619 106.654 85.7898L108.802 86.25C110.251 86.5568 111.491 86.9616 112.522 87.4645C113.553 87.9673 114.397 88.5597 115.053 89.2415C115.71 89.9148 116.191 90.6733 116.498 91.517C116.813 92.3608 116.975 93.2812 116.984 94.2784C116.975 96 116.545 97.4574 115.692 98.6506C114.84 99.8438 113.621 100.751 112.036 101.374C110.46 101.996 108.563 102.307 106.347 102.307C104.072 102.307 102.086 101.97 100.39 101.297C98.7024 100.624 97.3899 99.5881 96.4524 98.1903C95.5234 96.7841 95.0547 94.9858 95.0462 92.7955H101.796C101.839 93.5966 102.039 94.2699 102.397 94.8153C102.755 95.3608 103.258 95.7741 103.906 96.0554C104.562 96.3366 105.342 96.4773 106.245 96.4773C107.004 96.4773 107.638 96.3835 108.15 96.196C108.661 96.0085 109.049 95.7486 109.313 95.4162C109.577 95.0838 109.714 94.7045 109.722 94.2784C109.714 93.8778 109.582 93.5284 109.326 93.2301C109.079 92.9233 108.67 92.6506 108.099 92.4119C107.528 92.1648 106.756 91.9347 105.785 91.7216L103.177 91.1591C100.859 90.6562 99.0305 89.8168 97.6925 88.6406C96.3629 87.456 95.7024 85.8409 95.7109 83.7955C95.7024 82.1335 96.1456 80.6804 97.0405 79.4361C97.9439 78.1832 99.1925 77.2074 100.786 76.5085C102.388 75.8097 104.225 75.4602 106.296 75.4602C108.41 75.4602 110.238 75.8139 111.781 76.5213C113.323 77.2287 114.512 78.2259 115.347 79.5128C116.191 80.7912 116.617 82.2869 116.626 84H109.825Z" fill="#EEEEEE"/>
</svg>
