<svg width="130" height="130" viewBox="0 0 130 130" fill="none" xmlns="http://www.w3.org/2000/svg">
<path d="M73 89.8668C85.9627 89.8668 97.8535 87.6213 106.625 83.862C111.005 81.985 114.758 79.6656 117.465 76.924C120.184 74.1683 122 70.811 122 67.0002C122 63.1893 120.184 59.832 117.465 57.0763C114.758 54.3347 111.005 52.0155 106.625 50.1383C97.8535 46.3789 85.9627 44.1335 73 44.1335C60.0373 44.1335 48.1467 46.3789 39.3748 50.1383C34.9947 52.0155 31.2414 54.3347 28.5356 57.0763C25.8159 59.832 24 63.1893 24 67.0002C24 70.811 25.8159 74.1683 28.5356 76.924C31.2414 79.6656 34.9947 81.985 39.3748 83.862C48.1467 87.6213 60.0373 89.8668 73 89.8668Z" stroke="#D6C436" stroke-width="10"/>
<path d="M81.0667 67.0001C81.0667 71.4552 77.4551 75.0668 73 75.0668C68.5449 75.0668 64.9333 71.4552 64.9333 67.0001C64.9333 62.545 68.5449 58.9335 73 58.9335C77.4551 58.9335 81.0667 62.545 81.0667 67.0001Z" fill="#D6C436" stroke="#D6C436" stroke-width="10"/>
<path d="M92.8034 78.4333C99.2845 67.2072 103.285 55.787 104.416 46.3106C104.98 41.5787 104.848 37.1686 103.826 33.4545C102.8 29.7214 100.8 26.4701 97.5002 24.5647C94.2002 22.6592 90.3848 22.5533 86.6379 23.5307C82.9109 24.5031 79.0258 26.5941 75.21 29.4488C67.5683 35.1658 59.6785 44.3406 53.1971 55.5666C46.7158 66.7926 42.7151 78.2129 41.5849 87.689C41.0205 92.4211 41.1522 96.8311 42.1737 100.545C43.2004 104.278 45.1999 107.529 48.5002 109.435C51.8005 111.34 55.616 111.447 59.3623 110.469C63.0895 109.497 66.9747 107.406 70.7904 104.551C78.4321 98.8342 86.3217 89.6595 92.8034 78.4333Z" stroke="#D6C436" stroke-width="10"/>
<path d="M92.8034 55.5666C86.3217 44.3406 78.4321 35.1658 70.7904 29.4488C66.9747 26.5941 63.0895 24.5031 59.3623 23.5307C55.616 22.5533 51.8006 22.6592 48.5002 24.5647C45.1999 26.4701 43.2004 29.7215 42.1738 33.4545C41.1523 37.1686 41.0205 41.5787 41.5849 46.3106C42.7151 55.787 46.7158 67.2072 53.1971 78.4333C59.6785 89.6595 67.5684 98.8342 75.2101 104.551C79.0258 107.406 82.9109 109.497 86.6379 110.469C90.3848 111.447 94.2003 111.34 97.5002 109.435C100.8 107.529 102.8 104.278 103.826 100.545C104.848 96.8311 104.98 92.4211 104.416 87.689C103.286 78.2129 99.2845 66.7926 92.8034 55.5666Z" stroke="#D6C436" stroke-width="10"/>
</svg>
