<svg width="130" height="130" viewBox="0 0 130 130" fill="none" xmlns="http://www.w3.org/2000/svg">
<path fill-rule="evenodd" clip-rule="evenodd" d="M28.7271 71.5912C29.8294 74.9834 32.7712 77.9253 38.6548 83.8086L60.1912 105.345C66.0748 111.229 69.0167 114.171 72.409 115.273C75.3929 116.242 78.6072 116.242 81.5911 115.273C84.9834 114.171 87.9253 111.229 93.8086 105.345L115.345 83.8086C121.229 77.9253 124.171 74.9834 125.273 71.5912C126.242 68.6072 126.242 65.393 125.273 62.409C124.171 59.0167 121.229 56.0748 115.345 50.1912L93.8086 28.6548C87.9253 22.7712 84.9834 19.8294 81.5911 18.7272C78.6072 17.7576 75.3929 17.7576 72.409 18.7272C69.9702 19.5195 67.7643 21.2627 64.5308 24.3661L103.225 63.0605C105.401 65.2363 105.401 68.7639 103.225 70.9396C101.049 73.1155 97.5221 73.1155 95.3463 70.9396L80.7143 56.3079V89.2857C80.7143 92.3626 78.2199 94.8571 75.1429 94.8571C72.066 94.8571 69.5715 92.3626 69.5715 89.2857V45.1651L56.6263 32.2198L38.6548 50.1912C32.7712 56.0748 29.8294 59.0167 28.7271 62.409C27.7576 65.393 27.7576 68.6072 28.7271 71.5912Z" fill="#F17F66"/>
</svg>
