<svg width="27" height="27" viewBox="0 0 27 27" fill="none" xmlns="http://www.w3.org/2000/svg">
<g clip-path="url(#clip0_171_596)">
<path d="M10.2337 25.5C9.8559 25.5 9.53946 25.3762 9.28435 25.1285C9.02835 24.8818 8.90035 24.5756 8.90035 24.2102L8.87008 2.78981C8.87008 2.42436 8.99808 2.11782 9.25408 1.87018C9.50919 1.62339 9.82563 1.5 10.2034 1.5C10.5812 1.5 10.8981 1.62339 11.1541 1.87018C11.4092 2.11782 11.5367 2.42436 11.5367 2.78981L11.567 24.2102C11.567 24.5756 11.4395 24.8818 11.1843 25.1285C10.9283 25.3762 10.6115 25.5 10.2337 25.5ZM2.95174 18.7424C2.57396 18.7424 2.25708 18.6186 2.00108 18.371C1.74596 18.1242 1.61841 17.8181 1.61841 17.4526V9.71374C1.61841 9.34829 1.74596 9.04174 2.00108 8.7941C2.25708 8.54732 2.57396 8.42393 2.95174 8.42393C3.32952 8.42393 3.64641 8.54732 3.90241 8.7941C4.15752 9.04174 4.28507 9.34829 4.28507 9.71374V17.4526C4.28507 17.8181 4.15752 18.1242 3.90241 18.371C3.64641 18.6186 3.32952 18.7424 2.95174 18.7424ZM17.2215 21.1915C16.8438 21.1915 16.5273 21.0677 16.2722 20.82C16.0162 20.5732 15.8882 20.2671 15.8882 19.9017V7.00355C15.8882 6.6381 16.0162 6.33156 16.2722 6.08391C16.5273 5.83713 16.8438 5.71374 17.2215 5.71374C17.5993 5.71374 17.9162 5.83713 18.1722 6.08391C18.4273 6.33156 18.5549 6.6381 18.5549 7.00355V19.9017C18.5549 20.2671 18.4273 20.5732 18.1722 20.82C17.9162 21.0677 17.5993 21.1915 17.2215 21.1915ZM24.074 17.4526C23.6962 17.4526 23.3798 17.3288 23.1247 17.0811C22.8687 16.8344 22.7407 16.5282 22.7407 16.1628V11.0035C22.7407 10.6381 22.8687 10.3316 23.1247 10.0839C23.3798 9.83713 23.6962 9.71374 24.074 9.71374C24.4518 9.71374 24.7682 9.83713 25.0233 10.0839C25.2793 10.3316 25.4073 10.6381 25.4073 11.0035V16.1628C25.4073 16.5282 25.2793 16.8344 25.0233 17.0811C24.7682 17.3288 24.4518 17.4526 24.074 17.4526Z" fill="#5BAFD4"/>
</g>
<defs>
<clipPath id="clip0_171_596">
<rect width="24" height="24" fill="white" transform="translate(1.5 1.5)"/>
</clipPath>
</defs>
</svg>
