<svg width="27" height="27" viewBox="0 0 27 27" fill="none" xmlns="http://www.w3.org/2000/svg">
<path d="M24 18.5685C24 18.9886 23.9681 19.3721 23.9043 19.7192C23.8405 20.0662 23.7357 20.3858 23.5898 20.6781C23.4622 20.9703 23.2982 21.2352 23.0977 21.4726C22.8971 21.71 22.6693 21.9201 22.4141 22.1027C22.1406 22.2854 21.8398 22.4406 21.5117 22.5685C21.1836 22.6963 20.8099 22.7968 20.3906 22.8699L20.0352 22.9521C19.9622 22.9521 19.8757 22.9566 19.7754 22.9658C19.6751 22.9749 19.5703 22.9795 19.4609 22.9795C18.6406 22.9795 17.9251 22.7192 17.3145 22.1986C16.7038 21.6781 16.3255 21.0251 16.1797 20.2397L16.1523 20.0479C16.1523 19.9566 16.1478 19.8607 16.1387 19.7603C16.1296 19.6598 16.125 19.5639 16.125 19.4726C16.125 19.2169 16.1432 18.9749 16.1797 18.7466C16.2161 18.5183 16.2799 18.2945 16.3711 18.0753L16.3438 18.1027C16.4531 17.8105 16.5944 17.5502 16.7676 17.3219C16.9408 17.0936 17.1549 16.8881 17.4102 16.7055C17.6654 16.5228 17.9434 16.3676 18.2441 16.2397C18.5449 16.1119 18.8594 16.0297 19.1875 15.9932H19.2148L20.0352 15.8562C20.418 15.7831 20.737 15.6005 20.9922 15.3082C21.2474 15.016 21.375 14.6781 21.375 14.2945V8.73288L10.875 10.7877V21.3904C10.875 21.8836 10.8477 22.2808 10.793 22.5822C10.7383 22.8836 10.6471 23.1621 10.5195 23.4178C10.4102 23.6735 10.2689 23.9018 10.0957 24.1027C9.92253 24.3037 9.72656 24.4863 9.50781 24.6507C9.27083 24.8151 9.00651 24.9521 8.71484 25.0616C8.42318 25.1712 8.04036 25.2626 7.56641 25.3356L6.91016 25.4726C6.83724 25.4726 6.75065 25.4772 6.65039 25.4863C6.55013 25.4954 6.44531 25.5 6.33594 25.5C5.51563 25.5 4.80013 25.2397 4.18945 24.7192C3.57878 24.1986 3.20052 23.5457 3.05469 22.7603V22.7329L3.02734 22.5685C3.02734 22.4772 3.02279 22.3813 3.01367 22.2808C3.00456 22.1804 3 22.0845 3 21.9932C3 21.7374 3.01823 21.4954 3.05469 21.2671C3.09115 21.0388 3.15495 20.8151 3.24609 20.5959L3.21875 20.6233C3.32813 20.331 3.4694 20.0708 3.64258 19.8425C3.81576 19.6142 4.02995 19.4087 4.28516 19.226C4.54036 19.0434 4.81836 18.8881 5.11914 18.7603C5.41992 18.6324 5.73438 18.5502 6.0625 18.5137H6.08984L6.91016 18.3767C7.29297 18.3037 7.61198 18.121 7.86719 17.8288C8.1224 17.5365 8.25 17.1986 8.25 16.8151V5.71918V5.33562L8.30469 5.06164C8.30469 5.06164 8.33203 4.97032 8.38672 4.78767C8.42318 4.69635 8.47786 4.60959 8.55078 4.5274C8.6237 4.44521 8.69661 4.37671 8.76953 4.32192H8.79688C8.86979 4.24886 8.96549 4.1895 9.08398 4.14384C9.20247 4.09817 9.38932 4.04794 9.64453 3.99315L22.4414 1.5H22.5645H22.6875C23.0521 1.5 23.362 1.62785 23.6172 1.88356C23.8724 2.13927 24 2.44977 24 2.81507V18.5685Z" fill="#A2AAD3"/>
</svg>
