<svg width="27" height="27" viewBox="0 0 27 27" fill="none" xmlns="http://www.w3.org/2000/svg">
<g clip-path="url(#clip0_171_329)">
<path fill-rule="evenodd" clip-rule="evenodd" d="M2 9.5C2 6.69974 2 5.2996 2.52225 4.23004C2.98166 3.28924 3.71469 2.52434 4.61629 2.04496C5.64128 1.5 6.98308 1.5 9.66667 1.5H17.3333C20.0169 1.5 21.3587 1.5 22.3838 2.04496C23.2854 2.52434 24.0183 3.28924 24.4777 4.23004C25 5.2996 25 6.69974 25 9.5V17.5C25 20.3002 25 21.7004 24.4777 22.77C24.0183 23.7108 23.2854 24.4756 22.3838 24.955C21.3587 25.5 20.0169 25.5 17.3333 25.5H9.66667C6.98308 25.5 5.64128 25.5 4.61629 24.955C3.71469 24.4756 2.98166 23.7108 2.52225 22.77C2 21.7004 2 20.3002 2 17.5V9.5ZM11.5597 7.5103C11.448 7.50078 11.2925 7.5 11.0083 7.5H9.66667V5.5H11.0083H11.0389C11.2808 5.49996 11.5163 5.49994 11.7158 5.51694C11.9349 5.53562 12.1934 5.57968 12.4535 5.71798C12.8141 5.90974 13.1073 6.2157 13.2911 6.59202C13.4236 6.86344 13.4659 7.13318 13.4838 7.36178C13.5001 7.56992 13.5 7.8157 13.5 8.06806V8.1V13.5H11.5833V8.1C11.5833 7.80348 11.5826 7.64122 11.5735 7.52464L11.5724 7.51144L11.5597 7.5103ZM17.8779 5.5H17.9083H18.675H18.7055C18.9472 5.49996 19.1829 5.49994 19.3824 5.51694C19.6015 5.53562 19.8601 5.57968 20.1202 5.71798C20.4809 5.90974 20.7739 6.2157 20.9577 6.59202C21.0904 6.86344 21.1325 7.13318 21.1504 7.36178C21.1667 7.56994 21.1667 7.81574 21.1667 8.06812V8.1V10.9V10.9319C21.1667 11.1843 21.1667 11.4301 21.1504 11.6382C21.1325 11.8668 21.0904 12.1366 20.9577 12.408C20.7739 12.7843 20.4809 13.0903 20.1202 13.282C19.8601 13.4203 19.6015 13.4644 19.3824 13.4831C19.1829 13.5001 18.9475 13.5 18.7057 13.5H18.675H17.9083H17.8779C17.636 13.5 17.4004 13.5001 17.2009 13.4831C16.9818 13.4644 16.7233 13.4203 16.4632 13.282C16.1025 13.0903 15.8093 12.7843 15.6256 12.408C15.493 12.1366 15.4508 11.8668 15.4329 11.6382C15.4166 11.4301 15.4166 11.1843 15.4167 10.9319V10.9V8.1V8.0681C15.4166 7.81574 15.4166 7.56992 15.4329 7.36178C15.4508 7.13318 15.493 6.86344 15.6256 6.59202C15.8093 6.2157 16.1025 5.90974 16.4632 5.71798C16.7233 5.57968 16.9818 5.53562 17.2009 5.51694C17.4004 5.49994 17.6362 5.49996 17.8779 5.5ZM17.3443 7.51144L17.3433 7.52464C17.3341 7.64122 17.3333 7.80348 17.3333 8.1V10.9C17.3333 11.1965 17.3341 11.3588 17.3433 11.4754L17.3443 11.4886L17.3569 11.4897C17.4686 11.4992 17.6241 11.5 17.9083 11.5H18.675C18.9592 11.5 19.1147 11.4992 19.2264 11.4897L19.2391 11.4886L19.24 11.4754C19.2492 11.3588 19.25 11.1965 19.25 10.9V8.1C19.25 7.80348 19.2492 7.64122 19.24 7.52464L19.2391 7.51144L19.2264 7.5103C19.1147 7.50078 18.9592 7.5 18.675 7.5H17.9083C17.6241 7.5 17.4686 7.50078 17.3569 7.5103L17.3443 7.51144ZM12.1583 15.5H12.1278C11.8859 15.5 11.6503 15.4999 11.4509 15.5169C11.2318 15.5356 10.9733 15.5797 10.7132 15.718C10.3525 15.9097 10.0593 16.2157 9.87556 16.592C9.74303 16.8634 9.7008 17.1332 9.6829 17.3618C9.66661 17.57 9.66663 17.8156 9.66667 18.068V18.1V20.9V20.9318C9.66663 21.1842 9.66661 21.43 9.6829 21.6382C9.7008 21.8668 9.74303 22.1366 9.87556 22.408C10.0593 22.7844 10.3525 23.0902 10.7132 23.282C10.9733 23.4204 11.2318 23.4644 11.4509 23.483C11.6503 23.5 11.8859 23.5 12.1277 23.5H12.1583H12.925H12.9556C13.1974 23.5 13.433 23.5 13.6325 23.483C13.8515 23.4644 14.11 23.4204 14.3701 23.282C14.7308 23.0902 15.024 22.7844 15.2078 22.408C15.3403 22.1366 15.3825 21.8668 15.4004 21.6382C15.4167 21.43 15.4167 21.1844 15.4167 20.932V20.9V18.1V18.0682C15.4167 17.8158 15.4167 17.57 15.4004 17.3618C15.3825 17.1332 15.3403 16.8634 15.2078 16.592C15.024 16.2157 14.7308 15.9097 14.3701 15.718C14.11 15.5797 13.8515 15.5356 13.6325 15.5169C13.433 15.4999 13.1975 15.5 12.9556 15.5H12.925H12.1583ZM11.5932 17.5246L11.5943 17.5114L11.6069 17.5104C11.7187 17.5008 11.8742 17.5 12.1583 17.5H12.925C13.2092 17.5 13.3647 17.5008 13.4764 17.5104L13.489 17.5114L13.4901 17.5246C13.4993 17.6412 13.5 17.8034 13.5 18.1V20.9C13.5 21.1966 13.4993 21.3588 13.4901 21.4754L13.489 21.4886L13.4764 21.4896C13.3647 21.4992 13.2092 21.5 12.925 21.5H12.1583C11.8742 21.5 11.7187 21.4992 11.6069 21.4896L11.5943 21.4886L11.5932 21.4754C11.5841 21.3588 11.5833 21.1966 11.5833 20.9V18.1C11.5833 17.8034 11.5841 17.6412 11.5932 17.5246ZM18.675 17.5C18.9592 17.5 19.1147 17.5008 19.2264 17.5104L19.2391 17.5114L19.24 17.5246C19.2492 17.6412 19.25 17.8034 19.25 18.1V23.5H21.1667V18.1V18.0682C21.1667 17.8158 21.1667 17.57 21.1504 17.3618C21.1325 17.1332 21.0904 16.8634 20.9577 16.592C20.7739 16.2157 20.4809 15.9097 20.1202 15.718C19.8601 15.5797 19.6015 15.5356 19.3824 15.5169C19.1829 15.4999 18.9475 15.5 18.7057 15.5H18.675H17.3333V17.5H18.675Z" fill="#8080A0"/>
</g>
<defs>
<clipPath id="clip0_171_329">
<rect width="24" height="24" fill="white" transform="translate(1.5 1.5)"/>
</clipPath>
</defs>
</svg>
