<svg width="27" height="27" viewBox="0 0 27 27" fill="none" xmlns="http://www.w3.org/2000/svg">
<path fill-rule="evenodd" clip-rule="evenodd" d="M12.6684 1.59087C12.0487 1.72259 11.4658 2.05912 10.3 2.73218L5.7733 5.34567C4.60752 6.01873 4.02464 6.35526 3.60072 6.82607C3.22563 7.24265 2.94229 7.73341 2.76907 8.26653C2.5733 8.86906 2.5733 9.54212 2.5733 10.8882V16.1152C2.5733 17.4613 2.5733 18.1344 2.76907 18.7369C2.94229 19.2701 3.22563 19.7608 3.60072 20.1774C4.02464 20.6482 4.60752 20.9847 5.7733 21.6578L10.3 24.2713L10.3 24.2713C11.4658 24.9443 12.0487 25.2809 12.6684 25.4126C13.2167 25.5291 13.7833 25.5291 14.3316 25.4126C14.9513 25.2809 15.5342 24.9443 16.7 24.2713L16.7 24.2713L21.2267 21.6578L21.2267 21.6578C22.3925 20.9847 22.9754 20.6482 23.3993 20.1774C23.7744 19.7608 24.0577 19.2701 24.2309 18.7369C24.4267 18.1344 24.4267 17.4613 24.4267 16.1152V10.8882C24.4267 9.54212 24.4267 8.86906 24.2309 8.26653C24.0577 7.73341 23.7744 7.24265 23.3993 6.82607C22.9754 6.35526 22.3925 6.01873 21.2267 5.34567L16.7 2.73218C15.5342 2.05912 14.9513 1.72259 14.3316 1.59087C13.7833 1.47432 13.2167 1.47432 12.6684 1.59087ZM13.5 18.7589C16.4034 18.7589 18.7571 16.4052 18.7571 13.5017C18.7571 10.5983 16.4034 8.24462 13.5 8.24462C10.5966 8.24462 8.24288 10.5983 8.24288 13.5017C8.24288 16.4052 10.5966 18.7589 13.5 18.7589Z" fill="#A2AAD3"/>
</svg>
