<svg width="27" height="28" viewBox="0 0 27 28" fill="none" xmlns="http://www.w3.org/2000/svg">
<path fill-rule="evenodd" clip-rule="evenodd" d="M9.49995 3.95792L9.49995 3.95793L6.57324 5.64766C5.11603 6.48898 4.38742 6.90965 3.85752 7.49816C3.38866 8.01888 3.03449 8.63233 2.81796 9.29873C2.57324 10.0519 2.57324 10.8932 2.57324 12.5759V15.9553C2.57324 17.638 2.57324 18.4793 2.81796 19.2325C3.03449 19.8989 3.38866 20.5123 3.85752 21.033C4.38742 21.6215 5.11602 22.0422 6.57323 22.8835L6.57324 22.8835L9.49995 24.5733C10.9572 25.4146 11.6858 25.8353 12.4604 25.9999C13.1458 26.1456 13.8541 26.1456 14.5395 25.9999C15.3141 25.8353 16.0427 25.4146 17.5 24.5733L20.4267 22.8835C21.8839 22.0422 22.6125 21.6215 23.1424 21.033C23.6112 20.5123 23.9654 19.8989 24.1819 19.2325C24.4267 18.4793 24.4267 17.638 24.4267 15.9553V12.5759C24.4267 10.8932 24.4267 10.0519 24.1819 9.29873C23.9654 8.63233 23.6112 8.01888 23.1424 7.49816C22.6125 6.90965 21.8839 6.48898 20.4267 5.64766L17.4999 3.95793C16.0427 3.1166 15.3141 2.69594 14.5395 2.53129C13.8541 2.38561 13.1458 2.38561 12.4604 2.53129C11.6858 2.69594 10.9572 3.1166 9.49995 3.95792ZM13.4999 18.7656C15.9852 18.7656 17.9999 16.7509 17.9999 14.2656C17.9999 11.7803 15.9852 9.7656 13.4999 9.7656C11.0147 9.7656 8.99995 11.7803 8.99995 14.2656C8.99995 16.7509 11.0147 18.7656 13.4999 18.7656Z" fill="#A2AAD3"/>
</svg>
