<svg width="30" height="30" viewBox="0 0 30 30" fill="none" xmlns="http://www.w3.org/2000/svg">
<path fill-rule="evenodd" clip-rule="evenodd" d="M11 4.69407L10.9999 4.69407L8.07324 6.3838C6.61603 7.22513 5.88742 7.64579 5.35752 8.2343C4.88866 8.75502 4.53449 9.36847 4.31796 10.0349C4.07324 10.788 4.07324 11.6294 4.07324 13.312V16.6915C4.07324 18.3741 4.07324 19.2154 4.31796 19.9686C4.53449 20.635 4.88866 21.2485 5.35752 21.7692C5.88742 22.3577 6.61602 22.7784 8.07323 23.6197L8.07324 23.6197L10.9999 25.3094C12.4572 26.1507 13.1858 26.5714 13.9604 26.736C14.6458 26.8817 15.3541 26.8817 16.0395 26.736C16.8141 26.5714 17.5427 26.1507 19 25.3094L21.9267 23.6197C23.3839 22.7784 24.1125 22.3577 24.6424 21.7692C25.1112 21.2485 25.4654 20.635 25.6819 19.9686C25.9267 19.2154 25.9267 18.3741 25.9267 16.6915V13.312C25.9267 11.6294 25.9267 10.788 25.6819 10.0349C25.4654 9.36847 25.1112 8.75502 24.6424 8.2343C24.1125 7.64579 23.3839 7.22513 21.9267 6.3838L18.9999 4.69407C17.5427 3.85275 16.8141 3.43208 16.0395 3.26743C15.3541 3.12175 14.6458 3.12175 13.9604 3.26743C13.1858 3.43208 12.4572 3.85275 11 4.69407ZM14.9999 19.5017C17.4852 19.5017 19.4999 17.487 19.4999 15.0017C19.4999 12.5165 17.4852 10.5017 14.9999 10.5017C12.5147 10.5017 10.4999 12.5165 10.4999 15.0017C10.4999 17.487 12.5147 19.5017 14.9999 19.5017Z" fill="#A2AAD3"/>
</svg>
