<svg width="27" height="27" viewBox="0 0 27 27" fill="none" xmlns="http://www.w3.org/2000/svg">
<path fill-rule="evenodd" clip-rule="evenodd" d="M9.49995 3.19407L9.49995 3.19407L6.57324 4.8838C5.11603 5.72513 4.38742 6.14579 3.85752 6.7343C3.38866 7.25502 3.03449 7.86847 2.81796 8.53487C2.57324 9.28804 2.57324 10.1294 2.57324 11.812V15.1915C2.57324 16.8741 2.57324 17.7154 2.81796 18.4686C3.03449 19.135 3.38866 19.7485 3.85752 20.2692C4.38742 20.8577 5.11602 21.2784 6.57323 22.1197L6.57324 22.1197L9.49995 23.8094C10.9572 24.6507 11.6858 25.0714 12.4604 25.236C13.1458 25.3817 13.8541 25.3817 14.5395 25.236C15.3141 25.0714 16.0427 24.6507 17.5 23.8094L20.4267 22.1197C21.8839 21.2784 22.6125 20.8577 23.1424 20.2692C23.6112 19.7485 23.9654 19.135 24.1819 18.4686C24.4267 17.7154 24.4267 16.8741 24.4267 15.1915V11.812C24.4267 10.1294 24.4267 9.28804 24.1819 8.53487C23.9654 7.86847 23.6112 7.25502 23.1424 6.7343C22.6125 6.14579 21.8839 5.72513 20.4267 4.8838L17.4999 3.19407C16.0427 2.35275 15.3141 1.93208 14.5395 1.76743C13.8541 1.62175 13.1458 1.62175 12.4604 1.76743C11.6858 1.93208 10.9572 2.35275 9.49995 3.19407ZM13.4999 18.0017C15.9852 18.0017 17.9999 15.987 17.9999 13.5017C17.9999 11.0165 15.9852 9.00174 13.4999 9.00174C11.0147 9.00174 8.99995 11.0165 8.99995 13.5017C8.99995 15.987 11.0147 18.0017 13.4999 18.0017Z" fill="#A2AAD3"/>
</svg>
