<svg width="27" height="28" viewBox="0 0 27 28" fill="none" xmlns="http://www.w3.org/2000/svg">
<path d="M5.2 3.38364H17C18.4166 3.38364 19.419 3.38441 20.2026 3.44844C20.9745 3.5115 21.4457 3.63093 21.816 3.81961C22.5686 4.2031 23.1805 4.81503 23.564 5.56767C23.7527 5.93799 23.8721 6.40916 23.9352 7.18108C23.9992 7.96467 24 8.967 24 10.3836V18.3836C24 19.8003 23.9992 20.8026 23.9352 21.5862C23.8721 22.3581 23.7527 22.8293 23.564 23.1996C23.1805 23.9522 22.5686 24.5642 21.816 24.9477C21.4457 25.1363 20.9745 25.2558 20.2026 25.3188C19.419 25.3829 18.4166 25.3836 17 25.3836H10C8.58337 25.3836 7.58104 25.3829 6.79744 25.3188C6.02552 25.2558 5.55435 25.1363 5.18404 24.9477C4.43139 24.5642 3.81947 23.9522 3.43597 23.1996C3.24729 22.8293 3.12787 22.3581 3.0648 21.5862C3.00078 20.8026 3 19.8003 3 18.3836V5.58364C3 5.00708 3.00078 4.63481 3.02393 4.35147C3.04612 4.07981 3.0838 3.97909 3.10899 3.92965C3.20487 3.74148 3.35785 3.5885 3.54601 3.49263C3.59545 3.46744 3.69617 3.42976 3.96784 3.40756C4.25117 3.38441 4.62345 3.38364 5.2 3.38364Z" stroke="#F165A0" stroke-width="2"/>
<path d="M9.36587 19.3072C9.36587 19.151 9.42446 19.0143 9.54165 18.8971C9.65884 18.7799 9.8037 18.7213 9.97622 18.7213C10.1487 18.7213 10.2936 18.7799 10.4108 18.8971C10.528 19.0143 10.5866 19.151 10.5866 19.3072C10.5866 20.0038 10.3375 20.6012 9.8395 21.0992C9.34146 21.5973 8.73599 21.8463 8.0231 21.8463C7.31021 21.8463 6.70474 21.5973 6.20669 21.0992C5.70864 20.6012 5.45962 20.0038 5.45962 19.3072V16.8658C5.45962 16.1692 5.70864 15.5719 6.20669 15.0738C6.70474 14.5758 7.31021 14.3268 8.0231 14.3268C8.73599 14.3268 9.34146 14.5758 9.8395 15.0738C10.3375 15.5719 10.5866 16.1692 10.5866 16.8658C10.5866 17.0221 10.528 17.1588 10.4108 17.276C10.2936 17.3932 10.1487 17.4518 9.97622 17.4518C9.8037 17.4518 9.65884 17.3932 9.54165 17.276C9.42446 17.1588 9.36587 17.0221 9.36587 16.8658C9.36587 16.485 9.23241 16.1627 8.96548 15.899C8.70181 15.6321 8.38768 15.4986 8.0231 15.4986C7.65851 15.4986 7.34276 15.6321 7.07583 15.899C6.81216 16.1627 6.68032 16.485 6.68032 16.8658V19.3072C6.68032 19.6881 6.81216 20.012 7.07583 20.2789C7.34276 20.5426 7.65851 20.6744 8.0231 20.6744C8.38768 20.6744 8.70181 20.5426 8.96548 20.2789C9.23241 20.012 9.36587 19.6881 9.36587 19.3072ZM16.1459 16.4996C16.1459 16.6559 16.0874 16.7926 15.9702 16.9098C15.853 17.0269 15.7081 17.0855 15.5356 17.0855C15.3631 17.0855 15.2182 17.0269 15.101 16.9098C14.9838 16.7926 14.9252 16.6559 14.9252 16.4996C14.9252 16.2197 14.8276 15.9837 14.6323 15.7916C14.4402 15.5963 14.2124 15.4986 13.9487 15.4986H13.2163C12.9526 15.4986 12.7231 15.5963 12.5278 15.7916C12.3357 15.9837 12.2397 16.2197 12.2397 16.4996C12.2397 16.7796 12.3357 17.0172 12.5278 17.2125C12.7231 17.4046 12.9526 17.5006 13.2163 17.5006H13.9487C14.5607 17.5006 15.0799 17.7138 15.5063 18.1402C15.9327 18.5667 16.1459 19.0777 16.1459 19.6734C16.1459 20.2691 15.9327 20.7802 15.5063 21.2066C15.0799 21.6331 14.5607 21.8463 13.9487 21.8463H13.2163C12.6043 21.8463 12.0851 21.6331 11.6586 21.2066C11.2322 20.7802 11.019 20.2691 11.019 19.6734C11.019 19.5172 11.0776 19.3805 11.1948 19.2633C11.312 19.1461 11.4568 19.0875 11.6293 19.0875C11.8019 19.0875 11.9467 19.1461 12.0639 19.2633C12.1811 19.3805 12.2397 19.5172 12.2397 19.6734C12.2397 19.9534 12.3357 20.191 12.5278 20.3863C12.7231 20.5784 12.9526 20.6744 13.2163 20.6744H13.9487C14.2124 20.6744 14.4402 20.5784 14.6323 20.3863C14.8276 20.191 14.9252 19.9534 14.9252 19.6734C14.9252 19.3935 14.8276 19.1575 14.6323 18.9654C14.4402 18.7701 14.2124 18.6725 13.9487 18.6725H13.2163C12.6043 18.6725 12.0851 18.4592 11.6586 18.0328C11.2322 17.6064 11.019 17.0953 11.019 16.4996C11.019 15.9039 11.2322 15.3928 11.6586 14.9664C12.0851 14.54 12.6043 14.3268 13.2163 14.3268H13.9487C14.5607 14.3268 15.0799 14.54 15.5063 14.9664C15.9327 15.3928 16.1459 15.9039 16.1459 16.4996ZM21.7053 16.4996C21.7053 16.6559 21.6467 16.7926 21.5295 16.9098C21.4124 17.0269 21.2675 17.0855 21.095 17.0855C20.9224 17.0855 20.7776 17.0269 20.6604 16.9098C20.5432 16.7926 20.4846 16.6559 20.4846 16.4996C20.4846 16.2197 20.387 15.9837 20.1917 15.7916C19.9996 15.5963 19.7717 15.4986 19.5081 15.4986H18.7756C18.512 15.4986 18.2825 15.5963 18.0872 15.7916C17.8951 15.9837 17.7991 16.2197 17.7991 16.4996C17.7991 16.7796 17.8951 17.0172 18.0872 17.2125C18.2825 17.4046 18.512 17.5006 18.7756 17.5006H19.5081C20.12 17.5006 20.6392 17.7138 21.0657 18.1402C21.4921 18.5667 21.7053 19.0777 21.7053 19.6734C21.7053 20.2691 21.4921 20.7802 21.0657 21.2066C20.6392 21.6331 20.12 21.8463 19.5081 21.8463H18.7756C18.1637 21.8463 17.6444 21.6331 17.218 21.2066C16.7916 20.7802 16.5784 20.2691 16.5784 19.6734C16.5784 19.5172 16.637 19.3805 16.7542 19.2633C16.8713 19.1461 17.0162 19.0875 17.1887 19.0875C17.3612 19.0875 17.5061 19.1461 17.6233 19.2633C17.7405 19.3805 17.7991 19.5172 17.7991 19.6734C17.7991 19.9534 17.8951 20.191 18.0872 20.3863C18.2825 20.5784 18.512 20.6744 18.7756 20.6744H19.5081C19.7717 20.6744 19.9996 20.5784 20.1917 20.3863C20.387 20.191 20.4846 19.9534 20.4846 19.6734C20.4846 19.3935 20.387 19.1575 20.1917 18.9654C19.9996 18.7701 19.7717 18.6725 19.5081 18.6725H18.7756C18.1637 18.6725 17.6444 18.4592 17.218 18.0328C16.7916 17.6064 16.5784 17.0953 16.5784 16.4996C16.5784 15.9039 16.7916 15.3928 17.218 14.9664C17.6444 14.54 18.1637 14.3268 18.7756 14.3268H19.5081C20.12 14.3268 20.6392 14.54 21.0657 14.9664C21.4921 15.3928 21.7053 15.9039 21.7053 16.4996Z" fill="#F165A0"/>
</svg>
