<svg width="27" height="27" viewBox="0 0 27 27" fill="none" xmlns="http://www.w3.org/2000/svg">
<path d="M5.2 2.5H17C18.4166 2.5 19.419 2.50078 20.2026 2.5648C20.9745 2.62787 21.4457 2.74729 21.816 2.93597C22.5686 3.31947 23.1805 3.93139 23.564 4.68404C23.7527 5.05435 23.8721 5.52552 23.9352 6.29744C23.9992 7.08104 24 8.08337 24 9.5V17.5C24 18.9166 23.9992 19.919 23.9352 20.7026C23.8721 21.4745 23.7527 21.9457 23.564 22.316C23.1805 23.0686 22.5686 23.6805 21.816 24.064C21.4457 24.2527 20.9745 24.3721 20.2026 24.4352C19.419 24.4992 18.4166 24.5 17 24.5H10C8.58337 24.5 7.58104 24.4992 6.79744 24.4352C6.02552 24.3721 5.55435 24.2527 5.18404 24.064C4.43139 23.6805 3.81947 23.0686 3.43597 22.316C3.24729 21.9457 3.12787 21.4745 3.0648 20.7026C3.00078 19.919 3 18.9166 3 17.5V4.7C3 4.12345 3.00078 3.75117 3.02393 3.46784C3.04612 3.19617 3.0838 3.09545 3.10899 3.04601C3.20487 2.85785 3.35785 2.70487 3.54601 2.60899C3.59545 2.5838 3.69617 2.54612 3.96784 2.52393C4.25117 2.50078 4.62345 2.5 5.2 2.5Z" stroke="#F165A0" stroke-width="2"/>
<path d="M9.36587 18.4236C9.36587 18.2673 9.42446 18.1306 9.54165 18.0134C9.65884 17.8962 9.8037 17.8376 9.97622 17.8376C10.1487 17.8376 10.2936 17.8962 10.4108 18.0134C10.528 18.1306 10.5866 18.2673 10.5866 18.4236C10.5866 19.1202 10.3375 19.7175 9.8395 20.2156C9.34146 20.7136 8.73599 20.9626 8.0231 20.9626C7.31021 20.9626 6.70474 20.7136 6.20669 20.2156C5.70864 19.7175 5.45962 19.1202 5.45962 18.4236V15.9822C5.45962 15.2856 5.70864 14.6882 6.20669 14.1902C6.70474 13.6921 7.31021 13.4431 8.0231 13.4431C8.73599 13.4431 9.34146 13.6921 9.8395 14.1902C10.3375 14.6882 10.5866 15.2856 10.5866 15.9822C10.5866 16.1384 10.528 16.2751 10.4108 16.3923C10.2936 16.5095 10.1487 16.5681 9.97622 16.5681C9.8037 16.5681 9.65884 16.5095 9.54165 16.3923C9.42446 16.2751 9.36587 16.1384 9.36587 15.9822C9.36587 15.6013 9.23241 15.2791 8.96548 15.0154C8.70181 14.7485 8.38768 14.615 8.0231 14.615C7.65851 14.615 7.34276 14.7485 7.07583 15.0154C6.81216 15.2791 6.68032 15.6013 6.68032 15.9822V18.4236C6.68032 18.8044 6.81216 19.1283 7.07583 19.3953C7.34276 19.6589 7.65851 19.7908 8.0231 19.7908C8.38768 19.7908 8.70181 19.6589 8.96548 19.3953C9.23241 19.1283 9.36587 18.8044 9.36587 18.4236ZM16.1459 15.616C16.1459 15.7722 16.0874 15.9089 15.9702 16.0261C15.853 16.1433 15.7081 16.2019 15.5356 16.2019C15.3631 16.2019 15.2182 16.1433 15.101 16.0261C14.9838 15.9089 14.9252 15.7722 14.9252 15.616C14.9252 15.336 14.8276 15.1 14.6323 14.908C14.4402 14.7126 14.2124 14.615 13.9487 14.615H13.2163C12.9526 14.615 12.7231 14.7126 12.5278 14.908C12.3357 15.1 12.2397 15.336 12.2397 15.616C12.2397 15.8959 12.3357 16.1335 12.5278 16.3289C12.7231 16.5209 12.9526 16.6169 13.2163 16.6169H13.9487C14.5607 16.6169 15.0799 16.8302 15.5063 17.2566C15.9327 17.683 16.1459 18.1941 16.1459 18.7898C16.1459 19.3855 15.9327 19.8966 15.5063 20.323C15.0799 20.7494 14.5607 20.9626 13.9487 20.9626H13.2163C12.6043 20.9626 12.0851 20.7494 11.6586 20.323C11.2322 19.8966 11.019 19.3855 11.019 18.7898C11.019 18.6335 11.0776 18.4968 11.1948 18.3796C11.312 18.2625 11.4568 18.2039 11.6293 18.2039C11.8019 18.2039 11.9467 18.2625 12.0639 18.3796C12.1811 18.4968 12.2397 18.6335 12.2397 18.7898C12.2397 19.0697 12.3357 19.3074 12.5278 19.5027C12.7231 19.6947 12.9526 19.7908 13.2163 19.7908H13.9487C14.2124 19.7908 14.4402 19.6947 14.6323 19.5027C14.8276 19.3074 14.9252 19.0697 14.9252 18.7898C14.9252 18.5098 14.8276 18.2738 14.6323 18.0818C14.4402 17.8865 14.2124 17.7888 13.9487 17.7888H13.2163C12.6043 17.7888 12.0851 17.5756 11.6586 17.1492C11.2322 16.7227 11.019 16.2117 11.019 15.616C11.019 15.0203 11.2322 14.5092 11.6586 14.0828C12.0851 13.6563 12.6043 13.4431 13.2163 13.4431H13.9487C14.5607 13.4431 15.0799 13.6563 15.5063 14.0828C15.9327 14.5092 16.1459 15.0203 16.1459 15.616ZM21.7053 15.616C21.7053 15.7722 21.6467 15.9089 21.5295 16.0261C21.4124 16.1433 21.2675 16.2019 21.095 16.2019C20.9224 16.2019 20.7776 16.1433 20.6604 16.0261C20.5432 15.9089 20.4846 15.7722 20.4846 15.616C20.4846 15.336 20.387 15.1 20.1917 14.908C19.9996 14.7126 19.7717 14.615 19.5081 14.615H18.7756C18.512 14.615 18.2825 14.7126 18.0872 14.908C17.8951 15.1 17.7991 15.336 17.7991 15.616C17.7991 15.8959 17.8951 16.1335 18.0872 16.3289C18.2825 16.5209 18.512 16.6169 18.7756 16.6169H19.5081C20.12 16.6169 20.6392 16.8302 21.0657 17.2566C21.4921 17.683 21.7053 18.1941 21.7053 18.7898C21.7053 19.3855 21.4921 19.8966 21.0657 20.323C20.6392 20.7494 20.12 20.9626 19.5081 20.9626H18.7756C18.1637 20.9626 17.6444 20.7494 17.218 20.323C16.7916 19.8966 16.5784 19.3855 16.5784 18.7898C16.5784 18.6335 16.637 18.4968 16.7542 18.3796C16.8713 18.2625 17.0162 18.2039 17.1887 18.2039C17.3612 18.2039 17.5061 18.2625 17.6233 18.3796C17.7405 18.4968 17.7991 18.6335 17.7991 18.7898C17.7991 19.0697 17.8951 19.3074 18.0872 19.5027C18.2825 19.6947 18.512 19.7908 18.7756 19.7908H19.5081C19.7717 19.7908 19.9996 19.6947 20.1917 19.5027C20.387 19.3074 20.4846 19.0697 20.4846 18.7898C20.4846 18.5098 20.387 18.2738 20.1917 18.0818C19.9996 17.8865 19.7717 17.7888 19.5081 17.7888H18.7756C18.1637 17.7888 17.6444 17.5756 17.218 17.1492C16.7916 16.7227 16.5784 16.2117 16.5784 15.616C16.5784 15.0203 16.7916 14.5092 17.218 14.0828C17.6444 13.6563 18.1637 13.4431 18.7756 13.4431H19.5081C20.12 13.4431 20.6392 13.6563 21.0657 14.0828C21.4921 14.5092 21.7053 15.0203 21.7053 15.616Z" fill="#F165A0"/>
</svg>
