<svg width="30" height="30" viewBox="0 0 30 30" fill="none" xmlns="http://www.w3.org/2000/svg">
<path d="M4.5 6.2C4.5 5.62345 4.50078 5.25117 4.52393 4.96784C4.54612 4.69617 4.5838 4.59545 4.60899 4.54601C4.70487 4.35785 4.85785 4.20487 5.04601 4.10899C5.09545 4.0838 5.19617 4.04612 5.46784 4.02393C5.75117 4.00078 6.12345 4 6.7 4H18.5C19.9166 4 20.919 4.00078 21.7026 4.0648C22.4745 4.12787 22.9457 4.24729 23.316 4.43597C24.0686 4.81947 24.6805 5.43139 25.064 6.18404C25.2527 6.55435 25.3721 7.02552 25.4352 7.79744C25.4992 8.58104 25.5 9.58337 25.5 11V19C25.5 20.4166 25.4992 21.419 25.4352 22.2026C25.3721 22.9745 25.2527 23.4457 25.064 23.816C24.6805 24.5686 24.0686 25.1805 23.316 25.564C22.9457 25.7527 22.4745 25.8721 21.7026 25.9352C20.919 25.9992 19.9166 26 18.5 26H11.5C10.0834 26 9.08104 25.9992 8.29744 25.9352C7.52552 25.8721 7.05435 25.7527 6.68404 25.564C5.93139 25.1805 5.31947 24.5686 4.93597 23.816C4.74729 23.4457 4.62787 22.9745 4.5648 22.2026C4.50078 21.419 4.5 20.4166 4.5 19V6.2Z" stroke="#F165A0" stroke-width="2"/>
<path d="M10.8659 19.9236C10.8659 19.7673 10.9245 19.6306 11.0417 19.5134C11.1588 19.3962 11.3037 19.3376 11.4762 19.3376C11.6487 19.3376 11.7936 19.3962 11.9108 19.5134C12.028 19.6306 12.0866 19.7673 12.0866 19.9236C12.0866 20.6202 11.8375 21.2175 11.3395 21.7156C10.8415 22.2136 10.236 22.4626 9.5231 22.4626C8.81021 22.4626 8.20474 22.2136 7.70669 21.7156C7.20864 21.2175 6.95962 20.6202 6.95962 19.9236V17.4822C6.95962 16.7856 7.20864 16.1882 7.70669 15.6902C8.20474 15.1921 8.81021 14.9431 9.5231 14.9431C10.236 14.9431 10.8415 15.1921 11.3395 15.6902C11.8375 16.1882 12.0866 16.7856 12.0866 17.4822C12.0866 17.6384 12.028 17.7751 11.9108 17.8923C11.7936 18.0095 11.6487 18.0681 11.4762 18.0681C11.3037 18.0681 11.1588 18.0095 11.0417 17.8923C10.9245 17.7751 10.8659 17.6384 10.8659 17.4822C10.8659 17.1013 10.7324 16.7791 10.4655 16.5154C10.2018 16.2485 9.88768 16.115 9.5231 16.115C9.15851 16.115 8.84276 16.2485 8.57583 16.5154C8.31216 16.7791 8.18032 17.1013 8.18032 17.4822V19.9236C8.18032 20.3044 8.31216 20.6283 8.57583 20.8953C8.84276 21.1589 9.15851 21.2908 9.5231 21.2908C9.88768 21.2908 10.2018 21.1589 10.4655 20.8953C10.7324 20.6283 10.8659 20.3044 10.8659 19.9236ZM17.6459 17.116C17.6459 17.2722 17.5874 17.4089 17.4702 17.5261C17.353 17.6433 17.2081 17.7019 17.0356 17.7019C16.8631 17.7019 16.7182 17.6433 16.601 17.5261C16.4838 17.4089 16.4252 17.2722 16.4252 17.116C16.4252 16.836 16.3276 16.6 16.1323 16.408C15.9402 16.2126 15.7124 16.115 15.4487 16.115H14.7163C14.4526 16.115 14.2231 16.2126 14.0278 16.408C13.8357 16.6 13.7397 16.836 13.7397 17.116C13.7397 17.3959 13.8357 17.6335 14.0278 17.8289C14.2231 18.0209 14.4526 18.1169 14.7163 18.1169H15.4487C16.0607 18.1169 16.5799 18.3302 17.0063 18.7566C17.4327 19.183 17.6459 19.6941 17.6459 20.2898C17.6459 20.8855 17.4327 21.3966 17.0063 21.823C16.5799 22.2494 16.0607 22.4626 15.4487 22.4626H14.7163C14.1043 22.4626 13.5851 22.2494 13.1586 21.823C12.7322 21.3966 12.519 20.8855 12.519 20.2898C12.519 20.1335 12.5776 19.9968 12.6948 19.8796C12.812 19.7625 12.9568 19.7039 13.1293 19.7039C13.3019 19.7039 13.4467 19.7625 13.5639 19.8796C13.6811 19.9968 13.7397 20.1335 13.7397 20.2898C13.7397 20.5697 13.8357 20.8074 14.0278 21.0027C14.2231 21.1947 14.4526 21.2908 14.7163 21.2908H15.4487C15.7124 21.2908 15.9402 21.1947 16.1323 21.0027C16.3276 20.8074 16.4252 20.5697 16.4252 20.2898C16.4252 20.0098 16.3276 19.7738 16.1323 19.5818C15.9402 19.3865 15.7124 19.2888 15.4487 19.2888H14.7163C14.1043 19.2888 13.5851 19.0756 13.1586 18.6492C12.7322 18.2227 12.519 17.7117 12.519 17.116C12.519 16.5203 12.7322 16.0092 13.1586 15.5828C13.5851 15.1563 14.1043 14.9431 14.7163 14.9431H15.4487C16.0607 14.9431 16.5799 15.1563 17.0063 15.5828C17.4327 16.0092 17.6459 16.5203 17.6459 17.116ZM23.2053 17.116C23.2053 17.2722 23.1467 17.4089 23.0295 17.5261C22.9124 17.6433 22.7675 17.7019 22.595 17.7019C22.4224 17.7019 22.2776 17.6433 22.1604 17.5261C22.0432 17.4089 21.9846 17.2722 21.9846 17.116C21.9846 16.836 21.887 16.6 21.6917 16.408C21.4996 16.2126 21.2717 16.115 21.0081 16.115H20.2756C20.012 16.115 19.7825 16.2126 19.5872 16.408C19.3951 16.6 19.2991 16.836 19.2991 17.116C19.2991 17.3959 19.3951 17.6335 19.5872 17.8289C19.7825 18.0209 20.012 18.1169 20.2756 18.1169H21.0081C21.62 18.1169 22.1392 18.3302 22.5657 18.7566C22.9921 19.183 23.2053 19.6941 23.2053 20.2898C23.2053 20.8855 22.9921 21.3966 22.5657 21.823C22.1392 22.2494 21.62 22.4626 21.0081 22.4626H20.2756C19.6637 22.4626 19.1444 22.2494 18.718 21.823C18.2916 21.3966 18.0784 20.8855 18.0784 20.2898C18.0784 20.1335 18.137 19.9968 18.2542 19.8796C18.3713 19.7625 18.5162 19.7039 18.6887 19.7039C18.8612 19.7039 19.0061 19.7625 19.1233 19.8796C19.2405 19.9968 19.2991 20.1335 19.2991 20.2898C19.2991 20.5697 19.3951 20.8074 19.5872 21.0027C19.7825 21.1947 20.012 21.2908 20.2756 21.2908H21.0081C21.2717 21.2908 21.4996 21.1947 21.6917 21.0027C21.887 20.8074 21.9846 20.5697 21.9846 20.2898C21.9846 20.0098 21.887 19.7738 21.6917 19.5818C21.4996 19.3865 21.2717 19.2888 21.0081 19.2888H20.2756C19.6637 19.2888 19.1444 19.0756 18.718 18.6492C18.2916 18.2227 18.0784 17.7117 18.0784 17.116C18.0784 16.5203 18.2916 16.0092 18.718 15.5828C19.1444 15.1563 19.6637 14.9431 20.2756 14.9431H21.0081C21.62 14.9431 22.1392 15.1563 22.5657 15.5828C22.9921 16.0092 23.2053 16.5203 23.2053 17.116Z" fill="#F165A0"/>
</svg>
