<svg width="27" height="27" viewBox="0 0 27 27" fill="none" xmlns="http://www.w3.org/2000/svg">
<rect x="2" y="1.5" width="23" height="24" rx="5" fill="#F165A0"/>
<path d="M10.4469 14.5531C10.6202 14.6398 10.7202 14.7764 10.7469 14.9631C10.7802 15.1498 10.7335 15.3198 10.6069 15.4731C10.5202 15.5931 10.4069 15.6598 10.2669 15.6731C10.1335 15.6864 9.99688 15.6598 9.85688 15.5931C9.69688 15.5198 9.52688 15.4631 9.34688 15.4231C9.17354 15.3831 8.99021 15.3631 8.79688 15.3631C8.43688 15.3631 8.11354 15.4198 7.82688 15.5331C7.54688 15.6464 7.30688 15.8098 7.10688 16.0231C6.90688 16.2298 6.75354 16.4764 6.64688 16.7631C6.54688 17.0498 6.49688 17.3664 6.49688 17.7131C6.49688 18.1198 6.55354 18.4731 6.66688 18.7731C6.78688 19.0731 6.95021 19.3231 7.15688 19.5231C7.36354 19.7231 7.60688 19.8731 7.88688 19.9731C8.16688 20.0664 8.47021 20.1131 8.79688 20.1131C8.97688 20.1131 9.15688 20.0964 9.33688 20.0631C9.51688 20.0298 9.69021 19.9698 9.85688 19.8831C9.99688 19.8164 10.1335 19.7931 10.2669 19.8131C10.4069 19.8331 10.5235 19.9031 10.6169 20.0231C10.7502 20.1898 10.7969 20.3631 10.7569 20.5431C10.7235 20.7164 10.6235 20.8431 10.4569 20.9231C10.2835 21.0098 10.1035 21.0831 9.91688 21.1431C9.73688 21.1964 9.55354 21.2364 9.36688 21.2631C9.18021 21.2964 8.99021 21.3131 8.79688 21.3131C8.31688 21.3131 7.86021 21.2364 7.42688 21.0831C7.00021 20.9298 6.61688 20.7031 6.27688 20.4031C5.94354 20.1031 5.68021 19.7298 5.48688 19.2831C5.29354 18.8298 5.19688 18.3064 5.19688 17.7131C5.19688 17.1998 5.28354 16.7264 5.45687 16.2931C5.63688 15.8598 5.88688 15.4864 6.20688 15.1731C6.53354 14.8531 6.91688 14.6064 7.35688 14.4331C7.79688 14.2531 8.27688 14.1631 8.79688 14.1631C9.09021 14.1631 9.37688 14.1964 9.65688 14.2631C9.93688 14.3298 10.2002 14.4264 10.4469 14.5531ZM14.0664 21.3131C13.5997 21.3131 13.1797 21.2564 12.8064 21.1431C12.4331 21.0231 12.0764 20.8164 11.7364 20.5231C11.6497 20.4498 11.5831 20.3664 11.5364 20.2731C11.4897 20.1798 11.4664 20.0864 11.4664 19.9931C11.4664 19.8398 11.5197 19.7064 11.6264 19.5931C11.7397 19.4731 11.8797 19.4131 12.0464 19.4131C12.1731 19.4131 12.2864 19.4531 12.3864 19.5331C12.6397 19.7398 12.8897 19.8964 13.1364 20.0031C13.3897 20.1098 13.6997 20.1631 14.0664 20.1631C14.3131 20.1631 14.5397 20.1264 14.7464 20.0531C14.9531 19.9731 15.1197 19.8698 15.2464 19.7431C15.3731 19.6098 15.4364 19.4598 15.4364 19.2931C15.4364 19.0931 15.3764 18.9231 15.2564 18.7831C15.1364 18.6431 14.9531 18.5264 14.7064 18.4331C14.4597 18.3331 14.1464 18.2564 13.7664 18.2031C13.4064 18.1498 13.0897 18.0698 12.8164 17.9631C12.5431 17.8498 12.3131 17.7098 12.1264 17.5431C11.9464 17.3698 11.8097 17.1698 11.7164 16.9431C11.6231 16.7098 11.5764 16.4498 11.5764 16.1631C11.5764 15.7298 11.6864 15.3598 11.9064 15.0531C12.1331 14.7464 12.4364 14.5131 12.8164 14.3531C13.1964 14.1931 13.6164 14.1131 14.0764 14.1131C14.5097 14.1131 14.9097 14.1798 15.2764 14.3131C15.6497 14.4398 15.9531 14.6031 16.1864 14.8031C16.3797 14.9564 16.4764 15.1331 16.4764 15.3331C16.4764 15.4798 16.4197 15.6131 16.3064 15.7331C16.1931 15.8531 16.0597 15.9131 15.9064 15.9131C15.8064 15.9131 15.7164 15.8831 15.6364 15.8231C15.5297 15.7298 15.3864 15.6431 15.2064 15.5631C15.0264 15.4764 14.8364 15.4064 14.6364 15.3531C14.4364 15.2931 14.2497 15.2631 14.0764 15.2631C13.7897 15.2631 13.5464 15.2998 13.3464 15.3731C13.1531 15.4464 13.0064 15.5464 12.9064 15.6731C12.8064 15.7998 12.7564 15.9464 12.7564 16.1131C12.7564 16.3131 12.8131 16.4798 12.9264 16.6131C13.0464 16.7398 13.2164 16.8431 13.4364 16.9231C13.6564 16.9964 13.9197 17.0631 14.2264 17.1231C14.6264 17.1964 14.9764 17.2831 15.2764 17.3831C15.5831 17.4831 15.8364 17.6131 16.0364 17.7731C16.2364 17.9264 16.3864 18.1231 16.4864 18.3631C16.5864 18.5964 16.6364 18.8831 16.6364 19.2231C16.6364 19.6564 16.5164 20.0298 16.2764 20.3431C16.0364 20.6564 15.7197 20.8964 15.3264 21.0631C14.9397 21.2298 14.5197 21.3131 14.0664 21.3131ZM20.0332 21.3131C19.5665 21.3131 19.1465 21.2564 18.7732 21.1431C18.3999 21.0231 18.0432 20.8164 17.7032 20.5231C17.6165 20.4498 17.5499 20.3664 17.5032 20.2731C17.4565 20.1798 17.4332 20.0864 17.4332 19.9931C17.4332 19.8398 17.4865 19.7064 17.5932 19.5931C17.7065 19.4731 17.8465 19.4131 18.0132 19.4131C18.1399 19.4131 18.2532 19.4531 18.3532 19.5331C18.6065 19.7398 18.8565 19.8964 19.1032 20.0031C19.3565 20.1098 19.6665 20.1631 20.0332 20.1631C20.2799 20.1631 20.5065 20.1264 20.7132 20.0531C20.9199 19.9731 21.0865 19.8698 21.2132 19.7431C21.3399 19.6098 21.4032 19.4598 21.4032 19.2931C21.4032 19.0931 21.3432 18.9231 21.2232 18.7831C21.1032 18.6431 20.9199 18.5264 20.6732 18.4331C20.4265 18.3331 20.1132 18.2564 19.7332 18.2031C19.3732 18.1498 19.0565 18.0698 18.7832 17.9631C18.5099 17.8498 18.2799 17.7098 18.0932 17.5431C17.9132 17.3698 17.7765 17.1698 17.6832 16.9431C17.5899 16.7098 17.5432 16.4498 17.5432 16.1631C17.5432 15.7298 17.6532 15.3598 17.8732 15.0531C18.0999 14.7464 18.4032 14.5131 18.7832 14.3531C19.1632 14.1931 19.5832 14.1131 20.0432 14.1131C20.4765 14.1131 20.8765 14.1798 21.2432 14.3131C21.6165 14.4398 21.9199 14.6031 22.1532 14.8031C22.3465 14.9564 22.4432 15.1331 22.4432 15.3331C22.4432 15.4798 22.3865 15.6131 22.2732 15.7331C22.1599 15.8531 22.0265 15.9131 21.8732 15.9131C21.7732 15.9131 21.6832 15.8831 21.6032 15.8231C21.4965 15.7298 21.3532 15.6431 21.1732 15.5631C20.9932 15.4764 20.8032 15.4064 20.6032 15.3531C20.4032 15.2931 20.2165 15.2631 20.0432 15.2631C19.7565 15.2631 19.5132 15.2998 19.3132 15.3731C19.1199 15.4464 18.9732 15.5464 18.8732 15.6731C18.7732 15.7998 18.7232 15.9464 18.7232 16.1131C18.7232 16.3131 18.7799 16.4798 18.8932 16.6131C19.0132 16.7398 19.1832 16.8431 19.4032 16.9231C19.6232 16.9964 19.8865 17.0631 20.1932 17.1231C20.5932 17.1964 20.9432 17.2831 21.2432 17.3831C21.5499 17.4831 21.8032 17.6131 22.0032 17.7731C22.2032 17.9264 22.3532 18.1231 22.4532 18.3631C22.5532 18.5964 22.6032 18.8831 22.6032 19.2231C22.6032 19.6564 22.4832 20.0298 22.2432 20.3431C22.0032 20.6564 21.6865 20.8964 21.2932 21.0631C20.9065 21.2298 20.4865 21.3131 20.0332 21.3131Z" fill="#EEEEEE"/>
</svg>
