<svg width="27" height="27" viewBox="0 0 27 27" fill="none" xmlns="http://www.w3.org/2000/svg">
<g clip-path="url(#clip0_154_319)">
<path d="M20.0683 7.63159L20.842 6.85791L21.2952 7.31112C21.9957 8.01171 22.3894 8.96188 22.3894 9.95265C23.3801 9.95265 24.3304 10.3462 25.0309 11.0468L25.4841 11.5L24.7104 12.2737C23.4286 13.5556 21.3502 13.5556 20.0683 12.2737C18.7865 10.9918 18.7865 8.91348 20.0683 7.63159Z" fill="#5BAFD4"/>
<path d="M15.4263 13.0474V14.5947L21.6157 13.0474V11.5L20.0684 10.7263C20.0684 12.0082 19.0292 13.0474 17.7473 13.0474H15.4263Z" fill="#5BAFD4"/>
<path d="M16.2 8.40527H14.6526C14.2253 8.40527 13.8789 8.75166 13.8789 9.17896V10.7263C13.8789 11.1536 14.2253 11.5 14.6526 11.5H16.2C16.6273 11.5 16.9736 11.1536 16.9736 10.7263V9.17896C16.9736 8.75166 16.6273 8.40527 16.2 8.40527Z" fill="#5BAFD4"/>
<path d="M11.5579 8.40527H10.0105C9.58321 8.40527 9.23682 8.75166 9.23682 9.17896V10.7263C9.23682 11.1536 9.58321 11.5 10.0105 11.5H11.5579C11.9852 11.5 12.3316 11.1536 12.3316 10.7263V9.17896C12.3316 8.75166 11.9852 8.40527 11.5579 8.40527Z" fill="#5BAFD4"/>
<path d="M6.91578 8.40527H5.36841C4.94112 8.40527 4.59473 8.75166 4.59473 9.17896V10.7263C4.59473 11.1536 4.94112 11.5 5.36841 11.5H6.91578C7.34307 11.5 7.68946 11.1536 7.68946 10.7263V9.17896C7.68946 8.75166 7.34307 8.40527 6.91578 8.40527Z" fill="#5BAFD4"/>
<path d="M9.23682 3.76318H7.68946C7.26216 3.76318 6.91577 4.10957 6.91577 4.53687V6.08424C6.91577 6.51153 7.26216 6.85792 7.68946 6.85792H9.23682C9.66412 6.85792 10.0105 6.51153 10.0105 6.08424V4.53687C10.0105 4.10957 9.66412 3.76318 9.23682 3.76318Z" fill="#5BAFD4"/>
<path d="M13.8789 3.76318H12.3315C11.9043 3.76318 11.5579 4.10957 11.5579 4.53687V6.08424C11.5579 6.51153 11.9043 6.85792 12.3315 6.85792H13.8789C14.3062 6.85792 14.6526 6.51153 14.6526 6.08424V4.53687C14.6526 4.10957 14.3062 3.76318 13.8789 3.76318Z" fill="#5BAFD4"/>
<path fill-rule="evenodd" clip-rule="evenodd" d="M1.5 14.5948V15.3684C1.5 19.6413 4.96391 23.1053 9.23684 23.1053H11.5579L13.2042 22.852C18.0435 22.1075 21.6158 17.9436 21.6158 13.0474H3.04737C2.19278 13.0474 1.5 13.7402 1.5 14.5948ZM6.14211 17.6895C6.14211 18.5441 6.83489 19.2369 7.68947 19.2369C8.54405 19.2369 9.23684 18.5441 9.23684 17.6895C9.23684 16.8349 8.54405 16.1421 7.68947 16.1421C6.83489 16.1421 6.14211 16.8349 6.14211 17.6895Z" fill="#5BAFD4"/>
</g>
<defs>
<clipPath id="clip0_154_319">
<rect width="24" height="19.4526" fill="white" transform="translate(1.5 3.70001)"/>
</clipPath>
</defs>
</svg>
