<svg width="30" height="30" viewBox="0 0 30 30" fill="none" xmlns="http://www.w3.org/2000/svg">
<g clip-path="url(#clip0_154_319)">
<path d="M21.5683 9.13159L22.342 8.35791L22.7952 8.81112C23.4957 9.51171 23.8894 10.4619 23.8894 11.4526C24.8801 11.4526 25.8304 11.8462 26.5309 12.5468L26.9841 13L26.2104 13.7737C24.9286 15.0556 22.8502 15.0556 21.5683 13.7737C20.2865 12.4918 20.2865 10.4135 21.5683 9.13159Z" fill="#5BAFD4"/>
<path d="M16.9263 14.5474V16.0947L23.1157 14.5474V13L21.5684 12.2263C21.5684 13.5082 20.5292 14.5474 19.2473 14.5474H16.9263Z" fill="#5BAFD4"/>
<path d="M17.7 9.90527H16.1526C15.7253 9.90527 15.3789 10.2517 15.3789 10.679V12.2263C15.3789 12.6536 15.7253 13 16.1526 13H17.7C18.1273 13 18.4736 12.6536 18.4736 12.2263V10.679C18.4736 10.2517 18.1273 9.90527 17.7 9.90527Z" fill="#5BAFD4"/>
<path d="M13.0579 9.90527H11.5105C11.0832 9.90527 10.7368 10.2517 10.7368 10.679V12.2263C10.7368 12.6536 11.0832 13 11.5105 13H13.0579C13.4852 13 13.8316 12.6536 13.8316 12.2263V10.679C13.8316 10.2517 13.4852 9.90527 13.0579 9.90527Z" fill="#5BAFD4"/>
<path d="M8.41578 9.90527H6.86841C6.44112 9.90527 6.09473 10.2517 6.09473 10.679V12.2263C6.09473 12.6536 6.44112 13 6.86841 13H8.41578C8.84307 13 9.18946 12.6536 9.18946 12.2263V10.679C9.18946 10.2517 8.84307 9.90527 8.41578 9.90527Z" fill="#5BAFD4"/>
<path d="M10.7368 5.26318H9.18946C8.76216 5.26318 8.41577 5.60957 8.41577 6.03687V7.58424C8.41577 8.01153 8.76216 8.35792 9.18946 8.35792H10.7368C11.1641 8.35792 11.5105 8.01153 11.5105 7.58424V6.03687C11.5105 5.60957 11.1641 5.26318 10.7368 5.26318Z" fill="#5BAFD4"/>
<path d="M15.3789 5.26318H13.8315C13.4043 5.26318 13.0579 5.60957 13.0579 6.03687V7.58424C13.0579 8.01153 13.4043 8.35792 13.8315 8.35792H15.3789C15.8062 8.35792 16.1526 8.01153 16.1526 7.58424V6.03687C16.1526 5.60957 15.8062 5.26318 15.3789 5.26318Z" fill="#5BAFD4"/>
<path fill-rule="evenodd" clip-rule="evenodd" d="M3 16.0947V16.8684C3 21.1413 6.46391 24.6053 10.7368 24.6053H13.0579L14.7042 24.352C19.5435 23.6075 23.1158 19.4435 23.1158 14.5474H4.54737C3.69278 14.5474 3 15.2402 3 16.0947ZM7.64211 19.1895C7.64211 20.0441 8.33489 20.7368 9.18947 20.7368C10.0441 20.7368 10.7368 20.0441 10.7368 19.1895C10.7368 18.3349 10.0441 17.6421 9.18947 17.6421C8.33489 17.6421 7.64211 18.3349 7.64211 19.1895Z" fill="#5BAFD4"/>
</g>
<defs>
<clipPath id="clip0_154_319">
<rect width="24" height="19.4526" fill="white" transform="translate(3 5.20001)"/>
</clipPath>
</defs>
</svg>
