<svg width="27" height="27" viewBox="0 0 27 27" fill="none" xmlns="http://www.w3.org/2000/svg">
<g clip-path="url(#clip0_242_385)">
<path d="M3.68172 6.95449C3.68172 6.0865 4.02653 5.25406 4.64029 4.6403C5.25405 4.02654 6.08649 3.68173 6.95448 3.68173C7.24381 3.68173 7.52129 3.79667 7.72588 4.00126C7.93047 4.20584 8.0454 4.48332 8.0454 4.77265C8.0454 5.06198 7.93047 5.33946 7.72588 5.54405C7.52129 5.74864 7.24381 5.86357 6.95448 5.86357C6.66515 5.86357 6.38767 5.97851 6.18309 6.18309C5.9785 6.38768 5.86356 6.66516 5.86356 6.95449V11.2505C5.86356 12.1113 5.52865 12.9076 4.96901 13.5C5.52865 14.0924 5.86356 14.8887 5.86356 15.7495V20.0455C5.86356 20.3349 5.9785 20.6123 6.18309 20.8169C6.38767 21.0215 6.66515 21.1364 6.95448 21.1364C7.24381 21.1364 7.52129 21.2514 7.72588 21.456C7.93047 21.6606 8.0454 21.938 8.0454 22.2274C8.0454 22.5167 7.93047 22.7942 7.72588 22.9988C7.52129 23.2033 7.24381 23.3183 6.95448 23.3183C6.08649 23.3183 5.25405 22.9735 4.64029 22.3597C4.02653 21.746 3.68172 20.9135 3.68172 20.0455V15.7495C3.68172 15.5063 3.60045 15.2701 3.45083 15.0783C3.3012 14.8866 3.09181 14.7504 2.8559 14.6913L2.32571 14.5582C2.08983 14.4991 1.88045 14.3628 1.73085 14.1711C1.58125 13.9794 1.5 13.7432 1.5 13.5C1.5 13.2568 1.58125 13.0206 1.73085 12.8289C1.88045 12.6372 2.08983 12.5009 2.32571 12.4418L2.8559 12.3098C3.09181 12.2507 3.3012 12.1145 3.45083 11.9228C3.60045 11.731 3.68172 11.4948 3.68172 11.2516V6.95449ZM23.3183 6.95449C23.3183 6.0865 22.9735 5.25406 22.3597 4.6403C21.7459 4.02654 20.9135 3.68173 20.0455 3.68173C19.7562 3.68173 19.4787 3.79667 19.2741 4.00126C19.0695 4.20584 18.9546 4.48332 18.9546 4.77265C18.9546 5.06198 19.0695 5.33946 19.2741 5.54405C19.4787 5.74864 19.7562 5.86357 20.0455 5.86357C20.3348 5.86357 20.6123 5.97851 20.8169 6.18309C21.0215 6.38768 21.1364 6.66516 21.1364 6.95449V11.2505C21.1364 12.1113 21.4713 12.9076 22.031 13.5C21.4563 14.1079 21.1361 14.9129 21.1364 15.7495V20.0455C21.1364 20.3349 21.0215 20.6123 20.8169 20.8169C20.6123 21.0215 20.3348 21.1364 20.0455 21.1364C19.7562 21.1364 19.4787 21.2514 19.2741 21.456C19.0695 21.6606 18.9546 21.938 18.9546 22.2274C18.9546 22.5167 19.0695 22.7942 19.2741 22.9988C19.4787 23.2033 19.7562 23.3183 20.0455 23.3183C20.9135 23.3183 21.7459 22.9735 22.3597 22.3597C22.9735 21.746 23.3183 20.9135 23.3183 20.0455V15.7495C23.3183 15.5061 23.3998 15.2698 23.5496 15.0781C23.6994 14.8863 23.9091 14.7502 24.1452 14.6913L24.6743 14.5582C24.9102 14.4991 25.1195 14.3628 25.2691 14.1711C25.4187 13.9794 25.5 13.7432 25.5 13.5C25.5 13.2568 25.4187 13.0206 25.2691 12.8289C25.1195 12.6372 24.9102 12.5009 24.6743 12.4418L24.1452 12.3098C23.9091 12.2509 23.6994 12.1148 23.5496 11.923C23.3998 11.7313 23.3183 11.495 23.3183 11.2516V6.95449Z" fill="#F5AA52"/>
<path fill-rule="evenodd" clip-rule="evenodd" d="M16.379 11.3351C15.6351 12.1093 15.1009 13.1576 14.5012 14.0573C13.8844 14.9824 13.0705 16.1292 12.1464 17.0533C11.2667 17.933 10.5299 18.8492 9.11172 18.8492C8.44919 18.8492 7.91211 18.3121 7.91211 17.6496C7.91211 16.9871 8.44919 16.45 9.11172 16.45C9.51827 16.45 9.65686 16.1497 10.4499 15.3567C11.1984 14.6082 11.9051 13.6261 12.5049 12.7264C13.1216 11.8013 13.9356 10.6545 14.8597 9.73041C15.7394 8.85071 16.131 7.9344 17.5492 7.9344C18.2117 7.9344 18.7488 8.47148 18.7488 9.13401C18.7488 9.79653 18.1376 10.0999 17.5492 10.3336C17.1713 10.4837 16.9407 10.6215 16.379 11.3351Z" fill="#F5AA52"/>
<path fill-rule="evenodd" clip-rule="evenodd" d="M8.62085 9.13137C8.62085 8.46885 9.15793 7.93176 9.82046 7.93176H10.8396C11.369 7.93176 11.891 8.07393 12.3398 8.45606C12.7387 8.79559 12.98 9.24439 13.1544 9.63587C13.3213 10.0107 13.4836 10.471 13.6567 10.9617C13.6677 10.9928 13.6787 11.0241 13.6897 11.0555C13.8817 11.5994 14.1063 12.2313 14.4051 12.9745L14.4067 12.9785C14.7162 13.7563 14.9478 14.4172 15.1358 14.9562L15.1389 14.9653C15.3316 15.5177 15.4627 15.8934 15.5881 16.1762C15.6509 16.3178 15.6979 16.401 15.7273 16.4473H16.4818C17.1444 16.4473 17.6815 16.9844 17.6815 17.6469C17.6815 18.3094 17.1444 18.8465 16.4818 18.8465H15.7056C15.1768 18.8465 14.6555 18.7047 14.2074 18.3245C13.8081 17.9856 13.5676 17.5382 13.395 17.149C13.2286 16.774 13.0685 16.3147 12.8989 15.8279C12.8894 15.8008 12.8799 15.7737 12.8704 15.7464C12.6839 15.2118 12.4669 14.5931 12.1783 13.8675C11.8595 13.0745 11.6208 12.4023 11.4273 11.8539L11.4166 11.8236C11.2223 11.2732 11.0894 10.8965 10.9627 10.6119C10.8969 10.4642 10.848 10.3782 10.8177 10.331H9.82046C9.15793 10.331 8.62085 9.7939 8.62085 9.13137Z" fill="#F5AA52"/>
</g>
<defs>
<clipPath id="clip0_242_385">
<rect width="24" height="24" fill="white" transform="translate(1.5 1.5)"/>
</clipPath>
</defs>
</svg>
