<svg width="27" height="27" viewBox="0 0 27 27" fill="none" xmlns="http://www.w3.org/2000/svg">
<rect x="2" y="1.5" width="23" height="24" rx="5" fill="#7380F9"/>
<path d="M5.00648 14.4038H8.35648C8.52982 14.4038 8.67315 14.4605 8.78648 14.5738C8.90648 14.6805 8.96648 14.8205 8.96648 14.9938C8.96648 15.1605 8.90648 15.2971 8.78648 15.4038C8.67315 15.5038 8.52982 15.5538 8.35648 15.5538H5.55648L5.64648 15.3838V17.3338L5.56648 17.2538H7.90648C8.07982 17.2538 8.22315 17.3105 8.33648 17.4238C8.45648 17.5305 8.51648 17.6705 8.51648 17.8438C8.51648 18.0105 8.45648 18.1471 8.33648 18.2538C8.22315 18.3538 8.07982 18.4038 7.90648 18.4038H5.59648L5.64648 18.3238V20.3438L5.56648 20.2538H8.35648C8.52982 20.2538 8.67315 20.3138 8.78648 20.4338C8.90648 20.5471 8.96648 20.6805 8.96648 20.8338C8.96648 21.0005 8.90648 21.1371 8.78648 21.2438C8.67315 21.3505 8.52982 21.4038 8.35648 21.4038H5.00648C4.83315 21.4038 4.68648 21.3471 4.56648 21.2338C4.45315 21.1138 4.39648 20.9671 4.39648 20.7938V15.0138C4.39648 14.8405 4.45315 14.6971 4.56648 14.5838C4.68648 14.4638 4.83315 14.4038 5.00648 14.4038ZM15.4291 14.4038C15.5891 14.4038 15.7191 14.4571 15.8191 14.5638C15.9191 14.6705 15.9691 14.8038 15.9691 14.9638V20.7938C15.9691 20.9671 15.9091 21.1138 15.7891 21.2338C15.6758 21.3471 15.5325 21.4038 15.3591 21.4038C15.2725 21.4038 15.1825 21.3905 15.0891 21.3638C15.0025 21.3305 14.9358 21.2871 14.8891 21.2338L10.9591 16.2438L11.2191 16.0838V20.8438C11.2191 21.0038 11.1658 21.1371 11.0591 21.2438C10.9591 21.3505 10.8258 21.4038 10.6591 21.4038C10.4991 21.4038 10.3691 21.3505 10.2691 21.2438C10.1691 21.1371 10.1191 21.0038 10.1191 20.8438V15.0138C10.1191 14.8405 10.1758 14.6971 10.2891 14.5838C10.4091 14.4638 10.5558 14.4038 10.7291 14.4038C10.8225 14.4038 10.9191 14.4238 11.0191 14.4638C11.1191 14.4971 11.1925 14.5505 11.2391 14.6238L15.0491 19.4838L14.8791 19.6038V14.9638C14.8791 14.8038 14.9291 14.6705 15.0291 14.5638C15.1291 14.4571 15.2625 14.4038 15.4291 14.4038ZM22.5827 14.3838C22.7493 14.3838 22.8927 14.4405 23.0127 14.5538C23.1393 14.6605 23.2027 14.7971 23.2027 14.9638C23.2027 15.0505 23.1827 15.1405 23.1427 15.2338L20.6727 21.0138C20.6127 21.1471 20.526 21.2471 20.4127 21.3138C20.306 21.3738 20.196 21.4038 20.0827 21.4038C19.976 21.3971 19.8727 21.3638 19.7727 21.3038C19.6727 21.2371 19.596 21.1438 19.5427 21.0238L17.0727 15.2238C17.0527 15.1838 17.0393 15.1438 17.0327 15.1038C17.026 15.0571 17.0227 15.0138 17.0227 14.9738C17.0227 14.7805 17.0927 14.6338 17.2327 14.5338C17.3727 14.4271 17.506 14.3738 17.6327 14.3738C17.886 14.3738 18.0693 14.5038 18.1827 14.7638L20.3727 19.9138L20.0227 19.9238L22.0327 14.7638C22.146 14.5105 22.3293 14.3838 22.5827 14.3838Z" fill="#EEEEEE"/>
</svg>
