<svg width="30" height="30" viewBox="0 0 30 30" fill="none" xmlns="http://www.w3.org/2000/svg">
<path d="M5.18172 8.45446C5.18172 7.58647 5.52653 6.75403 6.14029 6.14027C6.75406 5.52651 7.58649 5.1817 8.45448 5.1817C8.74381 5.1817 9.02129 5.29664 9.22588 5.50122C9.43047 5.70581 9.5454 5.98329 9.5454 6.27262C9.5454 6.56195 9.43047 6.83943 9.22588 7.04402C9.02129 7.2486 8.74381 7.36354 8.45448 7.36354C8.16515 7.36354 7.88767 7.47848 7.68309 7.68306C7.4785 7.88765 7.36356 8.16513 7.36356 8.45446V12.7505C7.36356 13.6112 7.02865 14.4076 6.46901 15C7.02865 15.5923 7.36356 16.3887 7.36356 17.2495V21.5455C7.36356 21.8348 7.4785 22.1123 7.68309 22.3169C7.88767 22.5215 8.16515 22.6364 8.45448 22.6364C8.74381 22.6364 9.02129 22.7513 9.22588 22.9559C9.43047 23.1605 9.5454 23.438 9.5454 23.7273C9.5454 24.0167 9.43047 24.2941 9.22588 24.4987C9.02129 24.7033 8.74381 24.8183 8.45448 24.8183C7.58649 24.8183 6.75406 24.4734 6.14029 23.8597C5.52653 23.2459 5.18172 22.4135 5.18172 21.5455V17.2495C5.18172 17.0063 5.10045 16.77 4.95083 16.5783C4.8012 16.3866 4.59181 16.2504 4.3559 16.1913L3.82571 16.0582C3.58983 15.9991 3.38045 15.8628 3.23085 15.6711C3.08125 15.4794 3 15.2432 3 15C3 14.7568 3.08125 14.5206 3.23085 14.3289C3.38045 14.1371 3.58983 14.0009 3.82571 13.9418L4.3559 13.8098C4.59181 13.7507 4.8012 13.6145 4.95083 13.4227C5.10045 13.231 5.18172 12.9948 5.18172 12.7516V8.45446ZM24.8183 8.45446C24.8183 7.58647 24.4735 6.75403 23.8597 6.14027C23.2459 5.52651 22.4135 5.1817 21.5455 5.1817C21.2562 5.1817 20.9787 5.29664 20.7741 5.50122C20.5695 5.70581 20.4546 5.98329 20.4546 6.27262C20.4546 6.56195 20.5695 6.83943 20.7741 7.04402C20.9787 7.2486 21.2562 7.36354 21.5455 7.36354C21.8348 7.36354 22.1123 7.47848 22.3169 7.68306C22.5215 7.88765 22.6364 8.16513 22.6364 8.45446V12.7505C22.6364 13.6112 22.9713 14.4076 23.531 15C22.9563 15.6079 22.6362 16.4129 22.6364 17.2495V21.5455C22.6364 21.8348 22.5215 22.1123 22.3169 22.3169C22.1123 22.5215 21.8348 22.6364 21.5455 22.6364C21.2562 22.6364 20.9787 22.7513 20.7741 22.9559C20.5695 23.1605 20.4546 23.438 20.4546 23.7273C20.4546 24.0167 20.5695 24.2941 20.7741 24.4987C20.9787 24.7033 21.2562 24.8183 21.5455 24.8183C22.4135 24.8183 23.2459 24.4734 23.8597 23.8597C24.4735 23.2459 24.8183 22.4135 24.8183 21.5455V17.2495C24.8183 17.0061 24.8998 16.7698 25.0496 16.578C25.1994 16.3863 25.4091 16.2502 25.6452 16.1913L26.1743 16.0582C26.4102 15.9991 26.6195 15.8628 26.7691 15.6711C26.9187 15.4794 27 15.2432 27 15C27 14.7568 26.9187 14.5206 26.7691 14.3289C26.6195 14.1371 26.4102 14.0009 26.1743 13.9418L25.6452 13.8098C25.4091 13.7509 25.1994 13.6148 25.0496 13.423C24.8998 13.2313 24.8183 12.9949 24.8183 12.7516V8.45446Z" fill="#F5AA52"/>
<path fill-rule="evenodd" clip-rule="evenodd" d="M17.879 12.8351C17.1351 13.6093 16.6009 14.6576 16.0012 15.5573C15.3844 16.4824 14.5705 17.6292 13.6464 18.5533C12.7667 19.433 12.0299 20.3492 10.6117 20.3492C9.94919 20.3492 9.41211 19.8121 9.41211 19.1496C9.41211 18.4871 9.94919 17.95 10.6117 17.95C11.0183 17.95 11.1569 17.6497 11.9499 16.8567C12.6984 16.1082 13.4051 15.1261 14.0049 14.2264C14.6216 13.3013 15.4356 12.1545 16.3597 11.2304C17.2394 10.3507 17.631 9.4344 19.0492 9.4344C19.7117 9.4344 20.2488 9.97148 20.2488 10.634C20.2488 11.2965 19.6376 11.5999 19.0492 11.8336C18.6713 11.9837 18.4407 12.1215 17.879 12.8351Z" fill="#F5AA52"/>
<path fill-rule="evenodd" clip-rule="evenodd" d="M10.1208 10.6314C10.1208 9.96885 10.6579 9.43176 11.3205 9.43176H12.3396C12.869 9.43176 13.391 9.57393 13.8398 9.95606C14.2387 10.2956 14.48 10.7444 14.6544 11.1359C14.8213 11.5107 14.9836 11.971 15.1567 12.4617C15.1677 12.4928 15.1787 12.5241 15.1897 12.5555C15.3817 13.0994 15.6063 13.7313 15.9051 14.4745L15.9067 14.4785C16.2162 15.2563 16.4478 15.9172 16.6358 16.4562L16.6389 16.4653C16.8316 17.0177 16.9627 17.3934 17.0881 17.6762C17.1509 17.8178 17.1979 17.901 17.2273 17.9473H17.9818C18.6444 17.9473 19.1815 18.4844 19.1815 19.1469C19.1815 19.8094 18.6444 20.3465 17.9818 20.3465H17.2056C16.6768 20.3465 16.1555 20.2047 15.7074 19.8245C15.3081 19.4856 15.0676 19.0382 14.895 18.649C14.7286 18.274 14.5685 17.8147 14.3989 17.3279C14.3894 17.3008 14.3799 17.2737 14.3704 17.2464C14.1839 16.7118 13.9669 16.0931 13.6783 15.3675C13.3595 14.5745 13.1208 13.9023 12.9273 13.3539L12.9166 13.3236C12.7223 12.7732 12.5894 12.3965 12.4627 12.1119C12.3969 11.9642 12.348 11.8782 12.3177 11.831H11.3205C10.6579 11.831 10.1208 11.2939 10.1208 10.6314Z" fill="#F5AA52"/>
</svg>
