<svg width="27" height="27" viewBox="0 0 27 27" fill="none" xmlns="http://www.w3.org/2000/svg">
<g clip-path="url(#clip0_154_322)">
<path fill-rule="evenodd" clip-rule="evenodd" d="M25.3573 12.7433C25.2377 12.1795 24.932 11.6498 24.3204 10.5904L21.4038 5.53777C20.8011 4.49385 20.4998 3.97185 20.0802 3.59237C19.7088 3.25656 19.272 3.00303 18.7977 2.84806C18.262 2.67291 17.6639 2.67291 16.4679 2.67291H10.5321C9.33613 2.67291 8.73813 2.67291 8.20225 2.84806C7.72809 3.00303 7.29129 3.25656 6.9199 3.59235C6.50018 3.97185 6.19888 4.49383 5.59624 5.53777L2.67958 10.5904C2.06802 11.6498 1.76224 12.1795 1.64261 12.7433C1.53677 13.2421 1.53677 13.7579 1.64261 14.2567C1.76224 14.8204 2.06802 15.3501 2.67958 16.4096L5.59624 21.4622C6.19886 22.5061 6.50018 23.0282 6.9199 23.4077C7.29129 23.7435 7.72809 23.997 8.20225 24.1518C8.73813 24.327 9.33613 24.3271 10.5321 24.3271H16.4679C17.6639 24.3271 18.262 24.327 18.7977 24.1518C19.272 23.997 19.7088 23.7435 20.0802 23.4077C20.4998 23.0282 20.8011 22.5061 21.4038 21.4622L24.3204 16.4096C24.932 15.3501 25.2377 14.8204 25.3573 14.2567C25.4632 13.7579 25.4632 13.2421 25.3573 12.7433ZM12.9384 4.96444C12.52 5.05512 12.1268 5.28686 11.3405 5.75036L7.9732 7.73532C7.1984 8.19205 6.81099 8.42041 6.52933 8.73853C6.28011 9.01999 6.09193 9.35105 5.97692 9.71042C5.84693 10.1165 5.84693 10.5698 5.84693 11.4762V15.5238C5.84693 16.4302 5.84693 16.8834 5.97692 17.2896C6.09193 17.6489 6.28011 17.98 6.52933 18.2614C6.81099 18.5795 7.1984 18.808 7.9732 19.2647L11.3405 21.2496C12.1268 21.713 12.52 21.9449 12.9384 22.0355C13.3086 22.1158 13.6914 22.1158 14.0616 22.0355C14.48 21.9449 14.8731 21.713 15.6594 21.2496L19.0268 19.2647C19.8016 18.808 20.1889 18.5795 20.4707 18.2614C20.7198 17.98 20.908 17.6489 21.023 17.2896C21.153 16.8834 21.153 16.4302 21.153 15.5238V11.4762C21.153 10.5698 21.153 10.1165 21.023 9.71042C20.908 9.35105 20.7198 9.01999 20.4707 8.73853C20.1889 8.42041 19.8016 8.19205 19.0268 7.73532L15.6594 5.75036C14.8731 5.28687 14.48 5.05512 14.0616 4.96444C13.6914 4.88423 13.3086 4.88423 12.9384 4.96444Z" fill="#7380F9"/>
<path d="M12.0604 8.93509C12.5846 8.62608 12.8467 8.4716 13.1256 8.41115C13.3724 8.35766 13.6276 8.35766 13.8744 8.41115C14.1534 8.4716 14.4155 8.62608 14.9397 8.93509L16.6744 9.95765C17.1909 10.2621 17.4491 10.4144 17.637 10.6264C17.8031 10.8141 17.9286 11.0348 18.0052 11.2744C18.0918 11.5451 18.0918 11.8473 18.0918 12.4516V14.5484C18.0918 15.1527 18.0918 15.4549 18.0052 15.7256C17.9286 15.9652 17.8031 16.1859 17.637 16.3736C17.4491 16.5856 17.1909 16.7379 16.6744 17.0423L14.9397 18.0649C14.4155 18.374 14.1534 18.5284 13.8744 18.5889C13.6276 18.6423 13.3724 18.6423 13.1256 18.5889C12.8467 18.5284 12.5846 18.374 12.0604 18.0649L10.3257 17.0423C9.80919 16.7379 9.55092 16.5856 9.36315 16.3736C9.19699 16.1859 9.07154 15.9652 8.99486 15.7256C8.9082 15.4549 8.9082 15.1527 8.9082 14.5484V12.4516C8.9082 11.8473 8.9082 11.5451 8.99486 11.2744C9.07154 11.0348 9.19699 10.8141 9.36315 10.6264C9.55092 10.4144 9.80919 10.2621 10.3257 9.95765L12.0604 8.93509Z" fill="#7380F9"/>
<path d="M12.0604 8.93509C12.5846 8.62608 12.8467 8.4716 13.1256 8.41115C13.3724 8.35766 13.6276 8.35766 13.8744 8.41115C14.1534 8.4716 14.4155 8.62608 14.9397 8.93509L16.6744 9.95765C17.1909 10.2621 17.4491 10.4144 17.637 10.6264C17.8031 10.8141 17.9286 11.0348 18.0052 11.2744C18.0918 11.5451 18.0918 11.8473 18.0918 12.4516V14.5484C18.0918 15.1527 18.0918 15.4549 18.0052 15.7256C17.9286 15.9652 17.8031 16.1859 17.637 16.3736C17.4491 16.5856 17.1909 16.7379 16.6744 17.0423L14.9397 18.0649C14.4155 18.374 14.1534 18.5284 13.8744 18.5889C13.6276 18.6423 13.3724 18.6423 13.1256 18.5889C12.8467 18.5284 12.5846 18.374 12.0604 18.0649L10.3257 17.0423C9.80919 16.7379 9.55092 16.5856 9.36315 16.3736C9.19699 16.1859 9.07154 15.9652 8.99486 15.7256C8.9082 15.4549 8.9082 15.1527 8.9082 14.5484V12.4516C8.9082 11.8473 8.9082 11.5451 8.99486 11.2744C9.07154 11.0348 9.19699 10.8141 9.36315 10.6264C9.55092 10.4144 9.80919 10.2621 10.3257 9.95765L12.0604 8.93509Z" fill="white" fill-opacity="0.25"/>
</g>
<defs>
<clipPath id="clip0_154_322">
<rect width="24" height="21.9429" fill="white" transform="translate(1.5 2.52856)"/>
</clipPath>
</defs>
</svg>
