<svg width="30" height="30" viewBox="0 0 30 30" fill="none" xmlns="http://www.w3.org/2000/svg">
<g clip-path="url(#clip0_154_322)">
<path fill-rule="evenodd" clip-rule="evenodd" d="M26.8573 14.2433C26.7377 13.6795 26.432 13.1498 25.8204 12.0904L22.9038 7.03777C22.3011 5.99385 21.9998 5.47185 21.5802 5.09237C21.2088 4.75656 20.772 4.50303 20.2977 4.34806C19.762 4.17291 19.1639 4.17291 17.9679 4.17291H12.0321C10.8361 4.17291 10.2381 4.17291 9.70225 4.34806C9.22809 4.50303 8.79129 4.75656 8.4199 5.09235C8.00018 5.47185 7.69888 5.99383 7.09624 7.03777L4.17958 12.0904C3.56802 13.1498 3.26224 13.6795 3.14261 14.2433C3.03677 14.7421 3.03677 15.2579 3.14261 15.7567C3.26224 16.3204 3.56802 16.8501 4.17958 17.9096L7.09624 22.9622C7.69886 24.0061 8.00018 24.5282 8.4199 24.9077C8.79129 25.2435 9.22809 25.497 9.70225 25.6518C10.2381 25.827 10.8361 25.8271 12.0321 25.8271H17.9679C19.1639 25.8271 19.762 25.827 20.2977 25.6518C20.772 25.497 21.2088 25.2435 21.5802 24.9077C21.9998 24.5282 22.3011 24.0061 22.9038 22.9622L25.8204 17.9096C26.432 16.8501 26.7377 16.3204 26.8573 15.7567C26.9632 15.2579 26.9632 14.7421 26.8573 14.2433ZM14.4384 6.46444C14.02 6.55512 13.6268 6.78686 12.8405 7.25036L9.4732 9.23532C8.6984 9.69205 8.31099 9.92041 8.02933 10.2385C7.78011 10.52 7.59193 10.851 7.47692 11.2104C7.34693 11.6165 7.34693 12.0698 7.34693 12.9762V17.0238C7.34693 17.9302 7.34693 18.3834 7.47692 18.7896C7.59193 19.1489 7.78011 19.48 8.02933 19.7614C8.31099 20.0795 8.6984 20.308 9.4732 20.7647L12.8405 22.7496C13.6268 23.213 14.02 23.4449 14.4384 23.5355C14.8086 23.6158 15.1914 23.6158 15.5616 23.5355C15.98 23.4449 16.3731 23.213 17.1594 22.7496L20.5268 20.7647C21.3016 20.308 21.6889 20.0795 21.9707 19.7614C22.2198 19.48 22.408 19.1489 22.523 18.7896C22.653 18.3834 22.653 17.9302 22.653 17.0238V12.9762C22.653 12.0698 22.653 11.6165 22.523 11.2104C22.408 10.851 22.2198 10.52 21.9707 10.2385C21.6889 9.92041 21.3016 9.69205 20.5268 9.23532L17.1594 7.25036C16.3731 6.78687 15.98 6.55512 15.5616 6.46444C15.1914 6.38423 14.8086 6.38423 14.4384 6.46444Z" fill="#7380F9"/>
<path d="M13.5604 10.4351C14.0846 10.1261 14.3467 9.9716 14.6256 9.91115C14.8724 9.85766 15.1276 9.85766 15.3744 9.91115C15.6534 9.9716 15.9155 10.1261 16.4397 10.4351L18.1744 11.4576C18.6909 11.7621 18.9491 11.9144 19.137 12.1264C19.3031 12.3141 19.4286 12.5348 19.5052 12.7744C19.5918 13.0451 19.5918 13.3473 19.5918 13.9516V16.0484C19.5918 16.6527 19.5918 16.9549 19.5052 17.2256C19.4286 17.4652 19.3031 17.6859 19.137 17.8736C18.9491 18.0856 18.6909 18.2379 18.1744 18.5423L16.4397 19.5649C15.9155 19.874 15.6534 20.0284 15.3744 20.0889C15.1276 20.1423 14.8724 20.1423 14.6256 20.0889C14.3467 20.0284 14.0846 19.874 13.5604 19.5649L11.8257 18.5423C11.3092 18.2379 11.0509 18.0856 10.8632 17.8736C10.697 17.6859 10.5715 17.4652 10.4949 17.2256C10.4082 16.9549 10.4082 16.6527 10.4082 16.0484V13.9516C10.4082 13.3473 10.4082 13.0451 10.4949 12.7744C10.5715 12.5348 10.697 12.3141 10.8632 12.1264C11.0509 11.9144 11.3092 11.7621 11.8257 11.4576L13.5604 10.4351Z" fill="#7380F9"/>
<path d="M13.5604 10.4351C14.0846 10.1261 14.3467 9.9716 14.6256 9.91115C14.8724 9.85766 15.1276 9.85766 15.3744 9.91115C15.6534 9.9716 15.9155 10.1261 16.4397 10.4351L18.1744 11.4576C18.6909 11.7621 18.9491 11.9144 19.137 12.1264C19.3031 12.3141 19.4286 12.5348 19.5052 12.7744C19.5918 13.0451 19.5918 13.3473 19.5918 13.9516V16.0484C19.5918 16.6527 19.5918 16.9549 19.5052 17.2256C19.4286 17.4652 19.3031 17.6859 19.137 17.8736C18.9491 18.0856 18.6909 18.2379 18.1744 18.5423L16.4397 19.5649C15.9155 19.874 15.6534 20.0284 15.3744 20.0889C15.1276 20.1423 14.8724 20.1423 14.6256 20.0889C14.3467 20.0284 14.0846 19.874 13.5604 19.5649L11.8257 18.5423C11.3092 18.2379 11.0509 18.0856 10.8632 17.8736C10.697 17.6859 10.5715 17.4652 10.4949 17.2256C10.4082 16.9549 10.4082 16.6527 10.4082 16.0484V13.9516C10.4082 13.3473 10.4082 13.0451 10.4949 12.7744C10.5715 12.5348 10.697 12.3141 10.8632 12.1264C11.0509 11.9144 11.3092 11.7621 11.8257 11.4576L13.5604 10.4351Z" fill="white" fill-opacity="0.25"/>
</g>
<defs>
<clipPath id="clip0_154_322">
<rect width="24" height="21.9429" fill="white" transform="translate(3 4.02856)"/>
</clipPath>
</defs>
</svg>
