<svg width="27" height="27" viewBox="0 0 27 27" fill="none" xmlns="http://www.w3.org/2000/svg">
<path d="M13.5 2L13.6346 2.00805C13.8913 2.03832 14.1303 2.15419 14.3131 2.33696C14.4959 2.51973 14.6117 2.75875 14.642 3.01545L14.65 3.15V7.75L14.6558 7.9225C14.697 8.4701 14.9327 8.9849 15.3203 9.37383C15.708 9.76277 16.222 10.0002 16.7695 10.0431L16.95 10.05H21.55L21.6846 10.058C21.9413 10.0883 22.1803 10.2042 22.3631 10.387C22.5459 10.5697 22.6617 10.8088 22.692 11.0655L22.7 11.2V21.55C22.7001 22.43 22.3639 23.2767 21.7602 23.917C21.1565 24.5573 20.3309 24.9426 19.4524 24.9943L19.25 25H7.75005C6.87006 25 6.02331 24.6638 5.38305 24.0601C4.74279 23.4564 4.35743 22.6309 4.3058 21.7524L4.30005 21.55V5.45C4.3 4.57001 4.63622 3.72326 5.23992 3.083C5.84363 2.44274 6.66917 2.05738 7.54765 2.00575L7.75005 2H13.5ZM16.95 18.1H10.05C9.74505 18.1 9.45254 18.2212 9.23688 18.4368C9.02121 18.6525 8.90005 18.945 8.90005 19.25C8.90005 19.555 9.02121 19.8475 9.23688 20.0632C9.45254 20.2788 9.74505 20.4 10.05 20.4H16.95C17.255 20.4 17.5476 20.2788 17.7632 20.0632C17.9789 19.8475 18.1 19.555 18.1 19.25C18.1 18.945 17.9789 18.6525 17.7632 18.4368C17.5476 18.2212 17.255 18.1 16.95 18.1ZM16.95 13.5H10.05C9.74505 13.5 9.45254 13.6212 9.23688 13.8368C9.02121 14.0525 8.90005 14.345 8.90005 14.65C8.90005 14.955 9.02121 15.2475 9.23688 15.4632C9.45254 15.6788 9.74505 15.8 10.05 15.8H16.95C17.255 15.8 17.5476 15.6788 17.7632 15.4632C17.9789 15.2475 18.1 14.955 18.1 14.65C18.1 14.345 17.9789 14.0525 17.7632 13.8368C17.5476 13.6212 17.255 13.5 16.95 13.5Z" fill="#A2AAD3"/>
<path d="M21.5501 7.74995H16.9501L16.949 3.1488L21.5501 7.74995Z" fill="#A2AAD3"/>
</svg>
