<svg width="27" height="27" viewBox="0 0 27 27" fill="none" xmlns="http://www.w3.org/2000/svg">
<g clip-path="url(#clip0_267_620)">
<path fill-rule="evenodd" clip-rule="evenodd" d="M2.54497 4.23005C2 5.29961 2 6.69974 2 9.5V17.5C2 20.3003 2 21.7004 2.54497 22.77C3.02433 23.7108 3.78924 24.4757 4.73005 24.955C5.79961 25.5 7.19974 25.5 10 25.5H17C19.8003 25.5 21.2004 25.5 22.27 24.955C23.2108 24.4757 23.9757 23.7108 24.455 22.77C25 21.7004 25 20.3003 25 17.5V9.5C25 6.69974 25 5.29961 24.455 4.23005C23.9757 3.28924 23.2108 2.52433 22.27 2.04497C21.2004 1.5 19.8003 1.5 17 1.5H10C7.19974 1.5 5.79961 1.5 4.73005 2.04497C3.78924 2.52433 3.02433 3.28924 2.54497 4.23005ZM6.50879 8.48392C5.9565 8.48392 5.50879 8.93163 5.50879 9.48392C5.50879 10.0362 5.9565 10.4839 6.50879 10.4839H12.5024C13.0547 10.4839 13.5024 10.0362 13.5024 9.48392C13.5024 8.93163 13.0547 8.48392 12.5024 8.48392H6.50879ZM6.50879 12.5402C5.9565 12.5402 5.50879 12.9879 5.50879 13.5402C5.50879 14.0925 5.9565 14.5402 6.50879 14.5402H14.4997C15.052 14.5402 15.4997 14.0925 15.4997 13.5402C15.4997 12.9879 15.052 12.5402 14.4997 12.5402H6.50879ZM6.50879 16.5256C5.9565 16.5256 5.50879 16.9733 5.50879 17.5256C5.50879 18.0779 5.9565 18.5256 6.50879 18.5256H10.5074C11.0597 18.5256 11.5074 18.0779 11.5074 17.5256C11.5074 16.9733 11.0597 16.5256 10.5074 16.5256H6.50879Z" fill="#A2AAD3"/>
</g>
<defs>
<clipPath id="clip0_267_620">
<rect width="24" height="24" fill="white" transform="translate(1.5 1.5)"/>
</clipPath>
</defs>
</svg>
