<svg width="30" height="30" viewBox="0 0 30 30" fill="none" xmlns="http://www.w3.org/2000/svg">
<g clip-path="url(#clip0_267_620)">
<path fill-rule="evenodd" clip-rule="evenodd" d="M4.04497 5.73005C3.5 6.79961 3.5 8.19974 3.5 11V19C3.5 21.8003 3.5 23.2004 4.04497 24.27C4.52433 25.2108 5.28924 25.9757 6.23005 26.455C7.29961 27 8.69974 27 11.5 27H18.5C21.3003 27 22.7004 27 23.77 26.455C24.7108 25.9757 25.4757 25.2108 25.955 24.27C26.5 23.2004 26.5 21.8003 26.5 19V11C26.5 8.19974 26.5 6.79961 25.955 5.73005C25.4757 4.78924 24.7108 4.02433 23.77 3.54497C22.7004 3 21.3003 3 18.5 3H11.5C8.69974 3 7.29961 3 6.23005 3.54497C5.28924 4.02433 4.52433 4.78924 4.04497 5.73005ZM8.00879 9.98392C7.4565 9.98392 7.00879 10.4316 7.00879 10.9839C7.00879 11.5362 7.4565 11.9839 8.00879 11.9839H14.0024C14.5547 11.9839 15.0024 11.5362 15.0024 10.9839C15.0024 10.4316 14.5547 9.98392 14.0024 9.98392H8.00879ZM8.00879 14.0402C7.4565 14.0402 7.00879 14.4879 7.00879 15.0402C7.00879 15.5925 7.4565 16.0402 8.00879 16.0402H15.9997C16.552 16.0402 16.9997 15.5925 16.9997 15.0402C16.9997 14.4879 16.552 14.0402 15.9997 14.0402H8.00879ZM8.00879 18.0256C7.4565 18.0256 7.00879 18.4733 7.00879 19.0256C7.00879 19.5779 7.4565 20.0256 8.00879 20.0256H12.0074C12.5597 20.0256 13.0074 19.5779 13.0074 19.0256C13.0074 18.4733 12.5597 18.0256 12.0074 18.0256H8.00879Z" fill="#A2AAD3"/>
</g>
<defs>
<clipPath id="clip0_267_620">
<rect width="24" height="24" fill="white" transform="translate(3 3)"/>
</clipPath>
</defs>
</svg>
