<svg width="27" height="28" viewBox="0 0 27 28" fill="none" xmlns="http://www.w3.org/2000/svg">
<path d="M13.4999 2.26385L13.6403 2.27225C13.9082 2.30384 14.1576 2.42475 14.3483 2.61547C14.539 2.80619 14.6599 3.05559 14.6915 3.32345L14.6999 3.46385V8.26385L14.7059 8.44386C14.7488 9.01526 14.9948 9.55245 15.3993 9.95829C15.8039 10.3641 16.3402 10.6119 16.9115 10.6567L17.0999 10.6639H21.8999L22.0403 10.6723C22.3082 10.7038 22.5576 10.8248 22.7483 11.0155C22.939 11.2062 23.0599 11.4556 23.0915 11.7235L23.0999 11.8639V22.6639C23.1 23.5821 22.7491 24.4657 22.1192 25.1338C21.4892 25.8019 20.6278 26.204 19.7111 26.2579L19.4999 26.2639H7.4999C6.58165 26.2639 5.69808 25.9131 5.02999 25.2831C4.36189 24.6532 3.95977 23.7917 3.9059 22.8751L3.8999 22.6639V5.86385C3.89985 4.9456 4.25069 4.06204 4.88064 3.39394C5.51059 2.72585 6.37203 2.32373 7.2887 2.26986L7.4999 2.26385H13.4999Z" fill="#A2AAD3"/>
<path d="M21.9001 8.26385H17.1001L17.0989 3.46265L21.9001 8.26385Z" fill="#A2AAD3"/>
</svg>
