<svg width="30" height="30" viewBox="0 0 30 30" fill="none" xmlns="http://www.w3.org/2000/svg">
<path fill-rule="evenodd" clip-rule="evenodd" d="M4.54497 5.73005C4 6.79961 4 8.19974 4 11V19C4 21.8003 4 23.2004 4.54497 24.27C5.02433 25.2108 5.78924 25.9757 6.73005 26.455C7.79961 27 9.19974 27 12 27H18C20.8003 27 22.2004 27 23.27 26.455C24.2108 25.9757 24.9757 25.2108 25.455 24.27C26 23.2004 26 21.8003 26 19V11C26 8.19974 26 6.79961 25.455 5.73005C24.9757 4.78924 24.2108 4.02433 23.27 3.54497C22.2004 3 20.8003 3 18 3H12C9.19974 3 7.79961 3 6.73005 3.54497C5.78924 4.02433 5.02433 4.78924 4.54497 5.73005ZM8.95957 9.98392C8.40728 9.98392 7.95957 10.4316 7.95957 10.9839C7.95957 11.5362 8.40728 11.9839 8.95957 11.9839H15.5526C16.1049 11.9839 16.5526 11.5362 16.5526 10.9839C16.5526 10.4316 16.1049 9.98392 15.5526 9.98392H8.95957ZM8.95957 14.0402C8.40728 14.0402 7.95957 14.4879 7.95957 15.0402C7.95957 15.5925 8.40728 16.0402 8.95957 16.0402H17.7496C18.3019 16.0402 18.7496 15.5925 18.7496 15.0402C18.7496 14.4879 18.3019 14.0402 17.7496 14.0402H8.95957ZM8.95957 18.0256C8.40728 18.0256 7.95957 18.4733 7.95957 19.0256C7.95957 19.5779 8.40728 20.0256 8.95957 20.0256H13.358C13.9103 20.0256 14.358 19.5779 14.358 19.0256C14.358 18.4733 13.9103 18.0256 13.358 18.0256H8.95957Z" fill="#A2AAD3"/>
</svg>
