<svg width="30" height="30" viewBox="0 0 30 30" fill="none" xmlns="http://www.w3.org/2000/svg">
<path d="M12.7999 25.9978C10.0917 25.9846 8.6023 25.8823 7.5232 25.1222C7.16884 24.8737 6.85209 24.5755 6.5827 24.2367C5.6499 23.0641 5.6499 21.3767 5.6499 17.9997V15.2002C5.6499 11.9409 5.6499 10.3107 6.1658 9.0094C6.9952 6.9161 8.7486 5.2661 10.9728 4.4851C12.3544 4 14.0847 4 17.5497 4C19.5275 4 20.5175 4 21.3073 4.2772C22.5778 4.7238 23.5799 5.6665 24.054 6.8622C24.3488 7.6058 24.3488 8.5375 24.3488 10.3998V17.2C24.3488 20.9818 24.3488 23.0388 23.3115 24.35" stroke="#8CC162" stroke-width="2" stroke-linecap="round" stroke-linejoin="round"/>
<path d="M5.6499 15C5.6499 14.0276 6.03617 13.0951 6.72374 12.4075C7.4113 11.72 8.34384 11.3337 9.3162 11.3337C10.0488 11.3337 10.9123 11.4613 11.624 11.271C11.935 11.1873 12.2185 11.0233 12.4461 10.7955C12.6737 10.5677 12.8375 10.2841 12.9209 9.973C13.1112 9.2613 12.9836 8.3978 12.9836 7.6652C12.9839 6.69303 13.3703 5.76077 14.0578 5.07345C14.7454 4.38612 15.6777 4 16.6499 4M17.1999 6.2H18.2999M19.3999 8.95H20.4999M17.1999 11.15H18.2999M19.3999 13.46H20.4999M17.1999 16.1H18.2999M19.3999 18.3H20.4999M15.5499 22.81V24.185C15.5499 24.801 15.5499 25.109 15.672 25.3466C15.7941 25.582 15.9976 25.7723 16.2506 25.8856C16.5047 26 16.8347 26 17.4947 26H18.5551C19.2151 26 19.5451 26 19.7992 25.8856C20.047 25.7758 20.2507 25.586 20.3778 25.3466C20.4999 25.109 20.4999 24.801 20.4999 24.1861V22.8089C20.4999 21.9344 19.9697 21.1347 19.1315 20.7442C18.7846 20.584 18.407 20.5011 18.0249 20.5011C17.6428 20.5011 17.2652 20.584 16.9183 20.7442C16.0801 21.1347 15.5499 21.9355 15.5499 22.81Z" stroke="#8CC162" stroke-width="2" stroke-linecap="round" stroke-linejoin="round"/>
</svg>
