<svg width="27" height="27" viewBox="0 0 27 27" fill="none" xmlns="http://www.w3.org/2000/svg">
<g clip-path="url(#clip0_149_573)">
<path d="M7.96159 1.5H10.7037C12.049 1.5 13.4668 1.98369 14.7985 2.71477C16.1401 3.45077 17.4557 4.47231 18.6114 5.62923C19.7671 6.78615 20.7862 8.09815 21.521 9.43477C22.2484 10.7603 22.7308 12.1683 22.7308 13.5V21.8077C22.7308 22.787 22.3418 23.7261 21.6494 24.4185C20.9569 25.111 20.0178 25.5 19.0385 25.5H7.96159C6.98233 25.5 6.04318 25.111 5.35074 24.4185C4.6583 23.7261 4.26929 22.787 4.26929 21.8077V5.19231C4.26929 4.21305 4.6583 3.27389 5.35074 2.58145C6.04318 1.88901 6.98233 1.5 7.96159 1.5ZM17.3056 6.93385C16.4238 6.04488 15.4406 5.2625 14.3764 4.60277C14.4075 4.79477 14.4231 4.99128 14.4231 5.19231V7.96154C14.4231 8.45117 14.6176 8.92075 14.9639 9.26697C15.3101 9.61319 15.7797 9.80769 16.2693 9.80769H19.0385C19.2404 9.80769 19.4377 9.82328 19.6305 9.85446C18.9722 8.79354 18.1919 7.81333 17.3056 6.93385ZM9.80775 14.4231C9.56293 14.4231 9.32815 14.5203 9.15504 14.6934C8.98192 14.8666 8.88467 15.1013 8.88467 15.3462C8.88467 15.591 8.98192 15.8258 9.15504 15.9989C9.32815 16.172 9.56293 16.2692 9.80775 16.2692H14.7308C14.9756 16.2692 15.2104 16.172 15.3835 15.9989C15.5566 15.8258 15.6539 15.591 15.6539 15.3462C15.6539 15.1013 15.5566 14.8666 15.3835 14.6934C15.2104 14.5203 14.9756 14.4231 14.7308 14.4231H9.80775ZM9.80775 18.1154C9.56293 18.1154 9.32815 18.2126 9.15504 18.3857C8.98192 18.5589 8.88467 18.7936 8.88467 19.0385C8.88467 19.2833 8.98192 19.5181 9.15504 19.6912C9.32815 19.8643 9.56293 19.9615 9.80775 19.9615H17.1924C17.4372 19.9615 17.672 19.8643 17.8451 19.6912C18.0182 19.5181 18.1154 19.2833 18.1154 19.0385C18.1154 18.7936 18.0182 18.5589 17.8451 18.3857C17.672 18.2126 17.4372 18.1154 17.1924 18.1154H9.80775Z" fill="#A2AAD3"/>
</g>
<defs>
<clipPath id="clip0_149_573">
<rect width="24" height="24" fill="white" transform="translate(1.5 1.5)"/>
</clipPath>
</defs>
</svg>
