<svg width="27" height="27" viewBox="0 0 27 27" fill="none" xmlns="http://www.w3.org/2000/svg">
<path d="M1.5 18.6696V8.70535C1.5 7.75892 1.54911 7.05803 1.64732 6.60267C1.74554 6.14731 1.88393 5.74999 2.0625 5.4107C2.25893 5.05356 2.49107 4.74106 2.75893 4.4732C3.02679 4.20535 3.33929 3.9732 3.69643 3.77678C4.01786 3.61606 4.38393 3.4866 4.79464 3.38838C5.20536 3.29017 5.8125 3.23213 6.61607 3.21428H8.35714C8.57143 3.21428 8.77232 3.2232 8.95982 3.24106C9.14732 3.25892 9.32143 3.2857 9.48214 3.32142C9.64286 3.35713 9.79911 3.40624 9.95089 3.46874C10.1027 3.53124 10.25 3.60713 10.3929 3.69642C10.5357 3.7857 10.683 3.89285 10.8348 4.01785C10.9866 4.14285 11.1339 4.27678 11.2768 4.41963L13.5 6.64285H20.0089C20.9554 6.64285 21.6563 6.69195 22.1116 6.79017C22.567 6.88838 22.9643 7.02678 23.3036 7.20535C23.6607 7.40178 23.9732 7.63392 24.2411 7.90178C24.5089 8.16963 24.7411 8.48213 24.9375 8.83928C25.1161 9.17856 25.2545 9.57588 25.3527 10.0312C25.4509 10.4866 25.5 11.1875 25.5 12.1339V18.2946C25.5 19.2411 25.4509 19.942 25.3527 20.3973C25.2545 20.8527 25.1161 21.25 24.9375 21.5893C24.7411 21.9464 24.5089 22.2589 24.2411 22.5268C23.9732 22.7946 23.6696 23.0178 23.3304 23.1964L23.3036 23.2232C22.9643 23.4018 22.567 23.5402 22.1116 23.6384C21.6563 23.7366 20.9554 23.7857 20.0089 23.7857H6.99107C6.04464 23.7857 5.34375 23.7366 4.88839 23.6384C4.43304 23.5402 4.03571 23.4018 3.69643 23.2232C3.33929 23.0268 3.02679 22.7946 2.75893 22.5268C2.49107 22.2589 2.26786 21.9553 2.08929 21.6161L2.0625 21.5893C1.90179 21.2678 1.77232 20.9018 1.67411 20.4911C1.57589 20.0803 1.51786 19.4732 1.5 18.6696Z" fill="#A2AAD3"/>
</svg>
