<svg width="27" height="27" viewBox="0 0 27 27" fill="none" xmlns="http://www.w3.org/2000/svg">
<path d="M2 18.4542V8.90514C2 7.99814 2.04706 7.32646 2.14118 6.89007C2.23531 6.45369 2.36793 6.07292 2.53906 5.74777C2.72731 5.40551 2.94978 5.10603 3.20647 4.84933C3.46317 4.59264 3.76265 4.37017 4.10491 4.18192C4.41295 4.02791 4.76377 3.90384 5.15737 3.80972C5.55097 3.71559 6.13281 3.65998 6.9029 3.64286H8.57143C8.77679 3.64286 8.96931 3.65142 9.149 3.66853C9.32868 3.68564 9.49554 3.71131 9.64955 3.74554C9.80357 3.77977 9.95331 3.82683 10.0988 3.88672C10.2442 3.94662 10.3854 4.01935 10.5223 4.10492C10.6592 4.19048 10.8004 4.29316 10.9459 4.41295C11.0913 4.53274 11.2325 4.66109 11.3694 4.798L13.5 6.92858H19.7377C20.6447 6.92858 21.3164 6.97564 21.7528 7.06976C22.1892 7.16388 22.5699 7.29651 22.8951 7.46764C23.2374 7.65588 23.5368 7.87835 23.7935 8.13505C24.0502 8.39175 24.2727 8.69123 24.4609 9.03349C24.6321 9.35864 24.7647 9.7394 24.8588 10.1758C24.9529 10.6122 25 11.2839 25 12.1909V18.0949C25 19.0019 24.9529 19.6736 24.8588 20.1099C24.7647 20.5463 24.6321 20.9271 24.4609 21.2522C24.2727 21.5945 24.0502 21.894 23.7935 22.1507C23.5368 22.4074 23.2459 22.6213 22.9208 22.7924L22.8951 22.8181C22.5699 22.9892 22.1892 23.1218 21.7528 23.216C21.3164 23.3101 20.6447 23.3571 19.7377 23.3571H7.26228C6.35528 23.3571 5.68359 23.3101 5.24721 23.216C4.81083 23.1218 4.43006 22.9892 4.10491 22.8181C3.76265 22.6298 3.46317 22.4074 3.20647 22.1507C2.94978 21.894 2.73586 21.6031 2.56473 21.2779L2.53906 21.2522C2.38504 20.9442 2.26097 20.5934 2.16685 20.1998C2.07273 19.8062 2.01711 19.2243 2 18.4542Z" fill="#A2AAD3"/>
</svg>
