<svg width="27" height="28" viewBox="0 0 27 28" fill="none" xmlns="http://www.w3.org/2000/svg">
<path d="M2 19.2181V9.66899C2 8.762 2.04706 8.09031 2.14118 7.65393C2.23531 7.21754 2.36793 6.83678 2.53906 6.51163C2.72731 6.16937 2.94978 5.86989 3.20647 5.61319C3.46317 5.35649 3.76265 5.13402 4.10491 4.94578C4.41295 4.79176 4.76376 4.66769 5.15737 4.57357C5.55097 4.47945 6.13281 4.42383 6.9029 4.40672H8.57143C8.77679 4.40672 8.96931 4.41527 9.149 4.43239C9.32868 4.4495 9.49554 4.47517 9.64955 4.5094C9.80357 4.54362 9.95331 4.59068 10.0988 4.65058C10.2442 4.71047 10.3854 4.78321 10.5223 4.86877C10.6592 4.95434 10.8004 5.05701 10.9459 5.17681C11.0913 5.2966 11.2325 5.42495 11.3694 5.56185L13.5 7.69243H19.7377C20.6447 7.69243 21.3164 7.73949 21.7528 7.83361C22.1892 7.92774 22.5699 8.06036 22.8951 8.23149C23.2374 8.41974 23.5368 8.64221 23.7935 8.8989C24.0502 9.1556 24.2727 9.45508 24.4609 9.79734C24.6321 10.1225 24.7647 10.5033 24.8588 10.9396C24.9529 11.376 25 12.0477 25 12.9547V18.8587C25 19.7657 24.9529 20.4374 24.8588 20.8738C24.7647 21.3102 24.6321 21.6909 24.4609 22.0161C24.2727 22.3584 24.0502 22.6578 23.7935 22.9145C23.5368 23.1712 23.2459 23.3851 22.9208 23.5563L22.8951 23.5819C22.5699 23.7531 22.1892 23.8857 21.7528 23.9798C21.3164 24.0739 20.6447 24.121 19.7377 24.121H7.26228C6.35528 24.121 5.68359 24.0739 5.24721 23.9798C4.81083 23.8857 4.43006 23.7531 4.10491 23.5819C3.76265 23.3937 3.46317 23.1712 3.20647 22.9145C2.94978 22.6578 2.73586 22.3669 2.56473 22.0418L2.53906 22.0161C2.38504 21.7081 2.26097 21.3572 2.16685 20.9636C2.07273 20.57 2.01711 19.9882 2 19.2181Z" fill="#A2AAD3"/>
</svg>
