<svg width="30" height="30" viewBox="0 0 30 30" fill="none" xmlns="http://www.w3.org/2000/svg">
<path d="M3.5 19.9542V10.4051C3.5 9.49815 3.54706 8.82646 3.64118 8.39007C3.73531 7.95369 3.86793 7.57292 4.03906 7.24777C4.22731 6.90551 4.44978 6.60603 4.70647 6.34933C4.96317 6.09264 5.26265 5.87017 5.60491 5.68192C5.91295 5.52791 6.26377 5.40384 6.65737 5.30972C7.05097 5.21559 7.63281 5.15998 8.4029 5.14286H10.0714C10.2768 5.14286 10.4693 5.15142 10.649 5.16853C10.8287 5.18564 10.9955 5.21132 11.1496 5.24554C11.3036 5.27977 11.4533 5.32683 11.5988 5.38672C11.7442 5.44662 11.8854 5.51935 12.0223 5.60492C12.1592 5.69048 12.3004 5.79316 12.4459 5.91295C12.5913 6.03274 12.7325 6.16109 12.8694 6.298L15 8.42858H21.2377C22.1447 8.42858 22.8164 8.47564 23.2528 8.56976C23.6892 8.66388 24.0699 8.79651 24.3951 8.96764C24.7374 9.15588 25.0368 9.37835 25.2935 9.63505C25.5502 9.89175 25.7727 10.1912 25.9609 10.5335C26.1321 10.8586 26.2647 11.2394 26.3588 11.6758C26.4529 12.1122 26.5 12.7839 26.5 13.6909V19.5949C26.5 20.5019 26.4529 21.1736 26.3588 21.6099C26.2647 22.0463 26.1321 22.4271 25.9609 22.7522C25.7727 23.0945 25.5502 23.394 25.2935 23.6507C25.0368 23.9074 24.7459 24.1213 24.4208 24.2924L24.3951 24.3181C24.0699 24.4892 23.6892 24.6218 23.2528 24.716C22.8164 24.8101 22.1447 24.8571 21.2377 24.8571H8.76228C7.85528 24.8571 7.18359 24.8101 6.74721 24.716C6.31083 24.6218 5.93006 24.4892 5.60491 24.3181C5.26265 24.1298 4.96317 23.9074 4.70647 23.6507C4.44978 23.394 4.23586 23.1031 4.06473 22.7779L4.03906 22.7522C3.88504 22.4442 3.76097 22.0934 3.66685 21.6998C3.57273 21.3062 3.51711 20.7243 3.5 19.9542Z" fill="#A2AAD3"/>
</svg>
