<svg width="27" height="27" viewBox="0 0 27 27" fill="none" xmlns="http://www.w3.org/2000/svg">
<path d="M5.58511 9.33333H21.4149C22.5383 9.33333 23.5 9.74132 24.3 10.5573C25.1 11.3733 25.5 12.3542 25.5 13.5C25.5 13.6736 25.4915 13.8429 25.4745 14.0078C25.4574 14.1727 25.4319 14.3333 25.3979 14.4896V14.4635L24.3 19.2292C24.1128 20.0278 23.9426 20.605 23.7894 20.9609C23.6362 21.3168 23.466 21.625 23.2787 21.8854C23.0745 22.1458 22.8489 22.3802 22.6021 22.5885C22.3553 22.7969 22.0872 22.9618 21.7979 23.0833L21.7723 23.1094C21.466 23.2309 21.1298 23.3264 20.7638 23.3958C20.3979 23.4653 19.8149 23.5 19.0149 23.5H7.32128C6.7766 23.4826 6.35532 23.4392 6.05745 23.3698C5.75957 23.3003 5.48298 23.2135 5.22766 23.1094C4.92128 22.9705 4.64468 22.7969 4.39787 22.5885C4.15106 22.3802 3.93404 22.1545 3.74681 21.9115L3.72128 21.8854C3.55106 21.6424 3.39362 21.3602 3.24894 21.0391C3.10426 20.7179 2.95532 20.2361 2.80213 19.5938L1.60213 14.4635C1.56809 14.3073 1.54255 14.151 1.52553 13.9948C1.50851 13.8385 1.5 13.6736 1.5 13.5C1.5 12.4063 1.8617 11.4601 2.58511 10.6615C3.30851 9.86285 4.19787 9.42014 5.25319 9.33333H5.27872H5.58511ZM8.85319 3.5H17.866C18.1723 3.5 18.4404 3.50868 18.6702 3.52604C18.9 3.5434 19.117 3.57813 19.3213 3.63021C19.5255 3.68229 19.7213 3.7474 19.9085 3.82552C20.0957 3.90365 20.2745 3.99479 20.4447 4.09896C20.5979 4.20313 20.7468 4.31163 20.8915 4.42448C21.0362 4.53733 21.1936 4.68056 21.3638 4.85417L21.9 5.40104C21.9851 5.48785 22.0489 5.57899 22.0915 5.67448C22.134 5.76997 22.1553 5.87847 22.1553 6C22.1553 6.22569 22.0745 6.42101 21.9128 6.58594C21.7511 6.75087 21.5596 6.83333 21.3383 6.83333H5.6617C5.44043 6.83333 5.24894 6.75087 5.08723 6.58594C4.92553 6.42101 4.84468 6.22569 4.84468 6C4.84468 5.87847 4.86596 5.76997 4.90851 5.67448C4.95106 5.57899 5.01489 5.48785 5.1 5.40104L5.43191 5.0625C5.65319 4.83681 5.85319 4.65017 6.03191 4.5026C6.21064 4.35504 6.38511 4.22049 6.55532 4.09896C6.72553 3.99479 6.90426 3.90365 7.09149 3.82552C7.27872 3.7474 7.47447 3.68229 7.67872 3.63021C7.84894 3.59549 8.02766 3.5651 8.21489 3.53906C8.40213 3.51302 8.61489 3.5 8.85319 3.5Z" fill="#A2AAD3"/>
</svg>
