<svg width="27" height="28" viewBox="0 0 27 28" fill="none" xmlns="http://www.w3.org/2000/svg">
<path d="M5.58511 10.0972H21.4149C22.5383 10.0972 23.5 10.5052 24.3 11.3211C25.1 12.1371 25.5 13.118 25.5 14.2639C25.5 14.4375 25.4915 14.6067 25.4745 14.7717C25.4574 14.9366 25.4319 15.0972 25.3979 15.2534V15.2274L24.3 19.993C24.1128 20.7916 23.9426 21.3689 23.7894 21.7248C23.6362 22.0807 23.466 22.3889 23.2787 22.6493C23.0745 22.9097 22.8489 23.1441 22.6021 23.3524C22.3553 23.5607 22.0872 23.7257 21.7979 23.8472L21.7723 23.8732C21.466 23.9948 21.1298 24.0902 20.7638 24.1597C20.3979 24.2291 19.8149 24.2639 19.0149 24.2639H7.32128C6.7766 24.2465 6.35532 24.2031 6.05745 24.1336C5.75957 24.0642 5.48298 23.9774 5.22766 23.8732C4.92128 23.7343 4.64468 23.5607 4.39787 23.3524C4.15106 23.1441 3.93404 22.9184 3.74681 22.6753L3.72128 22.6493C3.55106 22.4062 3.39362 22.1241 3.24894 21.8029C3.10426 21.4817 2.95532 21 2.80213 20.3576L1.60213 15.2274C1.56809 15.0711 1.54255 14.9149 1.52553 14.7586C1.50851 14.6024 1.5 14.4375 1.5 14.2639C1.5 13.1701 1.8617 12.2239 2.58511 11.4253C3.30851 10.6267 4.19787 10.184 5.25319 10.0972H5.27872H5.58511ZM8.85319 4.26386H17.866C18.1723 4.26386 18.4404 4.27254 18.6702 4.2899C18.9 4.30726 19.117 4.34198 19.3213 4.39406C19.5255 4.44615 19.7213 4.51125 19.9085 4.58938C20.0957 4.6675 20.2745 4.75865 20.4447 4.86281C20.5979 4.96698 20.7468 5.07549 20.8915 5.18833C21.0362 5.30118 21.1936 5.44441 21.3638 5.61802L21.9 6.1649C21.9851 6.2517 22.0489 6.34285 22.0915 6.43833C22.134 6.53382 22.1553 6.64233 22.1553 6.76386C22.1553 6.98955 22.0745 7.18486 21.9128 7.34979C21.7511 7.51472 21.5596 7.59719 21.3383 7.59719H5.6617C5.44043 7.59719 5.24894 7.51472 5.08723 7.34979C4.92553 7.18486 4.84468 6.98955 4.84468 6.76386C4.84468 6.64233 4.86596 6.53382 4.90851 6.43833C4.95106 6.34285 5.01489 6.2517 5.1 6.1649L5.43191 5.82636C5.65319 5.60066 5.85319 5.41403 6.03191 5.26646C6.21064 5.11889 6.38511 4.98434 6.55532 4.86281C6.72553 4.75865 6.90426 4.6675 7.09149 4.58938C7.27872 4.51125 7.47447 4.44615 7.67872 4.39406C7.84894 4.35934 8.02766 4.32896 8.21489 4.30292C8.40213 4.27688 8.61489 4.26386 8.85319 4.26386Z" fill="#A2AAD3"/>
</svg>
