<svg width="27" height="27" viewBox="0 0 27 27" fill="none" xmlns="http://www.w3.org/2000/svg">
<path d="M1.5 18.6696V8.70535C1.5 7.75893 1.54911 7.05803 1.64732 6.60268C1.74554 6.14732 1.88393 5.75 2.0625 5.41071C2.25893 5.05357 2.49107 4.74107 2.75893 4.47321C3.02679 4.20535 3.33929 3.97321 3.69643 3.77678C4.01786 3.61607 4.38393 3.4866 4.79464 3.38839C5.20536 3.29018 5.8125 3.23214 6.61607 3.21428H8.35714C8.57143 3.21428 8.77232 3.22321 8.95982 3.24107C9.14732 3.25893 9.32143 3.28571 9.48214 3.32143C9.64286 3.35714 9.79911 3.40625 9.95089 3.46875C10.1027 3.53125 10.25 3.60714 10.3929 3.69643C10.5357 3.78571 10.683 3.89285 10.8348 4.01785C10.9866 4.14285 11.1339 4.27678 11.2768 4.41964L13.5 6.64285H20.0089C20.9554 6.64285 21.6563 6.69196 22.1116 6.79018C22.567 6.88839 22.9643 7.02678 23.3036 7.20535C23.6607 7.40178 23.9732 7.63393 24.2411 7.90178C24.5089 8.16964 24.7411 8.48214 24.9375 8.83928C25.1161 9.17857 25.2545 9.57589 25.3527 10.0312C25.4509 10.4866 25.5 11.1875 25.5 12.1339V18.2946C25.5 19.2411 25.4509 19.942 25.3527 20.3973C25.2545 20.8527 25.1161 21.25 24.9375 21.5893C24.7411 21.9464 24.5089 22.2589 24.2411 22.5268C23.9732 22.7946 23.6696 23.0179 23.3304 23.1964L23.3036 23.2232C22.9643 23.4018 22.567 23.5402 22.1116 23.6384C21.6563 23.7366 20.9554 23.7857 20.0089 23.7857H6.99107C6.04464 23.7857 5.34375 23.7366 4.88839 23.6384C4.43304 23.5402 4.03571 23.4018 3.69643 23.2232C3.33929 23.0268 3.02679 22.7946 2.75893 22.5268C2.49107 22.2589 2.26786 21.9554 2.08929 21.6161L2.0625 21.5893C1.90179 21.2679 1.77232 20.9018 1.67411 20.4911C1.57589 20.0804 1.51786 19.4732 1.5 18.6696Z" fill="#A2AAD3"/>
</svg>
