<svg width="30" height="30" viewBox="0 0 30 30" fill="none" xmlns="http://www.w3.org/2000/svg">
<path d="M7.08511 10.8333H22.9149C24.0383 10.8333 25 11.2413 25.8 12.0573C26.6 12.8733 27 13.8542 27 15C27 15.1736 26.9915 15.3429 26.9745 15.5078C26.9574 15.6727 26.9319 15.8333 26.8979 15.9896V15.9635L25.8 20.7292C25.6128 21.5278 25.4426 22.105 25.2894 22.4609C25.1362 22.8168 24.966 23.125 24.7787 23.3854C24.5745 23.6458 24.3489 23.8802 24.1021 24.0885C23.8553 24.2969 23.5872 24.4618 23.2979 24.5833L23.2723 24.6094C22.966 24.7309 22.6298 24.8264 22.2638 24.8958C21.8979 24.9653 21.3149 25 20.5149 25H8.82128C8.2766 24.9826 7.85532 24.9392 7.55745 24.8698C7.25957 24.8003 6.98298 24.7135 6.72766 24.6094C6.42128 24.4705 6.14468 24.2969 5.89787 24.0885C5.65106 23.8802 5.43404 23.6545 5.24681 23.4115L5.22128 23.3854C5.05106 23.1424 4.89362 22.8602 4.74894 22.5391C4.60426 22.2179 4.45532 21.7361 4.30213 21.0938L3.10213 15.9635C3.06809 15.8073 3.04255 15.651 3.02553 15.4948C3.00851 15.3385 3 15.1736 3 15C3 13.9062 3.3617 12.9601 4.08511 12.1615C4.80851 11.3628 5.69787 10.9201 6.75319 10.8333H6.77872H7.08511ZM10.3532 5H19.366C19.6723 5 19.9404 5.00868 20.1702 5.02604C20.4 5.0434 20.617 5.07812 20.8213 5.13021C21.0255 5.18229 21.2213 5.2474 21.4085 5.32552C21.5957 5.40365 21.7745 5.49479 21.9447 5.59896C22.0979 5.70312 22.2468 5.81163 22.3915 5.92448C22.5362 6.03733 22.6936 6.18056 22.8638 6.35417L23.4 6.90104C23.4851 6.98785 23.5489 7.07899 23.5915 7.17448C23.634 7.26997 23.6553 7.37847 23.6553 7.5C23.6553 7.72569 23.5745 7.92101 23.4128 8.08594C23.2511 8.25087 23.0596 8.33333 22.8383 8.33333H7.1617C6.94043 8.33333 6.74894 8.25087 6.58723 8.08594C6.42553 7.92101 6.34468 7.72569 6.34468 7.5C6.34468 7.37847 6.36596 7.26997 6.40851 7.17448C6.45106 7.07899 6.51489 6.98785 6.6 6.90104L6.93191 6.5625C7.15319 6.33681 7.35319 6.15017 7.53191 6.00261C7.71064 5.85504 7.88511 5.72049 8.05532 5.59896C8.22553 5.49479 8.40425 5.40365 8.59149 5.32552C8.77872 5.2474 8.97447 5.18229 9.17872 5.13021C9.34894 5.09549 9.52766 5.06511 9.71489 5.03906C9.90213 5.01302 10.1149 5 10.3532 5Z" fill="#A2AAD3"/>
</svg>
