<svg width="27" height="27" viewBox="0 0 27 27" fill="none" xmlns="http://www.w3.org/2000/svg">
<path fill-rule="evenodd" clip-rule="evenodd" d="M1.5 10.2273V21.1364C1.5 21.7388 1.90105 22.1328 2.50354 22.1328C3.10603 22.1328 3.50891 21.7512 3.50891 21.1364V15.1947H10.5131V21.1364C10.5131 21.7798 10.9269 22.1328 11.5279 22.1328C12.1289 22.1328 12.4091 21.6081 12.4091 21.1364V10.2273C12.4091 7.21482 9.967 4.77274 6.95455 4.77274C3.94209 4.77274 1.5 7.21482 1.5 10.2273ZM3.50891 12.9025V10.2273C3.50891 9.02231 3.92278 6.76488 6.95455 6.76488C9.98631 6.76488 10.5131 9.02231 10.5131 10.2273V12.9025H3.50891ZM21.1364 9.13637H18.9545C16.5445 9.13637 14.5909 11.09 14.5909 13.5H16.5183C16.6533 11.59 18.104 11.0502 20.0608 11.1514C21.2642 11.2136 23.4515 11.1514 23.5527 13.5V14.5909H22.2273H17.9025C16.0023 14.5909 14.3913 15.9882 14.1225 17.8691C13.7939 20.1694 15.5788 22.2273 17.9025 22.2273H19.5936C20.5813 22.2273 22.8541 21.66 23.5527 20.9616C23.5527 22.18 24.4091 22.2273 24.4091 22.2273C25.0115 22.2273 25.5 21.805 25.5 20.9616V13.5C25.5 11.09 23.5464 9.13637 21.1364 9.13637ZM19.0431 16.5011H23.5527V17.8691C23.5527 19.3873 21.3228 20.1557 20.0608 20.1557H18.9545C16.5183 20.1557 15.9549 19.0602 16.3079 18.0004C16.5307 17.3324 16.664 16.5011 19.0431 16.5011Z" fill="#5BAFD4"/>
</svg>
