<svg width="30" height="30" viewBox="0 0 30 30" fill="none" xmlns="http://www.w3.org/2000/svg">
<path fill-rule="evenodd" clip-rule="evenodd" d="M3 11.7273V22.6363C3 23.2387 3.40105 23.6328 4.00354 23.6328C4.60603 23.6328 5.00891 23.2512 5.00891 22.6363V16.6947H12.0131V22.6363C12.0131 23.2798 12.4269 23.6328 13.0279 23.6328C13.6289 23.6328 13.9091 23.1081 13.9091 22.6363V11.7273C13.9091 8.71479 11.467 6.27271 8.45455 6.27271C5.44209 6.27271 3 8.71479 3 11.7273ZM5.00891 14.4025V11.7273C5.00891 10.5223 5.42278 8.26485 8.45455 8.26485C11.4863 8.26485 12.0131 10.5223 12.0131 11.7273V14.4025H5.00891ZM22.6364 10.6363H20.4545C18.0445 10.6363 16.0909 12.59 16.0909 15H18.0183C18.1533 13.0899 19.604 12.5501 21.5608 12.6513C22.7642 12.7136 24.9515 12.6513 25.0527 15V16.0909H23.7273H19.4025C17.5023 16.0909 15.8913 17.4881 15.6225 19.3691C15.2939 21.6694 17.0788 23.7273 19.4025 23.7273H21.0936C22.0813 23.7273 24.3541 23.16 25.0527 22.4616C25.0527 23.68 25.9091 23.7273 25.9091 23.7273C26.5115 23.7273 27 23.3049 27 22.4616V15C27 12.59 25.0464 10.6363 22.6364 10.6363ZM20.5431 18.0011H25.0527V19.3691C25.0527 20.8873 22.8228 21.6557 21.5608 21.6557H20.4545C18.0183 21.6557 17.4549 20.5601 17.8079 19.5004C18.0307 18.8323 18.164 18.0011 20.5431 18.0011Z" fill="#5BAFD4"/>
</svg>
