<svg width="30" height="30" viewBox="0 0 30 30" fill="none" xmlns="http://www.w3.org/2000/svg">
<path fill-rule="evenodd" clip-rule="evenodd" d="M3 11.7273V22.6363C3 23.2387 3.76879 23.7273 4.37128 23.7273C4.97377 23.7273 5.61907 23.2512 5.61907 22.6363V16.7931H11.5114V22.6363C11.5114 23.2798 12.1813 23.7273 12.7823 23.7273C13.3833 23.7273 13.9091 23.1081 13.9091 22.6363V11.7273C13.9091 8.71479 11.467 6.27271 8.45455 6.27271C5.44209 6.27271 3 8.71479 3 11.7273ZM5.61907 14.4025V11.7273C5.61907 10.5223 5.98878 8.54389 8.45455 8.54389C10.9203 8.54389 11.5114 10.5223 11.5114 11.7273V14.4025H5.61907ZM22.7061 10.2983L21.5608 10.1946L20.4545 10.2983C18.093 10.5402 16.0909 12.59 16.0909 15H18.5076C18.6426 13.0899 19.0778 12.6513 21.5608 12.6513C22.7061 12.6513 24.4018 12.6513 24.503 15V15.758H23.7255H19.4025C17.5023 15.758 15.8913 17.4881 15.6225 19.3691C15.2939 21.6694 17.0788 23.7273 19.4025 23.7273H21.0936C22.0813 23.7273 23.8044 23.16 24.503 22.4616C24.503 23.68 25.7124 23.7273 25.7124 23.7273C26.3148 23.7273 27 23.3049 27 22.4616V15C27 12.59 25.1768 10.5229 22.7061 10.2983ZM20.4545 18.2978H24.503V19.3691C24.503 20.8873 22.8228 21.6557 21.5608 21.6557H20.4545C18.0183 21.6557 17.9893 20.5439 17.9893 19.5073C18.2312 18.6779 18.1102 18.4188 20.4545 18.2978Z" fill="#5BAFD4"/>
</svg>
