<svg width="27" height="27" viewBox="0 0 27 27" fill="none" xmlns="http://www.w3.org/2000/svg">
<path fill-rule="evenodd" clip-rule="evenodd" d="M1.5 10.2273V21.1364C1.5 21.7388 1.98842 22.2273 2.59091 22.2273H3.68182C4.28431 22.2273 4.77273 21.7388 4.77273 21.1364V15.6818H9.13636V21.1364C9.13636 21.7388 9.62479 22.2273 10.2273 22.2273H11.3182C11.9207 22.2273 12.4091 21.7388 12.4091 21.1364V10.2273C12.4091 7.21482 9.967 4.77274 6.95455 4.77274C3.94209 4.77274 1.5 7.21482 1.5 10.2273ZM4.77273 12.4091V10.2273C4.77273 9.02231 5.74957 8.04546 6.95455 8.04546C8.15952 8.04546 9.13636 9.02231 9.13636 10.2273V12.4091H4.77273ZM21.1364 9.13637H18.9545C16.5445 9.13637 14.5909 11.09 14.5909 13.5H17.8636C17.8636 12.295 18.8404 11.3182 20.0455 11.3182C21.2505 11.3182 22.2273 12.295 22.2273 13.5V14.5909H17.9025C16.0023 14.5909 14.3913 15.9882 14.1225 17.8691C13.7939 20.1694 15.5788 22.2273 17.9025 22.2273H19.5936C20.5813 22.2273 21.5287 21.8348 22.2273 21.1364C22.2273 21.7388 22.7156 22.2273 23.3182 22.2273H24.4091C25.0115 22.2273 25.5 21.7388 25.5 21.1364V13.5C25.5 11.09 23.5464 9.13637 21.1364 9.13637ZM19.0431 16.7727H22.2273V17.7607C22.2273 19.0226 21.2044 20.0455 19.9425 20.0455H19.0431C17.926 20.0455 17.1375 18.9513 17.4905 17.8916C17.7133 17.2235 18.3386 16.7727 19.0431 16.7727Z" fill="#FF9D7D"/>
</svg>
