<svg width="27" height="27" viewBox="0 0 27 27" fill="none" xmlns="http://www.w3.org/2000/svg">
<path fill-rule="evenodd" clip-rule="evenodd" d="M7.50069 5.50108C6.39627 5.50108 5.50095 6.39639 5.50095 7.50081C5.50095 8.60523 6.39627 9.50055 7.50069 9.50055C8.60511 9.50055 9.50042 8.60523 9.50042 7.50081C9.50042 6.39639 8.60511 5.50108 7.50069 5.50108ZM3.50122 7.50081C3.50122 5.29197 5.29184 3.50134 7.50069 3.50134C9.70953 3.50134 11.5002 5.29197 11.5002 7.50081C11.5002 9.70966 9.70953 11.5003 7.50069 11.5003C5.29184 11.5003 3.50122 9.70966 3.50122 7.50081Z" fill="#A2AAD3"/>
<path fill-rule="evenodd" clip-rule="evenodd" d="M19.4992 5.50108C18.3948 5.50108 17.4995 6.39639 17.4995 7.50081C17.4995 8.60523 18.3948 9.50055 19.4992 9.50055C20.6036 9.50055 21.499 8.60523 21.499 7.50081C21.499 6.39639 20.6036 5.50108 19.4992 5.50108ZM15.4998 7.50081C15.4998 5.29197 17.2904 3.50134 19.4992 3.50134C21.7081 3.50134 23.4987 5.29197 23.4987 7.50081C23.4987 9.70966 21.7081 11.5003 19.4992 11.5003C17.2904 11.5003 15.4998 9.70966 15.4998 7.50081Z" fill="#A2AAD3"/>
<path fill-rule="evenodd" clip-rule="evenodd" d="M13.4997 17.4995C12.3953 17.4995 11.5 18.3948 11.5 19.4992C11.5 20.6036 12.3953 21.4989 13.4997 21.4989C14.6041 21.4989 15.4994 20.6036 15.4994 19.4992C15.4994 18.3948 14.6041 17.4995 13.4997 17.4995ZM9.50024 19.4992C9.50024 17.2903 11.2909 15.4997 13.4997 15.4997C15.7086 15.4997 17.4992 17.2903 17.4992 19.4992C17.4992 21.708 15.7086 23.4987 13.4997 23.4987C11.2909 23.4987 9.50024 21.708 9.50024 19.4992Z" fill="#A2AAD3"/>
<path fill-rule="evenodd" clip-rule="evenodd" d="M6.50049 11.5002V10.5004H8.50022V11.5002C8.50022 11.7654 8.60557 12.0197 8.79308 12.2072C8.98059 12.3948 9.23491 12.5001 9.50009 12.5001H17.499C17.7642 12.5001 18.0185 12.3948 18.206 12.2072C18.3936 12.0197 18.4989 11.7654 18.4989 11.5002V10.5004H20.4986V11.5002C20.4986 12.2958 20.1826 13.0587 19.6201 13.6213C19.0575 14.1838 18.2946 14.4998 17.499 14.4998H14.4994V16.4996H12.4997V14.4998H9.50009C8.70455 14.4998 7.94159 14.1838 7.37905 13.6213C6.81652 13.0587 6.50049 12.2958 6.50049 11.5002Z" fill="#A2AAD3"/>
</svg>
