<svg width="27" height="28" viewBox="0 0 27 28" fill="none" xmlns="http://www.w3.org/2000/svg">
<path fill-rule="evenodd" clip-rule="evenodd" d="M6.89388 5.57542C5.67771 5.57542 4.69181 6.56132 4.69181 7.77749C4.69181 8.99366 5.67771 9.97956 6.89388 9.97956C8.11005 9.97956 9.09595 8.99366 9.09595 7.77749C9.09595 6.56132 8.11005 5.57542 6.89388 5.57542ZM2.48975 7.77749C2.48975 5.34515 4.46155 3.37335 6.89388 3.37335C9.32622 3.37335 11.298 5.34515 11.298 7.77749C11.298 10.2098 9.32622 12.1816 6.89388 12.1816C4.46155 12.1816 2.48975 10.2098 2.48975 7.77749Z" fill="#A2AAD3"/>
<path fill-rule="evenodd" clip-rule="evenodd" d="M20.1063 5.57542C18.8901 5.57542 17.9042 6.56132 17.9042 7.77749C17.9042 8.99366 18.8901 9.97956 20.1063 9.97956C21.3225 9.97956 22.3084 8.99366 22.3084 7.77749C22.3084 6.56132 21.3225 5.57542 20.1063 5.57542ZM15.7021 7.77749C15.7021 5.34515 17.6739 3.37335 20.1063 3.37335C22.5386 3.37335 24.5104 5.34515 24.5104 7.77749C24.5104 10.2098 22.5386 12.1816 20.1063 12.1816C17.6739 12.1816 15.7021 10.2098 15.7021 7.77749Z" fill="#A2AAD3"/>
<path fill-rule="evenodd" clip-rule="evenodd" d="M13.4998 18.7878C12.2837 18.7878 11.2978 19.7737 11.2978 20.9898C11.2978 22.206 12.2837 23.1919 13.4998 23.1919C14.716 23.1919 15.7019 22.206 15.7019 20.9898C15.7019 19.7737 14.716 18.7878 13.4998 18.7878ZM9.0957 20.9898C9.0957 18.5575 11.0675 16.5857 13.4998 16.5857C15.9322 16.5857 17.904 18.5575 17.904 20.9898C17.904 23.4222 15.9322 25.394 13.4998 25.394C11.0675 25.394 9.0957 23.4222 9.0957 20.9898Z" fill="#A2AAD3"/>
<path fill-rule="evenodd" clip-rule="evenodd" d="M5.79272 12.1816V11.0806H7.99479V12.1816C7.99479 12.4736 8.11079 12.7537 8.31728 12.9601C8.52376 13.1666 8.80382 13.2826 9.09583 13.2826H17.9041C18.1961 13.2826 18.4762 13.1666 18.6826 12.9601C18.8891 12.7537 19.0051 12.4736 19.0051 12.1816V11.0806H21.2072V12.1816C21.2072 13.0576 20.8592 13.8978 20.2397 14.5172C19.6203 15.1367 18.7801 15.4847 17.9041 15.4847H14.601V17.6868H12.3989V15.4847H9.09583C8.21979 15.4847 7.37963 15.1367 6.76018 14.5172C6.14073 13.8978 5.79272 13.0576 5.79272 12.1816Z" fill="#A2AAD3"/>
</svg>
