<svg width="30" height="30" viewBox="0 0 30 30" fill="none" xmlns="http://www.w3.org/2000/svg">
<path fill-rule="evenodd" clip-rule="evenodd" d="M9.00069 7.00108C7.89627 7.00108 7.00095 7.89639 7.00095 9.00081C7.00095 10.1052 7.89627 11.0005 9.00069 11.0005C10.1051 11.0005 11.0004 10.1052 11.0004 9.00081C11.0004 7.89639 10.1051 7.00108 9.00069 7.00108ZM5.00122 9.00081C5.00122 6.79197 6.79184 5.00134 9.00069 5.00134C11.2095 5.00134 13.0002 6.79197 13.0002 9.00081C13.0002 11.2097 11.2095 13.0003 9.00069 13.0003C6.79184 13.0003 5.00122 11.2097 5.00122 9.00081Z" fill="#A2AAD3"/>
<path fill-rule="evenodd" clip-rule="evenodd" d="M20.9992 7.00108C19.8948 7.00108 18.9995 7.89639 18.9995 9.00081C18.9995 10.1052 19.8948 11.0005 20.9992 11.0005C22.1036 11.0005 22.999 10.1052 22.999 9.00081C22.999 7.89639 22.1036 7.00108 20.9992 7.00108ZM16.9998 9.00081C16.9998 6.79197 18.7904 5.00134 20.9992 5.00134C23.2081 5.00134 24.9987 6.79197 24.9987 9.00081C24.9987 11.2097 23.2081 13.0003 20.9992 13.0003C18.7904 13.0003 16.9998 11.2097 16.9998 9.00081Z" fill="#A2AAD3"/>
<path fill-rule="evenodd" clip-rule="evenodd" d="M14.9997 18.9995C13.8953 18.9995 13 19.8948 13 20.9992C13 22.1036 13.8953 22.9989 14.9997 22.9989C16.1041 22.9989 16.9994 22.1036 16.9994 20.9992C16.9994 19.8948 16.1041 18.9995 14.9997 18.9995ZM11.0002 20.9992C11.0002 18.7903 12.7909 16.9997 14.9997 16.9997C17.2086 16.9997 18.9992 18.7903 18.9992 20.9992C18.9992 23.208 17.2086 24.9987 14.9997 24.9987C12.7909 24.9987 11.0002 23.208 11.0002 20.9992Z" fill="#A2AAD3"/>
<path fill-rule="evenodd" clip-rule="evenodd" d="M8.00049 13.0002V12.0004H10.0002V13.0002C10.0002 13.2654 10.1056 13.5197 10.2931 13.7072C10.4806 13.8948 10.7349 14.0001 11.0001 14.0001H18.999C19.2642 14.0001 19.5185 13.8948 19.706 13.7072C19.8936 13.5197 19.9989 13.2654 19.9989 13.0002V12.0004H21.9986V13.0002C21.9986 13.7958 21.6826 14.5587 21.1201 15.1213C20.5575 15.6838 19.7946 15.9998 18.999 15.9998H15.9994V17.9996H13.9997V15.9998H11.0001C10.2045 15.9998 9.44159 15.6838 8.87905 15.1213C8.31652 14.5587 8.00049 13.7958 8.00049 13.0002Z" fill="#A2AAD3"/>
</svg>
