<svg width="30" height="30" viewBox="0 0 30 30" fill="none" xmlns="http://www.w3.org/2000/svg">
<path d="M8.18015 9.88363V19.6846M18.3414 15.0055H12.3024C10.7927 15.0055 7.96015 13.7955 8.17603 10.5725M8.1499 26C8.87925 26 9.57872 25.7103 10.0944 25.1945C10.6102 24.6788 10.8999 23.9793 10.8999 23.25C10.8999 22.5207 10.6102 21.8212 10.0944 21.3055C9.57872 20.7897 8.87925 20.5 8.1499 20.5C7.42056 20.5 6.72108 20.7897 6.20536 21.3055C5.68963 21.8212 5.3999 22.5207 5.3999 23.25C5.3999 23.9793 5.68963 24.6788 6.20536 25.1945C6.72108 25.7103 7.42056 26 8.1499 26ZM8.1499 9.5C8.87925 9.5 9.57872 9.21027 10.0944 8.69454C10.6102 8.17882 10.8999 7.47935 10.8999 6.75C10.8999 6.02065 10.6102 5.32118 10.0944 4.80546C9.57872 4.28973 8.87925 4 8.1499 4C7.42056 4 6.72108 4.28973 6.20536 4.80546C5.68963 5.32118 5.3999 6.02065 5.3999 6.75C5.3999 7.47935 5.68963 8.17882 6.20536 8.69454C6.72108 9.21027 7.42056 9.5 8.1499 9.5ZM21.8999 17.75C22.6292 17.75 23.3287 17.4603 23.8444 16.9445C24.3602 16.4288 24.6499 15.7293 24.6499 15C24.6499 14.2707 24.3602 13.5712 23.8444 13.0555C23.3287 12.5397 22.6292 12.25 21.8999 12.25C21.1706 12.25 20.4711 12.5397 19.9554 13.0555C19.4396 13.5712 19.1499 14.2707 19.1499 15C19.1499 15.7293 19.4396 16.4288 19.9554 16.9445C20.4711 17.4603 21.1706 17.75 21.8999 17.75Z" stroke="#A2AAD3" stroke-width="2" stroke-linecap="round" stroke-linejoin="round"/>
</svg>
