<svg width="30" height="30" viewBox="0 0 30 30" fill="none" xmlns="http://www.w3.org/2000/svg">
<path fill-rule="evenodd" clip-rule="evenodd" d="M3.54496 5.73004C3 6.7996 3 8.19974 3 11V19C3 21.8002 3 23.2004 3.54496 24.27C4.02434 25.2108 4.78924 25.9756 5.73004 26.455C6.7996 27 8.19974 27 11 27H19C21.8002 27 23.2004 27 24.27 26.455C25.2108 25.9756 25.9756 25.2108 26.455 24.27C27 23.2004 27 21.8002 27 19V11C27 8.19974 27 6.7996 26.455 5.73004C25.9756 4.78924 25.2108 4.02434 24.27 3.54496C23.2004 3 21.8002 3 19 3H11C8.19974 3 6.7996 3 5.73004 3.54496C4.78924 4.02434 4.02434 4.78924 3.54496 5.73004ZM19.1372 12.0313C20.6336 12.1787 22.0328 12.8405 23.0962 13.9038L21.6254 15.3746C20.9024 14.6515 19.951 14.2015 18.9332 14.1013C17.9156 14.0011 16.8946 14.2568 16.0444 14.8249C15.1941 15.393 14.5672 16.2384 14.2703 17.2169C13.9735 18.1955 14.0251 19.2468 14.4165 20.1914C14.8078 21.1362 15.5146 21.916 16.4164 22.398C17.3183 22.8802 18.3594 23.0346 19.3622 22.835C20.3652 22.6356 21.268 22.0944 21.9168 21.304C22.2386 20.9118 22.488 20.4702 22.6576 20H20C19.4478 20 19 19.5522 19 19C19 18.4477 19.4478 18 20 18H25V18.4C25 18.4344 25 18.4677 25 18.5C25 18.5086 25 18.5173 25 18.5259C24.9994 18.8779 24.9952 19.1082 24.9526 19.2838C24.8042 20.5048 24.3116 21.6646 23.5246 22.6236C22.5706 23.786 21.243 24.5818 19.768 24.8752C18.2932 25.1684 16.7622 24.9414 15.4359 24.2324C14.1097 23.5236 13.0703 22.3768 12.4948 20.9874C11.9193 19.5982 11.8434 18.0522 12.2799 16.6132C12.7164 15.1741 13.6384 13.9309 14.8888 13.0954C16.1392 12.26 17.6405 11.8839 19.1372 12.0313ZM6 15H10V17H6V15ZM5 18H9V20H5V18ZM7 21H10V23H7V21Z" fill="#5BAFD4"/>
</svg>
