<svg width="27" height="28" viewBox="0 0 27 28" fill="none" xmlns="http://www.w3.org/2000/svg">
<g clip-path="url(#clip0_160_401)">
<mask id="path-3-inside-1_160_401" fill="white">
<path fill-rule="evenodd" clip-rule="evenodd" d="M13.5 26.2639C20.1274 26.2639 25.5 20.8913 25.5 14.2639C25.5 7.63644 20.1274 2.26385 13.5 2.26385C6.87258 2.26385 1.5 7.63644 1.5 14.2639C1.5 20.8913 6.87258 26.2639 13.5 26.2639ZM14.4497 23.7136C19.6687 23.7136 23.8994 19.4828 23.8994 14.2639C23.8994 9.04493 19.6687 4.81415 14.4497 4.81415C9.23078 4.81415 5 9.04493 5 14.2639C5 19.4828 9.23078 23.7136 14.4497 23.7136Z"/>
</mask>
<path fill-rule="evenodd" clip-rule="evenodd" d="M13.5 26.2639C20.1274 26.2639 25.5 20.8913 25.5 14.2639C25.5 7.63644 20.1274 2.26385 13.5 2.26385C6.87258 2.26385 1.5 7.63644 1.5 14.2639C1.5 20.8913 6.87258 26.2639 13.5 26.2639ZM14.4497 23.7136C19.6687 23.7136 23.8994 19.4828 23.8994 14.2639C23.8994 9.04493 19.6687 4.81415 14.4497 4.81415C9.23078 4.81415 5 9.04493 5 14.2639C5 19.4828 9.23078 23.7136 14.4497 23.7136Z" fill="#A2AAD3"/>
<path d="M24.5 14.2639C24.5 20.339 19.5751 25.2639 13.5 25.2639V27.2639C20.6797 27.2639 26.5 21.4436 26.5 14.2639H24.5ZM13.5 3.26385C19.5751 3.26385 24.5 8.18872 24.5 14.2639H26.5C26.5 7.08415 20.6797 1.26385 13.5 1.26385V3.26385ZM2.5 14.2639C2.5 8.18872 7.42487 3.26385 13.5 3.26385V1.26385C6.3203 1.26385 0.5 7.08415 0.5 14.2639H2.5ZM13.5 25.2639C7.42487 25.2639 2.5 20.339 2.5 14.2639H0.5C0.5 21.4436 6.3203 27.2639 13.5 27.2639V25.2639ZM22.8994 14.2639C22.8994 18.9305 19.1164 22.7136 14.4497 22.7136V24.7136C20.2209 24.7136 24.8994 20.0351 24.8994 14.2639H22.8994ZM14.4497 5.81415C19.1164 5.81415 22.8994 9.59722 22.8994 14.2639H24.8994C24.8994 8.49265 20.2209 3.81415 14.4497 3.81415V5.81415ZM6 14.2639C6 9.59722 9.78307 5.81415 14.4497 5.81415V3.81415C8.6785 3.81415 4 8.49265 4 14.2639H6ZM14.4497 22.7136C9.78307 22.7136 6 18.9305 6 14.2639H4C4 20.0351 8.6785 24.7136 14.4497 24.7136V22.7136Z" fill="#A2AAD3" mask="url(#path-3-inside-1_160_401)"/>
<path d="M22.9434 7.59378C19.88 8.65946 16.6694 9.2261 13.3613 9.2261C10.1354 9.2261 7.00215 8.68728 4.00781 7.67231" stroke="#A2AAD3" stroke-width="2"/>
<path d="M15.5413 3.95709C17.9468 7.50965 19.2341 11.2587 19.2341 15.1336C19.2341 18.3675 18.3375 21.5137 16.6425 24.5313" stroke="#A2AAD3" stroke-width="2"/>
<path d="M13.4058 24.8334C10.8407 21.3665 9.47144 17.7177 9.47144 13.9508C9.47144 10.5045 10.6176 7.15692 12.7771 3.95709" stroke="#A2AAD3" stroke-width="2"/>
<path d="M23.1308 19.9052C20.1134 19.4352 16.9638 19.1863 13.7249 19.1863C9.91898 19.1863 7.17065 19.4738 3.68091 20.1161" stroke="#A2AAD3" stroke-width="2"/>
<path d="M25.3231 14.4199C21.5742 14.5238 17.8125 14.576 14.0385 14.576C10.1989 14.576 6.3718 14.522 2.55811 14.4145" stroke="#A2AAD3" stroke-width="2"/>
</g>
<rect x="1.55" y="2.31385" width="23.9" height="23.9" stroke="#A2AAD3" stroke-width="0.1"/>
<defs>
<clipPath id="clip0_160_401">
<rect x="1.5" y="2.26385" width="24" height="24" fill="white"/>
</clipPath>
</defs>
</svg>
