<svg width="30" height="30" viewBox="0 0 30 30" fill="none" xmlns="http://www.w3.org/2000/svg">
<g clip-path="url(#clip0_160_401)">
<path d="M25.8798 15C25.8798 17.8855 24.7335 20.6528 22.6931 22.6932C20.6528 24.7336 17.8854 25.8798 14.9999 25.8798C12.1144 25.8798 9.34711 24.7336 7.30674 22.6932C5.26638 20.6528 4.12012 17.8855 4.12012 15C4.12012 12.1145 5.26638 9.34717 7.30674 7.3068C9.34711 5.26644 12.1144 4.12018 14.9999 4.12018C17.8854 4.12018 20.6528 5.26644 22.6931 7.3068C24.7335 9.34717 25.8798 12.1145 25.8798 15Z" stroke="#8AADF4" stroke-width="2.16" stroke-linecap="round" stroke-linejoin="round"/>
<path d="M5.79395 19.1845H24.206M5.79395 10.8155H24.206M14.9999 4.12018C17.7952 7.46782 19.1845 11.1 19.1845 15C19.1845 18.9 17.7952 22.5322 14.9999 25.8798C12.2047 22.5322 10.8154 18.9 10.8154 15C10.8556 10.988 12.3413 7.12509 14.9999 4.12018Z" stroke="#8AADF4" stroke-width="2.16" stroke-linecap="round" stroke-linejoin="round"/>
</g>
<defs>
<clipPath id="clip0_160_401">
<rect width="24" height="24" fill="white" transform="translate(3 3)"/>
</clipPath>
</defs>
</svg>
