<svg width="27" height="27" viewBox="0 0 27 27" fill="none" xmlns="http://www.w3.org/2000/svg">
<g clip-path="url(#clip0_171_332)">
<path fill-rule="evenodd" clip-rule="evenodd" d="M13.798 1.50009C14.0478 1.50366 14.2835 1.61602 14.4436 1.80777C16.1714 3.87697 17.4046 6.06259 18.1351 8.35714H23.2143C23.6877 8.35714 24.0714 8.7409 24.0714 9.21429C24.0714 9.68767 23.6877 10.0714 23.2143 10.0714H18.5831C18.8131 11.1902 18.9286 12.3334 18.9286 13.5C18.9286 14.6666 18.8131 15.8098 18.5831 16.9286H23.2143C23.6877 16.9286 24.0714 17.3123 24.0714 17.7857C24.0714 18.2591 23.6877 18.6429 23.2143 18.6429H18.1351C17.4046 20.9374 16.1714 23.123 14.4436 25.1922C14.2808 25.3873 14.0398 25.5 13.7857 25.5C13.5316 25.5 13.2906 25.3873 13.1278 25.1922C11.4 23.123 10.1669 20.9374 9.43633 18.6429H4.35714C3.88376 18.6429 3.5 18.2591 3.5 17.7857C3.5 17.3123 3.88376 16.9286 4.35714 16.9286H8.98828C8.75828 15.8098 8.64286 14.6666 8.64286 13.5V13.4914H8.6429C8.65449 12.335 8.77773 11.1901 9.00699 10.0714H4.35714C3.88376 10.0714 3.5 9.68767 3.5 9.21429C3.5 8.7409 3.88376 8.35714 4.35714 8.35714H9.44747C10.1947 5.94914 11.4472 3.70673 13.1438 1.78917C13.3093 1.60208 13.5482 1.49652 13.798 1.50009ZM10.7608 10.0714C10.506 11.1906 10.3691 12.341 10.3571 13.5043C10.3575 14.6687 10.4853 15.8101 10.7428 16.9286H16.8286C17.0865 15.8087 17.2143 14.6659 17.2143 13.5C17.2143 12.3341 17.0865 11.1913 16.8286 10.0714H10.7608ZM16.3257 8.35714H11.2516C11.8293 6.69148 12.6778 5.12216 13.7715 3.71582C14.9053 5.21468 15.7544 6.76167 16.3257 8.35714ZM16.3257 18.6429H11.2457C11.8147 20.2317 12.6591 21.7724 13.7857 23.2654C14.9124 21.7724 15.7568 20.2317 16.3257 18.6429Z" fill="#8AADF4"/>
<path fill-rule="evenodd" clip-rule="evenodd" d="M13.5 3.21429C10.7721 3.21429 8.15585 4.29796 6.2269 6.2269C4.29796 8.15585 3.21429 10.7721 3.21429 13.5C3.21429 16.2279 4.29796 18.8442 6.2269 20.7731C8.15585 22.702 10.7721 23.7857 13.5 23.7857C16.2279 23.7857 18.8442 22.702 20.7731 20.7731C22.702 18.8442 23.7857 16.2279 23.7857 13.5C23.7857 10.7721 22.702 8.15585 20.7731 6.2269C18.8442 4.29796 16.2279 3.21429 13.5 3.21429ZM5.01472 5.01472C7.26516 2.76428 10.3174 1.5 13.5 1.5C16.6826 1.5 19.7348 2.76428 21.9853 5.01472C24.2357 7.26516 25.5 10.3174 25.5 13.5C25.5 16.6826 24.2357 19.7348 21.9853 21.9853C19.7348 24.2357 16.6826 25.5 13.5 25.5C10.3174 25.5 7.26516 24.2357 5.01472 21.9853C2.76428 19.7348 1.5 16.6826 1.5 13.5C1.5 10.3174 2.76428 7.26516 5.01472 5.01472Z" fill="#8AADF4"/>
</g>
<defs>
<clipPath id="clip0_171_332">
<rect width="24" height="24" fill="white" transform="translate(1.5 1.5)"/>
</clipPath>
</defs>
</svg>
