<svg width="27" height="27" viewBox="0 0 27 27" fill="none" xmlns="http://www.w3.org/2000/svg">
<g clip-path="url(#clip0_160_401)">
<path d="M24.3798 13.5C24.3798 16.3855 23.2335 19.1528 21.1931 21.1932C19.1528 23.2336 16.3854 24.3798 13.4999 24.3798C10.6144 24.3798 7.84711 23.2336 5.80674 21.1932C3.76638 19.1528 2.62012 16.3855 2.62012 13.5C2.62012 10.6145 3.76638 7.84717 5.80674 5.8068C7.84711 3.76644 10.6144 2.62018 13.4999 2.62018C16.3854 2.62018 19.1528 3.76644 21.1931 5.8068C23.2335 7.84717 24.3798 10.6145 24.3798 13.5Z" stroke="#8AADF4" stroke-width="2.16" stroke-linecap="round" stroke-linejoin="round"/>
<path d="M4.29395 17.6845H22.706M4.29395 9.31545H22.706M13.4999 2.62018C16.2952 5.96782 17.6845 9.6 17.6845 13.5C17.6845 17.4 16.2952 21.0322 13.4999 24.3798C10.7047 21.0322 9.3154 17.4 9.3154 13.5C9.35561 9.48801 10.8413 5.62509 13.4999 2.62018Z" stroke="#8AADF4" stroke-width="2.16" stroke-linecap="round" stroke-linejoin="round"/>
</g>
<defs>
<clipPath id="clip0_160_401">
<rect width="24" height="24" fill="white" transform="translate(1.5 1.5)"/>
</clipPath>
</defs>
</svg>
