<svg width="27" height="27" viewBox="0 0 27 27" fill="none" xmlns="http://www.w3.org/2000/svg">
<g clip-path="url(#clip0_160_413)">
<path fill-rule="evenodd" clip-rule="evenodd" d="M21.0406 13.6872L21.2131 13.8516L23.1264 15.8475L24.9911 17.5333L25 12.051V7.5049C25 4.19162 22.3144 1.5055 19.0011 1.5049L8.43859 1.50299L7.9972 1.5032C4.68459 1.50474 2 4.19058 2 7.50319V11.8456L2.00988 17.7064L4.73044 14.9534L8.10305 11.4348L8.28015 11.2668C9.71305 9.97079 11.5462 9.97319 12.9906 11.2872L13.1631 11.4516L15.8 14.202L16.1531 13.8348L16.3302 13.6668C17.7631 12.3708 19.5962 12.3732 21.0406 13.6872ZM20.8911 16.5057L24.949 20.1743C24.6082 23.1667 22.0689 25.5 18.9879 25.5H13.5L8.01987 25.4971C5.08134 25.4956 2.6371 23.3818 2.12268 20.5921L8.55108 14.0871L9.71305 13.1484L9.83495 13.0344C10.3605 12.5784 10.8907 12.5784 11.4289 13.0476L11.5531 13.1652L17.287 19.1484L17.3951 19.248C17.6163 19.427 17.8926 19.5156 18.172 19.4972C18.4514 19.4788 18.7148 19.3546 18.9127 19.1481C19.1107 18.9415 19.2297 18.6667 19.2473 18.3751C19.2649 18.0835 19.18 17.7953 19.0085 17.5644L18.9131 17.4516L17.4272 15.9L17.7631 15.5484L17.885 15.4344C18.4105 14.9784 18.9406 14.9784 19.4789 15.4476L19.603 15.5652L20.8911 16.5057ZM16.8155 7.50839L16.9615 7.49999L17.0961 7.50839C17.3756 7.54308 17.6332 7.68354 17.8201 7.90315C18.007 8.12276 18.1102 8.40628 18.1102 8.69999C18.1102 8.99371 18.007 9.27722 17.8201 9.49683C17.6332 9.71644 17.3756 9.8569 17.0961 9.89159L16.95 9.89999L16.8155 9.89159C16.5359 9.8569 16.2783 9.71644 16.0914 9.49683C15.9045 9.27722 15.8013 8.99371 15.8013 8.69999C15.8013 8.40628 15.9045 8.12276 16.0914 7.90315C16.2783 7.68354 16.5359 7.54308 16.8155 7.50839Z" fill="#5BAFD4"/>
</g>
<defs>
<clipPath id="clip0_160_413">
<rect width="24" height="24" fill="white" transform="translate(1.5 1.5)"/>
</clipPath>
</defs>
</svg>
