<svg width="30" height="30" viewBox="0 0 30 30" fill="none" xmlns="http://www.w3.org/2000/svg">
<g clip-path="url(#clip0_160_413)">
<path fill-rule="evenodd" clip-rule="evenodd" d="M22.5406 15.1872L22.7131 15.3516L24.6264 17.3475L26.4911 19.0333L26.5 13.551V9.0049C26.5 5.69162 23.8144 3.0055 20.5011 3.0049L9.93859 3.00299L9.4972 3.0032C6.18459 3.00474 3.5 5.69058 3.5 9.00319V13.3456L3.50988 19.2064L6.23044 16.4534L9.60305 12.9348L9.78015 12.7668C11.2131 11.4708 13.0462 11.4732 14.4906 12.7872L14.6631 12.9516L17.3 15.702L17.6531 15.3348L17.8302 15.1668C19.2631 13.8708 21.0962 13.8732 22.5406 15.1872ZM22.3911 18.0057L26.449 21.6743C26.1082 24.6667 23.5689 27 20.4879 27H15L9.51987 26.9971C6.58134 26.9956 4.1371 24.8818 3.62268 22.0921L10.0511 15.5871L11.2131 14.6484L11.3349 14.5344C11.8605 14.0784 12.3907 14.0784 12.9289 14.5476L13.0531 14.6652L18.787 20.6484L18.8951 20.748C19.1163 20.927 19.3926 21.0156 19.672 20.9972C19.9514 20.9788 20.2148 20.8546 20.4127 20.6481C20.6107 20.4415 20.7297 20.1667 20.7473 19.8751C20.7649 19.5835 20.68 19.2953 20.5085 19.0644L20.4131 18.9516L18.9272 17.4L19.2631 17.0484L19.385 16.9344C19.9105 16.4784 20.4406 16.4784 20.9789 16.9476L21.103 17.0652L22.3911 18.0057ZM18.3155 9.00839L18.4615 8.99999L18.5961 9.00839C18.8756 9.04308 19.1332 9.18354 19.3201 9.40315C19.507 9.62276 19.6102 9.90628 19.6102 10.2C19.6102 10.4937 19.507 10.7772 19.3201 10.9968C19.1332 11.2164 18.8756 11.3569 18.5961 11.3916L18.45 11.4L18.3155 11.3916C18.0359 11.3569 17.7783 11.2164 17.5914 10.9968C17.4045 10.7772 17.3013 10.4937 17.3013 10.2C17.3013 9.90628 17.4045 9.62276 17.5914 9.40315C17.7783 9.18354 18.0359 9.04308 18.3155 9.00839Z" fill="#5BAFD4"/>
</g>
<defs>
<clipPath id="clip0_160_413">
<rect width="24" height="24" fill="white" transform="translate(3 3)"/>
</clipPath>
</defs>
</svg>
