<svg width="27" height="28" viewBox="0 0 27 28" fill="none" xmlns="http://www.w3.org/2000/svg">
<g clip-path="url(#clip0_160_413)">
<path fill-rule="evenodd" clip-rule="evenodd" d="M21.0406 14.4511L21.2131 14.6155L22.0372 15.4752L22.4357 15.0899L24.9924 17.5092L25 12.8149V8.26877C25 4.95548 22.3144 2.26937 19.0011 2.26877L8.43859 2.26686L7.9972 2.26706C4.68459 2.2686 2 4.95444 2 8.26706V12.6095L2.01002 18.5554L8.10305 12.1987L8.28015 12.0307C9.71305 10.7347 11.5462 10.7371 12.9906 12.0511L13.1631 12.2155L15.8 14.9659L16.1531 14.5987L16.3302 14.4307C17.7631 13.1347 19.5962 13.1371 21.0406 14.4511ZM23.2729 19.0087L24.9767 20.621C24.7856 23.764 22.1769 26.2639 18.9879 26.2639H13.5L8.01987 26.261C5.34198 26.2596 3.07459 24.504 2.30411 22.0813L10.1038 14.6421L9.51212 14.0746L9.71305 13.9123L9.83495 13.7983C10.3605 13.3423 10.8907 13.3423 11.4289 13.8115L11.5531 13.9291L17.287 19.9123L17.3951 20.0119C17.6163 20.1908 17.8926 20.2794 18.172 20.261C18.4514 20.2426 18.7148 20.1185 18.9127 19.9119C19.1107 19.7054 19.2297 19.4305 19.2473 19.139C19.2649 18.8474 19.18 18.5592 19.0085 18.3283L18.9131 18.2155L17.4272 16.6639L17.7631 16.3123L17.885 16.1983C18.4105 15.7423 18.9406 15.7423 19.4789 16.2115L19.603 16.3291L23.2729 19.0087ZM16.8155 8.27226L16.9615 8.26386L17.0961 8.27226C17.3756 8.30695 17.6332 8.4474 17.8201 8.66701C18.007 8.88662 18.1102 9.17014 18.1102 9.46385C18.1102 9.75757 18.007 10.0411 17.8201 10.2607C17.6332 10.4803 17.3756 10.6208 17.0961 10.6555L16.95 10.6639L16.8155 10.6555C16.5359 10.6208 16.2783 10.4803 16.0914 10.2607C15.9045 10.0411 15.8013 9.75757 15.8013 9.46385C15.8013 9.17014 15.9045 8.88662 16.0914 8.66701C16.2783 8.4474 16.5359 8.30695 16.8155 8.27226Z" fill="#14B8A6"/>
</g>
<defs>
<clipPath id="clip0_160_413">
<rect width="24" height="24" fill="white" transform="translate(1.5 2.26385)"/>
</clipPath>
</defs>
</svg>
