<svg width="30" height="30" viewBox="0 0 30 30" fill="none" xmlns="http://www.w3.org/2000/svg">
<g clip-path="url(#clip0_310_267)">
<path d="M9.78958 11.5264C10.7488 11.5264 11.5264 10.7487 11.5264 9.78952C11.5264 8.83028 10.7488 8.05267 9.78958 8.05267C8.83035 8.05267 8.05273 8.83028 8.05273 9.78952C8.05273 10.7487 8.83035 11.5264 9.78958 11.5264Z" stroke="#5BAFD4" stroke-width="2" stroke-linecap="round" stroke-linejoin="round"/>
<path d="M4 15C4 9.81495 4 7.22126 5.61063 5.61063C7.22126 4 9.81379 4 15 4C20.1851 4 22.7787 4 24.3894 5.61063C26 7.22126 26 9.81379 26 15C26 20.1851 26 22.7787 24.3894 24.3894C22.7787 26 20.1862 26 15 26C9.81495 26 7.22126 26 5.61063 24.3894C4 22.7787 4 20.1862 4 15Z" stroke="#5BAFD4" stroke-width="2" stroke-linecap="round" stroke-linejoin="round"/>
<path d="M6.89478 25.4211C11.9571 19.3711 17.6331 11.392 25.9977 16.7855" stroke="#5BAFD4" stroke-width="2" stroke-linecap="round" stroke-linejoin="round"/>
</g>
<defs>
<clipPath id="clip0_310_267">
<rect width="24" height="24" fill="white" transform="translate(3 3)"/>
</clipPath>
</defs>
</svg>
