<svg width="27" height="28" viewBox="0 0 27 28" fill="none" xmlns="http://www.w3.org/2000/svg">
<path fill-rule="evenodd" clip-rule="evenodd" d="M24.3286 18.1538L20.7117 14.5757L20.7079 14.5796L20.5501 14.4355C19.1685 13.231 17.4151 13.2288 16.0445 14.4168L15.8751 14.5708L15.5374 14.9074L13.0151 12.3862L12.8501 12.2355C11.4685 11.031 9.7151 11.0288 8.3445 12.2168L8.1751 12.3708L2.34699 18.1978L2.3374 12.7474V9.26668C2.3374 5.95401 5.02206 3.26816 8.33472 3.26668L8.49605 3.26661L18.3384 3.26831C21.6517 3.26889 24.3374 5.95501 24.3374 9.26831V12.9356L24.3286 18.1538ZM19.5574 16.4244L24.1837 21.0011C23.6176 23.4439 21.428 25.2639 18.8139 25.2639H13.3374L7.98167 25.2612C5.35537 25.2599 3.15019 23.4589 2.53212 21.0248L9.35988 14.2166L9.7151 13.9416L9.8317 13.8371C10.3344 13.4191 10.8415 13.4191 11.3563 13.8492L11.4751 13.957L16.9597 19.4416L17.0631 19.5329C17.2748 19.6969 17.539 19.7781 17.8063 19.7613C18.0735 19.7444 18.3255 19.6306 18.5148 19.4413C18.7042 19.2519 18.818 19 18.8348 18.7327C18.8517 18.4654 18.7705 18.2012 18.6064 17.9896L18.5151 17.8862L17.0939 16.4639L17.4151 16.1416L17.5317 16.0371C18.0344 15.6191 18.5415 15.6191 19.0563 16.0492L19.1751 16.157L19.5574 16.4244ZM16.5087 8.77156L16.6484 8.76386L16.7771 8.77156C17.0445 8.80336 17.2909 8.93211 17.4697 9.13342C17.6484 9.33473 17.7472 9.59462 17.7472 9.86385C17.7472 10.1331 17.6484 10.393 17.4697 10.5943C17.2909 10.7956 17.0445 10.9244 16.7771 10.9562L16.6374 10.9639L16.5087 10.9562C16.2413 10.9244 15.9949 10.7956 15.8162 10.5943C15.6374 10.393 15.5386 10.1331 15.5386 9.86385C15.5386 9.59462 15.6374 9.33473 15.8162 9.13342C15.9949 8.93211 16.2413 8.80336 16.5087 8.77156Z" fill="#14B8A6"/>
</svg>
