<svg width="27" height="27" viewBox="0 0 27 27" fill="none" xmlns="http://www.w3.org/2000/svg">
<rect x="2" y="1.5" width="23" height="24" rx="5" fill="#F7DF1E"/>
<path d="M6.29007 18.475C6.29007 18.2563 6.3721 18.0649 6.53616 17.9008C6.70022 17.7368 6.90302 17.6547 7.14456 17.6547C7.3861 17.6547 7.5889 17.7368 7.75296 17.9008C7.91702 18.0649 7.99905 18.2563 7.99905 18.475C7.99905 19.0082 8.18362 19.4617 8.55276 19.8354C8.92646 20.2045 9.36852 20.3891 9.87893 20.3891C10.3894 20.3891 10.8291 20.2045 11.1983 19.8354C11.572 19.4617 11.7588 19.0082 11.7588 18.475V12.3227C11.7588 12.1039 11.8408 11.9125 12.0049 11.7485C12.169 11.5844 12.3718 11.5024 12.6133 11.5024C12.8548 11.5024 13.0576 11.5844 13.2217 11.7485C13.3858 11.9125 13.4678 12.1039 13.4678 12.3227V18.475C13.4678 19.4503 13.1192 20.2866 12.4219 20.9838C11.7246 21.6811 10.877 22.0297 9.87893 22.0297C8.88089 22.0297 8.03323 21.6811 7.33597 20.9838C6.6387 20.2866 6.29007 19.4503 6.29007 18.475ZM21.9509 14.5444C21.9509 14.7631 21.8689 14.9545 21.7048 15.1186C21.5408 15.2827 21.338 15.3647 21.0964 15.3647C20.8549 15.3647 20.6521 15.2827 20.488 15.1186C20.324 14.9545 20.2419 14.7631 20.2419 14.5444C20.2419 14.1524 20.1052 13.822 19.8318 13.5532C19.5629 13.2797 19.2439 13.143 18.8748 13.143H17.8494C17.4802 13.143 17.1589 13.2797 16.8855 13.5532C16.6166 13.822 16.4822 14.1524 16.4822 14.5444C16.4822 14.9363 16.6166 15.269 16.8855 15.5424C17.1589 15.8113 17.4802 15.9457 17.8494 15.9457H18.8748C19.7315 15.9457 20.4584 16.2442 21.0554 16.8412C21.6524 17.4383 21.9509 18.1537 21.9509 18.9877C21.9509 19.8217 21.6524 20.5372 21.0554 21.1342C20.4584 21.7312 19.7315 22.0297 18.8748 22.0297H17.8494C16.9926 22.0297 16.2657 21.7312 15.6687 21.1342C15.0717 20.5372 14.7732 19.8217 14.7732 18.9877C14.7732 18.769 14.8552 18.5776 15.0193 18.4135C15.1833 18.2495 15.3861 18.1674 15.6277 18.1674C15.8692 18.1674 16.072 18.2495 16.2361 18.4135C16.4001 18.5776 16.4822 18.769 16.4822 18.9877C16.4822 19.3797 16.6166 19.7123 16.8855 19.9858C17.1589 20.2547 17.4802 20.3891 17.8494 20.3891H18.8748C19.2439 20.3891 19.5629 20.2547 19.8318 19.9858C20.1052 19.7123 20.2419 19.3797 20.2419 18.9877C20.2419 18.5958 20.1052 18.2654 19.8318 17.9965C19.5629 17.7231 19.2439 17.5864 18.8748 17.5864H17.8494C16.9926 17.5864 16.2657 17.2879 15.6687 16.6909C15.0717 16.0939 14.7732 15.3784 14.7732 14.5444C14.7732 13.7104 15.0717 12.9949 15.6687 12.3979C16.2657 11.8009 16.9926 11.5024 17.8494 11.5024H18.8748C19.7315 11.5024 20.4584 11.8009 21.0554 12.3979C21.6524 12.9949 21.9509 13.7104 21.9509 14.5444Z" fill="black"/>
</svg>
