<svg width="27" height="27" viewBox="0 0 27 27" fill="none" xmlns="http://www.w3.org/2000/svg">
<rect x="1.5" y="1.5" width="24" height="24" rx="6" fill="#F7DF1E"/>
<path d="M13.0313 21.3903C12.5753 21.3903 12.1513 21.2983 11.7593 21.1143C11.3673 20.9303 11.0473 20.6663 10.7993 20.3223C10.7033 20.1783 10.6553 20.0383 10.6553 19.9023C10.6553 19.7023 10.7313 19.5343 10.8833 19.3983C11.0433 19.2623 11.1993 19.1943 11.3513 19.1943C11.4713 19.1943 11.5873 19.2303 11.6993 19.3023C11.8193 19.3743 11.9273 19.4583 12.0233 19.5543C12.1833 19.6983 12.3393 19.8023 12.4913 19.8663C12.6513 19.9223 12.8313 19.9503 13.0313 19.9503C13.2713 19.9503 13.4953 19.8903 13.7033 19.7703C13.9113 19.6503 14.0793 19.4903 14.2073 19.2903C14.3353 19.0903 14.3993 18.8743 14.3993 18.6423V13.6023C14.3993 13.3943 14.4753 13.2223 14.6273 13.0863C14.7793 12.9423 14.9553 12.8703 15.1553 12.8703C15.3793 12.8703 15.5593 12.9423 15.6953 13.0863C15.8313 13.2223 15.8993 13.3943 15.8993 13.6023V18.6423C15.8993 19.1303 15.7713 19.5823 15.5153 19.9983C15.2593 20.4143 14.9153 20.7503 14.4833 21.0063C14.0513 21.2623 13.5673 21.3903 13.0313 21.3903ZM20.3964 21.3903C19.8364 21.3903 19.3324 21.3223 18.8844 21.1863C18.4364 21.0423 18.0084 20.7943 17.6004 20.4423C17.4964 20.3543 17.4164 20.2543 17.3604 20.1423C17.3044 20.0303 17.2764 19.9183 17.2764 19.8063C17.2764 19.6223 17.3404 19.4623 17.4684 19.3263C17.6044 19.1823 17.7724 19.1103 17.9724 19.1103C18.1244 19.1103 18.2604 19.1583 18.3804 19.2543C18.6844 19.5023 18.9844 19.6903 19.2804 19.8183C19.5844 19.9463 19.9564 20.0103 20.3964 20.0103C20.6924 20.0103 20.9644 19.9663 21.2124 19.8783C21.4604 19.7823 21.6604 19.6583 21.8124 19.5063C21.9644 19.3463 22.0404 19.1663 22.0404 18.9663C22.0404 18.7263 21.9684 18.5223 21.8244 18.3543C21.6804 18.1863 21.4604 18.0463 21.1644 17.9343C20.8684 17.8143 20.4924 17.7223 20.0364 17.6583C19.6044 17.5943 19.2244 17.4983 18.8964 17.3703C18.5684 17.2343 18.2924 17.0663 18.0684 16.8663C17.8524 16.6583 17.6884 16.4183 17.5764 16.1463C17.4644 15.8663 17.4084 15.5543 17.4084 15.2103C17.4084 14.6903 17.5404 14.2463 17.8044 13.8783C18.0764 13.5103 18.4404 13.2303 18.8964 13.0383C19.3524 12.8463 19.8564 12.7503 20.4084 12.7503C20.9284 12.7503 21.4084 12.8303 21.8484 12.9903C22.2964 13.1423 22.6604 13.3383 22.9404 13.5783C23.1724 13.7623 23.2884 13.9743 23.2884 14.2143C23.2884 14.3903 23.2204 14.5503 23.0844 14.6943C22.9484 14.8383 22.7884 14.9103 22.6044 14.9103C22.4844 14.9103 22.3764 14.8743 22.2804 14.8023C22.1524 14.6903 21.9804 14.5863 21.7644 14.4903C21.5484 14.3863 21.3204 14.3023 21.0804 14.2383C20.8404 14.1663 20.6164 14.1303 20.4084 14.1303C20.0644 14.1303 19.7724 14.1743 19.5324 14.2623C19.3004 14.3503 19.1244 14.4703 19.0044 14.6223C18.8844 14.7743 18.8244 14.9503 18.8244 15.1503C18.8244 15.3903 18.8924 15.5903 19.0284 15.7503C19.1724 15.9023 19.3764 16.0263 19.6404 16.1223C19.9044 16.2103 20.2204 16.2903 20.5884 16.3623C21.0684 16.4503 21.4884 16.5543 21.8484 16.6743C22.2164 16.7943 22.5204 16.9503 22.7604 17.1423C23.0004 17.3263 23.1804 17.5623 23.3004 17.8503C23.4204 18.1303 23.4804 18.4743 23.4804 18.8823C23.4804 19.4023 23.3364 19.8503 23.0484 20.2263C22.7604 20.6023 22.3804 20.8903 21.9084 21.0903C21.4444 21.2903 20.9404 21.3903 20.3964 21.3903Z" fill="black"/>
</svg>
