<svg width="30" height="30" viewBox="0 0 30 30" fill="none" xmlns="http://www.w3.org/2000/svg">
<rect x="3.5" y="3" width="23" height="24" rx="5" fill="#F7DF1E"/>
<path d="M7.79007 19.975C7.79007 19.7563 7.8721 19.5649 8.03616 19.4008C8.20022 19.2368 8.40302 19.1547 8.64456 19.1547C8.8861 19.1547 9.0889 19.2368 9.25296 19.4008C9.41702 19.5649 9.49905 19.7563 9.49905 19.975C9.49905 20.5082 9.68362 20.9617 10.0528 21.3354C10.4265 21.7045 10.8685 21.8891 11.3789 21.8891C11.8894 21.8891 12.3291 21.7045 12.6983 21.3354C13.072 20.9617 13.2588 20.5082 13.2588 19.975V13.8227C13.2588 13.6039 13.3408 13.4125 13.5049 13.2485C13.669 13.0844 13.8718 13.0024 14.1133 13.0024C14.3548 13.0024 14.5576 13.0844 14.7217 13.2485C14.8858 13.4125 14.9678 13.6039 14.9678 13.8227V19.975C14.9678 20.9503 14.6192 21.7866 13.9219 22.4838C13.2246 23.1811 12.377 23.5297 11.3789 23.5297C10.3809 23.5297 9.53323 23.1811 8.83597 22.4838C8.1387 21.7866 7.79007 20.9503 7.79007 19.975ZM23.4509 16.0444C23.4509 16.2631 23.3689 16.4545 23.2048 16.6186C23.0408 16.7827 22.838 16.8647 22.5964 16.8647C22.3549 16.8647 22.1521 16.7827 21.988 16.6186C21.824 16.4545 21.7419 16.2631 21.7419 16.0444C21.7419 15.6524 21.6052 15.322 21.3318 15.0532C21.0629 14.7797 20.7439 14.643 20.3748 14.643H19.3494C18.9802 14.643 18.6589 14.7797 18.3855 15.0532C18.1166 15.322 17.9822 15.6524 17.9822 16.0444C17.9822 16.4363 18.1166 16.769 18.3855 17.0424C18.6589 17.3113 18.9802 17.4457 19.3494 17.4457H20.3748C21.2315 17.4457 21.9584 17.7442 22.5554 18.3412C23.1524 18.9383 23.4509 19.6537 23.4509 20.4877C23.4509 21.3217 23.1524 22.0372 22.5554 22.6342C21.9584 23.2312 21.2315 23.5297 20.3748 23.5297H19.3494C18.4926 23.5297 17.7657 23.2312 17.1687 22.6342C16.5717 22.0372 16.2732 21.3217 16.2732 20.4877C16.2732 20.269 16.3552 20.0776 16.5193 19.9135C16.6833 19.7495 16.8861 19.6674 17.1277 19.6674C17.3692 19.6674 17.572 19.7495 17.7361 19.9135C17.9001 20.0776 17.9822 20.269 17.9822 20.4877C17.9822 20.8797 18.1166 21.2123 18.3855 21.4858C18.6589 21.7547 18.9802 21.8891 19.3494 21.8891H20.3748C20.7439 21.8891 21.0629 21.7547 21.3318 21.4858C21.6052 21.2123 21.7419 20.8797 21.7419 20.4877C21.7419 20.0958 21.6052 19.7654 21.3318 19.4965C21.0629 19.2231 20.7439 19.0864 20.3748 19.0864H19.3494C18.4926 19.0864 17.7657 18.7879 17.1687 18.1909C16.5717 17.5939 16.2732 16.8784 16.2732 16.0444C16.2732 15.2104 16.5717 14.4949 17.1687 13.8979C17.7657 13.3009 18.4926 13.0024 19.3494 13.0024H20.3748C21.2315 13.0024 21.9584 13.3009 22.5554 13.8979C23.1524 14.4949 23.4509 15.2104 23.4509 16.0444Z" fill="black"/>
</svg>
