<svg width="30" height="30" viewBox="0 0 30 30" fill="none" xmlns="http://www.w3.org/2000/svg">
<g clip-path="url(#clip0_279_456)">
<path fill-rule="evenodd" clip-rule="evenodd" d="M10.9378 4.59153C12.3951 3.75021 13.1237 3.32955 13.8983 3.1649C14.5837 3.01921 15.292 3.01921 15.9774 3.1649C16.752 3.32955 17.4806 3.75021 18.9378 4.59153L21.9519 6.33168C23.4091 7.173 24.1377 7.59366 24.6676 8.18218C25.1364 8.70289 25.4906 9.31634 25.7072 9.98274C25.9214 10.6422 25.9481 11.3692 25.9514 12.6693C25.6619 12.5763 25.3533 12.5261 25.033 12.5261H20.3337C19.6662 10.2099 17.531 8.51577 15 8.51577C11.9348 8.51577 9.45 11.0006 9.45 14.0658C9.45 14.3992 9.4794 14.7258 9.53576 15.043C9.5103 15.2003 9.49707 15.3616 9.49707 15.5261V24C9.49707 24.21 9.51866 24.415 9.55973 24.6129L7.92383 23.6684C6.46661 22.8271 5.738 22.4064 5.2081 21.8179C4.73925 21.2972 4.38507 20.6837 4.16855 20.0173C3.92383 19.2641 3.92383 18.4228 3.92383 16.7402V13.2599C3.92383 11.5772 3.92383 10.7359 4.16855 9.98274C4.38507 9.31634 4.73925 8.70289 5.2081 8.18218C5.738 7.59367 6.46661 7.173 7.92382 6.33168L7.92382 6.33168L7.92383 6.33168L10.9378 4.59153Z" fill="#F7DF1E"/>
<path d="M10.9976 17.0658C10.9976 15.4089 12.3407 14.0658 13.9976 14.0658H23.9999C25.6568 14.0658 26.9999 15.4089 26.9999 17.0658V24C26.9999 25.6569 25.6568 27 23.9999 27H13.9976C12.3407 27 10.9976 25.6569 10.9976 24V17.0658Z" fill="#F7DF1E"/>
<path d="M13.4575 21.9901C13.4575 21.8339 13.5161 21.6971 13.6333 21.58C13.7505 21.4628 13.8953 21.4042 14.0679 21.4042C14.2404 21.4042 14.3853 21.4628 14.5024 21.58C14.6196 21.6971 14.6782 21.8339 14.6782 21.9901C14.6782 22.371 14.8101 22.6949 15.0737 22.9618C15.3407 23.2255 15.6564 23.3573 16.021 23.3573C16.3856 23.3573 16.6997 23.2255 16.9634 22.9618C17.2303 22.6949 17.3638 22.371 17.3638 21.9901V17.5956C17.3638 17.4393 17.4224 17.3026 17.5396 17.1854C17.6567 17.0682 17.8016 17.0096 17.9741 17.0096C18.1466 17.0096 18.2915 17.0682 18.4087 17.1854C18.5259 17.3026 18.5845 17.4393 18.5845 17.5956V21.9901C18.5845 22.6867 18.3354 23.2841 17.8374 23.7821C17.3394 24.2802 16.7339 24.5292 16.021 24.5292C15.3081 24.5292 14.7026 24.2802 14.2046 23.7821C13.7065 23.2841 13.4575 22.6867 13.4575 21.9901ZM24.4438 19.1825C24.4438 19.3387 24.3853 19.4755 24.2681 19.5927C24.1509 19.7098 24.006 19.7684 23.8335 19.7684C23.661 19.7684 23.5161 19.7098 23.3989 19.5927C23.2817 19.4755 23.2231 19.3387 23.2231 19.1825C23.2231 18.9025 23.1255 18.6665 22.9302 18.4745C22.7381 18.2792 22.5103 18.1815 22.2466 18.1815H21.5142C21.2505 18.1815 21.021 18.2792 20.8257 18.4745C20.6336 18.6665 20.5376 18.9025 20.5376 19.1825C20.5376 19.4624 20.6336 19.7001 20.8257 19.8954C21.021 20.0874 21.2505 20.1835 21.5142 20.1835H22.2466C22.8586 20.1835 23.3778 20.3967 23.8042 20.8231C24.2306 21.2496 24.4438 21.7606 24.4438 22.3563C24.4438 22.952 24.2306 23.4631 23.8042 23.8895C23.3778 24.316 22.8586 24.5292 22.2466 24.5292H21.5142C20.9022 24.5292 20.383 24.316 19.9565 23.8895C19.5301 23.4631 19.3169 22.952 19.3169 22.3563C19.3169 22.2001 19.3755 22.0634 19.4927 21.9462C19.6099 21.829 19.7547 21.7704 19.9272 21.7704C20.0998 21.7704 20.2446 21.829 20.3618 21.9462C20.479 22.0634 20.5376 22.2001 20.5376 22.3563C20.5376 22.6363 20.6336 22.8739 20.8257 23.0692C21.021 23.2613 21.2505 23.3573 21.5142 23.3573H22.2466C22.5103 23.3573 22.7381 23.2613 22.9302 23.0692C23.1255 22.8739 23.2231 22.6363 23.2231 22.3563C23.2231 22.0764 23.1255 21.8404 22.9302 21.6483C22.7381 21.453 22.5103 21.3553 22.2466 21.3553H21.5142C20.9022 21.3553 20.383 21.1421 19.9565 20.7157C19.5301 20.2893 19.3169 19.7782 19.3169 19.1825C19.3169 18.5868 19.5301 18.0757 19.9565 17.6493C20.383 17.2229 20.9022 17.0096 21.5142 17.0096H22.2466C22.8586 17.0096 23.3778 17.2229 23.8042 17.6493C24.2306 18.0757 24.4438 18.5868 24.4438 19.1825Z" fill="#1A1B26"/>
</g>
<defs>
<clipPath id="clip0_279_456">
<rect width="24" height="24" fill="white" transform="translate(3 3)"/>
</clipPath>
</defs>
</svg>
