<svg width="27" height="28" viewBox="0 0 27 28" fill="none" xmlns="http://www.w3.org/2000/svg">
<rect x="2" y="2.38364" width="23" height="24" rx="5" fill="#F7DF1E"/>
<path d="M6.29007 19.3587C6.29007 19.1399 6.3721 18.9485 6.53616 18.7845C6.70022 18.6204 6.90302 18.5384 7.14456 18.5384C7.3861 18.5384 7.5889 18.6204 7.75296 18.7845C7.91702 18.9485 7.99905 19.1399 7.99905 19.3587C7.99905 19.8919 8.18362 20.3453 8.55276 20.719C8.92646 21.0882 9.36852 21.2727 9.87893 21.2727C10.3894 21.2727 10.8291 21.0882 11.1983 20.719C11.572 20.3453 11.7588 19.8919 11.7588 19.3587V13.2063C11.7588 12.9876 11.8408 12.7962 12.0049 12.6321C12.169 12.468 12.3718 12.386 12.6133 12.386C12.8548 12.386 13.0576 12.468 13.2217 12.6321C13.3858 12.7962 13.4678 12.9876 13.4678 13.2063V19.3587C13.4678 20.3339 13.1192 21.1702 12.4219 21.8675C11.7246 22.5647 10.877 22.9134 9.87893 22.9134C8.88089 22.9134 8.03323 22.5647 7.33597 21.8675C6.6387 21.1702 6.29007 20.3339 6.29007 19.3587ZM21.9509 15.428C21.9509 15.6468 21.8689 15.8382 21.7048 16.0022C21.5408 16.1663 21.338 16.2483 21.0964 16.2483C20.8549 16.2483 20.6521 16.1663 20.488 16.0022C20.324 15.8382 20.2419 15.6468 20.2419 15.428C20.2419 15.0361 20.1052 14.7057 19.8318 14.4368C19.5629 14.1634 19.2439 14.0266 18.8748 14.0266H17.8494C17.4802 14.0266 17.1589 14.1634 16.8855 14.4368C16.6166 14.7057 16.4822 15.0361 16.4822 15.428C16.4822 15.8199 16.6166 16.1526 16.8855 16.4261C17.1589 16.6949 17.4802 16.8294 17.8494 16.8294H18.8748C19.7315 16.8294 20.4584 17.1279 21.0554 17.7249C21.6524 18.3219 21.9509 19.0374 21.9509 19.8714C21.9509 20.7054 21.6524 21.4208 21.0554 22.0179C20.4584 22.6149 19.7315 22.9134 18.8748 22.9134H17.8494C16.9926 22.9134 16.2657 22.6149 15.6687 22.0179C15.0717 21.4208 14.7732 20.7054 14.7732 19.8714C14.7732 19.6526 14.8552 19.4612 15.0193 19.2971C15.1833 19.1331 15.3861 19.0511 15.6277 19.0511C15.8692 19.0511 16.072 19.1331 16.2361 19.2971C16.4001 19.4612 16.4822 19.6526 16.4822 19.8714C16.4822 20.2633 16.6166 20.596 16.8855 20.8694C17.1589 21.1383 17.4802 21.2727 17.8494 21.2727H18.8748C19.2439 21.2727 19.5629 21.1383 19.8318 20.8694C20.1052 20.596 20.2419 20.2633 20.2419 19.8714C20.2419 19.4794 20.1052 19.149 19.8318 18.8802C19.5629 18.6067 19.2439 18.47 18.8748 18.47H17.8494C16.9926 18.47 16.2657 18.1715 15.6687 17.5745C15.0717 16.9775 14.7732 16.262 14.7732 15.428C14.7732 14.594 15.0717 13.8785 15.6687 13.2815C16.2657 12.6845 16.9926 12.386 17.8494 12.386H18.8748C19.7315 12.386 20.4584 12.6845 21.0554 13.2815C21.6524 13.8785 21.9509 14.594 21.9509 15.428Z" fill="black"/>
</svg>
