<svg width="27" height="27" viewBox="0 0 27 27" fill="none" xmlns="http://www.w3.org/2000/svg">
<rect x="1.5" y="1.5" width="24" height="24" rx="6" fill="#F7DF1E"/>
<path d="M12.0312 20.3903C11.5752 20.3903 11.1512 20.2983 10.7592 20.1143C10.3672 19.9303 10.0472 19.6663 9.79917 19.3223C9.70317 19.1783 9.65517 19.0383 9.65517 18.9023C9.65517 18.7023 9.73117 18.5343 9.88317 18.3983C10.0432 18.2623 10.1992 18.1943 10.3512 18.1943C10.4712 18.1943 10.5872 18.2303 10.6992 18.3023C10.8192 18.3743 10.9272 18.4583 11.0232 18.5543C11.1832 18.6983 11.3392 18.8023 11.4912 18.8663C11.6512 18.9223 11.8312 18.9503 12.0312 18.9503C12.2712 18.9503 12.4952 18.8903 12.7032 18.7703C12.9112 18.6503 13.0792 18.4903 13.2072 18.2903C13.3352 18.0903 13.3992 17.8743 13.3992 17.6423V12.6023C13.3992 12.3943 13.4752 12.2223 13.6272 12.0863C13.7792 11.9423 13.9552 11.8703 14.1552 11.8703C14.3792 11.8703 14.5592 11.9423 14.6952 12.0863C14.8312 12.2223 14.8992 12.3943 14.8992 12.6023V17.6423C14.8992 18.1303 14.7712 18.5823 14.5152 18.9983C14.2592 19.4143 13.9152 19.7503 13.4832 20.0063C13.0512 20.2623 12.5672 20.3903 12.0312 20.3903ZM19.3963 20.3903C18.8363 20.3903 18.3323 20.3223 17.8843 20.1863C17.4363 20.0423 17.0083 19.7943 16.6003 19.4423C16.4963 19.3543 16.4163 19.2543 16.3603 19.1423C16.3043 19.0303 16.2763 18.9183 16.2763 18.8063C16.2763 18.6223 16.3403 18.4623 16.4683 18.3263C16.6043 18.1823 16.7723 18.1103 16.9723 18.1103C17.1243 18.1103 17.2603 18.1583 17.3803 18.2543C17.6843 18.5023 17.9843 18.6903 18.2803 18.8183C18.5843 18.9463 18.9563 19.0103 19.3963 19.0103C19.6923 19.0103 19.9643 18.9663 20.2123 18.8783C20.4603 18.7823 20.6603 18.6583 20.8123 18.5063C20.9643 18.3463 21.0403 18.1663 21.0403 17.9663C21.0403 17.7263 20.9683 17.5223 20.8243 17.3543C20.6803 17.1863 20.4603 17.0463 20.1643 16.9343C19.8683 16.8143 19.4923 16.7223 19.0363 16.6583C18.6043 16.5943 18.2243 16.4983 17.8963 16.3703C17.5683 16.2343 17.2923 16.0663 17.0683 15.8663C16.8523 15.6583 16.6883 15.4183 16.5763 15.1463C16.4643 14.8663 16.4083 14.5543 16.4083 14.2103C16.4083 13.6903 16.5403 13.2463 16.8043 12.8783C17.0763 12.5103 17.4403 12.2303 17.8963 12.0383C18.3523 11.8463 18.8563 11.7503 19.4083 11.7503C19.9283 11.7503 20.4083 11.8303 20.8483 11.9903C21.2963 12.1423 21.6603 12.3383 21.9403 12.5783C22.1723 12.7623 22.2883 12.9743 22.2883 13.2143C22.2883 13.3903 22.2203 13.5503 22.0843 13.6943C21.9483 13.8383 21.7883 13.9103 21.6043 13.9103C21.4843 13.9103 21.3763 13.8743 21.2803 13.8023C21.1523 13.6903 20.9803 13.5863 20.7643 13.4903C20.5483 13.3863 20.3203 13.3023 20.0803 13.2383C19.8403 13.1663 19.6163 13.1303 19.4083 13.1303C19.0643 13.1303 18.7723 13.1743 18.5323 13.2623C18.3003 13.3503 18.1243 13.4703 18.0043 13.6223C17.8843 13.7743 17.8243 13.9503 17.8243 14.1503C17.8243 14.3903 17.8923 14.5903 18.0283 14.7503C18.1723 14.9023 18.3763 15.0263 18.6403 15.1223C18.9043 15.2103 19.2203 15.2903 19.5883 15.3623C20.0683 15.4503 20.4883 15.5543 20.8483 15.6743C21.2163 15.7943 21.5203 15.9503 21.7603 16.1423C22.0003 16.3263 22.1803 16.5623 22.3003 16.8503C22.4203 17.1303 22.4803 17.4743 22.4803 17.8823C22.4803 18.4023 22.3363 18.8503 22.0483 19.2263C21.7603 19.6023 21.3803 19.8903 20.9083 20.0903C20.4443 20.2903 19.9403 20.3903 19.3963 20.3903Z" fill="black"/>
</svg>
