<svg width="27" height="27" viewBox="0 0 27 27" fill="none" xmlns="http://www.w3.org/2000/svg">
<rect x="2" y="1.5" width="23" height="24" rx="5" fill="#F7DF1E"/>
<path d="M6.52905 18.4161C6.52905 18.1974 6.61108 18.006 6.77515 17.8419C6.93921 17.6778 7.14201 17.5958 7.38354 17.5958C7.62508 17.5958 7.82788 17.6778 7.99194 17.8419C8.15601 18.006 8.23804 18.1974 8.23804 18.4161C8.23804 18.9493 8.42261 19.4028 8.79175 19.7765C9.16545 20.1456 9.6075 20.3302 10.1179 20.3302C10.6283 20.3302 11.0681 20.1456 11.4373 19.7765C11.811 19.4028 11.9978 18.9493 11.9978 18.4161V12.2638C11.9978 12.045 12.0798 11.8536 12.2439 11.6895C12.408 11.5255 12.6108 11.4435 12.8523 11.4435C13.0938 11.4435 13.2966 11.5255 13.4607 11.6895C13.6248 11.8536 13.7068 12.045 13.7068 12.2638V18.4161C13.7068 19.3914 13.3582 20.2276 12.6609 20.9249C11.9636 21.6222 11.116 21.9708 10.1179 21.9708C9.11987 21.9708 8.27222 21.6222 7.57495 20.9249C6.87769 20.2276 6.52905 19.3914 6.52905 18.4161ZM21.9099 14.4854C21.9099 14.7042 21.8279 14.8956 21.6638 15.0597C21.4998 15.2237 21.297 15.3058 21.0554 15.3058C20.8139 15.3058 20.6111 15.2237 20.447 15.0597C20.283 14.8956 20.2009 14.7042 20.2009 14.4854C20.2009 14.0935 20.0642 13.7631 19.7908 13.4942C19.5219 13.2208 19.2029 13.0841 18.8337 13.0841H17.8083C17.4392 13.0841 17.1179 13.2208 16.8445 13.4942C16.5756 13.7631 16.4412 14.0935 16.4412 14.4854C16.4412 14.8774 16.5756 15.2101 16.8445 15.4835C17.1179 15.7524 17.4392 15.8868 17.8083 15.8868H18.8337C19.6905 15.8868 20.4174 16.1853 21.0144 16.7823C21.6114 17.3793 21.9099 18.0948 21.9099 18.9288C21.9099 19.7628 21.6114 20.4783 21.0144 21.0753C20.4174 21.6723 19.6905 21.9708 18.8337 21.9708H17.8083C16.9516 21.9708 16.2247 21.6723 15.6277 21.0753C15.0307 20.4783 14.7322 19.7628 14.7322 18.9288C14.7322 18.7101 14.8142 18.5186 14.9783 18.3546C15.1423 18.1905 15.3451 18.1085 15.5867 18.1085C15.8282 18.1085 16.031 18.1905 16.1951 18.3546C16.3591 18.5186 16.4412 18.7101 16.4412 18.9288C16.4412 19.3207 16.5756 19.6534 16.8445 19.9268C17.1179 20.1957 17.4392 20.3302 17.8083 20.3302H18.8337C19.2029 20.3302 19.5219 20.1957 19.7908 19.9268C20.0642 19.6534 20.2009 19.3207 20.2009 18.9288C20.2009 18.5369 20.0642 18.2065 19.7908 17.9376C19.5219 17.6642 19.2029 17.5274 18.8337 17.5274H17.8083C16.9516 17.5274 16.2247 17.2289 15.6277 16.6319C15.0307 16.0349 14.7322 15.3194 14.7322 14.4854C14.7322 13.6515 15.0307 12.936 15.6277 12.339C16.2247 11.742 16.9516 11.4435 17.8083 11.4435H18.8337C19.6905 11.4435 20.4174 11.742 21.0144 12.339C21.6114 12.936 21.9099 13.6515 21.9099 14.4854Z" fill="black"/>
</svg>
