<svg width="27" height="28" viewBox="0 0 27 28" fill="none" xmlns="http://www.w3.org/2000/svg">
<rect x="2" y="2.26385" width="23" height="24" rx="5" fill="#F7DF1E"/>
<path d="M11.3548 22.2984C10.8988 22.2984 10.4748 22.2064 10.0828 22.0224C9.69078 21.8384 9.37078 21.5744 9.12278 21.2304C9.02678 21.0864 8.97878 20.9464 8.97878 20.8104C8.97878 20.6104 9.05478 20.4424 9.20678 20.3064C9.36678 20.1704 9.52278 20.1024 9.67478 20.1024C9.79478 20.1024 9.91078 20.1384 10.0228 20.2104C10.1428 20.2824 10.2508 20.3664 10.3468 20.4624C10.5068 20.6064 10.6628 20.7104 10.8148 20.7744C10.9748 20.8304 11.1548 20.8584 11.3548 20.8584C11.5948 20.8584 11.8188 20.7984 12.0268 20.6784C12.2348 20.5584 12.4028 20.3984 12.5308 20.1984C12.6588 19.9984 12.7228 19.7824 12.7228 19.5504V14.5104C12.7228 14.3024 12.7988 14.1304 12.9508 13.9944C13.1028 13.8504 13.2788 13.7784 13.4788 13.7784C13.7028 13.7784 13.8828 13.8504 14.0188 13.9944C14.1548 14.1304 14.2228 14.3024 14.2228 14.5104V19.5504C14.2228 20.0384 14.0948 20.4904 13.8388 20.9064C13.5828 21.3224 13.2388 21.6584 12.8068 21.9144C12.3748 22.1704 11.8908 22.2984 11.3548 22.2984ZM18.7199 22.2984C18.1599 22.2984 17.6559 22.2304 17.2079 22.0944C16.7599 21.9504 16.3319 21.7024 15.9239 21.3504C15.8199 21.2624 15.7399 21.1624 15.6839 21.0504C15.6279 20.9384 15.5999 20.8264 15.5999 20.7144C15.5999 20.5304 15.6639 20.3704 15.7919 20.2344C15.9279 20.0904 16.0959 20.0184 16.2959 20.0184C16.4479 20.0184 16.5839 20.0664 16.7039 20.1624C17.0079 20.4104 17.3079 20.5984 17.6039 20.7264C17.9079 20.8544 18.2799 20.9184 18.7199 20.9184C19.0159 20.9184 19.2879 20.8744 19.5359 20.7864C19.7839 20.6904 19.9839 20.5664 20.1359 20.4144C20.2879 20.2544 20.3639 20.0744 20.3639 19.8744C20.3639 19.6344 20.2919 19.4304 20.1479 19.2624C20.0039 19.0944 19.7839 18.9544 19.4879 18.8424C19.1919 18.7224 18.8159 18.6304 18.3599 18.5664C17.9279 18.5024 17.5479 18.4064 17.2199 18.2784C16.8919 18.1424 16.6159 17.9744 16.3919 17.7744C16.1759 17.5664 16.0119 17.3264 15.8999 17.0544C15.7879 16.7744 15.7319 16.4624 15.7319 16.1184C15.7319 15.5984 15.8639 15.1544 16.1279 14.7864C16.3999 14.4184 16.7639 14.1384 17.2199 13.9464C17.6759 13.7544 18.1799 13.6584 18.7319 13.6584C19.2519 13.6584 19.7319 13.7384 20.1719 13.8984C20.6199 14.0504 20.9839 14.2464 21.2639 14.4864C21.4959 14.6704 21.6119 14.8824 21.6119 15.1224C21.6119 15.2984 21.5439 15.4584 21.4079 15.6024C21.2719 15.7464 21.1119 15.8184 20.9279 15.8184C20.8079 15.8184 20.6999 15.7824 20.6039 15.7104C20.4759 15.5984 20.3039 15.4944 20.0879 15.3984C19.8719 15.2944 19.6439 15.2104 19.4039 15.1464C19.1639 15.0744 18.9399 15.0384 18.7319 15.0384C18.3879 15.0384 18.0959 15.0824 17.8559 15.1704C17.6239 15.2584 17.4479 15.3784 17.3279 15.5304C17.2079 15.6824 17.1479 15.8584 17.1479 16.0584C17.1479 16.2984 17.2159 16.4984 17.3519 16.6584C17.4959 16.8104 17.6999 16.9344 17.9639 17.0304C18.2279 17.1184 18.5439 17.1984 18.9119 17.2704C19.3919 17.3584 19.8119 17.4624 20.1719 17.5824C20.5399 17.7024 20.8439 17.8584 21.0839 18.0504C21.3239 18.2344 21.5039 18.4704 21.6239 18.7584C21.7439 19.0384 21.8039 19.3824 21.8039 19.7904C21.8039 20.3104 21.6599 20.7584 21.3719 21.1344C21.0839 21.5104 20.7039 21.7984 20.2319 21.9984C19.7679 22.1984 19.2639 22.2984 18.7199 22.2984Z" fill="black"/>
</svg>
