<svg width="27" height="28" viewBox="0 0 27 28" fill="none" xmlns="http://www.w3.org/2000/svg">
<g clip-path="url(#clip0_160_419)">
<path fill-rule="evenodd" clip-rule="evenodd" d="M9.50021 4.57325C10.9574 3.73193 11.686 3.31127 12.4607 3.14662C13.146 3.00093 13.8544 3.00093 14.5398 3.14662C15.3144 3.31127 16.043 3.73193 17.5002 4.57325L19.8925 5.95445C21.3497 6.79577 22.0783 7.21644 22.6082 7.80495C23.0771 8.32567 23.4313 8.93912 23.6478 9.60552C23.8925 10.3587 23.8925 11.2 23.8925 12.8827V13.195C23.444 12.9279 22.9198 12.7745 22.3599 12.7745H17.7479C17.1331 11.0211 15.4635 9.76386 13.5002 9.76386C11.0149 9.76386 9.00021 11.7786 9.00021 14.2639C9.00021 14.5207 9.02173 14.7726 9.06307 15.0177C9.00024 15.2594 8.9668 15.513 8.9668 15.7745V23.2638C8.9668 23.3987 8.97569 23.5314 8.99293 23.6616L7.10791 22.5733C5.65069 21.7319 4.92209 21.3113 4.39219 20.7228C3.92333 20.202 3.56915 19.5886 3.35263 18.9222C3.10791 18.169 3.10791 17.3277 3.10791 15.645V12.8827C3.10791 11.2 3.10791 10.3587 3.35263 9.60552C3.56915 8.93912 3.92333 8.32567 4.39219 7.80495C4.92208 7.21644 5.65069 6.79577 7.1079 5.95445L7.10791 5.95445L9.50021 4.57325Z" fill="#A2AAD3"/>
<path fill-rule="evenodd" clip-rule="evenodd" d="M13.3516 14.6141C11.6947 14.6141 10.3516 15.9572 10.3516 17.6141V22.3278C10.3516 23.9846 11.6947 25.3278 13.3516 25.3278H22.3599C24.0167 25.3278 25.3599 23.9846 25.3599 22.3278V17.6141C25.3599 15.9572 24.0167 14.6141 22.3599 14.6141H13.3516ZM13.7282 23.4841C14.0549 23.6374 14.4082 23.7141 14.7882 23.7141C15.2349 23.7141 15.6382 23.6074 15.9982 23.3941C16.3582 23.1807 16.6449 22.9007 16.8582 22.5541C17.0715 22.2074 17.1782 21.8307 17.1782 21.4241V17.2241C17.1782 17.0507 17.1215 16.9074 17.0082 16.7941C16.8949 16.6741 16.7449 16.6141 16.5582 16.6141C16.3915 16.6141 16.2449 16.6741 16.1182 16.7941C15.9915 16.9074 15.9282 17.0507 15.9282 17.2241V21.4241C15.9282 21.6174 15.8749 21.7974 15.7682 21.9641C15.6615 22.1307 15.5215 22.2641 15.3482 22.3641C15.1749 22.4641 14.9882 22.5141 14.7882 22.5141C14.6215 22.5141 14.4715 22.4907 14.3382 22.4441C14.2115 22.3907 14.0815 22.3041 13.9482 22.1841C13.8682 22.1041 13.7782 22.0341 13.6782 21.9741C13.5849 21.9141 13.4882 21.8841 13.3882 21.8841C13.2615 21.8841 13.1315 21.9407 12.9982 22.0541C12.8715 22.1674 12.8082 22.3074 12.8082 22.4741C12.8082 22.5874 12.8482 22.7041 12.9282 22.8241C13.1349 23.1107 13.4015 23.3307 13.7282 23.4841ZM19.6658 23.5441C20.0391 23.6574 20.4591 23.7141 20.9258 23.7141C21.3791 23.7141 21.7991 23.6307 22.1858 23.4641C22.5791 23.2974 22.8958 23.0574 23.1358 22.7441C23.3758 22.4307 23.4958 22.0574 23.4958 21.6241C23.4958 21.2841 23.4458 20.9974 23.3458 20.7641C23.2458 20.5241 23.0958 20.3274 22.8958 20.1741C22.6958 20.0141 22.4424 19.8841 22.1358 19.7841C21.8358 19.6841 21.4858 19.5974 21.0858 19.5241C20.7791 19.4641 20.5158 19.3974 20.2958 19.3241C20.0758 19.2441 19.9058 19.1407 19.7858 19.0141C19.6724 18.8807 19.6158 18.7141 19.6158 18.5141C19.6158 18.3474 19.6658 18.2007 19.7658 18.0741C19.8658 17.9474 20.0124 17.8474 20.2058 17.7741C20.4058 17.7007 20.6491 17.6641 20.9358 17.6641C21.1091 17.6641 21.2958 17.6941 21.4958 17.7541C21.6958 17.8074 21.8858 17.8774 22.0658 17.9641C22.2458 18.0441 22.3891 18.1307 22.4958 18.2241C22.5758 18.2841 22.6658 18.3141 22.7658 18.3141C22.9191 18.3141 23.0524 18.2541 23.1658 18.1341C23.2791 18.0141 23.3358 17.8807 23.3358 17.7341C23.3358 17.5341 23.2391 17.3574 23.0458 17.2041C22.8124 17.0041 22.5091 16.8407 22.1358 16.7141C21.7691 16.5807 21.3691 16.5141 20.9358 16.5141C20.4758 16.5141 20.0558 16.5941 19.6758 16.7541C19.2958 16.9141 18.9924 17.1474 18.7658 17.4541C18.5458 17.7607 18.4358 18.1307 18.4358 18.5641C18.4358 18.8507 18.4824 19.1107 18.5758 19.3441C18.6691 19.5707 18.8058 19.7707 18.9858 19.9441C19.1724 20.1107 19.4024 20.2507 19.6758 20.3641C19.9491 20.4707 20.2658 20.5507 20.6258 20.6041C21.0058 20.6574 21.3191 20.7341 21.5658 20.8341C21.8124 20.9274 21.9958 21.0441 22.1158 21.1841C22.2358 21.3241 22.2958 21.4941 22.2958 21.6941C22.2958 21.8607 22.2324 22.0107 22.1058 22.1441C21.9791 22.2707 21.8124 22.3741 21.6058 22.4541C21.3991 22.5274 21.1724 22.5641 20.9258 22.5641C20.5591 22.5641 20.2491 22.5107 19.9958 22.4041C19.7491 22.2974 19.4991 22.1407 19.2458 21.9341C19.1458 21.8541 19.0324 21.8141 18.9058 21.8141C18.7391 21.8141 18.5991 21.8741 18.4858 21.9941C18.3791 22.1074 18.3258 22.2407 18.3258 22.3941C18.3258 22.4874 18.3491 22.5807 18.3958 22.6741C18.4424 22.7674 18.5091 22.8507 18.5958 22.9241C18.9358 23.2174 19.2924 23.4241 19.6658 23.5441Z" fill="#F7DF1E"/>
</g>
<defs>
<clipPath id="clip0_160_419">
<rect width="24" height="24" fill="white" transform="translate(1.5 2.26385)"/>
</clipPath>
</defs>
</svg>
