<svg width="27" height="28" viewBox="0 0 27 28" fill="none" xmlns="http://www.w3.org/2000/svg">
<path d="M1.5 16.2638V13.6924C2.92017 13.6924 4.07143 12.5411 4.07143 11.121V10.2638C4.07143 7.42351 6.37397 5.12097 9.21429 5.12097V5.12097C9.68767 5.12097 10.0714 5.50473 10.0714 5.97811V6.83526C10.0714 7.30864 9.68767 7.6924 9.21429 7.6924V7.6924C7.79412 7.6924 6.64286 8.84366 6.64286 10.2638V11.121C6.64286 13.9613 4.34031 16.2638 1.5 16.2638Z" fill="#A67CF8"/>
<path d="M25.5 16.2638V13.6924C24.0799 13.6924 22.9286 12.5411 22.9286 11.121V10.2638C22.9286 7.42351 20.6261 5.12097 17.7857 5.12097V5.12097C17.3123 5.12097 16.9286 5.50473 16.9286 5.97812V6.83526C16.9286 7.30864 17.3123 7.6924 17.7857 7.6924V7.6924C19.2058 7.6924 20.3571 8.84366 20.3571 10.2638V11.121C20.3571 13.9613 22.6596 16.2638 25.5 16.2638Z" fill="#A67CF8"/>
<path d="M1.5 13.6924V16.2638C2.92017 16.2638 4.07143 17.4151 4.07143 18.8353V19.6924C4.07143 22.5328 6.37397 24.8353 9.21429 24.8353V24.8353C9.68767 24.8353 10.0714 24.4515 10.0714 23.9781V23.121C10.0714 22.6476 9.68767 22.2638 9.21429 22.2638V22.2638C7.79412 22.2638 6.64286 21.1125 6.64286 19.6924V18.8353C6.64286 15.9949 4.34031 13.6924 1.5 13.6924Z" fill="#A67CF8"/>
<path d="M25.5 13.6924V16.2638C24.0799 16.2638 22.9286 17.4151 22.9286 18.8353V19.6924C22.9286 22.5328 20.6261 24.8353 17.7857 24.8353V24.8353C17.3123 24.8353 16.9286 24.4515 16.9286 23.9781V23.121C16.9286 22.6476 17.3123 22.2638 17.7857 22.2638V22.2638C19.2058 22.2638 20.3571 21.1125 20.3571 19.6924V18.8353C20.3571 15.9949 22.6596 13.6924 25.5 13.6924Z" fill="#A67CF8"/>
<path d="M13.5 12.8353C14.4468 12.8353 15.2143 12.0677 15.2143 11.121C15.2143 10.1742 14.4468 9.40669 13.5 9.40669C12.5532 9.40669 11.7857 10.1742 11.7857 11.121C11.7857 12.0677 12.5532 12.8353 13.5 12.8353Z" fill="#A67CF8"/>
<path d="M12.8204 21.2292C12.7067 21.3428 12.5526 21.4067 12.3918 21.4067V21.4067C12.0571 21.4067 11.7857 21.1353 11.7857 20.8006V17.9781C11.7857 17.0313 12.5532 16.2638 13.5 16.2638C14.4468 16.2638 15.2143 17.0313 15.2143 17.9781V18.1252C15.2143 18.5798 15.0337 19.0159 14.7122 19.3374L12.8204 21.2292Z" fill="#A67CF8"/>
</svg>
