<svg width="30" height="30" viewBox="0 0 30 30" fill="none" xmlns="http://www.w3.org/2000/svg">
<path d="M3 17V14.4285C4.42017 14.4285 5.57143 13.2773 5.57143 11.8571V11C5.57143 8.15966 7.87397 5.85712 10.7143 5.85712C11.1877 5.85712 11.5714 6.24087 11.5714 6.71426V7.5714C11.5714 8.04479 11.1877 8.42854 10.7143 8.42854C9.29412 8.42854 8.14286 9.57981 8.14286 11V11.8571C8.14286 14.6974 5.84031 17 3 17Z" fill="#A67CF8"/>
<path d="M27 17V14.4285C25.5799 14.4285 24.4286 13.2773 24.4286 11.8571V11C24.4286 8.15966 22.1261 5.85712 19.2857 5.85712C18.8123 5.85712 18.4286 6.24087 18.4286 6.71426V7.5714C18.4286 8.04479 18.8123 8.42854 19.2857 8.42854C20.7058 8.42854 21.8571 9.57981 21.8571 11V11.8571C21.8571 14.6974 24.1596 17 27 17Z" fill="#A67CF8"/>
<path d="M3 14.4285V17C4.42017 17 5.57143 18.1512 5.57143 19.5714V20.4285C5.57143 23.2689 7.87397 25.5714 10.7143 25.5714C11.1877 25.5714 11.5714 25.1876 11.5714 24.7143V23.8571C11.5714 23.3837 11.1877 23 10.7143 23C9.29412 23 8.14286 21.8487 8.14286 20.4285V19.5714C8.14286 16.7311 5.84031 14.4285 3 14.4285Z" fill="#A67CF8"/>
<path d="M27 14.4285V17C25.5799 17 24.4286 18.1512 24.4286 19.5714V20.4285C24.4286 23.2689 22.1261 25.5714 19.2857 25.5714C18.8123 25.5714 18.4286 25.1876 18.4286 24.7143V23.8571C18.4286 23.3837 18.8123 23 19.2857 23C20.7058 23 21.8571 21.8487 21.8571 20.4285V19.5714C21.8571 16.7311 24.1596 14.4285 27 14.4285Z" fill="#A67CF8"/>
<path d="M15 13.5714C15.9468 13.5714 16.7143 12.8039 16.7143 11.8571C16.7143 10.9103 15.9468 10.1428 15 10.1428C14.0532 10.1428 13.2857 10.9103 13.2857 11.8571C13.2857 12.8039 14.0532 13.5714 15 13.5714Z" fill="#A67CF8"/>
<path d="M14.3204 21.9653C14.2067 22.079 14.0526 22.1428 13.8918 22.1428C13.5571 22.1428 13.2857 21.8715 13.2857 21.5367V18.7143C13.2857 17.7675 14.0532 17 15 17C15.9468 17 16.7143 17.7675 16.7143 18.7143V18.8613C16.7143 19.316 16.5337 19.7521 16.2122 20.0735L14.3204 21.9653Z" fill="#A67CF8"/>
</svg>
