<svg width="27" height="27" viewBox="0 0 27 27" fill="none" xmlns="http://www.w3.org/2000/svg">
<path d="M1.5 15.5V12.9285C2.92017 12.9285 4.07143 11.7773 4.07143 10.3571V9.49997C4.07143 6.65966 6.37397 4.35712 9.21429 4.35712V4.35712C9.68767 4.35712 10.0714 4.74087 10.0714 5.21426V6.0714C10.0714 6.54479 9.68767 6.92854 9.21429 6.92854V6.92854C7.79412 6.92854 6.64286 8.07981 6.64286 9.49997V10.3571C6.64286 13.1974 4.34031 15.5 1.5 15.5Z" fill="#A67CF8"/>
<path d="M25.5 15.5V12.9285C24.0799 12.9285 22.9286 11.7773 22.9286 10.3571V9.49997C22.9286 6.65966 20.6261 4.35712 17.7857 4.35712V4.35712C17.3123 4.35712 16.9286 4.74087 16.9286 5.21426V6.0714C16.9286 6.54479 17.3123 6.92854 17.7857 6.92854V6.92854C19.2058 6.92854 20.3571 8.07981 20.3571 9.49997V10.3571C20.3571 13.1974 22.6596 15.5 25.5 15.5Z" fill="#A67CF8"/>
<path d="M1.5 12.9285V15.5C2.92017 15.5 4.07143 16.6512 4.07143 18.0714V18.9285C4.07143 21.7689 6.37397 24.0714 9.21429 24.0714V24.0714C9.68767 24.0714 10.0714 23.6876 10.0714 23.2143V22.3571C10.0714 21.8837 9.68767 21.5 9.21429 21.5V21.5C7.79412 21.5 6.64286 20.3487 6.64286 18.9285V18.0714C6.64286 15.2311 4.34031 12.9285 1.5 12.9285Z" fill="#A67CF8"/>
<path d="M25.5 12.9285V15.5C24.0799 15.5 22.9286 16.6512 22.9286 18.0714V18.9285C22.9286 21.7689 20.6261 24.0714 17.7857 24.0714V24.0714C17.3123 24.0714 16.9286 23.6876 16.9286 23.2143V22.3571C16.9286 21.8837 17.3123 21.5 17.7857 21.5V21.5C19.2058 21.5 20.3571 20.3487 20.3571 18.9285V18.0714C20.3571 15.2311 22.6596 12.9285 25.5 12.9285Z" fill="#A67CF8"/>
<path d="M13.5 12.0714C14.4468 12.0714 15.2143 11.3039 15.2143 10.3571C15.2143 9.41034 14.4468 8.64283 13.5 8.64283C12.5532 8.64283 11.7857 9.41034 11.7857 10.3571C11.7857 11.3039 12.5532 12.0714 13.5 12.0714Z" fill="#A67CF8"/>
<path d="M12.8204 20.4653C12.7067 20.579 12.5526 20.6428 12.3918 20.6428V20.6428C12.0571 20.6428 11.7857 20.3715 11.7857 20.0367V17.2143C11.7857 16.2675 12.5532 15.5 13.5 15.5C14.4468 15.5 15.2143 16.2675 15.2143 17.2143V17.3613C15.2143 17.816 15.0337 18.2521 14.7122 18.5735L12.8204 20.4653Z" fill="#A67CF8"/>
</svg>
