<svg width="27" height="27" viewBox="0 0 27 27" fill="none" xmlns="http://www.w3.org/2000/svg">
<g clip-path="url(#clip0_279_424)">
<path fill-rule="evenodd" clip-rule="evenodd" d="M9.43785 3.09153C10.8951 2.25021 11.6237 1.82955 12.3983 1.6649C13.0837 1.51921 13.792 1.51921 14.4774 1.6649C15.252 1.82955 15.9806 2.25021 17.4378 3.09153L20.4519 4.83168C21.9091 5.673 22.6377 6.09366 23.1676 6.68218C23.6364 7.20289 23.9906 7.81634 24.2072 8.48275C24.4214 9.14217 24.4481 9.86919 24.4514 11.1693C24.1619 11.0763 23.8533 11.0261 23.533 11.0261H17.7403C16.863 10.0507 15.5911 9.43733 14.176 9.43733C12.7474 9.43733 11.4648 10.0624 10.5868 11.0539C9.12402 11.254 7.99707 12.5084 7.99707 14.0261V22.5C7.99707 22.71 8.01866 22.915 8.05973 23.1129L6.42383 22.1684C4.96661 21.3271 4.238 20.9064 3.7081 20.3179C3.23925 19.7972 2.88507 19.1837 2.66855 18.5173C2.42383 17.7641 2.42383 16.9228 2.42383 15.2402V11.7599C2.42383 10.0772 2.42383 9.23591 2.66855 8.48275C2.88507 7.81634 3.23925 7.20289 3.7081 6.68218C4.238 6.09366 4.96661 5.673 6.42383 4.83168L9.43785 3.09153Z" fill="#A2AAD3"/>
<path d="M9.49756 15.5658C9.49756 13.9089 10.8407 12.5658 12.4976 12.5658H22.4999C24.1568 12.5658 25.4999 13.9089 25.4999 15.5658V22.5C25.4999 24.1569 24.1568 25.5 22.4999 25.5H12.4976C10.8407 25.5 9.49756 24.1569 9.49756 22.5V15.5658Z" fill="#A67CF8"/>
<path d="M12.7217 19.9653V18.5006C13.3134 18.5006 13.7931 18.1916 13.7931 17.5999V17.2428C13.7931 16.0593 14.7525 15.0999 15.936 15.0999C16.1332 15.0999 16.7094 15.1407 16.7094 15.3379V16.5266C16.7094 16.7238 16.1332 16.7569 15.936 16.7569C15.3442 16.7569 15.2953 17.144 15.2953 17.7357V18.3096C15.2953 19.4931 13.9051 19.9653 12.7217 19.9653Z" fill="#1A1B26"/>
<path d="M22.7217 19.9653V18.5006C22.13 18.5006 21.6503 18.1916 21.6503 17.5999V17.2428C21.6503 16.0593 20.6909 15.0999 19.5074 15.0999C19.3101 15.0999 18.8818 15.1407 18.8818 15.3379V16.5266C18.8818 16.7238 19.3101 16.7569 19.5074 16.7569C20.0991 16.7569 20.4155 17.0082 20.4155 17.5999V18.3096C20.4155 19.4931 21.5382 19.9653 22.7217 19.9653Z" fill="#1A1B26"/>
<path d="M12.7217 18.5006V19.9653C13.3134 19.9653 13.7931 20.2225 13.7931 20.8142V21.1713C13.7931 22.3548 14.7525 23.3142 15.936 23.3142C16.1332 23.3142 16.7094 23.405 16.7094 23.2077V22.0708C16.7094 21.8736 16.1332 21.8669 15.936 21.8669C15.3442 21.8669 15.2953 21.7631 15.2953 21.1713V20.523C15.2953 19.3395 13.9051 18.5006 12.7217 18.5006Z" fill="#1A1B26"/>
<path d="M22.7217 18.5006V19.9653C22.13 19.9653 21.6503 20.2225 21.6503 20.8142V21.1713C21.6503 22.3548 20.6909 23.3142 19.5074 23.3142C19.3101 23.3142 18.8818 23.405 18.8818 23.2077V22.0708C18.8818 21.8736 19.3101 21.8669 19.5074 21.8669C20.0991 21.8669 20.4155 21.7631 20.4155 21.1713V20.523C20.4155 19.3395 21.5382 18.5006 22.7217 18.5006Z" fill="#1A1B26"/>
</g>
<defs>
<clipPath id="clip0_279_424">
<rect width="24" height="24" fill="white" transform="translate(1.5 1.5)"/>
</clipPath>
</defs>
</svg>
