<svg width="27" height="28" viewBox="0 0 27 28" fill="none" xmlns="http://www.w3.org/2000/svg">
<g clip-path="url(#clip0_160_593)">
<path fill-rule="evenodd" clip-rule="evenodd" d="M9.50021 4.57325C10.9574 3.73193 11.686 3.31127 12.4607 3.14662C13.146 3.00093 13.8544 3.00093 14.5398 3.14662C15.3144 3.31127 16.043 3.73193 17.5002 4.57325L19.8925 5.95445C21.3497 6.79577 22.0783 7.21644 22.6082 7.80495C23.0771 8.32567 23.4313 8.93912 23.6478 9.60552C23.8925 10.3587 23.8925 11.2 23.8925 12.8827V13.195C23.444 12.9279 22.9198 12.7745 22.3599 12.7745H17.7479C17.1331 11.0211 15.4635 9.76386 13.5002 9.76386C11.0149 9.76386 9.00021 11.7786 9.00021 14.2639C9.00021 14.5207 9.02173 14.7726 9.06307 15.0177C9.00024 15.2594 8.9668 15.513 8.9668 15.7745V23.2638C8.9668 23.3987 8.97569 23.5314 8.99293 23.6616L7.10791 22.5733C5.65069 21.7319 4.92209 21.3113 4.39219 20.7228C3.92333 20.202 3.56915 19.5886 3.35263 18.9222C3.10791 18.169 3.10791 17.3277 3.10791 15.645V12.8827C3.10791 11.2 3.10791 10.3587 3.35263 9.60552C3.56915 8.93912 3.92333 8.32567 4.39219 7.80495C4.92208 7.21644 5.65069 6.79577 7.1079 5.95445L7.10791 5.95445L9.50021 4.57325Z" fill="#A2AAD3"/>
<path fill-rule="evenodd" clip-rule="evenodd" d="M13.2217 14.6141C11.5648 14.6141 10.2217 15.9572 10.2217 17.6141V22.3278C10.2217 23.9846 11.5648 25.3278 13.2217 25.3278H22.2217C23.8785 25.3278 25.2217 23.9846 25.2217 22.3278V17.6141C25.2217 15.9572 23.8785 14.6141 22.2217 14.6141H13.2217ZM12.7217 19.2645V20.7291C13.3134 20.7291 13.7931 20.9863 13.7931 21.5781V21.9352C13.7931 23.1187 14.7525 24.0781 15.936 24.0781C15.9768 24.0781 16.0339 24.0819 16.0987 24.0864C16.3471 24.1033 16.7094 24.128 16.7094 23.9716V22.8347C16.7094 22.6375 16.1332 22.6307 15.936 22.6307C15.3442 22.6307 15.2953 22.5269 15.2953 21.9352V21.2868C15.2953 20.8406 15.0976 20.4434 14.788 20.1216C15.0976 19.8648 15.2953 19.5197 15.2953 19.0734V18.4996C15.2953 17.9079 15.3442 17.5207 15.936 17.5207C16.1332 17.5207 16.7094 17.4877 16.7094 17.2904V16.1018C16.7094 15.9045 16.1332 15.8638 15.936 15.8638C14.7525 15.8638 13.7931 16.8232 13.7931 18.0066V18.3638C13.7931 18.9555 13.3134 19.2645 12.7217 19.2645ZM21.6503 18.3638C21.6503 18.9555 22.13 19.2645 22.7217 19.2645V20.7291C22.13 20.7291 21.6503 20.9863 21.6503 21.5781V21.9352C21.6503 23.1187 20.6909 24.0781 19.5074 24.0781C19.4637 24.0781 19.4087 24.0825 19.3495 24.0873C19.1414 24.1041 18.8818 24.1251 18.8818 23.9716V22.8347C18.8818 22.6375 19.3102 22.6307 19.5074 22.6307C20.0991 22.6307 20.4155 22.5269 20.4155 21.9352V21.2868C20.4155 20.8406 20.5751 20.4434 20.8374 20.1216C20.5751 19.8648 20.4155 19.5197 20.4155 19.0734V18.3638C20.4155 17.772 20.0991 17.5207 19.5074 17.5207C19.3102 17.5207 18.8818 17.4877 18.8818 17.2904V16.1018C18.8818 15.9045 19.3102 15.8638 19.5074 15.8638C20.6909 15.8638 21.6503 16.8232 21.6503 18.0066V18.3638Z" fill="#A67CF8"/>
</g>
<defs>
<clipPath id="clip0_160_593">
<rect width="24" height="24" fill="white" transform="translate(1.5 2.26385)"/>
</clipPath>
</defs>
</svg>
