<svg width="30" height="30" viewBox="0 0 30 30" fill="none" xmlns="http://www.w3.org/2000/svg">
<g clip-path="url(#clip0_279_424)">
<path fill-rule="evenodd" clip-rule="evenodd" d="M10.9378 4.59153C12.3951 3.75021 13.1237 3.32955 13.8983 3.1649C14.5837 3.01921 15.292 3.01921 15.9774 3.1649C16.752 3.32955 17.4806 3.75021 18.9378 4.59153L21.9519 6.33168C23.4091 7.173 24.1377 7.59366 24.6676 8.18218C25.1364 8.70289 25.4906 9.31634 25.7072 9.98275C25.9214 10.6422 25.9481 11.3692 25.9514 12.6693C25.6619 12.5763 25.3533 12.5261 25.033 12.5261H19.2403C18.363 11.5507 17.0911 10.9373 15.676 10.9373C14.2474 10.9373 12.9648 11.5624 12.0868 12.5539C10.624 12.754 9.49707 14.0084 9.49707 15.5261V24C9.49707 24.21 9.51866 24.415 9.55973 24.6129L7.92383 23.6684C6.46661 22.8271 5.738 22.4064 5.2081 21.8179C4.73925 21.2972 4.38507 20.6837 4.16855 20.0173C3.92383 19.2641 3.92383 18.4228 3.92383 16.7402V13.2599C3.92383 11.5772 3.92383 10.7359 4.16855 9.98275C4.38507 9.31634 4.73925 8.70289 5.2081 8.18218C5.738 7.59366 6.46661 7.173 7.92383 6.33168L10.9378 4.59153Z" fill="#A2AAD3"/>
<path d="M10.9976 17.0658C10.9976 15.4089 12.3407 14.0658 13.9976 14.0658H23.9999C25.6568 14.0658 26.9999 15.4089 26.9999 17.0658V24C26.9999 25.6569 25.6568 27 23.9999 27H13.9976C12.3407 27 10.9976 25.6569 10.9976 24V17.0658Z" fill="#A67CF8"/>
<path d="M14.2217 21.4653V20.0006C14.8134 20.0006 15.2931 19.6916 15.2931 19.0999V18.7428C15.2931 17.5593 16.2525 16.5999 17.436 16.5999C17.6332 16.5999 18.2094 16.6407 18.2094 16.8379V18.0266C18.2094 18.2238 17.6332 18.2569 17.436 18.2569C16.8442 18.2569 16.7953 18.644 16.7953 19.2357V19.8096C16.7953 20.9931 15.4051 21.4653 14.2217 21.4653Z" fill="#1A1B26"/>
<path d="M24.2217 21.4653V20.0006C23.63 20.0006 23.1503 19.6916 23.1503 19.0999V18.7428C23.1503 17.5593 22.1909 16.5999 21.0074 16.5999C20.8101 16.5999 20.3818 16.6407 20.3818 16.8379V18.0266C20.3818 18.2238 20.8101 18.2569 21.0074 18.2569C21.5991 18.2569 21.9155 18.5082 21.9155 19.0999V19.8096C21.9155 20.9931 23.0382 21.4653 24.2217 21.4653Z" fill="#1A1B26"/>
<path d="M14.2217 20.0006V21.4653C14.8134 21.4653 15.2931 21.7225 15.2931 22.3142V22.6713C15.2931 23.8548 16.2525 24.8142 17.436 24.8142C17.6332 24.8142 18.2094 24.905 18.2094 24.7077V23.5708C18.2094 23.3736 17.6332 23.3669 17.436 23.3669C16.8442 23.3669 16.7953 23.2631 16.7953 22.6713V22.023C16.7953 20.8395 15.4051 20.0006 14.2217 20.0006Z" fill="#1A1B26"/>
<path d="M24.2217 20.0006V21.4653C23.63 21.4653 23.1503 21.7225 23.1503 22.3142V22.6713C23.1503 23.8548 22.1909 24.8142 21.0074 24.8142C20.8101 24.8142 20.3818 24.905 20.3818 24.7077V23.5708C20.3818 23.3736 20.8101 23.3669 21.0074 23.3669C21.5991 23.3669 21.9155 23.2631 21.9155 22.6713V22.023C21.9155 20.8395 23.0382 20.0006 24.2217 20.0006Z" fill="#1A1B26"/>
</g>
<defs>
<clipPath id="clip0_279_424">
<rect width="24" height="24" fill="white" transform="translate(3 3)"/>
</clipPath>
</defs>
</svg>
