<svg width="30" height="30" viewBox="0 0 30 30" fill="none" xmlns="http://www.w3.org/2000/svg">
<path d="M10.275 6.55599C9.8985 6.77349 9.5025 7.37199 9.456 8.67999C9.4428 8.97627 9.31313 9.25536 9.09521 9.45653C8.8773 9.6577 8.58876 9.76468 8.29236 9.7542C7.99597 9.74372 7.71571 9.61663 7.51254 9.40057C7.30937 9.18451 7.19974 8.89696 7.2075 8.60049C7.2645 6.99849 7.7715 5.40399 9.15 4.60749C10.533 3.80949 12.1725 4.17249 13.5915 4.92849C13.8549 5.06892 14.0516 5.30822 14.1386 5.59374C14.2255 5.87927 14.1954 6.18763 14.055 6.45099C13.9146 6.71435 13.6753 6.91113 13.3897 6.99806C13.1042 7.08498 12.7959 7.05492 12.5325 6.91449C11.373 6.29499 10.653 6.33999 10.275 6.55599ZM16.3065 8.50449C16.4204 8.41032 16.5516 8.3395 16.6929 8.29608C16.8341 8.25265 16.9825 8.23747 17.1296 8.2514C17.2767 8.26533 17.4196 8.3081 17.5501 8.37726C17.6807 8.44642 17.7963 8.54062 17.8905 8.65449C18.7691 9.72077 19.5568 10.8587 20.2455 12.0565C21.8055 14.7595 22.767 17.5285 23.0265 19.8505C23.1555 21.01 23.1165 22.114 22.8465 23.0605C22.572 24.013 22.041 24.8755 21.15 25.39C20.0715 26.0125 18.825 25.9255 17.6865 25.51C16.5435 25.093 15.366 24.3055 14.244 23.281C14.027 23.079 13.8984 22.7996 13.8863 22.5034C13.8742 22.2071 13.9795 21.9181 14.1793 21.6991C14.3792 21.4801 14.6574 21.3488 14.9534 21.3338C15.2495 21.3188 15.5396 21.4213 15.7605 21.619C16.7505 22.522 17.679 23.113 18.456 23.395C19.239 23.68 19.731 23.6125 20.025 23.4415C20.271 23.299 20.52 23.0095 20.682 22.441C20.847 21.865 20.8995 21.076 20.79 20.101C20.5725 18.1525 19.74 15.6805 18.2955 13.1815C17.6703 12.0942 16.9553 11.0611 16.158 10.093C16.0638 9.97913 15.993 9.84785 15.9496 9.70662C15.9062 9.5654 15.891 9.41701 15.9049 9.26992C15.9188 9.12283 15.9616 8.97992 16.0308 8.84936C16.0999 8.7188 16.1941 8.60314 16.308 8.50899" fill="#F7DF1E"/>
<path d="M24.75 15.307C24.75 14.872 24.429 14.2285 23.3205 13.537C23.1951 13.4587 23.0864 13.3565 23.0005 13.2361C22.9146 13.1158 22.8533 12.9798 22.82 12.8357C22.7867 12.6917 22.7821 12.5425 22.8065 12.3967C22.8309 12.2509 22.8837 12.1114 22.962 11.986C23.1201 11.7328 23.3724 11.5527 23.6633 11.4855C23.8073 11.4522 23.9564 11.4476 24.1022 11.472C24.248 11.4963 24.3876 11.5492 24.513 11.6275C25.872 12.478 27 13.714 27 15.307C27 16.903 25.866 18.142 24.501 18.9925C24.2479 19.1443 23.9453 19.1907 23.6584 19.1215C23.3715 19.0523 23.1233 18.8732 22.9672 18.6227C22.8112 18.3722 22.7598 18.0704 22.8242 17.7824C22.8886 17.4944 23.0636 17.2432 23.3115 17.083C24.4275 16.387 24.75 15.742 24.75 15.307ZM20.0445 19.555C20.0692 19.7007 20.065 19.8498 20.0321 19.9938C19.9992 20.1379 19.9383 20.274 19.8528 20.3945C19.7672 20.515 19.6588 20.6175 19.5337 20.696C19.4086 20.7746 19.2692 20.8278 19.1235 20.8525C17.7607 21.0787 16.3814 21.1911 15 21.1885C11.88 21.1885 9 20.638 6.8595 19.7005C5.79 19.234 4.8555 18.6475 4.1715 17.9395C3.48 17.2285 3 16.3345 3 15.307C3 14.062 3.699 13.027 4.6275 12.247C5.5605 11.4655 6.8325 10.84 8.28 10.381C8.56444 10.2907 8.87311 10.3171 9.1381 10.4543C9.26931 10.5223 9.38585 10.6155 9.48106 10.7285C9.57627 10.8415 9.64828 10.9721 9.693 11.113C9.73771 11.2538 9.75425 11.4021 9.74166 11.5493C9.72908 11.6966 9.68761 11.8399 9.61964 11.9711C9.55167 12.1023 9.45852 12.2188 9.34551 12.314C9.2325 12.4093 9.10184 12.4813 8.961 12.526C7.686 12.931 6.708 13.4395 6.075 13.972C5.436 14.506 5.25 14.9665 5.25 15.307C5.25 15.592 5.3775 15.952 5.7885 16.3765C6.2055 16.807 6.8625 17.2465 7.761 17.6395C9.5565 18.4255 12.114 18.9385 15 18.9385C16.3275 18.9385 17.5905 18.8305 18.747 18.634C18.8927 18.6093 19.0418 18.6135 19.1858 18.6464C19.3299 18.6793 19.466 18.7402 19.5865 18.8257C19.707 18.9113 19.8095 19.0197 19.8881 19.1448C19.9666 19.2699 20.0198 19.4093 20.0445 19.555Z" fill="#F7DF1E"/>
<path d="M10.308 23.443C10.683 23.6605 11.4015 23.704 12.5565 23.0905C12.687 23.0212 12.8299 22.9782 12.977 22.9641C13.1241 22.95 13.2725 22.9649 13.4138 23.0082C13.5551 23.0514 13.6865 23.1221 13.8005 23.2161C13.9145 23.3102 14.0089 23.4257 14.0782 23.5562C14.1476 23.6867 14.1905 23.8296 14.2047 23.9767C14.2188 24.1238 14.2038 24.2723 14.1605 24.4136C14.1173 24.5549 14.0466 24.6863 13.9526 24.8003C13.8586 24.9143 13.743 25.0086 13.6125 25.078C12.1965 25.8295 10.5615 26.188 9.183 25.393C7.8 24.5935 7.293 22.993 7.2405 21.385C7.23505 21.0896 7.34604 20.8039 7.54948 20.5896C7.75293 20.3753 8.0325 20.2497 8.3278 20.2399C8.62311 20.23 8.91043 20.3367 9.1277 20.537C9.34498 20.7372 9.47475 21.0149 9.489 21.31C9.534 22.6225 9.93 23.2255 10.308 23.443ZM8.982 17.2435C8.70236 17.1396 8.47542 16.9289 8.35109 16.6578C8.22676 16.3866 8.21522 16.0772 8.319 15.7975C8.772 14.575 9.3645 13.312 10.089 12.058C11.649 9.35499 13.566 7.13799 15.447 5.75199C16.386 5.06049 17.361 4.54299 18.3165 4.30449C19.278 4.06449 20.292 4.09299 21.1815 4.60749C22.2615 5.22999 22.8075 6.35199 23.0175 7.54749C23.229 8.74599 23.1345 10.159 22.8075 11.6425C22.781 11.7917 22.7247 11.9341 22.6419 12.061C22.559 12.1879 22.4514 12.2968 22.3254 12.3811C22.1995 12.4653 22.0578 12.5233 21.9089 12.5515C21.7599 12.5796 21.6069 12.5774 21.4588 12.545C21.3108 12.5125 21.1708 12.4505 21.0474 12.3626C20.9239 12.2747 20.8195 12.1628 20.7403 12.0335C20.6612 11.9042 20.609 11.7603 20.5868 11.6104C20.5647 11.4605 20.5731 11.3076 20.6115 11.161C20.898 9.85299 20.946 8.75199 20.802 7.93599C20.658 7.11699 20.352 6.72549 20.058 6.55599C19.812 6.41349 19.4355 6.34299 18.8625 6.48699C18.2805 6.63249 17.5725 6.98199 16.782 7.56399C15.204 8.72499 13.479 10.684 12.0375 13.183C11.4072 14.2686 10.8688 15.4051 10.428 16.5805C10.3241 16.8601 10.1134 17.0871 9.84228 17.2114C9.57112 17.3357 9.26167 17.3473 8.982 17.2435Z" fill="#F7DF1E"/>
<path d="M17.19 15.097C17.19 15.638 16.9751 16.1569 16.5925 16.5395C16.2099 16.9221 15.691 17.137 15.15 17.137C14.609 17.137 14.0901 16.9221 13.7075 16.5395C13.3249 16.1569 13.11 15.638 13.11 15.097C13.11 14.5559 13.3249 14.0371 13.7075 13.6545C14.0901 13.2719 14.609 13.057 15.15 13.057C15.691 13.057 16.2099 13.2719 16.5925 13.6545C16.9751 14.0371 17.19 14.5559 17.19 15.097Z" fill="#F7DF1E"/>
</svg>
