<svg width="27" height="28" viewBox="0 0 27 28" fill="none" xmlns="http://www.w3.org/2000/svg">
<path d="M8.775 5.81984C8.3985 6.03734 8.0025 6.63584 7.956 7.94384C7.9428 8.24013 7.81313 8.51921 7.59521 8.72038C7.3773 8.92155 7.08876 9.02854 6.79236 9.01806C6.49597 9.00758 6.21571 8.88048 6.01254 8.66442C5.80937 8.44836 5.69974 8.16082 5.7075 7.86434C5.7645 6.26234 6.2715 4.66784 7.65 3.87134C9.033 3.07334 10.6725 3.43634 12.0915 4.19234C12.3549 4.33277 12.5516 4.57207 12.6386 4.8576C12.7255 5.14312 12.6954 5.45148 12.555 5.71484C12.4146 5.9782 12.1753 6.17499 11.8897 6.26191C11.6042 6.34883 11.2959 6.31877 11.0325 6.17834C9.873 5.55884 9.153 5.60384 8.775 5.81984ZM14.8065 7.76834C14.9204 7.67417 15.0516 7.60336 15.1929 7.55993C15.3341 7.51651 15.4825 7.50133 15.6296 7.51526C15.7767 7.52919 15.9196 7.57195 16.0501 7.64111C16.1807 7.71028 16.2963 7.80448 16.3905 7.91834C17.2691 8.98462 18.0568 10.1226 18.7455 11.3203C20.3055 14.0233 21.267 16.7923 21.5265 19.1143C21.6555 20.2738 21.6165 21.3778 21.3465 22.3243C21.072 23.2768 20.541 24.1393 19.65 24.6538C18.5715 25.2763 17.325 25.1893 16.1865 24.7738C15.0435 24.3568 13.866 23.5693 12.744 22.5448C12.527 22.3429 12.3984 22.0634 12.3863 21.7672C12.3742 21.471 12.4795 21.182 12.6793 20.963C12.8792 20.744 13.1574 20.6127 13.4534 20.5977C13.7495 20.5827 14.0396 20.6852 14.2605 20.8828C15.2505 21.7858 16.179 22.3768 16.956 22.6588C17.739 22.9438 18.231 22.8763 18.525 22.7053C18.771 22.5628 19.02 22.2733 19.182 21.7048C19.347 21.1288 19.3995 20.3398 19.29 19.3648C19.0725 17.4163 18.24 14.9443 16.7955 12.4453C16.1703 11.3581 15.4553 10.325 14.658 9.35684C14.5638 9.24299 14.493 9.1117 14.4496 8.97048C14.4062 8.82926 14.391 8.68086 14.4049 8.53377C14.4188 8.38668 14.4616 8.24378 14.5308 8.11321C14.5999 7.98265 14.6941 7.86699 14.808 7.77284" fill="#F7DF1E"/>
<path d="M23.25 14.5708C23.25 14.1358 22.929 13.4923 21.8205 12.8008C21.6951 12.7225 21.5864 12.6203 21.5005 12.5C21.4146 12.3797 21.3533 12.2436 21.32 12.0996C21.2867 11.9556 21.2821 11.8064 21.3065 11.6606C21.3309 11.5148 21.3837 11.3752 21.462 11.2498C21.6201 10.9966 21.8724 10.8166 22.1633 10.7494C22.3073 10.7161 22.4564 10.7115 22.6022 10.7358C22.748 10.7602 22.8876 10.813 23.013 10.8913C24.372 11.7418 25.5 12.9778 25.5 14.5708C25.5 16.1668 24.366 17.4058 23.001 18.2563C22.7479 18.4082 22.4453 18.4545 22.1584 18.3854C21.8715 18.3162 21.6233 18.137 21.4672 17.8865C21.3112 17.636 21.2598 17.3342 21.3242 17.0462C21.3886 16.7582 21.5636 16.507 21.8115 16.3468C22.9275 15.6508 23.25 15.0058 23.25 14.5708ZM18.5445 18.8188C18.5692 18.9645 18.565 19.1136 18.5321 19.2577C18.4992 19.4017 18.4383 19.5379 18.3528 19.6584C18.2672 19.7788 18.1588 19.8813 18.0337 19.9599C17.9086 20.0385 17.7692 20.0916 17.6235 20.1163C16.2607 20.3425 14.8814 20.4549 13.5 20.4523C10.38 20.4523 7.5 19.9018 5.3595 18.9643C4.29 18.4978 3.3555 17.9113 2.6715 17.2033C1.98 16.4923 1.5 15.5983 1.5 14.5708C1.5 13.3258 2.199 12.2908 3.1275 11.5108C4.0605 10.7293 5.3325 10.1038 6.78 9.64484C7.06444 9.55454 7.37311 9.58092 7.6381 9.7182C7.76931 9.78617 7.88585 9.87932 7.98106 9.99233C8.07627 10.1053 8.14828 10.236 8.193 10.3768C8.23771 10.5177 8.25425 10.666 8.24166 10.8132C8.22908 10.9604 8.18761 11.1037 8.11964 11.2349C8.05167 11.3662 7.95852 11.4827 7.84551 11.5779C7.7325 11.6731 7.60184 11.7451 7.461 11.7898C6.186 12.1948 5.208 12.7033 4.575 13.2358C3.936 13.7698 3.75 14.2303 3.75 14.5708C3.75 14.8558 3.8775 15.2158 4.2885 15.6403C4.7055 16.0708 5.3625 16.5103 6.261 16.9033C8.0565 17.6893 10.614 18.2023 13.5 18.2023C14.8275 18.2023 16.0905 18.0943 17.247 17.8978C17.3927 17.8731 17.5418 17.8773 17.6858 17.9102C17.8299 17.9431 17.966 18.0041 18.0865 18.0896C18.207 18.1751 18.3095 18.2835 18.388 18.4087C18.4666 18.5338 18.5198 18.6732 18.5445 18.8188Z" fill="#F7DF1E"/>
<path d="M8.808 22.7068C9.183 22.9243 9.9015 22.9678 11.0565 22.3543C11.187 22.285 11.3299 22.242 11.477 22.2279C11.6241 22.2138 11.7725 22.2288 11.9138 22.2721C12.0551 22.3153 12.1865 22.386 12.3005 22.48C12.4145 22.574 12.5089 22.6896 12.5782 22.8201C12.6476 22.9506 12.6905 23.0935 12.7047 23.2406C12.7188 23.3877 12.7038 23.5361 12.6605 23.6774C12.6173 23.8187 12.5466 23.9501 12.4526 24.0641C12.3586 24.1781 12.243 24.2725 12.1125 24.3418C10.6965 25.0933 9.0615 25.4518 7.683 24.6568C6.3 23.8573 5.793 22.2568 5.7405 20.6488C5.73505 20.3534 5.84604 20.0677 6.04948 19.8535C6.25293 19.6392 6.5325 19.5136 6.8278 19.5037C7.12311 19.4939 7.41043 19.6006 7.6277 19.8008C7.84498 20.001 7.97475 20.2787 7.989 20.5738C8.034 21.8863 8.43 22.4893 8.808 22.7068ZM7.482 16.5073C7.20236 16.4035 6.97542 16.1928 6.85109 15.9216C6.72676 15.6505 6.71521 15.341 6.819 15.0613C7.272 13.8388 7.8645 12.5758 8.589 11.3218C10.149 8.61884 12.066 6.40184 13.947 5.01584C14.886 4.32434 15.861 3.80684 16.8165 3.56834C17.778 3.32834 18.792 3.35684 19.6815 3.87134C20.7615 4.49384 21.3075 5.61584 21.5175 6.81134C21.729 8.00984 21.6345 9.42284 21.3075 10.9063C21.281 11.0556 21.2247 11.1979 21.1419 11.3248C21.059 11.4518 20.9514 11.5606 20.8254 11.6449C20.6995 11.7292 20.5578 11.7872 20.4089 11.8153C20.2599 11.8435 20.1069 11.8413 19.9588 11.8088C19.8108 11.7764 19.6708 11.7143 19.5474 11.6264C19.4239 11.5385 19.3195 11.4266 19.2403 11.2974C19.1612 11.1681 19.109 11.0242 19.0868 10.8742C19.0647 10.7243 19.0731 10.5715 19.1115 10.4248C19.398 9.11684 19.446 8.01584 19.302 7.19984C19.158 6.38084 18.852 5.98934 18.558 5.81984C18.312 5.67734 17.9355 5.60684 17.3625 5.75084C16.7805 5.89634 16.0725 6.24584 15.282 6.82784C13.704 7.98884 11.979 9.94784 10.5375 12.4468C9.90716 13.5325 9.36878 14.6689 8.928 15.8443C8.82413 16.124 8.61345 16.3509 8.34228 16.4753C8.07112 16.5996 7.76167 16.6111 7.482 16.5073Z" fill="#F7DF1E"/>
<path d="M15.69 14.3608C15.69 14.9019 15.4751 15.4208 15.0925 15.8033C14.7099 16.1859 14.191 16.4008 13.65 16.4008C13.109 16.4008 12.5901 16.1859 12.2075 15.8033C11.8249 15.4208 11.61 14.9019 11.61 14.3608C11.61 13.8198 11.8249 13.3009 12.2075 12.9183C12.5901 12.5358 13.109 12.3208 13.65 12.3208C14.191 12.3208 14.7099 12.5358 15.0925 12.9183C15.4751 13.3009 15.69 13.8198 15.69 14.3608Z" fill="#F7DF1E"/>
</svg>
