<svg width="27" height="27" viewBox="0 0 27 27" fill="none" xmlns="http://www.w3.org/2000/svg">
<g clip-path="url(#clip0_154_231)">
<path d="M13.1737 11.076H14.9617L14.5273 12.9792H12.7081L13.1737 11.076ZM3.6001 4.5C3.6001 3.70435 3.91617 2.94129 4.47878 2.37868C5.04139 1.81607 5.80445 1.5 6.6001 1.5H20.4001C20.7941 1.5 21.1842 1.5776 21.5481 1.72836C21.9121 1.87913 22.2428 2.1001 22.5214 2.37868C22.8 2.65726 23.021 2.98797 23.1717 3.35195C23.3225 3.71593 23.4001 4.10603 23.4001 4.5V21.2582C23.4001 21.4969 23.3053 21.7259 23.1365 21.8946C22.9677 22.0634 22.7388 22.1582 22.5001 22.1582H5.4001C5.4001 22.4765 5.52653 23.1235 5.75157 23.3485C5.97661 23.5736 6.28184 23.7 6.6001 23.7H22.5001C22.7388 23.7 22.9677 23.7948 23.1365 23.9636C23.3053 24.1324 23.4001 24.3613 23.4001 24.6C23.4001 24.8387 23.3053 25.0676 23.1365 25.2364C22.9677 25.4052 22.7388 25.5 22.5001 25.5H6.6001C5.80445 25.5 5.04139 25.1839 4.47878 24.6213C3.91617 24.0587 3.6001 23.2956 3.6001 22.5V4.5ZM12.0289 8.184L11.7613 9.276H10.4761L10.3537 9.2844C10.1382 9.31398 9.94077 9.42058 9.79782 9.58448C9.65487 9.74839 9.57611 9.95851 9.5761 10.176L9.5845 10.2984C9.61408 10.5139 9.72067 10.7113 9.88458 10.8543C10.0485 10.9972 10.2586 11.076 10.4761 11.076H11.3197L10.8541 12.9792L9.8989 12.9804L9.7765 12.9888C9.56103 13.0184 9.36357 13.125 9.22062 13.2889C9.07767 13.4528 8.99891 13.6629 8.9989 13.8804L9.0073 14.0028C9.03688 14.2183 9.14347 14.4157 9.30738 14.5587C9.47129 14.7016 9.68141 14.7804 9.8989 14.7804H10.4137L10.2661 15.3876L10.2445 15.5076C10.2217 15.7242 10.2783 15.9416 10.4036 16.1197C10.5289 16.2978 10.7146 16.4244 10.9261 16.476L11.0461 16.4976C11.2627 16.5204 11.4801 16.4638 11.6582 16.3385C11.8363 16.2132 11.9628 16.0275 12.0145 15.816L12.2665 14.7792H14.1133L13.9717 15.4008L13.9525 15.5208C13.9328 15.7378 13.9925 15.9546 14.1205 16.1309C14.2485 16.3072 14.4361 16.4311 14.6485 16.4796L14.7685 16.4988C14.9855 16.5185 15.2023 16.4588 15.3786 16.3308C15.5549 16.2028 15.6788 16.0152 15.7273 15.8028L15.9601 14.7792L17.0881 14.7804L17.2105 14.772C17.4262 14.7427 17.6239 14.6362 17.7671 14.4723C17.9103 14.3083 17.9892 14.0981 17.9893 13.8804L17.9809 13.758C17.9513 13.5425 17.8447 13.3451 17.6808 13.2021C17.5169 13.0592 17.3068 12.9804 17.0893 12.9804H16.3729L16.8085 11.076H17.6725L17.7949 11.0676C18.0104 11.038 18.2078 10.9314 18.3508 10.7675C18.4937 10.6036 18.5725 10.3935 18.5725 10.176L18.5641 10.0548C18.5348 9.83912 18.4283 9.64137 18.2644 9.49817C18.1004 9.35498 17.8902 9.27605 17.6725 9.276H17.2213L17.3773 8.5992L17.3965 8.4792C17.4159 8.26241 17.3561 8.04593 17.2281 7.86986C17.1001 7.6938 16.9127 7.57007 16.7005 7.5216L16.5805 7.5024C16.3637 7.483 16.1472 7.54283 15.9712 7.6708C15.7951 7.79877 15.6714 7.98621 15.6229 8.1984L15.3745 9.276H13.6129L13.7761 8.6124L13.7977 8.4924C13.8226 8.26483 13.7599 8.03632 13.6223 7.85336C13.4847 7.67041 13.2825 7.54678 13.057 7.50764C12.8314 7.46849 12.5994 7.51677 12.4082 7.64264C12.217 7.76852 12.0809 7.96254 12.0277 8.1852" fill="#5BAFD4"/>
</g>
<defs>
<clipPath id="clip0_154_231">
<rect width="24" height="24" fill="white" transform="translate(1.5 1.5)"/>
</clipPath>
</defs>
</svg>
