<svg width="30" height="30" viewBox="0 0 30 30" fill="none" xmlns="http://www.w3.org/2000/svg">
<g clip-path="url(#clip0_154_231)">
<path d="M22.6233 8.82321C22.7808 8.9807 22.6693 9.24998 22.4466 9.24998H18.7001C18.562 9.24998 18.4501 9.13809 18.4501 9.00005L18.4491 5.2526C18.4491 5.02984 18.7184 4.91825 18.8759 5.07576L22.6233 8.82321Z" fill="#A2AAD3"/>
<path fill-rule="evenodd" clip-rule="evenodd" d="M15.1403 3.0084L14.9999 3H8.9999L8.7887 3.006C7.87203 3.05987 7.01059 3.46199 6.38064 4.13009C5.75069 4.79818 5.39985 5.68175 5.3999 6.6V23.4L5.4059 23.6112C5.45977 24.5279 5.86189 25.3893 6.52999 26.0193C7.19808 26.6492 8.08165 27.0001 8.9999 27H20.9999L21.2111 26.994C22.1278 26.9401 22.9892 26.538 23.6192 25.8699C24.2491 25.2018 24.6 24.3183 24.5999 23.4V12.6L24.5915 12.4596C24.5599 12.1917 24.439 11.9423 24.2483 11.7516C24.0576 11.5609 23.8082 11.44 23.5403 11.4084L23.3999 11.4H18.5999L18.4115 11.3928C17.8402 11.348 17.3039 11.1003 16.8993 10.6944C16.4948 10.2886 16.2488 9.75141 16.2059 9.18L16.1999 9V4.2L16.1915 4.0596C16.1599 3.79174 16.039 3.54233 15.8483 3.35161C15.6576 3.1609 15.4082 3.03999 15.1403 3.0084ZM14.5057 16.2094C14.3905 16.2094 14.2902 16.2881 14.2629 16.4L13.86 18.0468C13.8215 18.2043 13.9407 18.3562 14.1028 18.3562H15.637C15.7536 18.3562 15.8547 18.2755 15.8807 18.1618L16.2566 16.515C16.2923 16.3585 16.1734 16.2094 16.0128 16.2094H14.5057ZM12.763 13.9885L13.0181 12.9472L13.0168 12.9486C13.0768 12.6974 13.2303 12.4786 13.446 12.3366C13.6617 12.1946 13.9234 12.1401 14.1778 12.1843C14.4322 12.2285 14.6603 12.3679 14.8155 12.5743C14.9707 12.7806 15.0415 13.0384 15.0134 13.2951L14.989 13.4305L14.8811 13.8693C14.8423 14.0269 14.9616 14.179 15.1238 14.179H16.5931C16.7095 14.179 16.8105 14.0986 16.8367 13.9852L17.0722 12.9635C17.1268 12.7241 17.2664 12.5127 17.465 12.3684C17.6636 12.224 17.9078 12.1565 18.1523 12.1784L18.2877 12.2001C18.5271 12.2547 18.7385 12.3943 18.8828 12.5929C19.0272 12.7915 19.0947 13.0357 19.0728 13.2802L19.0511 13.4156L18.9457 13.8729C18.9096 14.0295 19.0286 14.179 19.1893 14.179H19.3841C19.6296 14.1791 19.8668 14.2681 20.0518 14.4296C20.2367 14.5911 20.3568 14.8142 20.3898 15.0575L20.3993 15.1942C20.3993 15.4395 20.3105 15.6766 20.1492 15.8614C19.988 16.0463 19.7652 16.1666 19.5222 16.1999L19.3841 16.2094H18.6088C18.4922 16.2094 18.3911 16.29 18.3651 16.4036L17.9881 18.0518C17.9523 18.2083 18.0712 18.3576 18.2318 18.3576H18.7263C18.9716 18.3576 19.2086 18.4464 19.3935 18.6077C19.5784 18.7689 19.6986 18.9917 19.732 19.2347L19.7415 19.3728C19.7414 19.6183 19.6524 19.8555 19.4909 20.0404C19.3293 20.2253 19.1063 20.3454 18.863 20.3785L18.7249 20.388L17.6523 20.3868C17.5355 20.3867 17.4341 20.4675 17.4082 20.5814L17.1899 21.5412C17.1352 21.7808 16.9955 21.9924 16.7966 22.1368C16.5977 22.2812 16.3532 22.3485 16.1084 22.3263L15.9731 22.3047C15.7334 22.25 15.5218 22.1102 15.3774 21.9113C15.2331 21.7124 15.1657 21.4679 15.188 21.2231L15.2096 21.0878L15.2997 20.6921C15.3354 20.5357 15.2165 20.3866 15.056 20.3866H13.4827C13.3673 20.3866 13.267 20.4655 13.2397 20.5776L13.0019 21.5561C12.9436 21.7947 12.8009 22.0041 12.6 22.1455C12.3991 22.2869 12.1538 22.3506 11.9095 22.325L11.7742 22.3006C11.5356 22.2423 11.3262 22.0995 11.1848 21.8987C11.0434 21.6978 10.9797 21.4525 11.0053 21.2083L11.0297 21.0729L11.1211 20.697C11.1593 20.5396 11.0401 20.388 10.8782 20.388H10.6155C10.3702 20.3879 10.1332 20.2991 9.94828 20.1378C9.76339 19.9766 9.64315 19.7539 9.60979 19.5108L9.60031 19.3728C9.60032 19.1274 9.68916 18.8904 9.85041 18.7055C10.0117 18.5206 10.2344 18.4004 10.4774 18.367L10.6155 18.3576L11.497 18.3564C11.6121 18.3563 11.7122 18.2776 11.7395 18.1659L12.1425 16.5188C12.181 16.3613 12.0618 16.2094 11.8996 16.2094H11.2666C11.0213 16.2094 10.7842 16.1205 10.5994 15.9593C10.4145 15.7981 10.2942 15.5753 10.2609 15.3323L10.2514 15.1942C10.2514 14.9489 10.3402 14.7119 10.5015 14.527C10.6627 14.3421 10.8855 14.2218 11.1285 14.1885L11.2666 14.179H12.5202C12.6353 14.179 12.7356 14.1004 12.763 13.9885Z" fill="#A2AAD3"/>
</g>
<defs>
<clipPath id="clip0_154_231">
<rect width="24" height="24" fill="white" transform="translate(3 3)"/>
</clipPath>
</defs>
</svg>
