<svg width="30" height="30" viewBox="0 0 30 30" fill="none" xmlns="http://www.w3.org/2000/svg">
<path d="M10.1001 7.2395H19.4501C19.8877 7.2395 20.3074 7.41334 20.6168 7.72278C20.9263 8.03221 21.1001 8.45189 21.1001 8.8895V10.5395M18.3501 16.0395H11.7501M15.0501 20.4395H11.7501" stroke="#5BAFD4" stroke-width="2" stroke-linecap="round" stroke-linejoin="round"/>
<path d="M22.1967 4H8.78773C8.24213 4 7.68222 4.0803 7.24112 4.4048C5.83972 5.4333 4.75952 7.7268 6.94082 9.7981C7.55242 10.3789 8.40823 10.5901 9.24973 10.5901H21.9624C22.8347 10.5901 24.4 10.7144 24.4 13.3797V21.5791C24.4 24.0211 22.431 26 20.0033 26H10.0703C7.64592 26 5.88262 24.2873 5.74402 21.6781L5.70662 7.4826" stroke="#5BAFD4" stroke-width="2" stroke-linecap="round" stroke-linejoin="round"/>
</svg>
