<svg width="27" height="28" viewBox="0 0 27 28" fill="none" xmlns="http://www.w3.org/2000/svg">
<g clip-path="url(#clip0_154_246)">
<path d="M21.5501 8.51384H16.9501L16.949 3.91269L21.5501 8.51384Z" fill="#5BAFD4"/>
<path fill-rule="evenodd" clip-rule="evenodd" d="M13.6403 2.27225L13.4999 2.26385H7.4999L7.2887 2.26986C6.37203 2.32373 5.51059 2.72585 4.88064 3.39394C4.25069 4.06204 3.89985 4.9456 3.8999 5.86385V22.6639L3.9059 22.8751C3.95977 23.7917 4.36189 24.6532 5.02999 25.2831C5.69808 25.9131 6.58165 26.2639 7.4999 26.2639H19.4999L19.7111 26.2579C20.6278 26.204 21.4892 25.8019 22.1192 25.1338C22.7491 24.4657 23.1 23.5821 23.0999 22.6639V11.8639L23.0915 11.7235C23.0599 11.4556 22.939 11.2062 22.7483 11.0155C22.5576 10.8247 22.3082 10.7038 22.0403 10.6723L21.8999 10.6639H17.0999L16.9115 10.6567C16.3402 10.6119 15.8039 10.3641 15.3993 9.95829C14.9948 9.55245 14.7488 9.01526 14.7059 8.44386L14.6999 8.26385V3.46385L14.6915 3.32345C14.6599 3.05559 14.539 2.80619 14.3483 2.61547C14.1576 2.42475 13.9082 2.30384 13.6403 2.27225ZM13.0057 15.4732C12.8905 15.4732 12.7902 15.552 12.7629 15.6638L12.36 17.3106C12.3215 17.4681 12.4407 17.6201 12.6028 17.6201H14.137C14.2536 17.6201 14.3547 17.5394 14.3807 17.4257L14.7566 15.7789C14.7923 15.6224 14.6734 15.4732 14.5128 15.4732H13.0057ZM11.263 13.2524L11.5181 12.2111L11.5168 12.2124C11.5768 11.9613 11.7303 11.7424 11.946 11.6005C12.1617 11.4585 12.4234 11.404 12.6778 11.4482C12.9322 11.4923 13.1603 11.6318 13.3155 11.8381C13.4707 12.0445 13.5415 12.3023 13.5134 12.559L13.489 12.6943L13.3811 13.1332C13.3423 13.2907 13.4616 13.4429 13.6238 13.4429H15.0931C15.2095 13.4429 15.3105 13.3625 15.3367 13.249L15.5722 12.2273C15.6268 11.988 15.7664 11.7766 15.965 11.6322C16.1636 11.4879 16.4078 11.4204 16.6523 11.4423L16.7877 11.4639C17.0271 11.5186 17.2385 11.6581 17.3828 11.8567C17.5272 12.0553 17.5947 12.2995 17.5728 12.5441L17.5511 12.6794L17.4457 13.1367C17.4096 13.2933 17.5286 13.4429 17.6893 13.4429H17.8841C18.1296 13.4429 18.3668 13.532 18.5518 13.6935C18.7367 13.855 18.8568 14.078 18.8898 14.3213L18.8993 14.4581C18.8993 14.7034 18.8105 14.9404 18.6492 15.1253C18.488 15.3102 18.2652 15.4304 18.0222 15.4638L17.8841 15.4732H17.1088C16.9922 15.4732 16.8911 15.5538 16.8651 15.6675L16.4881 17.3157C16.4523 17.4722 16.5712 17.6214 16.7318 17.6214H17.2263C17.4716 17.6214 17.7086 17.7103 17.8935 17.8715C18.0784 18.0328 18.1986 18.2555 18.232 18.4985L18.2415 18.6366C18.2414 18.8821 18.1524 19.1193 17.9909 19.3042C17.8293 19.4892 17.6063 19.6093 17.363 19.6423L17.2249 19.6518L16.1523 19.6507C16.0355 19.6505 15.9341 19.7313 15.9082 19.8452L15.6899 20.8051C15.6352 21.0447 15.4955 21.2563 15.2966 21.4007C15.0977 21.5451 14.8532 21.6124 14.6084 21.5902L14.4731 21.5685C14.2334 21.5138 14.0218 21.374 13.8774 21.1752C13.7331 20.9763 13.6657 20.7318 13.688 20.487L13.7096 20.3516L13.7997 19.956C13.8354 19.7995 13.7165 19.6505 13.556 19.6505H11.9827C11.8673 19.6505 11.767 19.7293 11.7397 19.8414L11.5019 20.82C11.4436 21.0586 11.3009 21.268 11.1 21.4094C10.8991 21.5507 10.6538 21.6145 10.4095 21.5888L10.2742 21.5644C10.0356 21.5062 9.82617 21.3634 9.6848 21.1625C9.54343 20.9617 9.47967 20.7164 9.50535 20.4721L9.52971 20.3367L9.62108 19.9609C9.65934 19.8035 9.54012 19.6518 9.37815 19.6518H9.11551C8.87019 19.6518 8.63316 19.563 8.44828 19.4017C8.26339 19.2405 8.14315 19.0177 8.10979 18.7747L8.10031 18.6366C8.10032 18.3913 8.18916 18.1543 8.35041 17.9694C8.51166 17.7845 8.7344 17.6643 8.97744 17.6309L9.11551 17.6214L9.99702 17.6203C10.1121 17.6202 10.2122 17.5415 10.2395 17.4297L10.6425 15.7827C10.681 15.6252 10.5618 15.4732 10.3996 15.4732H9.76659C9.52127 15.4732 9.28425 15.3844 9.09936 15.2232C8.91447 15.0619 8.79423 14.8392 8.76087 14.5961L8.75139 14.4581C8.7514 14.2127 8.84025 13.9757 9.00149 13.7908C9.16274 13.6059 9.38548 13.4857 9.62852 13.4523L9.76659 13.4429H11.0202C11.1353 13.4429 11.2356 13.3642 11.263 13.2524Z" fill="#5BAFD4"/>
</g>
<defs>
<clipPath id="clip0_154_246">
<rect width="24" height="24" fill="white" transform="translate(1.5 2.26385)"/>
</clipPath>
</defs>
</svg>
