<svg width="27" height="27" viewBox="0 0 27 27" fill="none" xmlns="http://www.w3.org/2000/svg">
<g clip-path="url(#clip0_154_231)">
<path d="M21.1233 7.32321C21.2808 7.4807 21.1693 7.74998 20.9466 7.74998H17.2001C17.062 7.74998 16.9501 7.63809 16.9501 7.50005L16.9491 3.7526C16.9491 3.52984 17.2184 3.41825 17.3759 3.57576L21.1233 7.32321Z" fill="#5BAFD4"/>
<path fill-rule="evenodd" clip-rule="evenodd" d="M13.6403 1.5084L13.4999 1.5H7.4999L7.2887 1.506C6.37203 1.55987 5.51059 1.96199 4.88064 2.63009C4.25069 3.29818 3.89985 4.18175 3.8999 5.1V21.9L3.9059 22.1112C3.95977 23.0279 4.36189 23.8893 5.02999 24.5193C5.69808 25.1492 6.58165 25.5001 7.4999 25.5H19.4999L19.7111 25.494C20.6278 25.4401 21.4892 25.038 22.1192 24.3699C22.7491 23.7018 23.1 22.8183 23.0999 21.9V11.1L23.0915 10.9596C23.0599 10.6917 22.939 10.4423 22.7483 10.2516C22.5576 10.0609 22.3082 9.93999 22.0403 9.9084L21.8999 9.9H17.0999L16.9115 9.8928C16.3402 9.848 15.8039 9.60028 15.3993 9.19444C14.9948 8.78859 14.7488 8.25141 14.7059 7.68L14.6999 7.5V2.7L14.6915 2.5596C14.6599 2.29174 14.539 2.04233 14.3483 1.85161C14.1576 1.6609 13.9082 1.53999 13.6403 1.5084ZM13.0057 14.7094C12.8905 14.7094 12.7902 14.7881 12.7629 14.9L12.36 16.5468C12.3215 16.7043 12.4407 16.8562 12.6028 16.8562H14.137C14.2536 16.8562 14.3547 16.7755 14.3807 16.6618L14.7566 15.015C14.7923 14.8585 14.6734 14.7094 14.5128 14.7094H13.0057ZM11.263 12.4885L11.5181 11.4472L11.5168 11.4486C11.5768 11.1974 11.7303 10.9786 11.946 10.8366C12.1617 10.6946 12.4234 10.6401 12.6778 10.6843C12.9322 10.7285 13.1603 10.8679 13.3155 11.0743C13.4707 11.2806 13.5415 11.5384 13.5134 11.7951L13.489 11.9305L13.3811 12.3693C13.3423 12.5269 13.4616 12.679 13.6238 12.679H15.0931C15.2095 12.679 15.3105 12.5986 15.3367 12.4852L15.5722 11.4635C15.6268 11.2241 15.7664 11.0127 15.965 10.8684C16.1636 10.724 16.4078 10.6565 16.6523 10.6784L16.7877 10.7001C17.0271 10.7547 17.2385 10.8943 17.3828 11.0929C17.5272 11.2915 17.5947 11.5357 17.5728 11.7802L17.5511 11.9156L17.4457 12.3729C17.4096 12.5295 17.5286 12.679 17.6893 12.679H17.8841C18.1296 12.6791 18.3668 12.7681 18.5518 12.9296C18.7367 13.0911 18.8568 13.3142 18.8898 13.5575L18.8993 13.6942C18.8993 13.9395 18.8105 14.1766 18.6492 14.3614C18.488 14.5463 18.2652 14.6666 18.0222 14.6999L17.8841 14.7094H17.1088C16.9922 14.7094 16.8911 14.79 16.8651 14.9036L16.4881 16.5518C16.4523 16.7083 16.5712 16.8576 16.7318 16.8576H17.2263C17.4716 16.8576 17.7086 16.9464 17.8935 17.1077C18.0784 17.2689 18.1986 17.4917 18.232 17.7347L18.2415 17.8728C18.2414 18.1183 18.1524 18.3555 17.9909 18.5404C17.8293 18.7253 17.6063 18.8454 17.363 18.8785L17.2249 18.888L16.1523 18.8868C16.0355 18.8867 15.9341 18.9675 15.9082 19.0814L15.6899 20.0412C15.6352 20.2808 15.4955 20.4924 15.2966 20.6368C15.0977 20.7812 14.8532 20.8485 14.6084 20.8263L14.4731 20.8047C14.2334 20.75 14.0218 20.6102 13.8774 20.4113C13.7331 20.2124 13.6657 19.9679 13.688 19.7231L13.7096 19.5878L13.7997 19.1921C13.8354 19.0357 13.7165 18.8866 13.556 18.8866H11.9827C11.8673 18.8866 11.767 18.9655 11.7397 19.0776L11.5019 20.0561C11.4436 20.2947 11.3009 20.5041 11.1 20.6455C10.8991 20.7869 10.6538 20.8506 10.4095 20.825L10.2742 20.8006C10.0356 20.7423 9.82617 20.5995 9.6848 20.3987C9.54343 20.1978 9.47967 19.9525 9.50535 19.7083L9.52971 19.5729L9.62108 19.197C9.65934 19.0396 9.54012 18.888 9.37815 18.888H9.11551C8.87019 18.8879 8.63316 18.7991 8.44828 18.6378C8.26339 18.4766 8.14315 18.2539 8.10979 18.0108L8.10031 17.8728C8.10032 17.6274 8.18916 17.3904 8.35041 17.2055C8.51166 17.0206 8.7344 16.9004 8.97744 16.867L9.11551 16.8576L9.99702 16.8564C10.1121 16.8563 10.2122 16.7776 10.2395 16.6659L10.6425 15.0188C10.681 14.8613 10.5618 14.7094 10.3996 14.7094H9.76659C9.52127 14.7094 9.28425 14.6205 9.09936 14.4593C8.91447 14.2981 8.79423 14.0753 8.76087 13.8323L8.75139 13.6942C8.7514 13.4489 8.84025 13.2119 9.00149 13.027C9.16274 12.8421 9.38548 12.7218 9.62852 12.6885L9.76659 12.679H11.0202C11.1353 12.679 11.2356 12.6004 11.263 12.4885Z" fill="#5BAFD4"/>
</g>
<defs>
<clipPath id="clip0_154_231">
<rect width="24" height="24" fill="white" transform="translate(1.5 1.5)"/>
</clipPath>
</defs>
</svg>
