<svg width="30" height="30" viewBox="0 0 30 30" fill="none" xmlns="http://www.w3.org/2000/svg">
<g clip-path="url(#clip0_310_250)">
<path d="M15 26.1111C14.0911 26.1111 13.2222 25.7445 11.4856 25.0111C7.16222 23.1845 5 22.27 5 20.7334V9.44447M15 26.1111C15.9089 26.1111 16.7778 25.7445 18.5144 25.0111C22.8378 23.1845 25 22.27 25 20.7334V9.44447M15 26.1111V14.2834M8.33333 15L10.5556 16.1111M20.5556 6.11114L9.44444 11.6667M10.9178 12.4345L7.67222 10.8645C5.89111 10.0022 5 9.57114 5 8.88892C5 8.20669 5.89111 7.77558 7.67222 6.91336L10.9167 5.34336C12.9222 4.37336 13.9222 3.88892 15 3.88892C16.0778 3.88892 17.0789 4.37336 19.0822 5.34336L22.3278 6.91336C24.1089 7.77558 25 8.20669 25 8.88892C25 9.57114 24.1089 10.0022 22.3278 10.8645L19.0833 12.4345C17.0778 13.4045 16.0778 13.8889 15 13.8889C13.9222 13.8889 12.9211 13.4045 10.9178 12.4345Z" stroke="#F5AA52" stroke-width="2" stroke-linecap="round" stroke-linejoin="round"/>
</g>
<defs>
<clipPath id="clip0_310_250">
<rect width="24" height="24" fill="white" transform="translate(3 3)"/>
</clipPath>
</defs>
</svg>
