<svg width="27" height="27" viewBox="0 0 27 27" fill="none" xmlns="http://www.w3.org/2000/svg">
<path fill-rule="evenodd" clip-rule="evenodd" d="M9.30043 3.45792C10.5768 2.72689 11.3216 2.33696 12.1035 2.15789C13.0227 1.94737 13.9775 1.94737 14.8967 2.15789C15.8135 2.36786 16.6792 2.86772 18.4108 3.86745L18.4108 3.86746L18.4109 3.86747L19.4246 4.45275C21.1562 5.45249 22.022 5.95236 22.6622 6.64133C22.7534 6.73944 22.8413 6.8403 22.9257 6.94372L19.1319 9.13409L9.30043 3.45792ZM7.57585 4.45259L7.57556 4.45275C5.84397 5.45249 4.97817 5.95236 4.33794 6.64133C4.19488 6.79528 4.05998 6.95601 3.93365 7.12281L13.1861 12.4647H13.363L17.4082 10.1293L7.57585 4.45259ZM3.09213 8.62731L12.4574 14.0344V25C12.339 24.98 12.2209 24.9565 12.1035 24.9296C11.1867 24.7196 10.3209 24.2198 8.58932 23.22L7.57556 22.6347C5.84397 21.635 4.97817 21.1351 4.33794 20.4462C3.69605 19.7554 3.21861 18.9285 2.94134 18.0272C2.66479 17.1283 2.66479 16.1285 2.66479 14.129V12.9585C2.66479 10.959 2.66479 9.95924 2.94134 9.06031C2.98638 8.91393 3.03669 8.76951 3.09213 8.62731ZM14.5427 14.1915V25C14.6612 24.98 14.7792 24.9565 14.8967 24.9296C15.8135 24.7196 16.6793 24.2198 18.4109 23.22L19.4246 22.6347C21.1562 21.635 22.022 21.1351 22.6622 20.4462C23.3041 19.7554 23.7816 18.9285 24.0588 18.0272C24.3354 17.1283 24.3354 16.1285 24.3354 14.129V12.9585C24.3354 10.959 24.3354 9.95924 24.0588 9.06031C24.0273 8.95798 23.9933 8.85662 23.9567 8.75631L14.5427 14.1915Z" fill="#F5AA52"/>
</svg>
