<svg width="27" height="27" viewBox="0 0 27 27" fill="none" xmlns="http://www.w3.org/2000/svg">
<g clip-path="url(#clip0_149_567)">
<path d="M11.1906 24.4542C11.8547 24.9024 12.75 24.4266 12.75 23.6253V15.2298C12.75 14.5157 12.3693 13.8559 11.7512 13.4984L3.5003 8.72721C3.16697 8.53445 2.75 8.77499 2.75 9.16005V17.1628C2.75 18.1598 3.24531 19.0916 4.0717 19.6494L11.1906 24.4542ZM14.0833 23.7782C14.0833 24.5472 14.9151 25.0285 15.5818 24.6452L22.5786 20.6224C23.5095 20.0873 24.0833 19.0954 24.0833 18.0217V9.16005C24.0833 8.77499 23.6664 8.53445 23.333 8.7272L15.0821 13.4984C14.464 13.8559 14.0833 14.5157 14.0833 15.2298V23.7782ZM18.9727 9.712L22.5868 7.6386C22.9215 7.44656 22.9217 6.96375 22.5871 6.77142L14.9114 2.35922C13.9859 1.82721 12.8474 1.8271 11.9218 2.35893L9.11667 3.97067L18.9727 9.712ZM12.4139 12.3482C13.0341 12.7076 13.7992 12.7077 14.4195 12.3483L17.6393 10.4827L7.73933 4.76L4.26176 6.75642C3.9278 6.94815 3.92682 7.42956 4.25999 7.62265L12.4139 12.3482Z" fill="#F4AA41"/>
</g>
<defs>
<clipPath id="clip0_149_567">
<rect width="24" height="24" fill="white" transform="translate(1.5 1.5)"/>
</clipPath>
</defs>
</svg>
