<svg width="30" height="30" viewBox="0 0 30 30" fill="none" xmlns="http://www.w3.org/2000/svg">
<path fill-rule="evenodd" clip-rule="evenodd" d="M10.8004 4.95792C12.0768 4.22689 12.8216 3.83696 13.6035 3.65789C14.5227 3.44737 15.4775 3.44737 16.3967 3.65789C17.3135 3.86786 18.1792 4.36772 19.9108 5.36745L19.9108 5.36746L19.9109 5.36747L20.9246 5.95275C22.6562 6.95249 23.522 7.45236 24.1622 8.14133C24.2534 8.23944 24.3413 8.3403 24.4257 8.44372L20.6319 10.6341L10.8004 4.95792ZM9.07585 5.95259L9.07556 5.95275C7.34397 6.95249 6.47817 7.45236 5.83794 8.14133C5.69488 8.29528 5.55998 8.45601 5.43365 8.62281L14.6861 13.9647H14.863L18.9082 11.6293L9.07585 5.95259ZM4.59213 10.1273L13.9574 15.5344V26.5C13.839 26.48 13.7209 26.4565 13.6035 26.4296C12.6867 26.2196 11.8209 25.7198 10.0893 24.72L9.07556 24.1347C7.34397 23.135 6.47817 22.6351 5.83794 21.9462C5.19605 21.2554 4.71861 20.4285 4.44134 19.5272C4.16479 18.6283 4.16479 17.6285 4.16479 15.629V14.4585C4.16479 12.459 4.16479 11.4592 4.44134 10.5603C4.48638 10.4139 4.53669 10.2695 4.59213 10.1273ZM16.0427 15.6915V26.5C16.1612 26.48 16.2792 26.4565 16.3967 26.4296C17.3135 26.2196 18.1793 25.7198 19.9109 24.72L20.9246 24.1347C22.6562 23.135 23.522 22.6351 24.1622 21.9462C24.8041 21.2554 25.2816 20.4285 25.5588 19.5272C25.8354 18.6283 25.8354 17.6285 25.8354 15.629V14.4585C25.8354 12.459 25.8354 11.4592 25.5588 10.5603C25.5273 10.458 25.4933 10.3566 25.4567 10.2563L16.0427 15.6915Z" fill="#F5AA52"/>
</svg>
