<svg width="27" height="27" viewBox="0 0 27 27" fill="none" xmlns="http://www.w3.org/2000/svg">
<g clip-path="url(#clip0_149_567)">
<path d="M12.2832 25.5V14.3669L2.54932 8.73954V18.5038C2.54932 18.9499 2.65598 19.3555 2.86932 19.7205C3.08265 20.0856 3.38156 20.3796 3.76605 20.6027L12.2832 25.5ZM14.7166 25.5L23.2337 20.6027C23.619 20.3796 23.9183 20.0856 24.1317 19.7205C24.345 19.3555 24.4513 18.9499 24.4505 18.5038V8.73954L14.7166 14.3669V25.5ZM19.5531 8.76996L23.1425 6.6711L14.7166 1.8346C14.3313 1.61153 13.9257 1.5 13.4999 1.5C13.074 1.5 12.6685 1.61153 12.2832 1.8346L9.88011 3.20342L19.5531 8.76996ZM13.4999 12.2681L17.1197 10.1996L7.47707 4.60266L3.82688 6.70152L13.4999 12.2681Z" fill="#F1667F"/>
</g>
<defs>
<clipPath id="clip0_149_567">
<rect width="24" height="24" fill="white" transform="translate(1.5 1.5)"/>
</clipPath>
</defs>
</svg>
