<svg width="27" height="28" viewBox="0 0 27 28" fill="none" xmlns="http://www.w3.org/2000/svg">
<g clip-path="url(#clip0_149_567)">
<path fill-rule="evenodd" clip-rule="evenodd" d="M9.30043 4.22178C10.5768 3.49074 11.3216 3.10081 12.1035 2.92174C13.0227 2.71123 13.9775 2.71123 14.8967 2.92174C15.8135 3.13171 16.6792 3.63158 18.4108 4.63131L18.4108 4.63132L18.4109 4.63132L19.4246 5.21661C21.1562 6.21635 22.022 6.71622 22.6622 7.40518C22.7534 7.50329 22.8413 7.60415 22.9257 7.70758L19.1319 9.89795L9.30043 4.22178ZM7.57585 5.21644L7.57556 5.21661C5.84397 6.21635 4.97817 6.71622 4.33794 7.40518C4.19488 7.55914 4.05998 7.71986 3.93365 7.88666L13.1861 13.2286H13.363L17.4082 10.8931L7.57585 5.21644ZM3.09213 9.39117L12.4574 14.7982V25.7638C12.339 25.7438 12.2209 25.7204 12.1035 25.6935C11.1867 25.4835 10.3209 24.9836 8.58932 23.9839L7.57556 23.3986C5.84397 22.3989 4.97817 21.899 4.33794 21.21C3.69605 20.5193 3.21861 19.6923 2.94134 18.791C2.66479 17.8921 2.66479 16.8924 2.66479 14.8929V13.7223C2.66479 11.7228 2.66479 10.7231 2.94134 9.82416C2.98638 9.67778 3.03669 9.53336 3.09213 9.39117ZM14.5427 14.9553V25.7639C14.6612 25.7438 14.7792 25.7204 14.8967 25.6935C15.8135 25.4835 16.6793 24.9836 18.4109 23.9839L19.4246 23.3986C21.1562 22.3989 22.022 21.899 22.6622 21.21C23.3041 20.5193 23.7816 19.6923 24.0588 18.791C24.3354 17.8921 24.3354 16.8924 24.3354 14.8929V13.7223C24.3354 11.7228 24.3354 10.7231 24.0588 9.82416C24.0273 9.72184 23.9933 9.62048 23.9567 9.52016L14.5427 14.9553Z" fill="#A2AAD3"/>
</g>
<defs>
<clipPath id="clip0_149_567">
<rect width="24" height="24" fill="white" transform="translate(1.5 2.26385)"/>
</clipPath>
</defs>
</svg>
