<svg width="27" height="27" viewBox="0 0 27 27" fill="none" xmlns="http://www.w3.org/2000/svg">
<g clip-path="url(#clip0_171_326)">
<g clip-path="url(#clip1_171_326)">
<path fill-rule="evenodd" clip-rule="evenodd" d="M25 9.5C25 6.69974 25 5.29961 24.455 4.23005C23.9757 3.28924 23.2108 2.52433 22.27 2.04497C21.2004 1.5 19.8003 1.5 17 1.5H10C7.19974 1.5 5.79961 1.5 4.73005 2.04497C3.78924 2.52433 3.02433 3.28924 2.54497 4.23005C2 5.29961 2 6.69974 2 9.5V17.5C2 20.3003 2 21.7004 2.54497 22.77C3.02433 23.7108 3.78924 24.4757 4.73005 24.955C5.79961 25.5 7.19974 25.5 10 25.5H17C19.8003 25.5 21.2004 25.5 22.27 24.955C23.2108 24.4757 23.9757 23.7108 24.455 22.77C25 21.7004 25 20.3003 25 17.5V9.5ZM6.14902 10.9534C5.66078 11.4415 5.66064 12.2329 6.14872 12.7212L8.46991 15.0431C8.77349 15.3468 8.76061 15.8429 8.44168 16.1304L6.24047 18.1148C5.72771 18.5771 5.68677 19.3674 6.14902 19.8802V19.8802C6.61126 20.393 7.40166 20.4339 7.91442 19.9717L10.1156 17.9873C11.4977 16.7413 11.5535 14.5916 10.238 13.2757L7.91678 10.9537C7.42871 10.4654 6.63725 10.4653 6.14902 10.9534V10.9534ZM12.6784 19.1661C12.6784 19.8564 13.2381 20.4161 13.9284 20.4161L19.5912 20.4161C20.2815 20.4161 20.8412 19.8564 20.8412 19.1661V19.1661C20.8412 18.4757 20.2815 17.9161 19.5912 17.9161L13.9284 17.9161C13.2381 17.9161 12.6784 18.4757 12.6784 19.1661V19.1661Z" fill="#8CC162"/>
</g>
</g>
<defs>
<clipPath id="clip0_171_326">
<rect width="24" height="24" fill="white" transform="translate(1.5 1.5)"/>
</clipPath>
<clipPath id="clip1_171_326">
<rect width="23" height="24" fill="white" transform="translate(2 1.5)"/>
</clipPath>
</defs>
</svg>
