<svg width="27" height="27" viewBox="0 0 27 27" fill="none" xmlns="http://www.w3.org/2000/svg">
<rect x="2.5" y="2.5" width="22" height="22" rx="4" stroke="#326EDD" stroke-width="2"/>
<path d="M11.0007 13.1753V21.2417C11.0007 21.4604 10.9187 21.6519 10.7546 21.8159C10.5906 21.98 10.3878 22.062 10.1462 22.062C9.9047 22.062 9.7019 21.98 9.53784 21.8159C9.37378 21.6519 9.29175 21.4604 9.29175 21.2417V13.1753H7.41187C7.17033 13.1753 6.96753 13.0933 6.80347 12.9292C6.6394 12.7651 6.55737 12.5737 6.55737 12.355C6.55737 12.1362 6.6394 11.9448 6.80347 11.7808C6.96753 11.6167 7.17033 11.5347 7.41187 11.5347H12.8806C13.1222 11.5347 13.325 11.6167 13.489 11.7808C13.6531 11.9448 13.7351 12.1362 13.7351 12.355C13.7351 12.5737 13.6531 12.7651 13.489 12.9292C13.325 13.0933 13.1222 13.1753 12.8806 13.1753H11.0007ZM21.9382 14.5767C21.9382 14.7954 21.8562 14.9868 21.6921 15.1509C21.5281 15.3149 21.3253 15.397 21.0837 15.397C20.8422 15.397 20.6394 15.3149 20.4753 15.1509C20.3113 14.9868 20.2292 14.7954 20.2292 14.5767C20.2292 14.1847 20.0925 13.8543 19.8191 13.5854C19.5502 13.312 19.2312 13.1753 18.8621 13.1753H17.8367C17.4675 13.1753 17.1462 13.312 16.8728 13.5854C16.6039 13.8543 16.4695 14.1847 16.4695 14.5767C16.4695 14.9686 16.6039 15.3013 16.8728 15.5747C17.1462 15.8436 17.4675 15.978 17.8367 15.978H18.8621C19.7188 15.978 20.4457 16.2765 21.0427 16.8735C21.6397 17.4705 21.9382 18.186 21.9382 19.02C21.9382 19.854 21.6397 20.5695 21.0427 21.1665C20.4457 21.7635 19.7188 22.062 18.8621 22.062H17.8367C16.9799 22.062 16.253 21.7635 15.656 21.1665C15.059 20.5695 14.7605 19.854 14.7605 19.02C14.7605 18.8013 14.8425 18.6099 15.0066 18.4458C15.1707 18.2817 15.3735 18.1997 15.615 18.1997C15.8565 18.1997 16.0593 18.2817 16.2234 18.4458C16.3875 18.6099 16.4695 18.8013 16.4695 19.02C16.4695 19.4119 16.6039 19.7446 16.8728 20.0181C17.1462 20.2869 17.4675 20.4214 17.8367 20.4214H18.8621C19.2312 20.4214 19.5502 20.2869 19.8191 20.0181C20.0925 19.7446 20.2292 19.4119 20.2292 19.02C20.2292 18.6281 20.0925 18.2977 19.8191 18.0288C19.5502 17.7554 19.2312 17.6187 18.8621 17.6187H17.8367C16.9799 17.6187 16.253 17.3201 15.656 16.7231C15.059 16.1261 14.7605 15.4106 14.7605 14.5767C14.7605 13.7427 15.059 13.0272 15.656 12.4302C16.253 11.8332 16.9799 11.5347 17.8367 11.5347H18.8621C19.7188 11.5347 20.4457 11.8332 21.0427 12.4302C21.6397 13.0272 21.9382 13.7427 21.9382 14.5767Z" fill="#326EDD"/>
</svg>
