<svg width="27" height="28" viewBox="0 0 27 28" fill="none" xmlns="http://www.w3.org/2000/svg">
<g clip-path="url(#clip0_171_314)">
<g clip-path="url(#clip1_171_314)">
<path fill-rule="evenodd" clip-rule="evenodd" d="M13.5001 19.4067V16.8353H10.9287V15.121H13.7858C14.5748 15.121 15.2144 15.7606 15.2144 16.5496C15.2144 18.1275 16.4936 19.4067 18.0716 19.4067H22.9287V16.8353H20.3572C19.8839 16.8353 19.5001 16.4515 19.5001 15.9781C19.5001 15.0314 18.7326 14.2639 17.7858 14.2639C18.8365 13.7385 19.5001 12.6468 19.5001 11.4721C19.5001 9.71669 18.0771 8.26385 16.3216 8.26385H4.07153V10.8353H7.5001V16.8353H4.07153V19.4067H13.5001ZM10.9287 10.8353V12.5496H14.3572C14.8306 12.5496 15.2144 12.1658 15.2144 11.6924C15.2144 11.219 14.8306 10.8353 14.3572 10.8353H10.9287Z" fill="#F17F66"/>
<path d="M13.4999 24.9781C19.4173 24.9781 24.2142 20.1812 24.2142 14.2638C24.2142 8.34651 19.4173 3.54956 13.4999 3.54956C7.58259 3.54956 2.78564 8.34651 2.78564 14.2638C2.78564 20.1812 7.58259 24.9781 13.4999 24.9781Z" stroke="#F17F66" stroke-width="1.5"/>
</g>
</g>
<defs>
<clipPath id="clip0_171_314">
<rect width="24" height="24" fill="white" transform="translate(1.5 2.26385)"/>
</clipPath>
<clipPath id="clip1_171_314">
<rect width="24" height="24" fill="white" transform="translate(1.5 2.26385)"/>
</clipPath>
</defs>
</svg>
