<svg width="30" height="30" viewBox="0 0 30 30" fill="none" xmlns="http://www.w3.org/2000/svg">
<g clip-path="url(#clip0_242_391)">
<rect x="4.5" y="4" width="21" height="22" rx="4" stroke="#8CC162" stroke-width="2"/>
<path d="M14.1243 12.7832C14.1243 11.6003 13.1986 10.6403 12.0672 10.6403H11.0386C9.90716 10.6403 8.98145 11.6003 8.98145 12.7832C8.98145 13.966 9.90716 14.926 11.0386 14.926H12.0672C13.1986 14.926 14.1243 15.886 14.1243 17.0689C14.1243 18.2517 13.1986 19.2117 12.0672 19.2117H11.0386C9.90716 19.2117 8.98145 18.2517 8.98145 17.0689M11.5529 8.92603V10.6403M11.5529 19.2117V20.926" stroke="#8CC162" stroke-width="2" stroke-linecap="round" stroke-linejoin="round"/>
<path d="M16.8796 20.3237H21.074" stroke="#8CC162" stroke-width="2" stroke-linecap="round"/>
</g>
<defs>
<clipPath id="clip0_242_391">
<rect width="24" height="24" fill="white" transform="translate(3 3)"/>
</clipPath>
</defs>
</svg>
