<svg width="27" height="27" viewBox="0 0 27 27" fill="none" xmlns="http://www.w3.org/2000/svg">
<g clip-path="url(#clip0_242_391)">
<rect x="3" y="2.5" width="21" height="22" rx="4" stroke="#8CC162" stroke-width="2"/>
<path d="M12.6243 11.2832C12.6243 10.1003 11.6986 9.14031 10.5672 9.14031H9.53859C8.40716 9.14031 7.48145 10.1003 7.48145 11.2832C7.48145 12.466 8.40716 13.426 9.53859 13.426H10.5672C11.6986 13.426 12.6243 14.386 12.6243 15.5689C12.6243 16.7517 11.6986 17.7117 10.5672 17.7117H9.53859C8.40716 17.7117 7.48145 16.7517 7.48145 15.5689M10.0529 7.42603V9.14031M10.0529 17.7117V19.426" stroke="#8CC162" stroke-width="2" stroke-linecap="round" stroke-linejoin="round"/>
<path d="M15.3796 18.8237H19.574" stroke="#8CC162" stroke-width="2" stroke-linecap="round"/>
</g>
<defs>
<clipPath id="clip0_242_391">
<rect width="24" height="24" fill="white" transform="translate(1.5 1.5)"/>
</clipPath>
</defs>
</svg>
