<svg width="27" height="28" viewBox="0 0 27 28" fill="none" xmlns="http://www.w3.org/2000/svg">
<path fill-rule="evenodd" clip-rule="evenodd" d="M9.17203 5.07004C11.9072 3.62061 15.182 2.76385 17.3469 2.76385C18.6067 2.76385 20.0023 2.9731 21.1295 3.61314C22.3321 4.29595 23.2155 5.47755 23.2155 7.18692C23.2155 9.75407 21.6818 11.4844 20.0115 12.5086C18.3645 13.5186 16.4085 13.9689 15.0387 13.9689C14.0002 13.9689 13.1661 13.8216 12.5253 13.6144C11.9213 13.419 11.4016 13.1415 11.075 12.8077C10.5864 12.3083 10.587 11.4992 11.0764 11.0006C11.5633 10.5046 12.3505 10.5026 12.8397 10.9943C12.8306 10.9852 12.8259 10.9806 12.8263 10.9801C12.8283 10.9775 12.9551 11.0725 13.282 11.1782C13.6543 11.2986 14.2307 11.4134 15.0387 11.4134C15.9771 11.4134 17.4834 11.0774 18.7215 10.3182C19.9365 9.57315 20.711 8.55137 20.711 7.18692C20.711 6.53742 20.4403 6.14637 19.9118 5.84626C19.3079 5.50337 18.3952 5.31941 17.3469 5.31941C15.6649 5.31941 12.7845 6.03529 10.3263 7.33799C9.10826 7.98346 8.06713 8.73539 7.34583 9.54524C6.62814 10.351 6.28887 11.1395 6.28887 11.9048C6.28887 13.0054 6.58357 13.5669 6.91919 13.9385C7.31453 14.3762 7.86661 14.6741 8.67493 15.0871C8.69847 15.0992 8.72229 15.1113 8.74635 15.1236C9.46878 15.4923 10.4166 15.9759 11.1508 16.7889C11.2157 16.8607 11.2783 16.9343 11.3388 17.01C11.7819 16.9499 12.2459 16.9177 12.7306 16.9177C14.6982 16.9177 16.0551 17.3303 16.9005 18.1582C17.7841 19.0234 17.8297 20.0686 17.8297 20.5545C17.8297 21.1945 17.5804 21.7535 17.372 22.1199C17.1532 22.5044 16.8928 22.827 16.6943 23.0299C16.2057 23.5293 15.4129 23.53 14.9234 23.0314C14.434 22.5329 14.4333 21.7238 14.9219 21.2244C14.9799 21.1651 15.1042 21.0159 15.206 20.8369C15.2548 20.7511 15.2881 20.6764 15.3077 20.6176C15.3217 20.5756 15.3247 20.5535 15.3253 20.5495C15.3249 20.2525 15.286 20.1191 15.1665 20.0021C15.0082 19.847 14.4416 19.4733 12.7306 19.4733C12.6083 19.4733 12.488 19.4759 12.3699 19.4811C12.4188 19.8165 12.444 20.1737 12.444 20.5545C12.444 21.711 11.9062 22.982 11.0769 23.9506C10.227 24.9433 8.94389 25.7637 7.3449 25.7639H7.34482C6.49482 25.7639 5.76681 25.4208 5.26339 24.8465C4.77909 24.294 4.55381 23.5881 4.55381 22.9134C4.55381 22.2496 4.80557 21.5516 5.1548 20.9354C5.51835 20.2939 6.04533 19.6372 6.726 19.0466C7.22743 18.6115 7.81489 18.2101 8.48624 17.8759C8.21992 17.7158 7.91189 17.5553 7.55349 17.3722C7.52994 17.3601 7.50612 17.348 7.48205 17.3357C6.75963 16.967 5.81186 16.4833 5.07758 15.6704C4.25912 14.7642 3.78442 13.5564 3.78442 11.9048C3.78442 10.3112 4.50307 8.9373 5.49246 7.82645C6.47825 6.71964 7.79337 5.80063 9.17203 5.07004ZM9.91345 20.0206C9.28721 20.2881 8.76681 20.6304 8.34833 20.9935C7.87491 21.4043 7.53633 21.838 7.32284 22.2147C7.09502 22.6167 7.05826 22.8647 7.05826 22.9134C7.05826 23.0251 7.09746 23.1055 7.13009 23.1428C7.14413 23.1588 7.15999 23.1712 7.18259 23.1813C7.20489 23.1913 7.25423 23.2083 7.34473 23.2083M9.91345 20.0206C9.93038 20.1831 9.93955 20.3604 9.93955 20.5545C9.93955 20.9706 9.70795 21.6653 9.19084 22.2693C8.69433 22.8492 8.05397 23.2082 7.34482 23.2083" fill="#F165A0"/>
</svg>
