<svg width="27" height="28" viewBox="0 0 27 28" fill="none" xmlns="http://www.w3.org/2000/svg">
<path fill-rule="evenodd" clip-rule="evenodd" d="M8.98391 4.67031C11.838 3.15786 15.2552 2.26385 17.5142 2.26385C18.8288 2.26385 20.285 2.4822 21.4613 3.15006C22.7161 3.86256 23.6379 5.09553 23.6379 6.87922C23.6379 9.55799 22.0376 11.3636 20.2947 12.4323C18.576 13.4862 16.535 13.9561 15.1057 13.9561C14.022 13.9561 13.1516 13.8024 12.483 13.5861C11.8528 13.3823 11.3105 13.0927 10.9696 12.7444C10.4597 12.2232 10.4604 11.379 10.9711 10.8587C11.4791 10.3411 12.3006 10.3391 12.8111 10.8522C12.8015 10.8426 12.7967 10.8379 12.7971 10.8373C12.7992 10.8346 12.9315 10.9338 13.2726 11.0441C13.661 11.1697 14.2626 11.2895 15.1057 11.2895C16.0849 11.2895 17.6566 10.9389 18.9486 10.1466C20.2164 9.3692 21.0246 8.303 21.0246 6.87922C21.0246 6.20149 20.7421 5.79344 20.1906 5.48028C19.5604 5.12248 18.6081 4.93052 17.5142 4.93052C15.759 4.93052 12.7535 5.67753 10.1884 7.03687C8.91737 7.7104 7.83097 8.49502 7.07831 9.34008C6.32941 10.1809 5.97539 11.0037 5.97539 11.8023C5.97539 12.9507 6.2829 13.5366 6.63312 13.9243C7.04565 14.3811 7.62173 14.6919 8.46519 15.1229C8.48977 15.1355 8.51462 15.1482 8.53973 15.161C9.29356 15.5457 10.2825 16.0504 11.0488 16.8987C11.1164 16.9736 11.1818 17.0504 11.2448 17.1294C11.7073 17.0667 12.1915 17.0331 12.6971 17.0331C14.7503 17.0331 16.1662 17.4636 17.0484 18.3275C17.9705 19.2303 18.018 20.321 18.018 20.828C18.018 21.4958 17.7578 22.0792 17.5404 22.4614C17.3121 22.8626 17.0404 23.1993 16.8333 23.411C16.3234 23.9321 15.4961 23.9329 14.9854 23.4126C14.4746 22.8924 14.4739 22.0482 14.9838 21.527C15.0443 21.4652 15.1739 21.3095 15.2802 21.1227C15.3311 21.0332 15.3659 20.9552 15.3864 20.8939C15.401 20.85 15.4041 20.827 15.4047 20.8228C15.4042 20.5129 15.3637 20.3737 15.239 20.2516C15.0738 20.0898 14.4825 19.6998 12.6971 19.6998C12.5695 19.6998 12.4441 19.7025 12.3208 19.7079C12.3718 20.0579 12.3981 20.4306 12.3981 20.828C12.3981 22.0348 11.837 23.3611 10.9716 24.3718C10.0847 25.4076 8.74585 26.2637 7.07734 26.2639H7.07725C6.1903 26.2639 5.43064 25.9059 4.90533 25.3066C4.39998 24.7301 4.1649 23.9935 4.1649 23.2895C4.1649 22.5968 4.42761 21.8685 4.79202 21.2254C5.17137 20.556 5.72127 19.8708 6.43153 19.2545C6.95476 18.8006 7.56777 18.3817 8.2683 18.0329C7.9904 17.8659 7.66898 17.6984 7.295 17.5073C7.27042 17.4947 7.24557 17.4821 7.22045 17.4692C6.46662 17.0845 5.47764 16.5798 4.71144 15.7315C3.85739 14.7859 3.36206 13.5257 3.36206 11.8023C3.36206 10.1393 4.11195 8.70571 5.14436 7.54656C6.17301 6.39163 7.54531 5.43266 8.98391 4.67031ZM9.75756 20.2709C9.1041 20.5501 8.56108 20.9072 8.1244 21.2861C7.6304 21.7147 7.27709 22.1673 7.05432 22.5604C6.8166 22.9799 6.77824 23.2387 6.77824 23.2895C6.77824 23.4061 6.81914 23.49 6.85319 23.5288C6.86784 23.5455 6.88439 23.5584 6.90797 23.569C6.93125 23.5795 6.98273 23.5972 7.07717 23.5972M9.75756 20.2709C9.77524 20.4405 9.7848 20.6255 9.7848 20.828C9.7848 21.2622 9.54313 21.9871 9.00353 22.6173C8.48544 23.2225 7.81724 23.5971 7.07725 23.5972" fill="#F165A0"/>
</svg>
