<svg width="30" height="30" viewBox="0 0 30 30" fill="none" xmlns="http://www.w3.org/2000/svg">
<path fill-rule="evenodd" clip-rule="evenodd" d="M10.672 5.80618C13.4072 4.35676 16.682 3.5 18.8469 3.5C20.1067 3.5 21.5023 3.70924 22.6295 4.34928C23.8321 5.0321 24.7155 6.21369 24.7155 7.92306C24.7155 10.4902 23.1818 12.2206 21.5115 13.2448C19.8645 14.2548 17.9085 14.7051 16.5387 14.7051C15.5002 14.7051 14.6661 14.5577 14.0253 14.3505C13.4213 14.1552 12.9016 13.8776 12.575 13.5438C12.0864 13.0444 12.087 12.2354 12.5764 11.7368C13.0633 11.2407 13.8505 11.2388 14.3397 11.7305C14.3306 11.7213 14.3259 11.7168 14.3263 11.7163C14.3283 11.7136 14.4551 11.8087 14.782 11.9144C15.1543 12.0348 15.7307 12.1495 16.5387 12.1495C17.4771 12.1495 18.9834 11.8135 20.2215 11.0543C21.4365 10.3093 22.211 9.28752 22.211 7.92306C22.211 7.27356 21.9403 6.88252 21.4118 6.5824C20.8079 6.23952 19.8952 6.05556 18.8469 6.05556C17.1649 6.05556 14.2845 6.77144 11.8263 8.07414C10.6083 8.71961 9.56713 9.47153 8.84583 10.2814C8.12814 11.0872 7.78887 11.8757 7.78887 12.641C7.78887 13.7415 8.08357 14.303 8.41919 14.6746C8.81453 15.1123 9.36661 15.4102 10.1749 15.8233C10.1985 15.8353 10.2223 15.8475 10.2464 15.8597C10.9688 16.2284 11.9166 16.7121 12.6508 17.5251C12.7157 17.5968 12.7783 17.6705 12.8388 17.7461C13.2819 17.6861 13.7459 17.6539 14.2306 17.6539C16.1982 17.6539 17.5551 18.0665 18.4005 18.8943C19.2841 19.7595 19.3297 20.8048 19.3297 21.2906C19.3297 21.9307 19.0804 22.4897 18.872 22.856C18.6532 23.2405 18.3928 23.5631 18.1943 23.766C17.7057 24.2654 16.9129 24.2661 16.4234 23.7676C15.934 23.269 15.9333 22.46 16.4219 21.9605C16.4799 21.9013 16.6042 21.7521 16.706 21.573C16.7548 21.4873 16.7881 21.4125 16.8077 21.3538C16.8217 21.3117 16.8247 21.2897 16.8253 21.2857C16.8249 20.9887 16.786 20.8553 16.6665 20.7382C16.5082 20.5832 15.9416 20.2094 14.2306 20.2094C14.1083 20.2094 13.988 20.2121 13.8699 20.2172C13.9188 20.5526 13.944 20.9098 13.944 21.2906C13.944 22.4472 13.4062 23.7182 12.5769 24.6868C11.727 25.6795 10.4439 26.4999 8.8449 26.5H8.84482C7.99482 26.5 7.26681 26.1569 6.76339 25.5826C6.27909 25.0301 6.05381 24.3242 6.05381 23.6496C6.05381 22.9857 6.30557 22.2877 6.6548 21.6715C7.01835 21.03 7.54533 20.3733 8.226 19.7827C8.72743 19.3477 9.31489 18.9463 9.98624 18.612C9.71992 18.452 9.41189 18.2915 9.05349 18.1083C9.02994 18.0963 9.00612 18.0841 8.98205 18.0718C8.25963 17.7032 7.31186 17.2195 6.57758 16.4065C5.75912 15.5003 5.28442 14.2926 5.28442 12.641C5.28442 11.0473 6.00307 9.67345 6.99246 8.56259C7.97825 7.45578 9.29337 6.53677 10.672 5.80618ZM11.4134 20.7568C10.7872 21.0243 10.2668 21.3665 9.84833 21.7296C9.37491 22.1404 9.03633 22.5741 8.82284 22.9508C8.59502 23.3528 8.55826 23.6009 8.55826 23.6496C8.55826 23.7613 8.59746 23.8417 8.63009 23.8789C8.64413 23.8949 8.65999 23.9073 8.68259 23.9175C8.7049 23.9275 8.75423 23.9444 8.84473 23.9444M11.4134 20.7568C11.4304 20.9192 11.4395 21.0965 11.4395 21.2906C11.4395 21.7067 11.208 22.4014 10.6908 23.0054C10.1943 23.5853 9.55397 23.9444 8.84482 23.9444" fill="#F165A0"/>
</svg>
