<svg width="27" height="27" viewBox="0 0 27 27" fill="none" xmlns="http://www.w3.org/2000/svg">
<path fill-rule="evenodd" clip-rule="evenodd" d="M9.17203 4.30618C11.9072 2.85676 15.182 2 17.3469 2C18.6067 2 20.0023 2.20924 21.1295 2.84928C22.3321 3.5321 23.2155 4.71369 23.2155 6.42306C23.2155 8.99021 21.6818 10.7206 20.0115 11.7448C18.3645 12.7548 16.4085 13.2051 15.0387 13.2051C14.0002 13.2051 13.1661 13.0577 12.5253 12.8505C11.9213 12.6552 11.4016 12.3776 11.075 12.0438C10.5864 11.5444 10.587 10.7354 11.0764 10.2368C11.5633 9.74071 12.3505 9.73878 12.8397 10.2305C12.8306 10.2213 12.8259 10.2168 12.8263 10.2163C12.8283 10.2136 12.9551 10.3087 13.282 10.4144C13.6543 10.5348 14.2307 10.6495 15.0387 10.6495C15.9771 10.6495 17.4834 10.3135 18.7215 9.55431C19.9365 8.80929 20.711 7.78752 20.711 6.42306C20.711 5.77356 20.4403 5.38252 19.9118 5.0824C19.3079 4.73952 18.3952 4.55556 17.3469 4.55556C15.6649 4.55556 12.7845 5.27144 10.3263 6.57414C9.10826 7.21961 8.06713 7.97153 7.34583 8.78138C6.62814 9.58719 6.28887 10.3757 6.28887 11.141C6.28887 12.2415 6.58357 12.803 6.91919 13.1746C7.31453 13.6123 7.86661 13.9102 8.67493 14.3233C8.69847 14.3353 8.72229 14.3475 8.74636 14.3597C9.46878 14.7284 10.4166 15.2121 11.1508 16.0251C11.2157 16.0968 11.2783 16.1705 11.3388 16.2461C11.7819 16.1861 12.2459 16.1539 12.7306 16.1539C14.6982 16.1539 16.0551 16.5665 16.9005 17.3943C17.7841 18.2595 17.8297 19.3048 17.8297 19.7906C17.8297 20.4307 17.5804 20.9897 17.372 21.356C17.1532 21.7405 16.8928 22.0631 16.6943 22.266C16.2057 22.7654 15.4129 22.7661 14.9234 22.2676C14.434 21.769 14.4333 20.96 14.9219 20.4605C14.9799 20.4013 15.1042 20.2521 15.206 20.073C15.2548 19.9873 15.2881 19.9125 15.3077 19.8538C15.3217 19.8117 15.3247 19.7897 15.3253 19.7857C15.3249 19.4887 15.286 19.3553 15.1665 19.2382C15.0082 19.0832 14.4416 18.7094 12.7306 18.7094C12.6083 18.7094 12.488 18.7121 12.3699 18.7172C12.4188 19.0526 12.444 19.4098 12.444 19.7906C12.444 20.9472 11.9062 22.2182 11.0769 23.1868C10.227 24.1795 8.94389 24.9999 7.3449 25H7.34482C6.49482 25 5.76681 24.6569 5.26339 24.0826C4.77909 23.5301 4.55381 22.8242 4.55381 22.1496C4.55381 21.4857 4.80557 20.7877 5.1548 20.1715C5.51835 19.53 6.04533 18.8733 6.726 18.2827C7.22743 17.8477 7.81489 17.4463 8.48624 17.112C8.21992 16.952 7.91189 16.7915 7.55349 16.6083C7.52994 16.5963 7.50612 16.5841 7.48205 16.5718C6.75963 16.2032 5.81186 15.7195 5.07758 14.9065C4.25912 14.0003 3.78442 12.7926 3.78442 11.141C3.78442 9.54734 4.50307 8.17345 5.49246 7.06259C6.47825 5.95578 7.79337 5.03677 9.17203 4.30618ZM9.91345 19.2568C9.28721 19.5243 8.76682 19.8665 8.34833 20.2296C7.87491 20.6404 7.53633 21.0741 7.32284 21.4508C7.09502 21.8528 7.05826 22.1009 7.05826 22.1496C7.05826 22.2613 7.09746 22.3417 7.13009 22.3789C7.14413 22.3949 7.15999 22.4073 7.18259 22.4175C7.2049 22.4275 7.25423 22.4444 7.34473 22.4444M9.91345 19.2568C9.93038 19.4192 9.93955 19.5965 9.93955 19.7906C9.93955 20.2067 9.70795 20.9014 9.19084 21.5054C8.69433 22.0853 8.05397 22.4444 7.34482 22.4444" fill="#F165A0"/>
</svg>
