<svg width="27" height="28" viewBox="0 0 27 28" fill="none" xmlns="http://www.w3.org/2000/svg">
<g clip-path="url(#clip0_242_373)">
<path fill-rule="evenodd" clip-rule="evenodd" d="M1.93934 4.32301C2.52513 3.73722 3.47487 3.73722 4.06066 4.32301L11.5607 11.823C12.1464 12.4088 12.1464 13.3585 11.5607 13.9443L4.06066 21.4443C3.47487 22.0301 2.52513 22.0301 1.93934 21.4443C1.35355 20.8585 1.35355 19.9088 1.93934 19.323L8.37868 12.8837L1.93934 6.44433C1.35355 5.85854 1.35355 4.90879 1.93934 4.32301ZM12 23.3837C12 22.5552 12.6716 21.8837 13.5 21.8837H24C24.8284 21.8837 25.5 22.5552 25.5 23.3837C25.5 24.2121 24.8284 24.8837 24 24.8837H13.5C12.6716 24.8837 12 24.2121 12 23.3837Z" fill="#A67CF8"/>
</g>
<defs>
<clipPath id="clip0_242_373">
<rect width="24" height="24" fill="white" transform="translate(1.5 2.38367)"/>
</clipPath>
</defs>
</svg>
