<svg width="27" height="27" viewBox="0 0 27 27" fill="none" xmlns="http://www.w3.org/2000/svg">
<g clip-path="url(#clip0_149_555)">
<path d="M13.4802 5.34906V21.6509ZM13.4802 5.34906C13.8405 5.34906 14.1861 5.20593 14.4408 4.95116C14.6956 4.6964 14.8387 4.35086 14.8387 3.99057C14.8387 3.63027 14.6956 3.28473 14.4408 3.02997C14.1861 2.7752 13.8405 2.63208 13.4802 2.63208C13.1199 2.63208 12.7744 2.7752 12.5196 3.02997C12.2649 3.28473 12.1218 3.63027 12.1218 3.99057C12.1218 4.35086 12.2649 4.6964 12.5196 4.95116C12.7744 5.20593 13.1199 5.34906 13.4802 5.34906ZM13.4802 24.3679C13.8405 24.3679 14.1861 24.2248 14.4408 23.97C14.6956 23.7153 14.8387 23.3697 14.8387 23.0094C14.8387 22.6491 14.6956 22.3036 14.4408 22.0488C14.1861 21.7941 13.8405 21.6509 13.4802 21.6509C13.1199 21.6509 12.7744 21.7941 12.5196 22.0488C12.2649 22.3036 12.1218 22.6491 12.1218 23.0094C12.1218 23.3697 12.2649 23.7153 12.5196 23.97C12.7744 24.2248 13.1199 24.3679 13.4802 24.3679ZM20.539 17.5755L6.42153 9.42453ZM20.539 17.5755C20.4483 17.73 20.3892 17.901 20.3649 18.0785C20.3407 18.256 20.3517 18.4365 20.3975 18.6098C20.4433 18.783 20.5229 18.9454 20.6318 19.0877C20.7406 19.23 20.8765 19.3494 21.0316 19.439C21.1868 19.5286 21.3581 19.5866 21.5358 19.6097C21.7135 19.6328 21.8939 19.6205 22.0668 19.5736C22.2397 19.5266 22.4016 19.4459 22.5432 19.3362C22.6848 19.2264 22.8033 19.0897 22.8919 18.934C23.0692 18.6221 23.1159 18.2528 23.0219 17.9066C22.9279 17.5604 22.7008 17.2654 22.3902 17.086C22.0795 16.9067 21.7105 16.8575 21.3637 16.9492C21.0169 17.0408 20.7204 17.266 20.539 17.5755ZM4.06862 8.06604C3.97801 8.22059 3.91887 8.39155 3.8946 8.56905C3.87033 8.74656 3.88141 8.92711 3.9272 9.10032C3.97299 9.27353 4.0526 9.43596 4.16142 9.57828C4.27025 9.7206 4.40615 9.83998 4.5613 9.92957C4.71646 10.0191 4.8878 10.0772 5.06546 10.1002C5.24313 10.1233 5.4236 10.1111 5.5965 10.0641C5.7694 10.0172 5.93131 9.9365 6.0729 9.82673C6.21449 9.71697 6.33298 9.58027 6.42153 9.42453C6.59883 9.11268 6.64559 8.74335 6.5516 8.39715C6.45761 8.05095 6.2305 7.75598 5.91983 7.57661C5.60916 7.39724 5.24015 7.34803 4.89333 7.43972C4.54652 7.53141 4.25005 7.75656 4.06862 8.06604ZM20.539 9.42453L6.42153 17.5755ZM20.539 9.42453C20.6275 9.58027 20.746 9.71697 20.8876 9.82673C21.0292 9.9365 21.1911 10.0172 21.364 10.0641C21.5369 10.1111 21.7174 10.1233 21.895 10.1002C22.0727 10.0772 22.244 10.0191 22.3992 9.92957C22.5543 9.83998 22.6902 9.7206 22.7991 9.57828C22.9079 9.43596 22.9875 9.27353 23.0333 9.10032C23.0791 8.92711 23.0902 8.74656 23.0659 8.56905C23.0416 8.39155 22.9825 8.22059 22.8919 8.06604C22.7104 7.75656 22.414 7.53141 22.0672 7.43972C21.7203 7.34803 21.3513 7.39724 21.0407 7.57661C20.73 7.75598 20.5029 8.05095 20.4089 8.39715C20.3149 8.74335 20.3617 9.11268 20.539 9.42453ZM4.06862 18.934C4.15717 19.0897 4.27565 19.2264 4.41724 19.3362C4.55884 19.4459 4.72074 19.5266 4.89364 19.5736C5.06654 19.6205 5.24702 19.6328 5.42468 19.6097C5.60234 19.5866 5.77368 19.5286 5.92884 19.439C6.08399 19.3494 6.21989 19.23 6.32872 19.0877C6.43755 18.9454 6.51715 18.783 6.56294 18.6098C6.60873 18.4365 6.61982 18.256 6.59555 18.0785C6.57127 17.901 6.51213 17.73 6.42153 17.5755C6.2401 17.266 5.94363 17.0408 5.59681 16.9492C5.24999 16.8575 4.88099 16.9067 4.57032 17.086C4.25965 17.2654 4.03254 17.5604 3.93855 17.9066C3.84455 18.2528 3.89131 18.6221 4.06862 18.934Z" fill="#F17F66"/>
<path fill-rule="evenodd" clip-rule="evenodd" d="M11.7191 2.22947C12.1862 1.7624 12.8197 1.5 13.4802 1.5C14.1408 1.5 14.7743 1.7624 15.2413 2.22947C15.7084 2.69654 15.9708 3.33003 15.9708 3.99057C15.9708 4.6511 15.7084 5.28459 15.2413 5.75166V5.75166C14.9025 6.09053 14.6123 6.51063 14.6123 6.98986V7.60126C14.6123 8.77122 14.6123 9.3562 14.8258 9.71227C15.0923 10.1569 15.5694 10.4323 16.0877 10.4408C16.5028 10.4477 17.0094 10.1552 18.0226 9.57016L18.5575 9.26132C18.9718 9.02211 19.191 8.56223 19.3164 8.10054V8.10054C19.4887 7.46584 19.905 6.92506 20.4746 6.59621C21.0442 6.26736 21.7207 6.17715 22.3565 6.34525C22.9923 6.51336 23.5359 6.92613 23.8685 7.4935C24.0346 7.77684 24.143 8.09025 24.1875 8.41569C24.232 8.74113 24.2117 9.07214 24.1278 9.38968C24.0438 9.70723 23.8979 10.005 23.6983 10.2659C23.4988 10.5269 23.2497 10.7457 22.9652 10.91C22.6808 11.0742 22.3667 11.1805 22.0409 11.2229C21.7152 11.2652 21.3844 11.2427 21.0674 11.1566V11.1566C20.6041 11.0309 20.0942 10.9885 19.6785 11.2286L19.1476 11.5351C18.1405 12.1165 17.637 12.4072 17.4354 12.7672C17.1806 13.2225 17.1806 13.7775 17.4354 14.2328C17.637 14.5928 18.1405 14.8835 19.1476 15.4649L19.6896 15.7779C20.1039 16.0171 20.6118 15.977 21.0743 15.8547V15.8547C21.7101 15.6866 22.3867 15.7768 22.9562 16.1056C23.5258 16.4345 23.9421 16.9753 24.1145 17.61C24.2868 18.2447 24.2011 18.9218 23.876 19.4935C23.7137 19.779 23.4964 20.0296 23.2369 20.2309C22.9773 20.4321 22.6804 20.58 22.3635 20.6661C22.0465 20.7521 21.7156 20.7746 21.3899 20.7323C21.0642 20.69 20.75 20.5836 20.4656 20.4194C20.1811 20.2552 19.932 20.0363 19.7325 19.7754C19.533 19.5145 19.387 19.2167 19.3031 18.8991V18.8991C19.1804 18.435 18.9621 17.9723 18.5464 17.7322L18.0155 17.4257C17.0086 16.8444 16.5051 16.5537 16.0927 16.5591C15.5708 16.5659 15.0901 16.8435 14.8232 17.292C14.6123 17.6465 14.6123 18.2278 14.6123 19.3906V20.0101C14.6123 20.4894 14.9025 20.9095 15.2413 21.2483V21.2483C15.7084 21.7154 15.9708 22.3489 15.9708 23.0094C15.9708 23.67 15.7084 24.3035 15.2413 24.7705C14.7743 25.2376 14.1408 25.5 13.4802 25.5C12.8197 25.5 12.1862 25.2376 11.7191 24.7705C11.2521 24.3035 10.9897 23.67 10.9897 23.0094C10.9897 22.3489 11.2521 21.7154 11.7191 21.2483V21.2483C12.058 20.9095 12.3482 20.4894 12.3482 20.0101V19.3906C12.3482 18.2278 12.3482 17.6465 12.1373 17.292C11.8704 16.8435 11.3897 16.5659 10.8678 16.5591C10.4554 16.5537 9.9519 16.8444 8.94495 17.4257L8.41412 17.7322C7.9984 17.9723 7.78011 18.435 7.65741 18.8991V18.8991C7.57346 19.2167 7.42752 19.5145 7.22801 19.7754C7.02849 20.0363 6.77934 20.2552 6.49489 20.4194C6.21044 20.5836 5.89632 20.69 5.5706 20.7323C5.24489 20.7746 4.91401 20.7521 4.59703 20.6661C4.28005 20.58 3.98322 20.4321 3.72363 20.2309C3.46404 20.0296 3.24683 19.779 3.08449 19.4935C2.75943 18.9218 2.6737 18.2447 2.84602 17.61C3.01833 16.9753 3.4347 16.4345 4.00427 16.1056C4.57383 15.7768 5.25034 15.6866 5.88617 15.8547V15.8547C6.34868 15.977 6.85654 16.0171 7.27085 15.7779L7.81291 15.4649C8.81997 14.8835 9.3235 14.5928 9.52504 14.2328C9.77993 13.7775 9.77993 13.2225 9.52504 12.7672C9.3235 12.4072 8.81997 12.1165 7.81291 11.5351L7.28203 11.2286C6.8663 10.9885 6.35639 11.0309 5.89312 11.1566V11.1566C5.57613 11.2427 5.24526 11.2652 4.91954 11.2229C4.59383 11.1805 4.27971 11.0742 3.99525 10.91C3.71081 10.7457 3.46165 10.5269 3.26214 10.2659C3.06262 10.005 2.91669 9.70723 2.83273 9.38968C2.74878 9.07214 2.72846 8.74112 2.77296 8.41569C2.81746 8.09026 2.92588 7.77685 3.092 7.4935C3.42461 6.92613 3.96814 6.51336 4.60397 6.34525C5.2398 6.17715 5.91632 6.26736 6.48588 6.59621C7.05544 6.92506 7.47181 7.46584 7.64412 8.10054V8.10054C7.76947 8.56223 7.98864 9.02211 8.40295 9.26132L8.93787 9.57016C9.95108 10.1552 10.4577 10.4477 10.8728 10.4408C11.3911 10.4323 11.8682 10.1569 12.1347 9.71227C12.3482 9.3562 12.3482 8.77122 12.3482 7.60126V6.98986C12.3482 6.51063 12.058 6.09053 11.7191 5.75166V5.75166C11.2521 5.28459 10.9897 4.6511 10.9897 3.99057C10.9897 3.33003 11.2521 2.69654 11.7191 2.22947ZM13.4802 3.76415C13.4202 3.76415 13.3626 3.78801 13.3201 3.83047C13.2777 3.87293 13.2538 3.93051 13.2538 3.99057C13.2538 4.05062 13.2777 4.10821 13.3201 4.15067C13.3626 4.19313 13.4202 4.21698 13.4802 4.21698C13.5403 4.21698 13.5979 4.19313 13.6403 4.15067C13.6828 4.10821 13.7067 4.05062 13.7067 3.99057C13.7067 3.93051 13.6828 3.87293 13.6403 3.83047C13.5979 3.78801 13.5403 3.76415 13.4802 3.76415ZM5.35378 8.55701C5.302 8.52711 5.2405 8.51891 5.18269 8.53419C5.12489 8.54947 5.07548 8.587 5.04524 8.63858C5.03014 8.66434 5.02028 8.69283 5.01624 8.72242C5.01219 8.752 5.01404 8.78209 5.02167 8.81096C5.0293 8.83983 5.04257 8.8669 5.06071 8.89062C5.07885 8.91434 5.1015 8.93424 5.12735 8.94917C5.15321 8.96409 5.18177 8.97376 5.21138 8.97761C5.241 8.98146 5.27107 8.97942 5.29989 8.97159C5.32871 8.96377 5.3557 8.95032 5.37929 8.93203C5.40289 8.91374 5.42263 8.89095 5.43739 8.86499C5.46694 8.81302 5.47474 8.75147 5.45907 8.69377C5.4434 8.63606 5.40555 8.5869 5.35378 8.55701ZM21.7778 8.53419C21.72 8.51891 21.6585 8.52711 21.6067 8.55701C21.5549 8.5869 21.5171 8.63606 21.5014 8.69377C21.4857 8.75147 21.4935 8.81302 21.5231 8.86499C21.5379 8.89095 21.5576 8.91374 21.5812 8.93203C21.6048 8.95032 21.6318 8.96377 21.6606 8.97159C21.6894 8.97942 21.7195 8.98146 21.7491 8.97761C21.7787 8.97376 21.8073 8.96409 21.8331 8.94917C21.859 8.93424 21.8816 8.91434 21.8998 8.89062C21.9179 8.8669 21.9312 8.83983 21.9388 8.81096C21.9464 8.78208 21.9483 8.75199 21.9442 8.72242C21.9402 8.69284 21.9303 8.66435 21.9152 8.63858C21.885 8.58699 21.8356 8.54947 21.7778 8.53419ZM21.8241 18.0664C21.7723 18.0365 21.7108 18.0283 21.653 18.0436C21.5952 18.0589 21.5458 18.0964 21.5156 18.148C21.5005 18.1738 21.4906 18.2023 21.4866 18.2318C21.4825 18.2614 21.4844 18.2915 21.492 18.3204C21.4996 18.3493 21.5129 18.3763 21.5311 18.4001C21.5492 18.4238 21.5718 18.4437 21.5977 18.4586C21.6236 18.4735 21.6521 18.4832 21.6817 18.487C21.7113 18.4909 21.7414 18.4888 21.7702 18.481C21.7991 18.4732 21.826 18.4598 21.8496 18.4415C21.8732 18.4232 21.893 18.4004 21.9077 18.3744C21.9373 18.3225 21.9451 18.2609 21.9294 18.2032C21.9137 18.1455 21.8759 18.0963 21.8241 18.0664ZM5.30745 18.0436C5.24965 18.0283 5.18815 18.0365 5.13637 18.0664C5.08459 18.0963 5.04674 18.1455 5.03107 18.2032C5.01541 18.2609 5.0232 18.3225 5.05275 18.3744C5.06751 18.4004 5.08726 18.4232 5.11086 18.4415C5.13445 18.4598 5.16143 18.4732 5.19025 18.481C5.21907 18.4888 5.24915 18.4909 5.27876 18.487C5.30837 18.4832 5.33693 18.4735 5.36279 18.4586C5.38865 18.4437 5.4113 18.4238 5.42943 18.4001C5.44757 18.3763 5.46084 18.3493 5.46847 18.3204C5.4761 18.2915 5.47795 18.2614 5.47391 18.2318C5.46986 18.2023 5.46 18.1738 5.4449 18.148C5.41466 18.0964 5.36525 18.0589 5.30745 18.0436ZM13.4802 22.783C13.4202 22.783 13.3626 22.8069 13.3201 22.8493C13.2777 22.8918 13.2538 22.9494 13.2538 23.0094C13.2538 23.0695 13.2777 23.1271 13.3201 23.1695C13.3626 23.212 13.4202 23.2358 13.4802 23.2358C13.5403 23.2358 13.5979 23.212 13.6403 23.1695C13.6828 23.1271 13.7067 23.0695 13.7067 23.0094C13.7067 22.9494 13.6828 22.8918 13.6403 22.8493C13.5979 22.8069 13.5403 22.783 13.4802 22.783Z" fill="#F17F66"/>
</g>
<defs>
<clipPath id="clip0_149_555">
<rect width="24" height="24" fill="white" transform="translate(1.5 1.5)"/>
</clipPath>
</defs>
</svg>
