<svg width="27" height="27" viewBox="0 0 27 27" fill="none" xmlns="http://www.w3.org/2000/svg">
<path d="M13.5001 6.0283V20.9717ZM13.5001 6.0283C13.8304 6.0283 14.1471 5.8971 14.3807 5.66357C14.6142 5.43003 14.7454 5.11329 14.7454 4.78302C14.7454 4.45275 14.6142 4.13601 14.3807 3.90247C14.1471 3.66894 13.8304 3.53774 13.5001 3.53774C13.1698 3.53774 12.8531 3.66894 12.6196 3.90247C12.386 4.13601 12.2548 4.45275 12.2548 4.78302C12.2548 5.11329 12.386 5.43003 12.6196 5.66357C12.8531 5.8971 13.1698 6.0283 13.5001 6.0283ZM13.5001 23.4623C13.8304 23.4623 14.1471 23.3311 14.3807 23.0975C14.6142 22.864 14.7454 22.5473 14.7454 22.217C14.7454 21.8867 14.6142 21.57 14.3807 21.3364C14.1471 21.1029 13.8304 20.9717 13.5001 20.9717C13.1698 20.9717 12.8531 21.1029 12.6196 21.3364C12.386 21.57 12.2548 21.8867 12.2548 22.217C12.2548 22.5473 12.386 22.864 12.6196 23.0975C12.8531 23.3311 13.1698 23.4623 13.5001 23.4623ZM19.9706 17.2358L7.02963 9.76415ZM19.9706 17.2358C19.8875 17.3775 19.8333 17.5342 19.8111 17.6969C19.7888 17.8597 19.799 18.0252 19.841 18.1839C19.883 18.3427 19.9559 18.4916 20.0557 18.6221C20.1554 18.7525 20.28 18.862 20.4222 18.9441C20.5645 19.0262 20.7215 19.0794 20.8844 19.1005C21.0472 19.1217 21.2127 19.1105 21.3712 19.0674C21.5297 19.0244 21.6781 18.9504 21.8079 18.8498C21.9377 18.7492 22.0463 18.6239 22.1274 18.4811C22.29 18.1953 22.3328 17.8567 22.2467 17.5394C22.1605 17.222 21.9523 16.9516 21.6675 16.7872C21.3828 16.6228 21.0445 16.5777 20.7266 16.6617C20.4087 16.7458 20.1369 16.9522 19.9706 17.2358ZM4.8728 8.51887C4.78974 8.66054 4.73553 8.81725 4.71328 8.97997C4.69103 9.14268 4.70119 9.30819 4.74316 9.46696C4.78514 9.62573 4.85811 9.77463 4.95787 9.90509C5.05762 10.0356 5.1822 10.145 5.32442 10.2271C5.46665 10.3092 5.62371 10.3624 5.78657 10.3836C5.94943 10.4047 6.11486 10.3935 6.27336 10.3504C6.43185 10.3074 6.58026 10.2335 6.71006 10.1328C6.83985 10.0322 6.94846 9.90692 7.02963 9.76415C7.19216 9.47829 7.23502 9.13974 7.14886 8.82239C7.0627 8.50504 6.85452 8.23465 6.56974 8.07022C6.28496 7.9058 5.9467 7.86069 5.62878 7.94474C5.31087 8.0288 5.03911 8.23518 4.8728 8.51887ZM19.9706 9.76415L7.02963 17.2358ZM19.9706 9.76415C20.0518 9.90692 20.1604 10.0322 20.2902 10.1328C20.42 10.2335 20.5684 10.3074 20.7269 10.3504C20.8854 10.3935 21.0508 10.4047 21.2137 10.3836C21.3765 10.3624 21.5336 10.3092 21.6758 10.2271C21.818 10.145 21.9426 10.0356 22.0424 9.90509C22.1421 9.77463 22.2151 9.62573 22.2571 9.46696C22.299 9.30819 22.3092 9.14268 22.287 8.97997C22.2647 8.81725 22.2105 8.66054 22.1274 8.51887C21.9611 8.23518 21.6894 8.0288 21.3715 7.94474C21.0535 7.86069 20.7153 7.9058 20.4305 8.07022C20.1457 8.23465 19.9375 8.50504 19.8514 8.82239C19.7652 9.13974 19.8081 9.47829 19.9706 9.76415ZM4.8728 18.4811C4.95397 18.6239 5.06258 18.7492 5.19237 18.8498C5.32216 18.9504 5.47058 19.0244 5.62907 19.0674C5.78756 19.1105 5.95299 19.1217 6.11585 19.1005C6.27871 19.0794 6.43577 19.0262 6.578 18.9441C6.72022 18.862 6.8448 18.7525 6.94456 18.6221C7.04431 18.4916 7.11728 18.3427 7.15926 18.1839C7.20124 18.0252 7.21139 17.8597 7.18915 17.6969C7.1669 17.5342 7.11268 17.3775 7.02963 17.2358C6.86332 16.9522 6.59155 16.7458 6.27364 16.6617C5.95572 16.5777 5.61747 16.6228 5.33269 16.7872C5.04791 16.9516 4.83972 17.222 4.75356 17.5394C4.6674 17.8567 4.71027 18.1953 4.8728 18.4811Z" fill="#F17F66"/>
<path fill-rule="evenodd" clip-rule="evenodd" d="M11.8858 3.16868C12.3139 2.74053 12.8946 2.5 13.5001 2.5C14.1056 2.5 14.6863 2.74053 15.1145 3.16868C15.5426 3.59683 15.7831 4.17753 15.7831 4.78302C15.7831 5.38851 15.5426 5.96921 15.1145 6.39736V6.39736C14.8038 6.70799 14.5379 7.09308 14.5379 7.53237V8.09282C14.5379 8.97399 14.5379 9.41457 14.6608 9.69927C14.9234 10.3072 15.5535 10.6709 16.2113 10.5944C16.5193 10.5585 16.9009 10.3382 17.664 9.89765L18.1543 9.61454C18.5341 9.39527 18.735 8.97371 18.8499 8.55049V8.55049C19.0078 7.96869 19.3895 7.47297 19.9116 7.17152C20.4337 6.87008 21.0539 6.78739 21.6367 6.94148C22.2195 7.09558 22.7178 7.47396 23.0227 7.99404C23.1749 8.25377 23.2743 8.54107 23.3151 8.83938C23.3559 9.1377 23.3373 9.44113 23.2603 9.73221C23.1834 10.0233 23.0496 10.2963 22.8667 10.5354C22.6838 10.7746 22.4554 10.9753 22.1947 11.1258C21.9339 11.2763 21.646 11.3738 21.3474 11.4126C21.0489 11.4514 20.7456 11.4308 20.455 11.3519V11.3519C20.0303 11.2366 19.5629 11.1978 19.1818 11.4179L18.6952 11.6988C17.9377 12.1362 17.5589 12.3549 17.3745 12.6013C16.9758 13.1341 16.9758 13.8659 17.3745 14.3987C17.5589 14.6451 17.9377 14.8638 18.6952 15.3012L19.1921 15.5881C19.5718 15.8073 20.0374 15.7706 20.4614 15.6585V15.6585C21.0442 15.5044 21.6643 15.5871 22.1864 15.8885C22.7085 16.19 23.0902 16.6857 23.2482 17.2675C23.4061 17.8493 23.3275 18.47 23.0296 18.994C22.8807 19.2558 22.6816 19.4855 22.4437 19.67C22.2057 19.8544 21.9336 19.99 21.6431 20.0689C21.3525 20.1478 21.0492 20.1684 20.7506 20.1296C20.452 20.0908 20.1641 19.9933 19.9034 19.8428C19.6426 19.6922 19.4142 19.4916 19.2313 19.2524C19.0484 19.0133 18.9147 18.7403 18.8377 18.4492V18.4492C18.7252 18.0238 18.5251 17.5996 18.1441 17.3795L17.6575 17.0986C16.9001 16.6613 16.5213 16.4426 16.2158 16.4061C15.5549 16.3272 14.9211 16.6931 14.659 17.3049C14.5379 17.5878 14.5379 18.0251 14.5379 18.8997V19.4676C14.5379 19.9069 14.8038 20.292 15.1145 20.6026V20.6026C15.5426 21.0308 15.7831 21.6115 15.7831 22.217C15.7831 22.8225 15.5426 23.4032 15.1145 23.8313C14.6863 24.2595 14.1056 24.5 13.5001 24.5C12.8946 24.5 12.3139 24.2595 11.8858 23.8313C11.4576 23.4032 11.2171 22.8225 11.2171 22.217C11.2171 21.6115 11.4576 21.0308 11.8858 20.6026V20.6026C12.1964 20.292 12.4624 19.9069 12.4624 19.4676V18.8997C12.4624 18.0251 12.4624 17.5878 12.3412 17.3049C12.0791 16.6931 11.4453 16.3272 10.7845 16.4061C10.4789 16.4426 10.1002 16.6613 9.34277 17.0986L8.85617 17.3795C8.47509 17.5996 8.275 18.0238 8.16252 18.4492V18.4492C8.08556 18.7403 7.95179 19.0133 7.7689 19.2524C7.58601 19.4916 7.35762 19.6922 7.09688 19.8428C6.83613 19.9933 6.54818 20.0908 6.24961 20.1296C5.95104 20.1684 5.64774 20.1478 5.35717 20.0689C5.06661 19.99 4.79452 19.8544 4.55656 19.67C4.3186 19.4855 4.11949 19.2558 3.97068 18.994C3.6727 18.47 3.59412 17.8493 3.75208 17.2675C3.91004 16.6857 4.2917 16.19 4.81381 15.8885C5.3359 15.5871 5.95604 15.5044 6.53889 15.6585V15.6585C6.96286 15.7706 7.42839 15.8073 7.80818 15.5881L8.30507 15.3012C9.06258 14.8638 9.44134 14.6451 9.62576 14.3987C10.0244 13.8659 10.0244 13.1341 9.62576 12.6013C9.44134 12.3549 9.06258 12.1362 8.30507 11.6988L7.81842 11.4179C7.43734 11.1978 6.96992 11.2366 6.54525 11.3519V11.3519C6.25468 11.4308 5.95138 11.4514 5.65281 11.4126C5.35424 11.3738 5.06629 11.2763 4.80555 11.1258C4.5448 10.9753 4.31641 10.7746 4.13352 10.5354C3.95063 10.2963 3.81686 10.0233 3.7399 9.73221C3.66294 9.44112 3.64432 9.13769 3.68511 8.83938C3.7259 8.54107 3.82529 8.25378 3.97756 7.99404C4.28246 7.47396 4.78069 7.09558 5.36354 6.94148C5.94638 6.78739 6.56652 6.87008 7.08862 7.17152C7.61072 7.47297 7.99239 7.96869 8.15034 8.55049V8.55049C8.26524 8.97371 8.46615 9.39527 8.84593 9.61454L9.33627 9.89765C10.0994 10.3382 10.4809 10.5585 10.789 10.5944C11.4467 10.6709 12.0768 10.3072 12.3394 9.69927C12.4624 9.41457 12.4624 8.97399 12.4624 8.09282V7.53237C12.4624 7.09308 12.1964 6.70799 11.8858 6.39736V6.39736C11.4576 5.96921 11.2171 5.38851 11.2171 4.78302C11.2171 4.17753 11.4576 3.59683 11.8858 3.16868ZM13.5001 4.57547C13.4451 4.57547 13.3923 4.59734 13.3534 4.63626C13.3144 4.67518 13.2926 4.72797 13.2926 4.78302C13.2926 4.83807 13.3144 4.89086 13.3534 4.92978C13.3923 4.9687 13.4451 4.99057 13.5001 4.99057C13.5552 4.99057 13.608 4.9687 13.6469 4.92978C13.6858 4.89086 13.7077 4.83807 13.7077 4.78302C13.7077 4.72797 13.6858 4.67518 13.6469 4.63626C13.608 4.59734 13.5552 4.57547 13.5001 4.57547ZM6.05086 8.96892C6.00339 8.94152 5.94702 8.934 5.89403 8.94801C5.84105 8.96202 5.79575 8.99641 5.76803 9.0437C5.75419 9.06731 5.74516 9.09343 5.74145 9.12055C5.73774 9.14767 5.73943 9.17525 5.74643 9.20171C5.75342 9.22817 5.76559 9.25299 5.78221 9.27474C5.79884 9.29648 5.8196 9.31472 5.8433 9.3284C5.86701 9.34209 5.89318 9.35095 5.92033 9.35448C5.94748 9.35801 5.97505 9.35613 6.00146 9.34896C6.02788 9.34179 6.05262 9.32946 6.07424 9.31269C6.09587 9.29593 6.11398 9.27504 6.12751 9.25125C6.15459 9.20361 6.16174 9.14718 6.14738 9.09428C6.13302 9.04139 6.09832 8.99632 6.05086 8.96892ZM21.1062 8.94801C21.0532 8.934 20.9968 8.94152 20.9494 8.96892C20.9019 8.99632 20.8672 9.04139 20.8529 9.09428C20.8385 9.14718 20.8456 9.2036 20.8727 9.25125C20.8863 9.27504 20.9044 9.29593 20.926 9.31269C20.9476 9.32946 20.9724 9.34179 20.9988 9.34896C21.0252 9.35613 21.0528 9.35801 21.0799 9.35448C21.107 9.35095 21.1332 9.34209 21.1569 9.3284C21.1806 9.31472 21.2014 9.29648 21.218 9.27474C21.2346 9.25299 21.2468 9.22817 21.2538 9.20171C21.2608 9.17524 21.2625 9.14766 21.2588 9.12055C21.2551 9.09344 21.246 9.06732 21.2322 9.0437C21.2045 8.99641 21.1592 8.96202 21.1062 8.94801ZM21.1487 17.6859C21.1012 17.6585 21.0448 17.651 20.9918 17.665C20.9389 17.679 20.8936 17.7134 20.8658 17.7607C20.852 17.7843 20.843 17.8104 20.8393 17.8375C20.8356 17.8646 20.8372 17.8922 20.8442 17.9187C20.8512 17.9452 20.8634 17.97 20.88 17.9917C20.8967 18.0135 20.9174 18.0317 20.9411 18.0454C20.9648 18.0591 20.991 18.0679 21.0181 18.0715C21.0453 18.075 21.0729 18.0731 21.0993 18.0659C21.1257 18.0588 21.1504 18.0464 21.1721 18.0297C21.1937 18.0129 21.2118 17.992 21.2253 17.9682C21.2524 17.9206 21.2595 17.8642 21.2452 17.8113C21.2308 17.7584 21.1961 17.7133 21.1487 17.6859ZM6.00839 17.665C5.95541 17.651 5.89903 17.6585 5.85157 17.6859C5.80411 17.7133 5.76941 17.7584 5.75505 17.8113C5.74069 17.8642 5.74783 17.9206 5.77492 17.9682C5.78845 17.992 5.80655 18.0129 5.82818 18.0297C5.84981 18.0464 5.87454 18.0588 5.90096 18.0659C5.92737 18.0731 5.95495 18.075 5.98209 18.0715C6.00924 18.0679 6.03541 18.0591 6.05912 18.0454C6.08282 18.0317 6.10358 18.0135 6.12021 17.9917C6.13684 17.97 6.149 17.9452 6.15599 17.9187C6.16299 17.8922 6.16468 17.8646 6.16098 17.8375C6.15727 17.8104 6.14823 17.7843 6.13439 17.7607C6.10667 17.7134 6.06138 17.679 6.00839 17.665ZM13.5001 22.0094C13.4451 22.0094 13.3923 22.0313 13.3534 22.0702C13.3144 22.1091 13.2926 22.1619 13.2926 22.217C13.2926 22.272 13.3144 22.3248 13.3534 22.3637C13.3923 22.4027 13.4451 22.4245 13.5001 22.4245C13.5552 22.4245 13.608 22.4027 13.6469 22.3637C13.6858 22.3248 13.7077 22.272 13.7077 22.217C13.7077 22.1619 13.6858 22.1091 13.6469 22.0702C13.608 22.0313 13.5552 22.0094 13.5001 22.0094Z" fill="#F17F66"/>
</svg>
