<svg width="27" height="28" viewBox="0 0 27 28" fill="none" xmlns="http://www.w3.org/2000/svg">
<g clip-path="url(#clip0_149_555)">
<path d="M13.4802 6.11291V22.4148ZM13.4802 6.11291C13.8405 6.11291 14.1861 5.96979 14.4408 5.71502C14.6956 5.46025 14.8387 5.11472 14.8387 4.75442C14.8387 4.39413 14.6956 4.04859 14.4408 3.79382C14.1861 3.53906 13.8405 3.39593 13.4802 3.39593C13.1199 3.39593 12.7744 3.53906 12.5196 3.79382C12.2649 4.04859 12.1218 4.39413 12.1218 4.75442C12.1218 5.11472 12.2649 5.46025 12.5196 5.71502C12.7744 5.96979 13.1199 6.11291 13.4802 6.11291ZM13.4802 25.1318C13.8405 25.1318 14.1861 24.9887 14.4408 24.7339C14.6956 24.4791 14.8387 24.1336 14.8387 23.7733C14.8387 23.413 14.6956 23.0675 14.4408 22.8127C14.1861 22.5579 13.8405 22.4148 13.4802 22.4148C13.1199 22.4148 12.7744 22.5579 12.5196 22.8127C12.2649 23.0675 12.1218 23.413 12.1218 23.7733C12.1218 24.1336 12.2649 24.4791 12.5196 24.7339C12.7744 24.9887 13.1199 25.1318 13.4802 25.1318ZM20.539 18.3393L6.42153 10.1884ZM20.539 18.3393C20.4483 18.4939 20.3892 18.6648 20.3649 18.8423C20.3407 19.0198 20.3517 19.2004 20.3975 19.3736C20.4433 19.5468 20.5229 19.7093 20.6318 19.8516C20.7406 19.9939 20.8765 20.1133 21.0316 20.2029C21.1868 20.2924 21.3581 20.3504 21.5358 20.3735C21.7135 20.3966 21.8939 20.3843 22.0668 20.3374C22.2397 20.2905 22.4016 20.2098 22.5432 20.1C22.6848 19.9903 22.8033 19.8536 22.8919 19.6978C23.0692 19.386 23.1159 19.0166 23.0219 18.6704C22.9279 18.3242 22.7008 18.0293 22.3902 17.8499C22.0795 17.6705 21.7105 17.6213 21.3637 17.713C21.0169 17.8047 20.7204 18.0299 20.539 18.3393ZM4.06862 8.82989C3.97801 8.98445 3.91887 9.1554 3.8946 9.33291C3.87033 9.51041 3.88141 9.69097 3.9272 9.86418C3.97299 10.0374 4.0526 10.1998 4.16142 10.3421C4.27025 10.4845 4.40615 10.6038 4.5613 10.6934C4.71646 10.783 4.8878 10.841 5.06546 10.8641C5.24313 10.8872 5.4236 10.8749 5.5965 10.828C5.7694 10.781 5.93131 10.7004 6.0729 10.5906C6.21449 10.4808 6.33298 10.3441 6.42153 10.1884C6.59883 9.87653 6.64559 9.50721 6.5516 9.16101C6.45761 8.81481 6.2305 8.51983 5.91983 8.34046C5.60916 8.16109 5.24015 8.11188 4.89333 8.20358C4.54652 8.29527 4.25005 8.52042 4.06862 8.82989ZM20.539 10.1884L6.42153 18.3393ZM20.539 10.1884C20.6275 10.3441 20.746 10.4808 20.8876 10.5906C21.0292 10.7004 21.1911 10.781 21.364 10.828C21.5369 10.8749 21.7174 10.8872 21.895 10.8641C22.0727 10.841 22.244 10.783 22.3992 10.6934C22.5543 10.6038 22.6902 10.4845 22.7991 10.3421C22.9079 10.1998 22.9875 10.0374 23.0333 9.86418C23.0791 9.69097 23.0902 9.51041 23.0659 9.33291C23.0416 9.1554 22.9825 8.98445 22.8919 8.82989C22.7104 8.52042 22.414 8.29527 22.0672 8.20358C21.7203 8.11188 21.3513 8.16109 21.0407 8.34046C20.73 8.51983 20.5029 8.81481 20.4089 9.16101C20.3149 9.50721 20.3617 9.87653 20.539 10.1884ZM4.06862 19.6978C4.15717 19.8536 4.27565 19.9903 4.41724 20.1C4.55884 20.2098 4.72074 20.2905 4.89364 20.3374C5.06654 20.3843 5.24702 20.3966 5.42468 20.3735C5.60234 20.3504 5.77368 20.2924 5.92884 20.2029C6.08399 20.1133 6.21989 19.9939 6.32872 19.8516C6.43755 19.7093 6.51715 19.5468 6.56294 19.3736C6.60873 19.2004 6.61982 19.0198 6.59555 18.8423C6.57127 18.6648 6.51213 18.4939 6.42153 18.3393C6.2401 18.0299 5.94363 17.8047 5.59681 17.713C5.24999 17.6213 4.88099 17.6705 4.57032 17.8499C4.25965 18.0293 4.03254 18.3242 3.93855 18.6704C3.84455 19.0166 3.89131 19.386 4.06862 19.6978Z" fill="#F17F66"/>
<path fill-rule="evenodd" clip-rule="evenodd" d="M11.7191 2.99333C12.1862 2.52625 12.8197 2.26385 13.4802 2.26385C14.1408 2.26385 14.7743 2.52625 15.2413 2.99333C15.7084 3.4604 15.9708 4.09389 15.9708 4.75442C15.9708 5.41496 15.7084 6.04844 15.2413 6.51552V6.51552C14.9025 6.85438 14.6123 7.27449 14.6123 7.75372V8.36511C14.6123 9.53507 14.6123 10.1201 14.8258 10.4761C15.0923 10.9207 15.5694 11.1962 16.0877 11.2047C16.5028 11.2115 17.0094 10.919 18.0226 10.334L18.5575 10.0252C18.9718 9.78597 19.191 9.32608 19.3164 8.86439V8.86439C19.4887 8.2297 19.905 7.68891 20.4746 7.36006C21.0442 7.03122 21.7207 6.941 22.3565 7.10911C22.9923 7.27721 23.5359 7.68999 23.8685 8.25735C24.0346 8.5407 24.143 8.85411 24.1875 9.17955C24.232 9.50498 24.2117 9.836 24.1278 10.1535C24.0438 10.4711 23.8979 10.7689 23.6983 11.0298C23.4988 11.2907 23.2497 11.5096 22.9652 11.6738C22.6808 11.8381 22.3667 11.9444 22.0409 11.9867C21.7152 12.0291 21.3844 12.0066 21.0674 11.9205V11.9205C20.6041 11.7947 20.0942 11.7524 19.6785 11.9924L19.1476 12.2989C18.1405 12.8804 17.637 13.1711 17.4354 13.5311C17.1806 13.9863 17.1806 14.5414 17.4354 14.9966C17.637 15.3566 18.1405 15.6473 19.1476 16.2288L19.6896 16.5417C20.1039 16.7809 20.6118 16.7408 21.0743 16.6185V16.6185C21.7101 16.4504 22.3867 16.5407 22.9562 16.8695C23.5258 17.1983 23.9421 17.7391 24.1145 18.3738C24.2868 19.0085 24.2011 19.6856 23.876 20.2574C23.7137 20.5429 23.4964 20.7935 23.2369 20.9947C22.9773 21.196 22.6804 21.3439 22.3635 21.4299C22.0465 21.516 21.7156 21.5385 21.3899 21.4962C21.0642 21.4538 20.75 21.3475 20.4656 21.1833C20.1811 21.019 19.932 20.8001 19.7325 20.5392C19.533 20.2783 19.387 19.9805 19.3031 19.663V19.663C19.1804 19.1989 18.9621 18.7361 18.5464 18.4961L18.0155 18.1896C17.0086 17.6082 16.5051 17.3175 16.0927 17.3229C15.5708 17.3298 15.0901 17.6073 14.8232 18.0558C14.6123 18.4103 14.6123 18.9917 14.6123 20.1544V20.774C14.6123 21.2532 14.9025 21.6733 15.2413 22.0122V22.0122C15.7084 22.4793 15.9708 23.1128 15.9708 23.7733C15.9708 24.4338 15.7084 25.0673 15.2413 25.5344C14.7743 26.0015 14.1408 26.2639 13.4802 26.2639C12.8197 26.2639 12.1862 26.0015 11.7191 25.5344C11.2521 25.0673 10.9897 24.4338 10.9897 23.7733C10.9897 23.1128 11.2521 22.4793 11.7191 22.0122V22.0122C12.058 21.6733 12.3482 21.2532 12.3482 20.774V20.1544C12.3482 18.9917 12.3482 18.4103 12.1373 18.0558C11.8704 17.6073 11.3897 17.3298 10.8678 17.3229C10.4554 17.3175 9.9519 17.6082 8.94495 18.1896L8.41412 18.4961C7.9984 18.7361 7.78011 19.1989 7.65741 19.663V19.663C7.57346 19.9805 7.42752 20.2783 7.22801 20.5392C7.02849 20.8001 6.77934 21.019 6.49489 21.1833C6.21044 21.3475 5.89632 21.4538 5.5706 21.4962C5.24489 21.5385 4.91401 21.516 4.59703 21.4299C4.28005 21.3439 3.98322 21.196 3.72363 20.9947C3.46404 20.7935 3.24683 20.5429 3.08449 20.2574C2.75943 19.6856 2.6737 19.0085 2.84602 18.3738C3.01833 17.7391 3.4347 17.1983 4.00427 16.8695C4.57383 16.5407 5.25034 16.4504 5.88617 16.6185V16.6185C6.34868 16.7408 6.85654 16.7809 7.27085 16.5417L7.81291 16.2288C8.81997 15.6473 9.3235 15.3566 9.52504 14.9966C9.77993 14.5414 9.77993 13.9863 9.52504 13.5311C9.3235 13.1711 8.81997 12.8804 7.81291 12.2989L7.28203 11.9924C6.8663 11.7524 6.35639 11.7947 5.89312 11.9205V11.9205C5.57613 12.0066 5.24526 12.0291 4.91954 11.9867C4.59383 11.9444 4.27971 11.8381 3.99525 11.6738C3.71081 11.5096 3.46165 11.2907 3.26214 11.0298C3.06262 10.7689 2.91669 10.4711 2.83273 10.1535C2.74878 9.83599 2.72846 9.50497 2.77296 9.17955C2.81746 8.85412 2.92588 8.5407 3.092 8.25735C3.42461 7.68999 3.96814 7.27721 4.60397 7.10911C5.2398 6.941 5.91632 7.03122 6.48588 7.36006C7.05544 7.68891 7.47181 8.2297 7.64412 8.86439V8.86439C7.76947 9.32608 7.98864 9.78597 8.40295 10.0252L8.93787 10.334C9.95108 10.919 10.4577 11.2115 10.8728 11.2047C11.3911 11.1962 11.8682 10.9207 12.1347 10.4761C12.3482 10.1201 12.3482 9.53507 12.3482 8.36511V7.75372C12.3482 7.27449 12.058 6.85438 11.7191 6.51552V6.51552C11.2521 6.04844 10.9897 5.41496 10.9897 4.75442C10.9897 4.09388 11.2521 3.4604 11.7191 2.99333ZM13.4802 4.52801C13.4202 4.52801 13.3626 4.55186 13.3201 4.59432C13.2777 4.63678 13.2538 4.69437 13.2538 4.75442C13.2538 4.81447 13.2777 4.87206 13.3201 4.91452C13.3626 4.95698 13.4202 4.98084 13.4802 4.98084C13.5403 4.98084 13.5979 4.95698 13.6403 4.91452C13.6828 4.87206 13.7067 4.81447 13.7067 4.75442C13.7067 4.69437 13.6828 4.63678 13.6403 4.59432C13.5979 4.55186 13.5403 4.52801 13.4802 4.52801ZM5.35378 9.32086C5.302 9.29097 5.2405 9.28276 5.18269 9.29805C5.12489 9.31333 5.07548 9.35085 5.04524 9.40243C5.03014 9.42819 5.02028 9.45669 5.01624 9.48627C5.01219 9.51586 5.01404 9.54595 5.02167 9.57481C5.0293 9.60368 5.04257 9.63076 5.06071 9.65448C5.07885 9.67819 5.1015 9.69809 5.12735 9.71302C5.15321 9.72795 5.18177 9.73762 5.21138 9.74147C5.241 9.74532 5.27107 9.74327 5.29989 9.73545C5.32871 9.72762 5.3557 9.71417 5.37929 9.69588C5.40289 9.67759 5.42263 9.65481 5.43739 9.62885C5.46694 9.57688 5.47474 9.51533 5.45907 9.45762C5.4434 9.39992 5.40555 9.35075 5.35378 9.32086ZM21.7778 9.29805C21.72 9.28276 21.6585 9.29097 21.6067 9.32086C21.5549 9.35075 21.5171 9.39992 21.5014 9.45762C21.4857 9.51532 21.4935 9.57688 21.5231 9.62885C21.5379 9.65481 21.5576 9.67759 21.5812 9.69588C21.6048 9.71417 21.6318 9.72762 21.6606 9.73545C21.6894 9.74327 21.7195 9.74532 21.7491 9.74147C21.7787 9.73762 21.8073 9.72795 21.8331 9.71302C21.859 9.69809 21.8816 9.6782 21.8998 9.65448C21.9179 9.63076 21.9312 9.60368 21.9388 9.57481C21.9464 9.54594 21.9483 9.51585 21.9442 9.48627C21.9402 9.4567 21.9303 9.4282 21.9152 9.40243C21.885 9.35085 21.8356 9.31333 21.7778 9.29805ZM21.8241 18.8303C21.7723 18.8004 21.7108 18.7922 21.653 18.8075C21.5952 18.8228 21.5458 18.8603 21.5156 18.9119C21.5005 18.9376 21.4906 18.9661 21.4866 18.9957C21.4825 19.0253 21.4844 19.0554 21.492 19.0842C21.4996 19.1131 21.5129 19.1402 21.5311 19.1639C21.5492 19.1876 21.5718 19.2075 21.5977 19.2225C21.6236 19.2374 21.6521 19.2471 21.6817 19.2509C21.7113 19.2548 21.7414 19.2527 21.7702 19.2449C21.7991 19.2371 21.826 19.2236 21.8496 19.2053C21.8732 19.187 21.893 19.1642 21.9077 19.1383C21.9373 19.0863 21.9451 19.0248 21.9294 18.9671C21.9137 18.9094 21.8759 18.8602 21.8241 18.8303ZM5.30745 18.8075C5.24965 18.7922 5.18815 18.8004 5.13637 18.8303C5.08459 18.8602 5.04674 18.9094 5.03107 18.9671C5.01541 19.0248 5.0232 19.0863 5.05275 19.1383C5.06751 19.1642 5.08726 19.187 5.11086 19.2053C5.13445 19.2236 5.16143 19.2371 5.19025 19.2449C5.21907 19.2527 5.24915 19.2548 5.27876 19.2509C5.30837 19.2471 5.33693 19.2374 5.36279 19.2225C5.38865 19.2075 5.4113 19.1876 5.42943 19.1639C5.44757 19.1402 5.46084 19.1131 5.46847 19.0842C5.4761 19.0554 5.47795 19.0253 5.47391 18.9957C5.46986 18.9661 5.46 18.9376 5.4449 18.9119C5.41466 18.8603 5.36525 18.8228 5.30745 18.8075ZM13.4802 23.5469C13.4202 23.5469 13.3626 23.5707 13.3201 23.6132C13.2777 23.6556 13.2538 23.7132 13.2538 23.7733C13.2538 23.8333 13.2777 23.8909 13.3201 23.9334C13.3626 23.9758 13.4202 23.9997 13.4802 23.9997C13.5403 23.9997 13.5979 23.9758 13.6403 23.9334C13.6828 23.8909 13.7067 23.8333 13.7067 23.7733C13.7067 23.7132 13.6828 23.6556 13.6403 23.6132C13.5979 23.5707 13.5403 23.5469 13.4802 23.5469Z" fill="#F17F66"/>
</g>
<defs>
<clipPath id="clip0_149_555">
<rect width="24" height="24" fill="white" transform="translate(1.5 2.26385)"/>
</clipPath>
</defs>
</svg>
