<svg width="30" height="30" viewBox="0 0 30 30" fill="none" xmlns="http://www.w3.org/2000/svg">
<path d="M15.0001 7.5283V22.4717V7.5283ZM15.0001 7.5283C15.3304 7.5283 15.6471 7.3971 15.8807 7.16357C16.1142 6.93003 16.2454 6.61329 16.2454 6.28302C16.2454 5.95275 16.1142 5.63601 15.8807 5.40247C15.6471 5.16894 15.3304 5.03774 15.0001 5.03774C14.6698 5.03774 14.3531 5.16894 14.1196 5.40247C13.886 5.63601 13.7548 5.95275 13.7548 6.28302C13.7548 6.61329 13.886 6.93003 14.1196 7.16357C14.3531 7.3971 14.6698 7.5283 15.0001 7.5283ZM15.0001 24.9623C15.3304 24.9623 15.6471 24.8311 15.8807 24.5975C16.1142 24.364 16.2454 24.0473 16.2454 23.717C16.2454 23.3867 16.1142 23.07 15.8807 22.8364C15.6471 22.6029 15.3304 22.4717 15.0001 22.4717C14.6698 22.4717 14.3531 22.6029 14.1196 22.8364C13.886 23.07 13.7548 23.3867 13.7548 23.717C13.7548 24.0473 13.886 24.364 14.1196 24.5975C14.3531 24.8311 14.6698 24.9623 15.0001 24.9623ZM21.4706 18.7358L8.52963 11.2642L21.4706 18.7358ZM21.4706 18.7358C21.3875 18.8775 21.3333 19.0342 21.3111 19.1969C21.2888 19.3597 21.299 19.5252 21.341 19.6839C21.383 19.8427 21.4559 19.9916 21.5557 20.1221C21.6554 20.2525 21.78 20.362 21.9222 20.4441C22.0645 20.5262 22.2215 20.5794 22.3844 20.6005C22.5472 20.6217 22.7127 20.6105 22.8712 20.5674C23.0297 20.5244 23.1781 20.4504 23.3079 20.3498C23.4377 20.2492 23.5463 20.1239 23.6274 19.9811C23.79 19.6953 23.8328 19.3567 23.7467 19.0394C23.6605 18.722 23.4523 18.4516 23.1675 18.2872C22.8828 18.1228 22.5445 18.0777 22.2266 18.1617C21.9087 18.2458 21.6369 18.4522 21.4706 18.7358ZM6.3728 10.0189C6.28974 10.1605 6.23553 10.3173 6.21328 10.48C6.19103 10.6427 6.20119 10.8082 6.24316 10.967C6.28514 11.1257 6.35811 11.2746 6.45787 11.4051C6.55762 11.5356 6.6822 11.645 6.82442 11.7271C6.96665 11.8092 7.12371 11.8624 7.28657 11.8836C7.44943 11.9047 7.61486 11.8935 7.77336 11.8504C7.93185 11.8074 8.08026 11.7335 8.21006 11.6328C8.33985 11.5322 8.44846 11.4069 8.52963 11.2642C8.69216 10.9783 8.73502 10.6397 8.64886 10.3224C8.5627 10.005 8.35452 9.73465 8.06974 9.57022C7.78496 9.4058 7.4467 9.36069 7.12878 9.44474C6.81087 9.5288 6.53911 9.73518 6.3728 10.0189ZM21.4706 11.2642L8.52963 18.7358L21.4706 11.2642ZM21.4706 11.2642C21.5518 11.4069 21.6604 11.5322 21.7902 11.6328C21.92 11.7335 22.0684 11.8074 22.2269 11.8504C22.3854 11.8935 22.5508 11.9047 22.7137 11.8836C22.8765 11.8624 23.0336 11.8092 23.1758 11.7271C23.318 11.645 23.4426 11.5356 23.5424 11.4051C23.6421 11.2746 23.7151 11.1257 23.7571 10.967C23.799 10.8082 23.8092 10.6427 23.787 10.48C23.7647 10.3173 23.7105 10.1605 23.6274 10.0189C23.4611 9.73518 23.1894 9.5288 22.8715 9.44474C22.5535 9.36069 22.2153 9.4058 21.9305 9.57022C21.6457 9.73465 21.4375 10.005 21.3514 10.3224C21.2652 10.6397 21.3081 10.9783 21.4706 11.2642ZM6.3728 19.9811C6.45397 20.1239 6.56258 20.2492 6.69237 20.3498C6.82216 20.4504 6.97058 20.5244 7.12907 20.5674C7.28756 20.6105 7.45299 20.6217 7.61585 20.6005C7.77871 20.5794 7.93577 20.5262 8.078 20.4441C8.22022 20.362 8.3448 20.2525 8.44456 20.1221C8.54431 19.9916 8.61728 19.8427 8.65926 19.6839C8.70124 19.5252 8.71139 19.3597 8.68915 19.1969C8.6669 19.0342 8.61268 18.8775 8.52963 18.7358C8.36332 18.4522 8.09155 18.2458 7.77364 18.1617C7.45572 18.0777 7.11747 18.1228 6.83269 18.2872C6.54791 18.4516 6.33972 18.722 6.25356 19.0394C6.1674 19.3567 6.21027 19.6953 6.3728 19.9811Z" fill="#F17F66"/>
<path fill-rule="evenodd" clip-rule="evenodd" d="M13.3858 4.66868C13.8139 4.24053 14.3946 4 15.0001 4C15.6056 4 16.1863 4.24053 16.6145 4.66868C17.0426 5.09683 17.2831 5.67753 17.2831 6.28302C17.2831 6.88851 17.0426 7.46921 16.6145 7.89736C16.3038 8.20799 16.0379 8.59308 16.0379 9.03237V9.59282C16.0379 10.474 16.0379 10.9146 16.1608 11.1993C16.4234 11.8072 17.0535 12.1709 17.7113 12.0944C18.0193 12.0585 18.4009 11.8382 19.164 11.3977L19.6543 11.1145C20.0341 10.8953 20.235 10.4737 20.3499 10.0505C20.5078 9.46869 20.8895 8.97297 21.4116 8.67152C21.9337 8.37008 22.5539 8.28739 23.1367 8.44148C23.7195 8.59558 24.2178 8.97396 24.5227 9.49404C24.6749 9.75377 24.7743 10.0411 24.8151 10.3394C24.8559 10.6377 24.8373 10.9411 24.7603 11.2322C24.6834 11.5233 24.5496 11.7963 24.3667 12.0354C24.1838 12.2746 23.9554 12.4753 23.6947 12.6258C23.4339 12.7763 23.146 12.8738 22.8474 12.9126C22.5489 12.9514 22.2456 12.9308 21.955 12.8519C21.5303 12.7366 21.0629 12.6978 20.6818 12.9179L20.1952 13.1988C19.4376 13.6362 19.0589 13.8549 18.8745 14.1013C18.4758 14.6341 18.4758 15.3659 18.8745 15.8987C19.0589 16.1451 19.4376 16.3638 20.1952 16.8012L20.6921 17.0881C21.0718 17.3073 21.5374 17.2706 21.9613 17.1585C22.5442 17.0044 23.1643 17.0871 23.6864 17.3885C24.2085 17.69 24.5902 18.1857 24.7482 18.7675C24.9061 19.3493 24.8275 19.97 24.5296 20.494C24.3807 20.7558 24.1816 20.9855 23.9437 21.17C23.7057 21.3544 23.4336 21.49 23.1431 21.5689C22.8525 21.6478 22.5492 21.6684 22.2506 21.6296C21.952 21.5908 21.6641 21.4933 21.4034 21.3428C21.1426 21.1922 20.9142 20.9916 20.7313 20.7524C20.5484 20.5133 20.4147 20.2403 20.3377 19.9492C20.2252 19.5238 20.0251 19.0996 19.6441 18.8795L19.1575 18.5986C18.4001 18.1613 18.0213 17.9426 17.7158 17.9061C17.0549 17.8272 16.4211 18.1931 16.159 18.8049C16.0379 19.0878 16.0379 19.5251 16.0379 20.3997V20.9676C16.0379 21.4069 16.3038 21.792 16.6145 22.1026C17.0426 22.5308 17.2831 23.1115 17.2831 23.717C17.2831 24.3225 17.0426 24.9032 16.6145 25.3313C16.1863 25.7595 15.6056 26 15.0001 26C14.3946 26 13.8139 25.7595 13.3858 25.3313C12.9576 24.9032 12.7171 24.3225 12.7171 23.717C12.7171 23.1115 12.9576 22.5308 13.3858 22.1026C13.6964 21.792 13.9624 21.4069 13.9624 20.9676V20.3997C13.9624 19.5251 13.9624 19.0878 13.8412 18.8049C13.5791 18.1931 12.9453 17.8272 12.2845 17.9061C11.9789 17.9426 11.6002 18.1613 10.8428 18.5986L10.3562 18.8795C9.97509 19.0996 9.775 19.5238 9.66252 19.9492C9.58556 20.2403 9.45179 20.5133 9.2689 20.7524C9.08601 20.9916 8.85762 21.1922 8.59688 21.3428C8.33613 21.4933 8.04818 21.5908 7.74961 21.6296C7.45104 21.6684 7.14774 21.6478 6.85717 21.5689C6.56661 21.49 6.29452 21.3544 6.05656 21.17C5.8186 20.9855 5.61949 20.7558 5.47068 20.494C5.1727 19.97 5.09412 19.3493 5.25208 18.7675C5.41004 18.1857 5.7917 17.69 6.31381 17.3885C6.8359 17.0871 7.45604 17.0044 8.03889 17.1585C8.46286 17.2706 8.92839 17.3073 9.30818 17.0881L9.80507 16.8012C10.5626 16.3638 10.9413 16.1451 11.1258 15.8987C11.5244 15.3659 11.5244 14.6341 11.1258 14.1013C10.9413 13.8549 10.5626 13.6362 9.80507 13.1988L9.31842 12.9179C8.93734 12.6978 8.46992 12.7366 8.04525 12.8519C7.75468 12.9308 7.45138 12.9514 7.15281 12.9126C6.85424 12.8738 6.56629 12.7763 6.30555 12.6258C6.0448 12.4753 5.81641 12.2746 5.63352 12.0354C5.45063 11.7963 5.31686 11.5233 5.2399 11.2322C5.16294 10.9411 5.14432 10.6377 5.18511 10.3394C5.2259 10.0411 5.32529 9.75378 5.47756 9.49404C5.78246 8.97396 6.28069 8.59558 6.86354 8.44148C7.44638 8.28738 8.06652 8.37008 8.58862 8.67152C9.11072 8.97297 9.49239 9.46869 9.65034 10.0505C9.76524 10.4737 9.96615 10.8953 10.3459 11.1145L10.8363 11.3977C11.5994 11.8382 11.9809 12.0585 12.289 12.0944C12.9467 12.1709 13.5768 11.8072 13.8394 11.1993C13.9624 10.9146 13.9624 10.474 13.9624 9.59282V9.03237C13.9624 8.59308 13.6964 8.20798 13.3858 7.89736C12.9576 7.46921 12.7171 6.88851 12.7171 6.28302C12.7171 5.67753 12.9576 5.09683 13.3858 4.66868ZM15.0001 6.07547C14.9451 6.07547 14.8923 6.09734 14.8534 6.13626C14.8144 6.17518 14.7926 6.22797 14.7926 6.28302C14.7926 6.33807 14.8144 6.39086 14.8534 6.42978C14.8923 6.4687 14.9451 6.49057 15.0001 6.49057C15.0552 6.49057 15.108 6.4687 15.1469 6.42978C15.1858 6.39086 15.2077 6.33807 15.2077 6.28302C15.2077 6.22797 15.1858 6.17518 15.1469 6.13626C15.108 6.09734 15.0552 6.07547 15.0001 6.07547ZM7.55086 10.4689C7.50339 10.4415 7.44702 10.434 7.39403 10.448C7.34105 10.462 7.29575 10.4964 7.26803 10.5437C7.25419 10.5673 7.24516 10.5934 7.24145 10.6205C7.23774 10.6477 7.23943 10.6753 7.24643 10.7017C7.25342 10.7282 7.26559 10.753 7.28221 10.7747C7.29884 10.7965 7.3196 10.8147 7.3433 10.8284C7.36701 10.8421 7.39318 10.851 7.42033 10.8545C7.44748 10.858 7.47505 10.8561 7.50146 10.849C7.52788 10.8418 7.55262 10.8295 7.57424 10.8127C7.59587 10.7959 7.61398 10.775 7.62751 10.7512C7.65459 10.7036 7.66174 10.6472 7.64738 10.5943C7.63302 10.5414 7.59832 10.4963 7.55086 10.4689ZM22.6062 10.448C22.5532 10.434 22.4968 10.4415 22.4494 10.4689C22.4019 10.4963 22.3672 10.5414 22.3529 10.5943C22.3385 10.6472 22.3456 10.7036 22.3727 10.7512C22.3863 10.775 22.4044 10.7959 22.426 10.8127C22.4476 10.8295 22.4724 10.8418 22.4988 10.849C22.5252 10.8561 22.5528 10.858 22.5799 10.8545C22.607 10.851 22.6332 10.8421 22.6569 10.8284C22.6806 10.8147 22.7014 10.7965 22.718 10.7747C22.7346 10.753 22.7468 10.7282 22.7538 10.7017C22.7608 10.6752 22.7625 10.6477 22.7588 10.6205C22.7551 10.5934 22.746 10.5673 22.7322 10.5437C22.7045 10.4964 22.6592 10.462 22.6062 10.448ZM22.6487 19.1859C22.6012 19.1585 22.5448 19.151 22.4918 19.165C22.4389 19.179 22.3936 19.2134 22.3658 19.2607C22.352 19.2843 22.343 19.3104 22.3393 19.3375C22.3356 19.3646 22.3372 19.3922 22.3442 19.4187C22.3512 19.4452 22.3634 19.47 22.38 19.4917C22.3967 19.5135 22.4174 19.5317 22.4411 19.5454C22.4648 19.5591 22.491 19.5679 22.5181 19.5715C22.5453 19.575 22.5729 19.5731 22.5993 19.5659C22.6257 19.5588 22.6504 19.5464 22.6721 19.5297C22.6937 19.5129 22.7118 19.492 22.7253 19.4682C22.7524 19.4206 22.7595 19.3642 22.7452 19.3113C22.7308 19.2584 22.6961 19.2133 22.6487 19.1859ZM7.50839 19.165C7.45541 19.151 7.39903 19.1585 7.35157 19.1859C7.30411 19.2133 7.26941 19.2584 7.25505 19.3113C7.24069 19.3642 7.24783 19.4206 7.27492 19.4682C7.28845 19.492 7.30655 19.5129 7.32818 19.5297C7.34981 19.5464 7.37454 19.5588 7.40096 19.5659C7.42737 19.5731 7.45495 19.575 7.48209 19.5715C7.50924 19.5679 7.53541 19.5591 7.55912 19.5454C7.58282 19.5317 7.60358 19.5135 7.62021 19.4917C7.63684 19.47 7.649 19.4452 7.65599 19.4187C7.66299 19.3922 7.66468 19.3646 7.66098 19.3375C7.65727 19.3104 7.64823 19.2843 7.63439 19.2607C7.60667 19.2134 7.56138 19.179 7.50839 19.165ZM15.0001 23.5094C14.9451 23.5094 14.8923 23.5313 14.8534 23.5702C14.8144 23.6091 14.7926 23.6619 14.7926 23.717C14.7926 23.772 14.8144 23.8248 14.8534 23.8637C14.8923 23.9027 14.9451 23.9245 15.0001 23.9245C15.0552 23.9245 15.108 23.9027 15.1469 23.8637C15.1858 23.8248 15.2077 23.772 15.2077 23.717C15.2077 23.6619 15.1858 23.6091 15.1469 23.5702C15.108 23.5313 15.0552 23.5094 15.0001 23.5094Z" fill="#F17F66"/>
</svg>
