<svg width="30" height="30" viewBox="0 0 30 30" fill="none" xmlns="http://www.w3.org/2000/svg">
<path fill-rule="evenodd" clip-rule="evenodd" d="M15.8466 9.80171C16.3378 9.70712 16.827 9.97438 17.0128 10.4388L18.1308 13.2339L19.2489 10.4388C19.4347 9.97438 19.9238 9.70712 20.415 9.80171C20.9062 9.8963 21.2611 10.3261 21.2611 10.8263V19.1738C21.2611 19.75 20.794 20.2172 20.2177 20.2172C19.6414 20.2172 19.1743 19.75 19.1743 19.1738V16.2444L19.0996 16.431C18.9412 16.8271 18.5575 17.0869 18.1308 17.0869C17.7042 17.0869 17.3205 16.8271 17.162 16.431L17.0874 16.2444V19.1738C17.0874 19.75 16.6202 20.2172 16.044 20.2172C15.4677 20.2172 15.0005 19.75 15.0005 19.1738V10.8263C15.0005 10.3261 15.3555 9.8963 15.8466 9.80171ZM3 10.8263C3 10.25 3.46716 9.78288 4.04343 9.78288H7.17373C7.75 9.78288 8.21716 10.25 8.21716 10.8263C8.21716 11.4026 7.75 11.8697 7.17373 11.8697H6.65202V19.1738C6.65202 19.75 6.18485 20.2172 5.60858 20.2172C5.03231 20.2172 4.56515 19.75 4.56515 19.1738V11.8697H4.04343C3.46716 11.8697 3 11.4026 3 10.8263ZM11.3485 11.8697C11.2101 11.8697 11.0774 11.9247 10.9796 12.0226C10.8818 12.1204 10.8268 12.2531 10.8268 12.3915V17.6086C10.8268 17.747 10.8818 17.8797 10.9796 17.9775C11.0774 18.0754 11.2101 18.1303 11.3485 18.1303C11.4869 18.1303 11.6196 18.0754 11.7174 17.9775C11.8153 17.8797 11.8702 17.747 11.8702 17.6086V12.3915C11.8702 12.2531 11.8153 12.1204 11.7174 12.0226C11.6196 11.9247 11.4869 11.8697 11.3485 11.8697ZM9.50396 10.5469C9.99316 10.0577 10.6567 9.78288 11.3485 9.78288C12.0403 9.78288 12.7038 10.0577 13.1931 10.5469C13.6823 11.0361 13.9571 11.6996 13.9571 12.3915V17.6086C13.9571 18.3005 13.6823 18.964 13.1931 19.4532C12.7038 19.9424 12.0403 20.2172 11.3485 20.2172C10.6567 20.2172 9.99316 19.9424 9.50396 19.4532C9.01476 18.964 8.73992 18.3005 8.73992 17.6086V12.3915C8.73992 11.6996 9.01476 11.0361 9.50396 10.5469ZM23.348 9.78288C23.9243 9.78288 24.3914 10.25 24.3914 10.8263V18.1303H25.9566C26.5328 18.1303 27 18.5975 27 19.1738C27 19.75 26.5328 20.2172 25.9566 20.2172H23.348C22.7717 20.2172 22.3046 19.75 22.3046 19.1738V10.8263C22.3046 10.25 22.7717 9.78288 23.348 9.78288Z" fill="#7380F9"/>
</svg>
