<svg width="27" height="27" viewBox="0 0 27 27" fill="none" xmlns="http://www.w3.org/2000/svg">
<path d="M9.25098 9.13925C9.25098 8.68712 9.6292 8.32056 10.0946 8.32056H16.8459C17.0696 8.32056 17.2842 8.4067 17.4424 8.56004C17.6006 8.71337 17.6895 8.92135 17.6895 9.1382C17.6895 9.35505 17.6006 9.56302 17.4424 9.71636C17.2842 9.86969 17.0696 9.95584 16.8459 9.95584H14.3139V17.8618C14.3139 18.0787 14.225 18.2866 14.0668 18.44C13.9086 18.5933 13.694 18.6794 13.4702 18.6794C13.2465 18.6794 13.0319 18.5933 12.8737 18.44C12.7155 18.2866 12.6266 18.0787 12.6266 17.8618V9.95584H10.0946C9.87087 9.95584 9.65628 9.86969 9.49807 9.71636C9.33986 9.56302 9.25098 9.3561 9.25098 9.13925Z" fill="#7380F9"/>
<path fill-rule="evenodd" clip-rule="evenodd" d="M10.0946 8.32056C9.6292 8.32056 9.25098 8.68712 9.25098 9.13925C9.25098 9.3561 9.33986 9.56302 9.49807 9.71636C9.65628 9.86969 9.87087 9.95584 10.0946 9.95584H12.6266V17.8618C12.6266 18.0787 12.7155 18.2866 12.8737 18.44C13.0319 18.5933 13.2465 18.6794 13.4702 18.6794C13.694 18.6794 13.9086 18.5933 14.0668 18.44C14.225 18.2866 14.3139 18.0787 14.3139 17.8618V9.95584H16.8459C17.0696 9.95584 17.2842 9.86969 17.4424 9.71636C17.6006 9.56302 17.6895 9.35505 17.6895 9.1382C17.6895 8.92135 17.6006 8.71337 17.4424 8.56004C17.2842 8.4067 17.0696 8.32056 16.8459 8.32056H10.0946Z" fill="#7380F9"/>
<path d="M9.25098 9.13925C9.25098 8.68712 9.6292 8.32056 10.0946 8.32056H16.8459C17.0696 8.32056 17.2842 8.4067 17.4424 8.56004C17.6006 8.71337 17.6895 8.92135 17.6895 9.1382C17.6895 9.35505 17.6006 9.56302 17.4424 9.71636C17.2842 9.86969 17.0696 9.95584 16.8459 9.95584H14.3139V17.8618C14.3139 18.0787 14.225 18.2866 14.0668 18.44C13.9086 18.5933 13.694 18.6794 13.4702 18.6794C13.2465 18.6794 13.0319 18.5933 12.8737 18.44C12.7155 18.2866 12.6266 18.0787 12.6266 17.8618V9.95584H10.0946C9.87087 9.95584 9.65628 9.86969 9.49807 9.71636C9.33986 9.56302 9.25098 9.3561 9.25098 9.13925Z" stroke="#7380F9" stroke-width="0.5"/>
<path fill-rule="evenodd" clip-rule="evenodd" d="M16.2549 3.72922C16.2549 3.05469 16.8085 2.50787 17.4915 2.50787H19.1403C22.0998 2.50787 24.499 4.87741 24.499 7.80038V19.1996C24.499 22.1226 22.0998 24.4921 19.1403 24.4921H17.4915C16.8085 24.4921 16.2549 23.9453 16.2549 23.2708C16.2549 22.5962 16.8085 22.0494 17.4915 22.0494H19.1403C20.7339 22.0494 22.0257 20.7735 22.0257 19.1996V7.80038C22.0257 6.22647 20.7339 4.95057 19.1403 4.95057H17.4915C16.8085 4.95057 16.2549 4.40375 16.2549 3.72922Z" fill="#7380F9"/>
<path fill-rule="evenodd" clip-rule="evenodd" d="M10.7451 3.72922C10.7451 3.05469 10.1915 2.50787 9.5085 2.50787H7.85968C4.90018 2.50787 2.50102 4.87741 2.50102 7.80038V19.1996C2.50102 22.1226 4.90018 24.4921 7.85968 24.4921H9.5085C10.1915 24.4921 10.7451 23.9453 10.7451 23.2708C10.7451 22.5962 10.1915 22.0494 9.5085 22.0494H7.85968C6.2661 22.0494 4.97425 20.7735 4.97425 19.1996V7.80038C4.97425 6.22647 6.2661 4.95057 7.85968 4.95057H9.5085C10.1915 4.95057 10.7451 4.40375 10.7451 3.72922Z" fill="#7380F9"/>
</svg>
