<svg width="30" height="30" viewBox="0 0 30 30" fill="none" xmlns="http://www.w3.org/2000/svg">
<path fill-rule="evenodd" clip-rule="evenodd" d="M15.8466 13.0189C16.3378 12.9243 16.827 13.1916 17.0128 13.656L18.1308 16.4512L19.2489 13.656C19.4347 13.1916 19.9238 12.9243 20.415 13.0189C20.9062 13.1135 21.2611 13.5433 21.2611 14.0435V22.391C21.2611 22.9673 20.794 23.4344 20.2177 23.4344C19.6414 23.4344 19.1743 22.9673 19.1743 22.391V19.4616L19.0996 19.6482C18.9412 20.0444 18.5575 20.3041 18.1308 20.3041C17.7042 20.3041 17.3205 20.0444 17.162 19.6482L17.0874 19.4616V22.391C17.0874 22.9673 16.6202 23.4344 16.044 23.4344C15.4677 23.4344 15.0005 22.9673 15.0005 22.391V14.0435C15.0005 13.5433 15.3555 13.1135 15.8466 13.0189ZM3 14.0435C3 13.4673 3.46716 13.0001 4.04343 13.0001H7.17373C7.75 13.0001 8.21716 13.4673 8.21716 14.0435C8.21716 14.6198 7.75 15.087 7.17373 15.087H6.65202V22.391C6.65202 22.9673 6.18485 23.4344 5.60858 23.4344C5.03231 23.4344 4.56515 22.9673 4.56515 22.391V15.087H4.04343C3.46716 15.087 3 14.6198 3 14.0435ZM11.3485 15.087C11.2101 15.087 11.0774 15.1419 10.9796 15.2398C10.8818 15.3376 10.8268 15.4703 10.8268 15.6087V20.8258C10.8268 20.9642 10.8818 21.0969 10.9796 21.1948C11.0774 21.2926 11.2101 21.3476 11.3485 21.3476C11.4869 21.3476 11.6196 21.2926 11.7174 21.1948C11.8153 21.0969 11.8702 20.9642 11.8702 20.8258V15.6087C11.8702 15.4703 11.8153 15.3376 11.7174 15.2398C11.6196 15.1419 11.4869 15.087 11.3485 15.087ZM9.50396 13.7641C9.99316 13.2749 10.6567 13.0001 11.3485 13.0001C12.0403 13.0001 12.7038 13.2749 13.1931 13.7641C13.6823 14.2533 13.9571 14.9168 13.9571 15.6087V20.8258C13.9571 21.5177 13.6823 22.1812 13.1931 22.6704C12.7038 23.1596 12.0403 23.4344 11.3485 23.4344C10.6567 23.4344 9.99316 23.1596 9.50396 22.6704C9.01476 22.1812 8.73992 21.5177 8.73992 20.8258V15.6087C8.73992 14.9168 9.01476 14.2533 9.50396 13.7641ZM23.348 13.0001C23.9243 13.0001 24.3914 13.4673 24.3914 14.0435V21.3476H25.9566C26.5328 21.3476 27 21.8147 27 22.391C27 22.9673 26.5328 23.4344 25.9566 23.4344H23.348C22.7717 23.4344 22.3046 22.9673 22.3046 22.391V14.0435C22.3046 13.4673 22.7717 13.0001 23.348 13.0001Z" fill="#7380F9"/>
</svg>
