<svg width="27" height="27" viewBox="0 0 27 27" fill="none" xmlns="http://www.w3.org/2000/svg">
<g clip-path="url(#clip0_160_422)">
<path fill-rule="evenodd" clip-rule="evenodd" d="M14.3466 8.30171C14.8378 8.20712 15.327 8.47438 15.5128 8.93879L16.6308 11.7339L17.7489 8.93879C17.9346 8.47438 18.4238 8.20712 18.915 8.30171C19.4062 8.3963 19.7611 8.82612 19.7611 9.32631V17.6738C19.7611 18.25 19.294 18.7172 18.7177 18.7172C18.1414 18.7172 17.6743 18.25 17.6743 17.6738V14.7444L17.5996 14.931C17.4412 15.3271 17.0575 15.5869 16.6308 15.5869C16.2042 15.5869 15.8205 15.3271 15.662 14.931L15.5874 14.7444V17.6738C15.5874 18.25 15.1202 18.7172 14.544 18.7172C13.9677 18.7172 13.5005 18.25 13.5005 17.6738V9.32631C13.5005 8.82612 13.8555 8.3963 14.3466 8.30171ZM1.5 9.32631C1.5 8.75004 1.96716 8.28288 2.54343 8.28288H5.67373C6.25 8.28288 6.71716 8.75004 6.71716 9.32631C6.71716 9.90258 6.25 10.3697 5.67373 10.3697H5.15202V17.6738C5.15202 18.25 4.68485 18.7172 4.10858 18.7172C3.53231 18.7172 3.06515 18.25 3.06515 17.6738V10.3697H2.54343C1.96716 10.3697 1.5 9.90258 1.5 9.32631ZM9.84851 10.3697C9.71014 10.3697 9.57744 10.4247 9.4796 10.5226C9.38176 10.6204 9.32679 10.7531 9.32679 10.8915V16.1086C9.32679 16.247 9.38176 16.3797 9.4796 16.4775C9.57744 16.5754 9.71014 16.6303 9.84851 16.6303C9.98688 16.6303 10.1196 16.5754 10.2174 16.4775C10.3153 16.3797 10.3702 16.247 10.3702 16.1086V10.8915C10.3702 10.7531 10.3153 10.6204 10.2174 10.5226C10.1196 10.4247 9.98688 10.3697 9.84851 10.3697ZM8.00396 9.04691C8.49316 8.55771 9.15667 8.28288 9.84851 8.28288C10.5403 8.28288 11.2038 8.55771 11.6931 9.04691C12.1823 9.53612 12.4571 10.1996 12.4571 10.8915V16.1086C12.4571 16.8005 12.1823 17.464 11.6931 17.9532C11.2038 18.4424 10.5403 18.7172 9.84851 18.7172C9.15667 18.7172 8.49316 18.4424 8.00396 17.9532C7.51476 17.464 7.23992 16.8005 7.23992 16.1086V10.8915C7.23992 10.1996 7.51476 9.53612 8.00396 9.04691ZM21.848 8.28288C22.4243 8.28288 22.8914 8.75004 22.8914 9.32631V16.6303H24.4566C25.0328 16.6303 25.5 17.0975 25.5 17.6738C25.5 18.25 25.0328 18.7172 24.4566 18.7172H21.848C21.2717 18.7172 20.8046 18.25 20.8046 17.6738V9.32631C20.8046 8.75004 21.2717 8.28288 21.848 8.28288Z" fill="#7380F9"/>
</g>
<defs>
<clipPath id="clip0_160_422">
<rect width="24" height="24" fill="white" transform="translate(1.5 1.5)"/>
</clipPath>
</defs>
</svg>
