<svg width="27" height="27" viewBox="0 0 27 27" fill="none" xmlns="http://www.w3.org/2000/svg">
<path d="M8.775 5.05599C8.3985 5.27349 8.0025 5.87199 7.956 7.17999C7.9428 7.47627 7.81313 7.75535 7.59521 7.95653C7.3773 8.1577 7.08876 8.26468 6.79236 8.2542C6.49597 8.24372 6.21571 8.11663 6.01254 7.90057C5.80937 7.68451 5.69974 7.39696 5.7075 7.10049C5.7645 5.49849 6.2715 3.90399 7.65 3.10749C9.033 2.30949 10.6725 2.67249 12.0915 3.42849C12.3549 3.56892 12.5516 3.80822 12.6386 4.09374C12.7255 4.37927 12.6954 4.68763 12.555 4.95099C12.4146 5.21435 12.1753 5.41113 11.8897 5.49806C11.6042 5.58498 11.2959 5.55492 11.0325 5.41449C9.873 4.79499 9.153 4.83999 8.775 5.05599ZM14.8065 7.00449C14.9204 6.91032 15.0516 6.8395 15.1929 6.79608C15.3341 6.75265 15.4825 6.73747 15.6296 6.7514C15.7767 6.76533 15.9196 6.8081 16.0501 6.87726C16.1807 6.94642 16.2963 7.04062 16.3905 7.15449C17.2691 8.22077 18.0568 9.35874 18.7455 10.5565C20.3055 13.2595 21.267 16.0285 21.5265 18.3505C21.6555 19.51 21.6165 20.614 21.3465 21.5605C21.072 22.513 20.541 23.3755 19.65 23.89C18.5715 24.5125 17.325 24.4255 16.1865 24.01C15.0435 23.593 13.866 22.8055 12.744 21.781C12.527 21.579 12.3984 21.2996 12.3863 21.0033C12.3742 20.7071 12.4795 20.4181 12.6793 20.1991C12.8792 19.9801 13.1574 19.8488 13.4534 19.8338C13.7495 19.8188 14.0396 19.9213 14.2605 20.119C15.2505 21.022 16.179 21.613 16.956 21.895C17.739 22.18 18.231 22.1125 18.525 21.9415C18.771 21.799 19.02 21.5095 19.182 20.941C19.347 20.365 19.3995 19.576 19.29 18.601C19.0725 16.6525 18.24 14.1805 16.7955 11.6815C16.1703 10.5942 15.4553 9.56111 14.658 8.59299C14.5638 8.47913 14.493 8.34785 14.4496 8.20662C14.4062 8.0654 14.391 7.91701 14.4049 7.76992C14.4188 7.62283 14.4616 7.47992 14.5308 7.34936C14.5999 7.2188 14.6941 7.10314 14.808 7.00899" fill="#326EDD"/>
<path d="M23.25 13.807C23.25 13.372 22.929 12.7285 21.8205 12.037C21.6951 11.9587 21.5864 11.8565 21.5005 11.7361C21.4146 11.6158 21.3533 11.4798 21.32 11.3357C21.2867 11.1917 21.2821 11.0425 21.3065 10.8967C21.3309 10.7509 21.3837 10.6114 21.462 10.486C21.6201 10.2328 21.8724 10.0527 22.1633 9.98551C22.3073 9.95222 22.4564 9.94763 22.6022 9.97199C22.748 9.99635 22.8876 10.0492 23.013 10.1275C24.372 10.978 25.5 12.214 25.5 13.807C25.5 15.403 24.366 16.642 23.001 17.4925C22.7479 17.6443 22.4453 17.6907 22.1584 17.6215C21.8715 17.5523 21.6233 17.3732 21.4672 17.1227C21.3112 16.8722 21.2598 16.5704 21.3242 16.2824C21.3886 15.9944 21.5636 15.7432 21.8115 15.583C22.9275 14.887 23.25 14.242 23.25 13.807ZM18.5445 18.055C18.5692 18.2007 18.565 18.3498 18.5321 18.4938C18.4992 18.6379 18.4383 18.774 18.3528 18.8945C18.2672 19.015 18.1588 19.1175 18.0337 19.196C17.9086 19.2746 17.7692 19.3278 17.6235 19.3525C16.2607 19.5787 14.8814 19.6911 13.5 19.6885C10.38 19.6885 7.5 19.138 5.3595 18.2005C4.29 17.734 3.3555 17.1475 2.6715 16.4395C1.98 15.7285 1.5 14.8345 1.5 13.807C1.5 12.562 2.199 11.527 3.1275 10.747C4.0605 9.96549 5.3325 9.33999 6.78 8.88099C7.06444 8.79068 7.37311 8.81707 7.6381 8.95434C7.76931 9.02232 7.88585 9.11547 7.98106 9.22848C8.07627 9.34149 8.14828 9.47214 8.193 9.61299C8.23771 9.75383 8.25425 9.9021 8.24166 10.0493C8.22908 10.1966 8.18761 10.3399 8.11964 10.4711C8.05167 10.6023 7.95852 10.7188 7.84551 10.814C7.7325 10.9093 7.60184 10.9813 7.461 11.026C6.186 11.431 5.208 11.9395 4.575 12.472C3.936 13.006 3.75 13.4665 3.75 13.807C3.75 14.092 3.8775 14.452 4.2885 14.8765C4.7055 15.307 5.3625 15.7465 6.261 16.1395C8.0565 16.9255 10.614 17.4385 13.5 17.4385C14.8275 17.4385 16.0905 17.3305 17.247 17.134C17.3927 17.1092 17.5418 17.1135 17.6858 17.1464C17.8299 17.1793 17.966 17.2402 18.0865 17.3257C18.207 17.4113 18.3095 17.5197 18.388 17.6448C18.4666 17.7699 18.5198 17.9093 18.5445 18.055Z" fill="#326EDD"/>
<path d="M8.808 21.943C9.183 22.1605 9.9015 22.204 11.0565 21.5905C11.187 21.5211 11.3299 21.4782 11.477 21.4641C11.6241 21.45 11.7725 21.4649 11.9138 21.5082C12.0551 21.5514 12.1865 21.6221 12.3005 21.7161C12.4145 21.8102 12.5089 21.9257 12.5782 22.0562C12.6476 22.1867 12.6905 22.3296 12.7047 22.4767C12.7188 22.6238 12.7038 22.7723 12.6605 22.9136C12.6173 23.0549 12.5466 23.1863 12.4526 23.3003C12.3586 23.4143 12.243 23.5086 12.1125 23.578C10.6965 24.3295 9.0615 24.688 7.683 23.893C6.3 23.0935 5.793 21.493 5.7405 19.885C5.73505 19.5896 5.84604 19.3039 6.04948 19.0896C6.25293 18.8753 6.5325 18.7497 6.8278 18.7399C7.12311 18.73 7.41043 18.8367 7.6277 19.037C7.84498 19.2372 7.97475 19.5149 7.989 19.81C8.034 21.1225 8.43 21.7255 8.808 21.943ZM7.482 15.7435C7.20236 15.6396 6.97542 15.4289 6.85109 15.1578C6.72676 14.8866 6.71521 14.5772 6.819 14.2975C7.272 13.075 7.8645 11.812 8.589 10.558C10.149 7.85499 12.066 5.63799 13.947 4.25199C14.886 3.56049 15.861 3.04299 16.8165 2.80449C17.778 2.56449 18.792 2.59299 19.6815 3.10749C20.7615 3.72999 21.3075 4.85199 21.5175 6.04749C21.729 7.24599 21.6345 8.65899 21.3075 10.1425C21.281 10.2917 21.2247 10.4341 21.1419 10.561C21.059 10.6879 20.9514 10.7968 20.8254 10.8811C20.6995 10.9653 20.5578 11.0233 20.4089 11.0515C20.2599 11.0796 20.1069 11.0774 19.9588 11.045C19.8108 11.0125 19.6708 10.9505 19.5474 10.8626C19.4239 10.7747 19.3195 10.6628 19.2403 10.5335C19.1612 10.4042 19.109 10.2603 19.0868 10.1104C19.0647 9.96046 19.0731 9.8076 19.1115 9.66099C19.398 8.35299 19.446 7.25199 19.302 6.43599C19.158 5.61699 18.852 5.22549 18.558 5.05599C18.312 4.91349 17.9355 4.84299 17.3625 4.98699C16.7805 5.13249 16.0725 5.48199 15.282 6.06399C13.704 7.22499 11.979 9.18399 10.5375 11.683C9.90716 12.7686 9.36878 13.9051 8.928 15.0805C8.82413 15.3601 8.61345 15.5871 8.34228 15.7114C8.07112 15.8357 7.76167 15.8473 7.482 15.7435Z" fill="#326EDD"/>
<path d="M15.69 13.597C15.69 14.138 15.4751 14.6569 15.0925 15.0395C14.7099 15.4221 14.191 15.637 13.65 15.637C13.109 15.637 12.5901 15.4221 12.2075 15.0395C11.8249 14.6569 11.61 14.138 11.61 13.597C11.61 13.0559 11.8249 12.5371 12.2075 12.1545C12.5901 11.7719 13.109 11.557 13.65 11.557C14.191 11.557 14.7099 11.7719 15.0925 12.1545C15.4751 12.5371 15.69 13.0559 15.69 13.597Z" fill="#326EDD"/>
</svg>
