<svg width="30" height="30" viewBox="0 0 30 30" fill="none" xmlns="http://www.w3.org/2000/svg">
<path d="M5 12.8C5 8.6519 5 6.5773 6.2892 5.2892C7.5784 4.0011 9.6519 4 13.8 4H16C20.1481 4 22.2227 4 23.5108 5.2892C24.7989 6.5784 24.8 8.6519 24.8 12.8V17.2C24.8 21.3481 24.8 23.4227 23.5108 24.7108C22.2216 25.9989 20.1481 26 16 26H13.8C9.6519 26 7.5773 26 6.2892 24.7108C5.0011 23.4216 5 21.3481 5 17.2V12.8Z" stroke="#A2AAD3" stroke-width="2"/>
<path d="M10.5 12.8H19.3M10.5 17.2H16" stroke="#A2AAD3" stroke-width="2" stroke-linecap="round"/>
</svg>
