<svg width="27" height="27" viewBox="0 0 27 27" fill="none" xmlns="http://www.w3.org/2000/svg">
<path d="M13.4999 1.5L13.6403 1.5084C13.9082 1.53999 14.1576 1.6609 14.3483 1.85161C14.539 2.04233 14.6599 2.29174 14.6915 2.5596L14.6999 2.7V7.5L14.7059 7.68C14.7488 8.25141 14.9948 8.78859 15.3993 9.19444C15.8039 9.60028 16.3402 9.848 16.9115 9.8928L17.0999 9.9H21.8999L22.0403 9.9084C22.3082 9.93999 22.5576 10.0609 22.7483 10.2516C22.939 10.4423 23.0599 10.6917 23.0915 10.9596L23.0999 11.1V21.9C23.1 22.8183 22.7491 23.7018 22.1192 24.3699C21.4892 25.038 20.6278 25.4401 19.7111 25.494L19.4999 25.5H7.4999C6.58165 25.5001 5.69808 25.1492 5.02999 24.5193C4.36189 23.8893 3.95977 23.0279 3.9059 22.1112L3.8999 21.9V5.1C3.89985 4.18175 4.25069 3.29818 4.88064 2.63009C5.51059 1.96199 6.37203 1.55987 7.2887 1.506L7.4999 1.5H13.4999ZM17.5113 18.4809H9.51397C9.51397 18.4809 8.50826 18.4809 8.50826 19.5C8.50826 20.5191 9.51397 20.5062 9.51397 20.5062H17.5113C17.5113 20.5062 18.5193 20.5191 18.5193 19.5C18.5193 18.4809 17.5113 18.4809 17.5113 18.4809ZM17.5113 13.5H9.51397C9.51397 13.5 8.50826 13.4968 8.50826 14.5025C8.50826 15.5082 9.51397 15.5082 9.51397 15.5082H17.5113C17.5113 15.5082 18.5193 15.5049 18.5193 14.5025C18.5193 13.5 17.5113 13.5 17.5113 13.5Z" fill="#A2AAD3"/>
<path d="M21.9001 7.49999H17.1001L17.0989 2.69879L21.9001 7.49999Z" fill="#A2AAD3"/>
</svg>
