<svg width="30" height="30" viewBox="0 0 30 30" fill="none" xmlns="http://www.w3.org/2000/svg">
<path d="M14.9999 3L15.1403 3.0084C15.4082 3.03999 15.6576 3.1609 15.8483 3.35161C16.039 3.54233 16.1599 3.79174 16.1915 4.0596L16.1999 4.2V9L16.2059 9.18C16.2488 9.75141 16.4948 10.2886 16.8993 10.6944C17.3039 11.1003 17.8402 11.348 18.4115 11.3928L18.5999 11.4H23.3999L23.5403 11.4084C23.8082 11.44 24.0576 11.5609 24.2483 11.7516C24.439 11.9423 24.5599 12.1917 24.5915 12.4596L24.5999 12.6V23.4C24.6 24.3183 24.2491 25.2018 23.6192 25.8699C22.9892 26.538 22.1278 26.9401 21.2111 26.994L20.9999 27H8.9999C8.08165 27.0001 7.19808 26.6492 6.52999 26.0193C5.86189 25.3893 5.45977 24.5279 5.4059 23.6112L5.3999 23.4V6.6C5.39985 5.68175 5.75069 4.79818 6.38064 4.13009C7.01059 3.46199 7.87203 3.05987 8.7887 3.006L8.9999 3H14.9999ZM19.0113 19.9809H11.014C11.014 19.9809 10.0083 19.9809 10.0083 21C10.0083 22.0191 11.014 22.0062 11.014 22.0062H19.0113C19.0113 22.0062 20.0193 22.0191 20.0193 21C20.0193 19.9809 19.0113 19.9809 19.0113 19.9809ZM19.0113 15H11.014C11.014 15 10.0083 14.9968 10.0083 16.0025C10.0083 17.0082 11.014 17.0082 11.014 17.0082H19.0113C19.0113 17.0082 20.0193 17.0049 20.0193 16.0025C20.0193 15 19.0113 15 19.0113 15Z" fill="#A2AAD3"/>
<path d="M23.4001 8.99999H18.6001L18.5989 4.19879L23.4001 8.99999Z" fill="#A2AAD3"/>
</svg>
