<svg width="30" height="30" viewBox="0 0 30 30" fill="none" xmlns="http://www.w3.org/2000/svg">
<g clip-path="url(#clip0_171_590)">
<path fill-rule="evenodd" clip-rule="evenodd" d="M10.9378 4.59153C12.3951 3.75021 13.1237 3.32955 13.8983 3.1649C14.5837 3.01921 15.292 3.01921 15.9774 3.1649C16.752 3.32955 17.4806 3.75021 18.9378 4.59153L21.9519 6.33168C23.4091 7.173 24.1377 7.59366 24.6676 8.18218C25.1364 8.70289 25.4906 9.31634 25.7072 9.98275C25.9214 10.6422 25.9481 11.3692 25.9514 12.6693C25.6619 12.5763 25.3533 12.5261 25.033 12.5261H19.9211C19.015 10.7273 17.1516 9.49329 15 9.49329C11.9587 9.49329 9.49329 11.9587 9.49329 15C9.49329 15.1118 9.49662 15.2228 9.50319 15.333C9.49913 15.3968 9.49707 15.4612 9.49707 15.5261V24C9.49707 24.21 9.51866 24.415 9.55973 24.6129L7.92383 23.6684C6.46661 22.8271 5.738 22.4064 5.2081 21.8179C4.73925 21.2972 4.38507 20.6837 4.16855 20.0173C3.92383 19.2641 3.92383 18.4228 3.92383 16.7402V13.2599C3.92383 11.5772 3.92383 10.7359 4.16855 9.98275C4.38507 9.31634 4.73925 8.70289 5.2081 8.18218C5.738 7.59366 6.46661 7.173 7.92383 6.33168L10.9378 4.59153Z" fill="#A2AAD3"/>
<path d="M10.9976 17.0658C10.9976 15.4089 12.3407 14.0658 13.9976 14.0658H23.9999C25.6568 14.0658 26.9999 15.4089 26.9999 17.0658V24C26.9999 25.6569 25.6568 27 23.9999 27H13.9976C12.3407 27 10.9976 25.6569 10.9976 24V17.0658Z" fill="#326EDD"/>
<path d="M16.6313 18.1815V23.9432C16.6313 24.0995 16.5728 24.2362 16.4556 24.3534C16.3384 24.4706 16.1935 24.5292 16.021 24.5292C15.8485 24.5292 15.7036 24.4706 15.5864 24.3534C15.4692 24.2362 15.4106 24.0995 15.4106 23.9432V18.1815H14.0679C13.8953 18.1815 13.7505 18.1229 13.6333 18.0057C13.5161 17.8885 13.4575 17.7518 13.4575 17.5956C13.4575 17.4393 13.5161 17.3026 13.6333 17.1854C13.7505 17.0682 13.8953 17.0096 14.0679 17.0096H17.9741C18.1466 17.0096 18.2915 17.0682 18.4087 17.1854C18.5259 17.3026 18.5845 17.4393 18.5845 17.5956C18.5845 17.7518 18.5259 17.8885 18.4087 18.0057C18.2915 18.1229 18.1466 18.1815 17.9741 18.1815H16.6313ZM24.4438 19.1825C24.4438 19.3387 24.3853 19.4755 24.2681 19.5927C24.1509 19.7098 24.006 19.7684 23.8335 19.7684C23.661 19.7684 23.5161 19.7098 23.3989 19.5927C23.2817 19.4755 23.2231 19.3387 23.2231 19.1825C23.2231 18.9025 23.1255 18.6665 22.9302 18.4745C22.7381 18.2792 22.5103 18.1815 22.2466 18.1815H21.5142C21.2505 18.1815 21.021 18.2792 20.8257 18.4745C20.6336 18.6665 20.5376 18.9025 20.5376 19.1825C20.5376 19.4624 20.6336 19.7001 20.8257 19.8954C21.021 20.0874 21.2505 20.1835 21.5142 20.1835H22.2466C22.8586 20.1835 23.3778 20.3967 23.8042 20.8231C24.2306 21.2496 24.4438 21.7606 24.4438 22.3563C24.4438 22.952 24.2306 23.4631 23.8042 23.8895C23.3778 24.316 22.8586 24.5292 22.2466 24.5292H21.5142C20.9022 24.5292 20.383 24.316 19.9565 23.8895C19.5301 23.4631 19.3169 22.952 19.3169 22.3563C19.3169 22.2001 19.3755 22.0634 19.4927 21.9462C19.6099 21.829 19.7547 21.7704 19.9272 21.7704C20.0998 21.7704 20.2446 21.829 20.3618 21.9462C20.479 22.0634 20.5376 22.2001 20.5376 22.3563C20.5376 22.6363 20.6336 22.8739 20.8257 23.0692C21.021 23.2613 21.2505 23.3573 21.5142 23.3573H22.2466C22.5103 23.3573 22.7381 23.2613 22.9302 23.0692C23.1255 22.8739 23.2231 22.6363 23.2231 22.3563C23.2231 22.0764 23.1255 21.8404 22.9302 21.6483C22.7381 21.453 22.5103 21.3553 22.2466 21.3553H21.5142C20.9022 21.3553 20.383 21.1421 19.9565 20.7157C19.5301 20.2893 19.3169 19.7782 19.3169 19.1825C19.3169 18.5868 19.5301 18.0757 19.9565 17.6493C20.383 17.2229 20.9022 17.0096 21.5142 17.0096H22.2466C22.8586 17.0096 23.3778 17.2229 23.8042 17.6493C24.2306 18.0757 24.4438 18.5868 24.4438 19.1825Z" fill="#EEEEEE"/>
</g>
<defs>
<clipPath id="clip0_171_590">
<rect width="24" height="24" fill="white" transform="translate(3 3)"/>
</clipPath>
</defs>
</svg>
