<svg width="27" height="27" viewBox="0 0 27 27" fill="none" xmlns="http://www.w3.org/2000/svg">
<rect x="1.5" y="1.5" width="24" height="24" rx="6" fill="#326EDD"/>
<path d="M12.9378 21.3151C12.7138 21.3151 12.5298 21.2471 12.3858 21.1111C12.2418 20.9671 12.1698 20.7911 12.1698 20.5831V13.6231H13.7298V20.5831C13.7298 20.7911 13.6538 20.9671 13.5018 21.1111C13.3578 21.2471 13.1698 21.3151 12.9378 21.3151ZM10.2858 14.2951C10.0778 14.2951 9.90185 14.2311 9.75785 14.1031C9.62185 13.9751 9.55385 13.8071 9.55385 13.5991C9.55385 13.3911 9.62185 13.2271 9.75785 13.1071C9.90185 12.9791 10.0778 12.9151 10.2858 12.9151H15.6138C15.8218 12.9151 15.9938 12.9791 16.1298 13.1071C16.2738 13.2351 16.3458 13.4031 16.3458 13.6111C16.3458 13.8191 16.2738 13.9871 16.1298 14.1151C15.9938 14.2351 15.8218 14.2951 15.6138 14.2951H10.2858ZM20.3056 21.4351C19.7456 21.4351 19.2416 21.3671 18.7936 21.2311C18.3456 21.0871 17.9176 20.8391 17.5096 20.4871C17.4056 20.3991 17.3256 20.2991 17.2696 20.1871C17.2136 20.0751 17.1856 19.9631 17.1856 19.8511C17.1856 19.6671 17.2496 19.5071 17.3776 19.3711C17.5136 19.2271 17.6816 19.1551 17.8816 19.1551C18.0336 19.1551 18.1696 19.2031 18.2896 19.2991C18.5936 19.5471 18.8936 19.7351 19.1896 19.8631C19.4936 19.9911 19.8656 20.0551 20.3056 20.0551C20.6016 20.0551 20.8736 20.0111 21.1216 19.9231C21.3696 19.8271 21.5696 19.7031 21.7216 19.5511C21.8736 19.3911 21.9496 19.2111 21.9496 19.0111C21.9496 18.7711 21.8776 18.5671 21.7336 18.3991C21.5896 18.2311 21.3696 18.0911 21.0736 17.9791C20.7776 17.8591 20.4016 17.7671 19.9456 17.7031C19.5136 17.6391 19.1336 17.5431 18.8056 17.4151C18.4776 17.2791 18.2016 17.1111 17.9776 16.9111C17.7616 16.7031 17.5976 16.4631 17.4856 16.1911C17.3736 15.9111 17.3176 15.5991 17.3176 15.2551C17.3176 14.7351 17.4496 14.2911 17.7136 13.9231C17.9856 13.5551 18.3496 13.2751 18.8056 13.0831C19.2616 12.8911 19.7656 12.7951 20.3176 12.7951C20.8376 12.7951 21.3176 12.8751 21.7576 13.0351C22.2056 13.1871 22.5696 13.3831 22.8496 13.6231C23.0816 13.8071 23.1976 14.0191 23.1976 14.2591C23.1976 14.4351 23.1296 14.5951 22.9936 14.7391C22.8576 14.8831 22.6976 14.9551 22.5136 14.9551C22.3936 14.9551 22.2856 14.9191 22.1896 14.8471C22.0616 14.7351 21.8896 14.6311 21.6736 14.5351C21.4576 14.4311 21.2296 14.3471 20.9896 14.2831C20.7496 14.2111 20.5256 14.1751 20.3176 14.1751C19.9736 14.1751 19.6816 14.2191 19.4416 14.3071C19.2096 14.3951 19.0336 14.5151 18.9136 14.6671C18.7936 14.8191 18.7336 14.9951 18.7336 15.1951C18.7336 15.4351 18.8016 15.6351 18.9376 15.7951C19.0816 15.9471 19.2856 16.0711 19.5496 16.1671C19.8136 16.2551 20.1296 16.3351 20.4976 16.4071C20.9776 16.4951 21.3976 16.5991 21.7576 16.7191C22.1256 16.8391 22.4296 16.9951 22.6696 17.1871C22.9096 17.3711 23.0896 17.6071 23.2096 17.8951C23.3296 18.1751 23.3896 18.5191 23.3896 18.9271C23.3896 19.4471 23.2456 19.8951 22.9576 20.2711C22.6696 20.6471 22.2896 20.9351 21.8176 21.1351C21.3536 21.3351 20.8496 21.4351 20.3056 21.4351Z" fill="#EEEEEE"/>
</svg>
