<svg width="30" height="30" viewBox="0 0 30 30" fill="none" xmlns="http://www.w3.org/2000/svg">
<rect x="3.5" y="3" width="23" height="24" rx="5" fill="#326EDD"/>
<path d="M13.0194 13.7537V21.8201C13.0194 22.0388 12.9373 22.2303 12.7733 22.3943C12.6092 22.5584 12.4064 22.6404 12.1649 22.6404C11.9233 22.6404 11.7205 22.5584 11.5565 22.3943C11.3924 22.2303 11.3104 22.0388 11.3104 21.8201V13.7537H9.4305C9.18896 13.7537 8.98616 13.6717 8.8221 13.5076C8.65804 13.3435 8.57601 13.1521 8.57601 12.9334C8.57601 12.7146 8.65804 12.5232 8.8221 12.3592C8.98616 12.1951 9.18896 12.1131 9.4305 12.1131H14.8992C15.1408 12.1131 15.3436 12.1951 15.5076 12.3592C15.6717 12.5232 15.7537 12.7146 15.7537 12.9334C15.7537 13.1521 15.6717 13.3435 15.5076 13.5076C15.3436 13.6717 15.1408 13.7537 14.8992 13.7537H13.0194ZM23.5369 15.1551C23.5369 15.3738 23.4548 15.5652 23.2908 15.7293C23.1267 15.8933 22.9239 15.9754 22.6824 15.9754C22.4408 15.9754 22.238 15.8933 22.074 15.7293C21.9099 15.5652 21.8279 15.3738 21.8279 15.1551C21.8279 14.7631 21.6912 14.4327 21.4177 14.1638C21.1488 13.8904 20.8298 13.7537 20.4607 13.7537H19.4353C19.0662 13.7537 18.7449 13.8904 18.4714 14.1638C18.2026 14.4327 18.0681 14.7631 18.0681 15.1551C18.0681 15.547 18.2026 15.8797 18.4714 16.1531C18.7449 16.422 19.0662 16.5564 19.4353 16.5564H20.4607C21.3175 16.5564 22.0444 16.8549 22.6414 17.4519C23.2384 18.0489 23.5369 18.7644 23.5369 19.5984C23.5369 20.4324 23.2384 21.1479 22.6414 21.7449C22.0444 22.3419 21.3175 22.6404 20.4607 22.6404H19.4353C18.5785 22.6404 17.8516 22.3419 17.2546 21.7449C16.6576 21.1479 16.3591 20.4324 16.3591 19.5984C16.3591 19.3797 16.4412 19.1883 16.6052 19.0242C16.7693 18.8601 16.9721 18.7781 17.2136 18.7781C17.4552 18.7781 17.658 18.8601 17.822 19.0242C17.9861 19.1883 18.0681 19.3797 18.0681 19.5984C18.0681 19.9903 18.2026 20.323 18.4714 20.5965C18.7449 20.8653 19.0662 20.9998 19.4353 20.9998H20.4607C20.8298 20.9998 21.1488 20.8653 21.4177 20.5965C21.6912 20.323 21.8279 19.9903 21.8279 19.5984C21.8279 19.2065 21.6912 18.8761 21.4177 18.6072C21.1488 18.3338 20.8298 18.1971 20.4607 18.1971H19.4353C18.5785 18.1971 17.8516 17.8985 17.2546 17.3015C16.6576 16.7045 16.3591 15.989 16.3591 15.1551C16.3591 14.3211 16.6576 13.6056 17.2546 13.0086C17.8516 12.4116 18.5785 12.1131 19.4353 12.1131H20.4607C21.3175 12.1131 22.0444 12.4116 22.6414 13.0086C23.2384 13.6056 23.5369 14.3211 23.5369 15.1551Z" fill="#EEEEEE"/>
</svg>
