<svg width="27" height="28" viewBox="0 0 27 28" fill="none" xmlns="http://www.w3.org/2000/svg">
<g clip-path="url(#clip0_171_590)">
<path fill-rule="evenodd" clip-rule="evenodd" d="M9.43785 3.97523C10.8951 3.13391 11.6237 2.71324 12.3983 2.54859C13.0837 2.40291 13.792 2.40291 14.4774 2.54859C15.252 2.71324 15.9806 3.13391 17.4378 3.97523L20.4519 5.71537C21.9091 6.5567 22.6377 6.97736 23.1676 7.56587C23.6364 8.08659 23.9906 8.70004 24.2072 9.36644C24.4214 10.0259 24.4481 10.7529 24.4514 12.053C24.1619 11.96 23.8533 11.9098 23.533 11.9098H17.7403C16.863 10.9344 15.5911 10.321 14.176 10.321C12.7474 10.321 11.4648 10.9461 10.5868 11.9376C9.12402 12.1377 7.99707 13.3921 7.99707 14.9098V23.3837C7.99707 23.5937 8.01866 23.7987 8.05973 23.9966L6.42383 23.0521C4.96661 22.2107 4.238 21.7901 3.7081 21.2016C3.23925 20.6809 2.88507 20.0674 2.66855 19.401C2.42383 18.6478 2.42383 17.8065 2.42383 16.1239V12.6436C2.42383 10.9609 2.42383 10.1196 2.66855 9.36644C2.88507 8.70004 3.23925 8.08659 3.7081 7.56587C4.238 6.97736 4.96661 6.5567 6.42383 5.71538L9.43785 3.97523Z" fill="#A2AAD3"/>
<path d="M9.49756 16.4495C9.49756 14.7926 10.8407 13.4495 12.4976 13.4495H22.4999C24.1568 13.4495 25.4999 14.7926 25.4999 16.4495V23.3837C25.4999 25.0405 24.1568 26.3837 22.4999 26.3837H12.4976C10.8407 26.3837 9.49756 25.0405 9.49756 23.3837V16.4495Z" fill="#326EDD"/>
<path d="M15.1313 17.5652V23.3269C15.1313 23.4832 15.0728 23.6199 14.9556 23.7371C14.8384 23.8542 14.6935 23.9128 14.521 23.9128C14.3485 23.9128 14.2036 23.8542 14.0864 23.7371C13.9692 23.6199 13.9106 23.4832 13.9106 23.3269V17.5652H12.5679C12.3953 17.5652 12.2505 17.5066 12.1333 17.3894C12.0161 17.2722 11.9575 17.1355 11.9575 16.9792C11.9575 16.823 12.0161 16.6863 12.1333 16.5691C12.2505 16.4519 12.3953 16.3933 12.5679 16.3933H16.4741C16.6466 16.3933 16.7915 16.4519 16.9087 16.5691C17.0259 16.6863 17.0845 16.823 17.0845 16.9792C17.0845 17.1355 17.0259 17.2722 16.9087 17.3894C16.7915 17.5066 16.6466 17.5652 16.4741 17.5652H15.1313ZM22.9438 18.5662C22.9438 18.7224 22.8853 18.8591 22.7681 18.9763C22.6509 19.0935 22.506 19.1521 22.3335 19.1521C22.161 19.1521 22.0161 19.0935 21.8989 18.9763C21.7817 18.8591 21.7231 18.7224 21.7231 18.5662C21.7231 18.2862 21.6255 18.0502 21.4302 17.8582C21.2381 17.6628 21.0103 17.5652 20.7466 17.5652H20.0142C19.7505 17.5652 19.521 17.6628 19.3257 17.8582C19.1336 18.0502 19.0376 18.2862 19.0376 18.5662C19.0376 18.8461 19.1336 19.0837 19.3257 19.2791C19.521 19.4711 19.7505 19.5671 20.0142 19.5671H20.7466C21.3586 19.5671 21.8778 19.7804 22.3042 20.2068C22.7306 20.6332 22.9438 21.1443 22.9438 21.74C22.9438 22.3357 22.7306 22.8468 22.3042 23.2732C21.8778 23.6996 21.3586 23.9128 20.7466 23.9128H20.0142C19.4022 23.9128 18.883 23.6996 18.4565 23.2732C18.0301 22.8468 17.8169 22.3357 17.8169 21.74C17.8169 21.5837 17.8755 21.447 17.9927 21.3298C18.1099 21.2126 18.2547 21.1541 18.4272 21.1541C18.5998 21.1541 18.7446 21.2126 18.8618 21.3298C18.979 21.447 19.0376 21.5837 19.0376 21.74C19.0376 22.0199 19.1336 22.2576 19.3257 22.4529C19.521 22.6449 19.7505 22.741 20.0142 22.741H20.7466C21.0103 22.741 21.2381 22.6449 21.4302 22.4529C21.6255 22.2576 21.7231 22.0199 21.7231 21.74C21.7231 21.46 21.6255 21.224 21.4302 21.032C21.2381 20.8367 21.0103 20.739 20.7466 20.739H20.0142C19.4022 20.739 18.883 20.5258 18.4565 20.0994C18.0301 19.6729 17.8169 19.1619 17.8169 18.5662C17.8169 17.9705 18.0301 17.4594 18.4565 17.033C18.883 16.6065 19.4022 16.3933 20.0142 16.3933H20.7466C21.3586 16.3933 21.8778 16.6065 22.3042 17.033C22.7306 17.4594 22.9438 17.9705 22.9438 18.5662Z" fill="#EEEEEE"/>
</g>
<defs>
<clipPath id="clip0_171_590">
<rect width="24" height="24" fill="white" transform="translate(1.5 2.38367)"/>
</clipPath>
</defs>
</svg>
