<svg width="27" height="27" viewBox="0 0 27 27" fill="none" xmlns="http://www.w3.org/2000/svg">
<g clip-path="url(#clip0_171_590)">
<path fill-rule="evenodd" clip-rule="evenodd" d="M9.43785 3.09156C10.8951 2.25024 11.6237 1.82958 12.3983 1.66493C13.0837 1.51924 13.792 1.51924 14.4774 1.66493C15.252 1.82958 15.9806 2.25024 17.4378 3.09156L20.4519 4.83171C21.9091 5.67303 22.6377 6.09369 23.1676 6.68221C23.6364 7.20293 23.9906 7.81638 24.2072 8.48278C24.4214 9.14221 24.4481 9.86922 24.4514 11.1693C24.1619 11.0763 23.8533 11.0261 23.533 11.0261H17.7403C16.863 10.0507 15.5911 9.43736 14.176 9.43736C12.7474 9.43736 11.4648 10.0624 10.5868 11.054C9.12402 11.254 7.99707 12.5085 7.99707 14.0261V22.5C7.99707 22.71 8.01866 22.915 8.05973 23.1129L6.42383 22.1684C4.96661 21.3271 4.238 20.9064 3.7081 20.3179C3.23925 19.7972 2.88507 19.1837 2.66855 18.5173C2.42383 17.7642 2.42383 16.9229 2.42383 15.2402V11.7599C2.42383 10.0773 2.42383 9.23594 2.66855 8.48278C2.88507 7.81638 3.23925 7.20293 3.7081 6.68221C4.238 6.09369 4.96661 5.67303 6.42383 4.83171L9.43785 3.09156Z" fill="#A2AAD3"/>
<path d="M9.49756 15.5658C9.49756 13.9089 10.8407 12.5658 12.4976 12.5658H22.4999C24.1568 12.5658 25.4999 13.9089 25.4999 15.5658V22.5C25.4999 24.1569 24.1568 25.5 22.4999 25.5H12.4976C10.8407 25.5 9.49756 24.1569 9.49756 22.5V15.5658Z" fill="#326EDD"/>
<path d="M15.1313 16.6815V22.4432C15.1313 22.5995 15.0728 22.7362 14.9556 22.8534C14.8384 22.9706 14.6935 23.0292 14.521 23.0292C14.3485 23.0292 14.2036 22.9706 14.0864 22.8534C13.9692 22.7362 13.9106 22.5995 13.9106 22.4432V16.6815H12.5679C12.3953 16.6815 12.2505 16.6229 12.1333 16.5057C12.0161 16.3885 11.9575 16.2518 11.9575 16.0956C11.9575 15.9393 12.0161 15.8026 12.1333 15.6854C12.2505 15.5682 12.3953 15.5096 12.5679 15.5096H16.4741C16.6466 15.5096 16.7915 15.5682 16.9087 15.6854C17.0259 15.8026 17.0845 15.9393 17.0845 16.0956C17.0845 16.2518 17.0259 16.3885 16.9087 16.5057C16.7915 16.6229 16.6466 16.6815 16.4741 16.6815H15.1313ZM22.9438 17.6825C22.9438 17.8387 22.8853 17.9755 22.7681 18.0927C22.6509 18.2098 22.506 18.2684 22.3335 18.2684C22.161 18.2684 22.0161 18.2098 21.8989 18.0927C21.7817 17.9755 21.7231 17.8387 21.7231 17.6825C21.7231 17.4025 21.6255 17.1665 21.4302 16.9745C21.2381 16.7792 21.0103 16.6815 20.7466 16.6815H20.0142C19.7505 16.6815 19.521 16.7792 19.3257 16.9745C19.1336 17.1665 19.0376 17.4025 19.0376 17.6825C19.0376 17.9624 19.1336 18.2001 19.3257 18.3954C19.521 18.5874 19.7505 18.6835 20.0142 18.6835H20.7466C21.3586 18.6835 21.8778 18.8967 22.3042 19.3231C22.7306 19.7496 22.9438 20.2606 22.9438 20.8563C22.9438 21.452 22.7306 21.9631 22.3042 22.3895C21.8778 22.816 21.3586 23.0292 20.7466 23.0292H20.0142C19.4022 23.0292 18.883 22.816 18.4565 22.3895C18.0301 21.9631 17.8169 21.452 17.8169 20.8563C17.8169 20.7001 17.8755 20.5634 17.9927 20.4462C18.1099 20.329 18.2547 20.2704 18.4272 20.2704C18.5998 20.2704 18.7446 20.329 18.8618 20.4462C18.979 20.5634 19.0376 20.7001 19.0376 20.8563C19.0376 21.1363 19.1336 21.3739 19.3257 21.5692C19.521 21.7613 19.7505 21.8573 20.0142 21.8573H20.7466C21.0103 21.8573 21.2381 21.7613 21.4302 21.5692C21.6255 21.3739 21.7231 21.1363 21.7231 20.8563C21.7231 20.5764 21.6255 20.3404 21.4302 20.1483C21.2381 19.953 21.0103 19.8553 20.7466 19.8553H20.0142C19.4022 19.8553 18.883 19.6421 18.4565 19.2157C18.0301 18.7893 17.8169 18.2782 17.8169 17.6825C17.8169 17.0868 18.0301 16.5757 18.4565 16.1493C18.883 15.7229 19.4022 15.5096 20.0142 15.5096H20.7466C21.3586 15.5096 21.8778 15.7229 22.3042 16.1493C22.7306 16.5757 22.9438 17.0868 22.9438 17.6825Z" fill="#EEEEEE"/>
</g>
<defs>
<clipPath id="clip0_171_590">
<rect width="24" height="24" fill="white" transform="translate(1.5 1.5)"/>
</clipPath>
</defs>
</svg>
