<svg width="27" height="27" viewBox="0 0 27 27" fill="none" xmlns="http://www.w3.org/2000/svg">
<rect x="3" y="2.5" width="21" height="22" rx="4" stroke="#4A89FF" stroke-width="2"/>
<path d="M10.9862 12.1753V20.2417C10.9862 20.4604 10.9041 20.6519 10.7401 20.8159C10.576 20.98 10.3732 21.062 10.1317 21.062C9.89013 21.062 9.68733 20.98 9.52327 20.8159C9.35921 20.6519 9.27718 20.4604 9.27718 20.2417V12.1753H7.39729C7.15576 12.1753 6.95296 12.0933 6.7889 11.9292C6.62483 11.7651 6.5428 11.5737 6.5428 11.355C6.5428 11.1362 6.62483 10.9448 6.7889 10.7808C6.95296 10.6167 7.15576 10.5347 7.39729 10.5347H12.866C13.1076 10.5347 13.3104 10.6167 13.4744 10.7808C13.6385 10.9448 13.7205 11.1362 13.7205 11.355C13.7205 11.5737 13.6385 11.7651 13.4744 11.9292C13.3104 12.0933 13.1076 12.1753 12.866 12.1753H10.9862ZM21.5037 13.5767C21.5037 13.7954 21.4216 13.9868 21.2576 14.1509C21.0935 14.3149 20.8907 14.397 20.6492 14.397C20.4076 14.397 20.2048 14.3149 20.0408 14.1509C19.8767 13.9868 19.7947 13.7954 19.7947 13.5767C19.7947 13.1847 19.658 12.8543 19.3845 12.5854C19.1156 12.312 18.7966 12.1753 18.4275 12.1753H17.4021C17.033 12.1753 16.7117 12.312 16.4382 12.5854C16.1694 12.8543 16.0349 13.1847 16.0349 13.5767C16.0349 13.9686 16.1694 14.3013 16.4382 14.5747C16.7117 14.8436 17.033 14.978 17.4021 14.978H18.4275C19.2843 14.978 20.0111 15.2765 20.6082 15.8735C21.2052 16.4705 21.5037 17.186 21.5037 18.02C21.5037 18.854 21.2052 19.5695 20.6082 20.1665C20.0111 20.7635 19.2843 21.062 18.4275 21.062H17.4021C16.5453 21.062 15.8184 20.7635 15.2214 20.1665C14.6244 19.5695 14.3259 18.854 14.3259 18.02C14.3259 17.8013 14.408 17.6099 14.572 17.4458C14.7361 17.2817 14.9389 17.1997 15.1804 17.1997C15.422 17.1997 15.6248 17.2817 15.7888 17.4458C15.9529 17.6099 16.0349 17.8013 16.0349 18.02C16.0349 18.4119 16.1694 18.7446 16.4382 19.0181C16.7117 19.2869 17.033 19.4214 17.4021 19.4214H18.4275C18.7966 19.4214 19.1156 19.2869 19.3845 19.0181C19.658 18.7446 19.7947 18.4119 19.7947 18.02C19.7947 17.6281 19.658 17.2977 19.3845 17.0288C19.1156 16.7554 18.7966 16.6187 18.4275 16.6187H17.4021C16.5453 16.6187 15.8184 16.3201 15.2214 15.7231C14.6244 15.1261 14.3259 14.4106 14.3259 13.5767C14.3259 12.7427 14.6244 12.0272 15.2214 11.4302C15.8184 10.8332 16.5453 10.5347 17.4021 10.5347H18.4275C19.2843 10.5347 20.0111 10.8332 20.6082 11.4302C21.2052 12.0272 21.5037 12.7427 21.5037 13.5767Z" fill="#4A89FF"/>
</svg>
