<svg width="27" height="28" viewBox="0 0 27 28" fill="none" xmlns="http://www.w3.org/2000/svg">
<path fill-rule="evenodd" clip-rule="evenodd" d="M12.2417 14.3002C10.5848 14.3002 9.2417 15.6433 9.2417 17.3002V22.0139C9.2417 23.6707 10.5848 25.0139 12.2417 25.0139H21.25C22.9069 25.0139 24.25 23.6707 24.25 22.0139V17.3002C24.25 15.6433 22.9069 14.3002 21.25 14.3002H12.2417ZM13.2162 23.1302C13.3362 23.2435 13.4895 23.3002 13.6762 23.3002C13.8695 23.3002 14.0262 23.2435 14.1462 23.1302C14.2728 23.0102 14.3362 22.8635 14.3362 22.6902V17.4502H15.9062C16.0795 17.4502 16.2228 17.4002 16.3362 17.3002C16.4562 17.1935 16.5162 17.0535 16.5162 16.8802C16.5162 16.7068 16.4562 16.5668 16.3362 16.4602C16.2228 16.3535 16.0795 16.3002 15.9062 16.3002H11.4662C11.2928 16.3002 11.1462 16.3535 11.0262 16.4602C10.9128 16.5602 10.8562 16.6968 10.8562 16.8702C10.8562 17.0435 10.9128 17.1835 11.0262 17.2902C11.1462 17.3968 11.2928 17.4502 11.4662 17.4502H13.0362V22.6902C13.0362 22.8635 13.0962 23.0102 13.2162 23.1302ZM18.5559 23.2302C18.9293 23.3435 19.3493 23.4002 19.8159 23.4002C20.2693 23.4002 20.6893 23.3168 21.0759 23.1502C21.4693 22.9835 21.7859 22.7435 22.0259 22.4302C22.2659 22.1168 22.3859 21.7435 22.3859 21.3102C22.3859 20.9702 22.3359 20.6835 22.2359 20.4502C22.1359 20.2102 21.9859 20.0135 21.7859 19.8602C21.5859 19.7002 21.3326 19.5702 21.0259 19.4702C20.7259 19.3702 20.3759 19.2835 19.9759 19.2102C19.6693 19.1502 19.4059 19.0835 19.1859 19.0102C18.9659 18.9302 18.7959 18.8268 18.6759 18.7002C18.5626 18.5668 18.5059 18.4002 18.5059 18.2002C18.5059 18.0335 18.5559 17.8868 18.6559 17.7602C18.7559 17.6335 18.9026 17.5335 19.0959 17.4602C19.2959 17.3868 19.5393 17.3502 19.8259 17.3502C19.9993 17.3502 20.1859 17.3802 20.3859 17.4402C20.5859 17.4935 20.7759 17.5635 20.9559 17.6502C21.1359 17.7302 21.2793 17.8168 21.3859 17.9102C21.4659 17.9702 21.5559 18.0002 21.6559 18.0002C21.8093 18.0002 21.9426 17.9402 22.0559 17.8202C22.1693 17.7002 22.2259 17.5668 22.2259 17.4202C22.2259 17.2202 22.1293 17.0435 21.9359 16.8902C21.7026 16.6902 21.3993 16.5268 21.0259 16.4002C20.6593 16.2668 20.2593 16.2002 19.8259 16.2002C19.3659 16.2002 18.9459 16.2802 18.5659 16.4402C18.1859 16.6002 17.8826 16.8335 17.6559 17.1402C17.4359 17.4468 17.3259 17.8168 17.3259 18.2502C17.3259 18.5368 17.3726 18.7968 17.4659 19.0302C17.5593 19.2568 17.6959 19.4568 17.8759 19.6302C18.0626 19.7968 18.2926 19.9368 18.5659 20.0502C18.8393 20.1568 19.1559 20.2368 19.5159 20.2902C19.8959 20.3435 20.2093 20.4202 20.4559 20.5202C20.7026 20.6135 20.8859 20.7302 21.0059 20.8702C21.1259 21.0102 21.1859 21.1802 21.1859 21.3802C21.1859 21.5468 21.1226 21.6968 20.9959 21.8302C20.8693 21.9568 20.7026 22.0602 20.4959 22.1402C20.2893 22.2135 20.0626 22.2502 19.8159 22.2502C19.4493 22.2502 19.1393 22.1968 18.8859 22.0902C18.6393 21.9835 18.3893 21.8268 18.1359 21.6202C18.0359 21.5402 17.9226 21.5002 17.7959 21.5002C17.6293 21.5002 17.4893 21.5602 17.3759 21.6802C17.2693 21.7935 17.2159 21.9268 17.2159 22.0802C17.2159 22.1735 17.2393 22.2668 17.2859 22.3602C17.3326 22.4535 17.3993 22.5368 17.4859 22.6102C17.8259 22.9035 18.1826 23.1102 18.5559 23.2302Z" fill="#326EDD"/>
<path fill-rule="evenodd" clip-rule="evenodd" d="M11.4579 4.39279C12.0203 3.83018 12.7832 3.51402 13.5787 3.51385H18.7503C19.8111 3.51385 20.8284 3.93525 21.5785 4.68534C22.3286 5.43543 22.75 6.45276 22.75 7.51355V12.6852C22.75 12.7157 22.7495 12.7461 22.7486 12.7765C22.4809 12.6982 22.1977 12.6562 21.9047 12.6562H10.4631C8.80622 12.6562 7.46307 13.9994 7.46307 15.6562V20.6384L3.74846 16.9238C3.10915 16.2844 2.75 15.4172 2.75 14.513C2.75 13.6088 3.10915 12.7416 3.74846 12.1022L11.4579 4.39279ZM18.6109 7.54704C18.2409 7.20398 17.755 7.01343 17.2504 7.01359C16.8549 7.01359 16.4682 7.13088 16.1394 7.35062C15.8105 7.57037 15.5542 7.8827 15.4028 8.24813C15.2514 8.61355 15.2118 9.01565 15.289 9.40358C15.3662 9.79152 15.5566 10.1479 15.8363 10.4275C16.116 10.7072 16.4723 10.8977 16.8603 10.9749C17.2482 11.052 17.6503 11.0124 18.0157 10.8611C18.3812 10.7097 18.6935 10.4534 18.9132 10.1245C19.133 9.79562 19.2503 9.40897 19.2503 9.01343L19.2453 8.86344C19.2074 8.36033 18.9808 7.89011 18.6109 7.54704Z" fill="#326EDD"/>
</svg>
