<svg width="30" height="30" viewBox="0 0 30 30" fill="none" xmlns="http://www.w3.org/2000/svg">
<path d="M26.8351 13.8984C26.9807 14.5838 26.9808 15.2922 26.8351 15.9775C26.6704 16.7521 26.2495 17.4805 25.4083 18.9375L23.6681 21.9521C22.8269 23.4092 22.406 24.1381 21.8175 24.668C21.297 25.1366 20.6838 25.4905 20.0177 25.707C19.2646 25.9517 18.4228 25.9521 16.7404 25.9521H13.2599C11.5772 25.9521 10.7357 25.9517 9.98255 25.707C9.31621 25.4905 8.70245 25.1368 8.18177 24.668C7.59326 24.1381 7.1725 23.4093 6.33118 21.9521L4.59192 18.9375C3.75069 17.4804 3.32984 16.7521 3.16517 15.9775C3.01949 15.2922 3.0195 14.5838 3.16517 13.8984C3.32982 13.1238 3.7506 12.3947 4.59192 10.9375L6.33118 7.92383C7.17244 6.46673 7.59333 5.7379 8.18177 5.20801C8.70243 4.73921 9.31624 4.38548 9.98255 4.16895C10.7357 3.92423 11.5772 3.92383 13.2599 3.92383H16.7404C18.4228 3.92383 19.2646 3.92424 20.0177 4.16895C20.6838 4.38546 21.297 4.73937 21.8175 5.20801C22.406 5.7379 22.8268 6.46667 23.6681 7.92383L25.4083 10.9375C26.2497 12.3947 26.6704 13.1238 26.8351 13.8984ZM23.5704 16.0635C23.723 15.3627 23.723 14.6373 23.5704 13.9365C23.398 13.1445 22.9573 12.4015 22.0753 10.916C21.2278 9.48869 20.8038 8.77447 20.2179 8.25586C19.6994 7.79701 19.091 7.45084 18.4318 7.23926C17.6867 7.00019 16.8564 7 15.1964 7H14.8038C13.1437 7 12.3136 7.00017 11.5685 7.23926C10.9092 7.45083 10.3009 7.79694 9.78235 8.25586C9.19639 8.77448 8.77249 9.48855 7.92493 10.916C7.04285 12.4016 6.60126 13.1444 6.42884 13.9365C6.27632 14.6372 6.27632 15.3628 6.42884 16.0635C6.60126 16.8556 7.04285 17.5984 7.92493 19.084C8.77249 20.5114 9.19639 21.2255 9.78235 21.7441C10.3009 22.2031 10.9092 22.5492 11.5685 22.7607C12.3136 22.9998 13.1437 23 14.8038 23H15.1964C16.8564 23 17.6867 22.9998 18.4318 22.7607C19.091 22.5492 19.6994 22.203 20.2179 21.7441C20.8038 21.2255 21.2278 20.5113 22.0753 19.084C22.9573 17.5985 23.398 16.8555 23.5704 16.0635Z" fill="#4A89FF"/>
<path d="M12.6338 13.1158V18.8775C12.6338 19.0337 12.5752 19.1704 12.458 19.2876C12.3408 19.4048 12.196 19.4634 12.0234 19.4634C11.8509 19.4634 11.7061 19.4048 11.5889 19.2876C11.4717 19.1704 11.4131 19.0337 11.4131 18.8775V13.1158H10.0703C9.89779 13.1158 9.75293 13.0572 9.63574 12.94C9.51855 12.8228 9.45996 12.6861 9.45996 12.5298C9.45996 12.3736 9.51855 12.2368 9.63574 12.1197C9.75293 12.0025 9.89779 11.9439 10.0703 11.9439H13.9766C14.1491 11.9439 14.2939 12.0025 14.4111 12.1197C14.5283 12.2368 14.5869 12.3736 14.5869 12.5298C14.5869 12.6861 14.5283 12.8228 14.4111 12.94C14.2939 13.0572 14.1491 13.1158 13.9766 13.1158H12.6338ZM20.4463 14.1167C20.4463 14.273 20.3877 14.4097 20.2705 14.5269C20.1533 14.6441 20.0085 14.7027 19.8359 14.7027C19.6634 14.7027 19.5186 14.6441 19.4014 14.5269C19.2842 14.4097 19.2256 14.273 19.2256 14.1167C19.2256 13.8368 19.1279 13.6008 18.9326 13.4087C18.7406 13.2134 18.5127 13.1158 18.249 13.1158H17.5166C17.2529 13.1158 17.0234 13.2134 16.8281 13.4087C16.6361 13.6008 16.54 13.8368 16.54 14.1167C16.54 14.3967 16.6361 14.6343 16.8281 14.8296C17.0234 15.0217 17.2529 15.1177 17.5166 15.1177H18.249C18.861 15.1177 19.3802 15.3309 19.8066 15.7574C20.2331 16.1838 20.4463 16.6949 20.4463 17.2906C20.4463 17.8863 20.2331 18.3973 19.8066 18.8238C19.3802 19.2502 18.861 19.4634 18.249 19.4634H17.5166C16.9046 19.4634 16.3854 19.2502 15.959 18.8238C15.5326 18.3973 15.3193 17.8863 15.3193 17.2906C15.3193 17.1343 15.3779 16.9976 15.4951 16.8804C15.6123 16.7632 15.7572 16.7046 15.9297 16.7046C16.1022 16.7046 16.2471 16.7632 16.3643 16.8804C16.4814 16.9976 16.54 17.1343 16.54 17.2906C16.54 17.5705 16.6361 17.8081 16.8281 18.0034C17.0234 18.1955 17.2529 18.2915 17.5166 18.2915H18.249C18.5127 18.2915 18.7406 18.1955 18.9326 18.0034C19.1279 17.8081 19.2256 17.5705 19.2256 17.2906C19.2256 17.0106 19.1279 16.7746 18.9326 16.5826C18.7406 16.3872 18.5127 16.2896 18.249 16.2896H17.5166C16.9046 16.2896 16.3854 16.0764 15.959 15.6499C15.5326 15.2235 15.3193 14.7124 15.3193 14.1167C15.3193 13.521 15.5326 13.01 15.959 12.5835C16.3854 12.1571 16.9046 11.9439 17.5166 11.9439H18.249C18.861 11.9439 19.3802 12.1571 19.8066 12.5835C20.2331 13.01 20.4463 13.521 20.4463 14.1167Z" fill="#4A89FF"/>
</svg>
