<svg width="30" height="30" viewBox="0 0 30 30" fill="none" xmlns="http://www.w3.org/2000/svg">
<rect x="4.5" y="4" width="21" height="22" rx="4" stroke="#4A89FF" stroke-width="2"/>
<path d="M12.4862 13.6753V21.7417C12.4862 21.9604 12.4041 22.1519 12.2401 22.3159C12.076 22.48 11.8732 22.562 11.6317 22.562C11.3901 22.562 11.1873 22.48 11.0233 22.3159C10.8592 22.1519 10.7772 21.9604 10.7772 21.7417V13.6753H8.89729C8.65576 13.6753 8.45296 13.5933 8.2889 13.4292C8.12483 13.2651 8.0428 13.0737 8.0428 12.855C8.0428 12.6362 8.12483 12.4448 8.2889 12.2808C8.45296 12.1167 8.65576 12.0347 8.89729 12.0347H14.366C14.6076 12.0347 14.8104 12.1167 14.9744 12.2808C15.1385 12.4448 15.2205 12.6362 15.2205 12.855C15.2205 13.0737 15.1385 13.2651 14.9744 13.4292C14.8104 13.5933 14.6076 13.6753 14.366 13.6753H12.4862ZM23.0037 15.0767C23.0037 15.2954 22.9216 15.4868 22.7576 15.6509C22.5935 15.8149 22.3907 15.897 22.1492 15.897C21.9076 15.897 21.7048 15.8149 21.5408 15.6509C21.3767 15.4868 21.2947 15.2954 21.2947 15.0767C21.2947 14.6847 21.158 14.3543 20.8845 14.0854C20.6156 13.812 20.2966 13.6753 19.9275 13.6753H18.9021C18.533 13.6753 18.2117 13.812 17.9382 14.0854C17.6694 14.3543 17.5349 14.6847 17.5349 15.0767C17.5349 15.4686 17.6694 15.8013 17.9382 16.0747C18.2117 16.3436 18.533 16.478 18.9021 16.478H19.9275C20.7843 16.478 21.5111 16.7765 22.1082 17.3735C22.7052 17.9705 23.0037 18.686 23.0037 19.52C23.0037 20.354 22.7052 21.0695 22.1082 21.6665C21.5111 22.2635 20.7843 22.562 19.9275 22.562H18.9021C18.0453 22.562 17.3184 22.2635 16.7214 21.6665C16.1244 21.0695 15.8259 20.354 15.8259 19.52C15.8259 19.3013 15.908 19.1099 16.072 18.9458C16.2361 18.7817 16.4389 18.6997 16.6804 18.6997C16.922 18.6997 17.1248 18.7817 17.2888 18.9458C17.4529 19.1099 17.5349 19.3013 17.5349 19.52C17.5349 19.9119 17.6694 20.2446 17.9382 20.5181C18.2117 20.7869 18.533 20.9214 18.9021 20.9214H19.9275C20.2966 20.9214 20.6156 20.7869 20.8845 20.5181C21.158 20.2446 21.2947 19.9119 21.2947 19.52C21.2947 19.1281 21.158 18.7977 20.8845 18.5288C20.6156 18.2554 20.2966 18.1187 19.9275 18.1187H18.9021C18.0453 18.1187 17.3184 17.8201 16.7214 17.2231C16.1244 16.6261 15.8259 15.9106 15.8259 15.0767C15.8259 14.2427 16.1244 13.5272 16.7214 12.9302C17.3184 12.3332 18.0453 12.0347 18.9021 12.0347H19.9275C20.7843 12.0347 21.5111 12.3332 22.1082 12.9302C22.7052 13.5272 23.0037 14.2427 23.0037 15.0767Z" fill="#4A89FF"/>
</svg>
