<svg width="27" height="28" viewBox="0 0 27 28" fill="none" xmlns="http://www.w3.org/2000/svg">
<rect x="3" y="3.38364" width="21" height="22" rx="4" stroke="#4A89FF" stroke-width="2"/>
<path d="M10.9862 13.0589V21.1253C10.9862 21.3441 10.9041 21.5355 10.7401 21.6996C10.576 21.8636 10.3732 21.9456 10.1317 21.9456C9.89013 21.9456 9.68733 21.8636 9.52327 21.6996C9.35921 21.5355 9.27718 21.3441 9.27718 21.1253V13.0589H7.39729C7.15576 13.0589 6.95296 12.9769 6.7889 12.8128C6.62483 12.6488 6.5428 12.4574 6.5428 12.2386C6.5428 12.0199 6.62483 11.8285 6.7889 11.6644C6.95296 11.5003 7.15576 11.4183 7.39729 11.4183H12.866C13.1076 11.4183 13.3104 11.5003 13.4744 11.6644C13.6385 11.8285 13.7205 12.0199 13.7205 12.2386C13.7205 12.4574 13.6385 12.6488 13.4744 12.8128C13.3104 12.9769 13.1076 13.0589 12.866 13.0589H10.9862ZM21.5037 14.4603C21.5037 14.679 21.4216 14.8705 21.2576 15.0345C21.0935 15.1986 20.8907 15.2806 20.6492 15.2806C20.4076 15.2806 20.2048 15.1986 20.0408 15.0345C19.8767 14.8705 19.7947 14.679 19.7947 14.4603C19.7947 14.0684 19.658 13.738 19.3845 13.4691C19.1156 13.1956 18.7966 13.0589 18.4275 13.0589H17.4021C17.033 13.0589 16.7117 13.1956 16.4382 13.4691C16.1694 13.738 16.0349 14.0684 16.0349 14.4603C16.0349 14.8522 16.1694 15.1849 16.4382 15.4583C16.7117 15.7272 17.033 15.8617 17.4021 15.8617H18.4275C19.2843 15.8617 20.0111 16.1602 20.6082 16.7572C21.2052 17.3542 21.5037 18.0697 21.5037 18.9037C21.5037 19.7376 21.2052 20.4531 20.6082 21.0501C20.0111 21.6471 19.2843 21.9456 18.4275 21.9456H17.4021C16.5453 21.9456 15.8184 21.6471 15.2214 21.0501C14.6244 20.4531 14.3259 19.7376 14.3259 18.9037C14.3259 18.6849 14.408 18.4935 14.572 18.3294C14.7361 18.1654 14.9389 18.0833 15.1804 18.0833C15.422 18.0833 15.6248 18.1654 15.7888 18.3294C15.9529 18.4935 16.0349 18.6849 16.0349 18.9037C16.0349 19.2956 16.1694 19.6283 16.4382 19.9017C16.7117 20.1706 17.033 20.305 17.4021 20.305H18.4275C18.7966 20.305 19.1156 20.1706 19.3845 19.9017C19.658 19.6283 19.7947 19.2956 19.7947 18.9037C19.7947 18.5117 19.658 18.1813 19.3845 17.9124C19.1156 17.639 18.7966 17.5023 18.4275 17.5023H17.4021C16.5453 17.5023 15.8184 17.2038 15.2214 16.6068C14.6244 16.0098 14.3259 15.2943 14.3259 14.4603C14.3259 13.6263 14.6244 12.9108 15.2214 12.3138C15.8184 11.7168 16.5453 11.4183 17.4021 11.4183H18.4275C19.2843 11.4183 20.0111 11.7168 20.6082 12.3138C21.2052 12.9108 21.5037 13.6263 21.5037 14.4603Z" fill="#4A89FF"/>
</svg>
