<svg width="27" height="27" viewBox="0 0 27 27" fill="none" xmlns="http://www.w3.org/2000/svg">
<rect x="1.5" y="1.5" width="24" height="24" rx="6" fill="#326EDD"/>
<path d="M11.9379 20.315C11.7139 20.315 11.5299 20.247 11.3859 20.111C11.2419 19.967 11.1699 19.791 11.1699 19.583V12.623H12.7299V19.583C12.7299 19.791 12.6539 19.967 12.5019 20.111C12.3579 20.247 12.1699 20.315 11.9379 20.315ZM9.28586 13.295C9.07786 13.295 8.90186 13.231 8.75786 13.103C8.62186 12.975 8.55386 12.807 8.55386 12.599C8.55386 12.391 8.62186 12.227 8.75786 12.107C8.90186 11.979 9.07786 11.915 9.28586 11.915H14.6139C14.8219 11.915 14.9939 11.979 15.1299 12.107C15.2739 12.235 15.3459 12.403 15.3459 12.611C15.3459 12.819 15.2739 12.987 15.1299 13.115C14.9939 13.235 14.8219 13.295 14.6139 13.295H9.28586ZM19.3056 20.435C18.7456 20.435 18.2416 20.367 17.7936 20.231C17.3456 20.087 16.9176 19.839 16.5096 19.487C16.4056 19.399 16.3256 19.299 16.2696 19.187C16.2136 19.075 16.1856 18.963 16.1856 18.851C16.1856 18.667 16.2496 18.507 16.3776 18.371C16.5136 18.227 16.6816 18.155 16.8816 18.155C17.0336 18.155 17.1696 18.203 17.2896 18.299C17.5936 18.547 17.8936 18.735 18.1896 18.863C18.4936 18.991 18.8656 19.055 19.3056 19.055C19.6016 19.055 19.8736 19.011 20.1216 18.923C20.3696 18.827 20.5696 18.703 20.7216 18.551C20.8736 18.391 20.9496 18.211 20.9496 18.011C20.9496 17.771 20.8776 17.567 20.7336 17.399C20.5896 17.231 20.3696 17.091 20.0736 16.979C19.7776 16.859 19.4016 16.767 18.9456 16.703C18.5136 16.639 18.1336 16.543 17.8056 16.415C17.4776 16.279 17.2016 16.111 16.9776 15.911C16.7616 15.703 16.5976 15.463 16.4856 15.191C16.3736 14.911 16.3176 14.599 16.3176 14.255C16.3176 13.735 16.4496 13.291 16.7136 12.923C16.9856 12.555 17.3496 12.275 17.8056 12.083C18.2616 11.891 18.7656 11.795 19.3176 11.795C19.8376 11.795 20.3176 11.875 20.7576 12.035C21.2056 12.187 21.5696 12.383 21.8496 12.623C22.0816 12.807 22.1976 13.019 22.1976 13.259C22.1976 13.435 22.1296 13.595 21.9936 13.739C21.8576 13.883 21.6976 13.955 21.5136 13.955C21.3936 13.955 21.2856 13.919 21.1896 13.847C21.0616 13.735 20.8896 13.631 20.6736 13.535C20.4576 13.431 20.2296 13.347 19.9896 13.283C19.7496 13.211 19.5256 13.175 19.3176 13.175C18.9736 13.175 18.6816 13.219 18.4416 13.307C18.2096 13.395 18.0336 13.515 17.9136 13.667C17.7936 13.819 17.7336 13.995 17.7336 14.195C17.7336 14.435 17.8016 14.635 17.9376 14.795C18.0816 14.947 18.2856 15.071 18.5496 15.167C18.8136 15.255 19.1296 15.335 19.4976 15.407C19.9776 15.495 20.3976 15.599 20.7576 15.719C21.1256 15.839 21.4296 15.995 21.6696 16.187C21.9096 16.371 22.0896 16.607 22.2096 16.895C22.3296 17.175 22.3896 17.519 22.3896 17.927C22.3896 18.447 22.2456 18.895 21.9576 19.271C21.6696 19.647 21.2896 19.935 20.8176 20.135C20.3536 20.335 19.8496 20.435 19.3056 20.435Z" fill="#EEEEEE"/>
</svg>
