<svg width="27" height="27" viewBox="0 0 27 27" fill="none" xmlns="http://www.w3.org/2000/svg">
<rect x="2" y="1.5" width="23" height="24" rx="5" fill="#326EDD"/>
<path d="M11.5194 12.2537V20.3201C11.5194 20.5388 11.4373 20.7303 11.2733 20.8943C11.1092 21.0584 10.9064 21.1404 10.6649 21.1404C10.4233 21.1404 10.2205 21.0584 10.0565 20.8943C9.89241 20.7303 9.81038 20.5388 9.81038 20.3201V12.2537H7.9305C7.68896 12.2537 7.48616 12.1717 7.3221 12.0076C7.15804 11.8435 7.07601 11.6521 7.07601 11.4334C7.07601 11.2146 7.15804 11.0232 7.3221 10.8592C7.48616 10.6951 7.68896 10.6131 7.9305 10.6131H13.3992C13.6408 10.6131 13.8436 10.6951 14.0076 10.8592C14.1717 11.0232 14.2537 11.2146 14.2537 11.4334C14.2537 11.6521 14.1717 11.8435 14.0076 12.0076C13.8436 12.1717 13.6408 12.2537 13.3992 12.2537H11.5194ZM22.0369 13.6551C22.0369 13.8738 21.9548 14.0652 21.7908 14.2293C21.6267 14.3933 21.4239 14.4754 21.1824 14.4754C20.9408 14.4754 20.738 14.3933 20.574 14.2293C20.4099 14.0652 20.3279 13.8738 20.3279 13.6551C20.3279 13.2631 20.1912 12.9327 19.9177 12.6638C19.6488 12.3904 19.3298 12.2537 18.9607 12.2537H17.9353C17.5662 12.2537 17.2449 12.3904 16.9714 12.6638C16.7026 12.9327 16.5681 13.2631 16.5681 13.6551C16.5681 14.047 16.7026 14.3797 16.9714 14.6531C17.2449 14.922 17.5662 15.0564 17.9353 15.0564H18.9607C19.8175 15.0564 20.5444 15.3549 21.1414 15.9519C21.7384 16.5489 22.0369 17.2644 22.0369 18.0984C22.0369 18.9324 21.7384 19.6479 21.1414 20.2449C20.5444 20.8419 19.8175 21.1404 18.9607 21.1404H17.9353C17.0785 21.1404 16.3516 20.8419 15.7546 20.2449C15.1576 19.6479 14.8591 18.9324 14.8591 18.0984C14.8591 17.8797 14.9412 17.6883 15.1052 17.5242C15.2693 17.3601 15.4721 17.2781 15.7136 17.2781C15.9552 17.2781 16.158 17.3601 16.322 17.5242C16.4861 17.6883 16.5681 17.8797 16.5681 18.0984C16.5681 18.4903 16.7026 18.823 16.9714 19.0965C17.2449 19.3653 17.5662 19.4998 17.9353 19.4998H18.9607C19.3298 19.4998 19.6488 19.3653 19.9177 19.0965C20.1912 18.823 20.3279 18.4903 20.3279 18.0984C20.3279 17.7065 20.1912 17.3761 19.9177 17.1072C19.6488 16.8338 19.3298 16.6971 18.9607 16.6971H17.9353C17.0785 16.6971 16.3516 16.3985 15.7546 15.8015C15.1576 15.2045 14.8591 14.489 14.8591 13.6551C14.8591 12.8211 15.1576 12.1056 15.7546 11.5086C16.3516 10.9116 17.0785 10.6131 17.9353 10.6131H18.9607C19.8175 10.6131 20.5444 10.9116 21.1414 11.5086C21.7384 12.1056 22.0369 12.8211 22.0369 13.6551Z" fill="#EEEEEE"/>
</svg>
