<svg width="27" height="28" viewBox="0 0 27 28" fill="none" xmlns="http://www.w3.org/2000/svg">
<rect x="2" y="2.38364" width="23" height="24" rx="5" fill="#326EDD"/>
<path d="M11.5194 13.1373V21.2037C11.5194 21.4225 11.4373 21.6139 11.2733 21.778C11.1092 21.942 10.9064 22.024 10.6649 22.024C10.4233 22.024 10.2205 21.942 10.0565 21.778C9.89241 21.6139 9.81038 21.4225 9.81038 21.2037V13.1373H7.9305C7.68896 13.1373 7.48616 13.0553 7.3221 12.8912C7.15804 12.7272 7.07601 12.5358 7.07601 12.317C7.07601 12.0983 7.15804 11.9069 7.3221 11.7428C7.48616 11.5787 7.68896 11.4967 7.9305 11.4967H13.3992C13.6408 11.4967 13.8436 11.5787 14.0076 11.7428C14.1717 11.9069 14.2537 12.0983 14.2537 12.317C14.2537 12.5358 14.1717 12.7272 14.0076 12.8912C13.8436 13.0553 13.6408 13.1373 13.3992 13.1373H11.5194ZM22.0369 14.5387C22.0369 14.7574 21.9548 14.9489 21.7908 15.1129C21.6267 15.277 21.4239 15.359 21.1824 15.359C20.9408 15.359 20.738 15.277 20.574 15.1129C20.4099 14.9489 20.3279 14.7574 20.3279 14.5387C20.3279 14.1468 20.1912 13.8164 19.9177 13.5475C19.6488 13.274 19.3298 13.1373 18.9607 13.1373H17.9353C17.5662 13.1373 17.2449 13.274 16.9714 13.5475C16.7026 13.8164 16.5681 14.1468 16.5681 14.5387C16.5681 14.9306 16.7026 15.2633 16.9714 15.5367C17.2449 15.8056 17.5662 15.9401 17.9353 15.9401H18.9607C19.8175 15.9401 20.5444 16.2386 21.1414 16.8356C21.7384 17.4326 22.0369 18.1481 22.0369 18.9821C22.0369 19.816 21.7384 20.5315 21.1414 21.1285C20.5444 21.7255 19.8175 22.024 18.9607 22.024H17.9353C17.0785 22.024 16.3516 21.7255 15.7546 21.1285C15.1576 20.5315 14.8591 19.816 14.8591 18.9821C14.8591 18.7633 14.9412 18.5719 15.1052 18.4078C15.2693 18.2438 15.4721 18.1617 15.7136 18.1617C15.9552 18.1617 16.158 18.2438 16.322 18.4078C16.4861 18.5719 16.5681 18.7633 16.5681 18.9821C16.5681 19.374 16.7026 19.7067 16.9714 19.9801C17.2449 20.249 17.5662 20.3834 17.9353 20.3834H18.9607C19.3298 20.3834 19.6488 20.249 19.9177 19.9801C20.1912 19.7067 20.3279 19.374 20.3279 18.9821C20.3279 18.5901 20.1912 18.2597 19.9177 17.9908C19.6488 17.7174 19.3298 17.5807 18.9607 17.5807H17.9353C17.0785 17.5807 16.3516 17.2822 15.7546 16.6852C15.1576 16.0882 14.8591 15.3727 14.8591 14.5387C14.8591 13.7047 15.1576 12.9892 15.7546 12.3922C16.3516 11.7952 17.0785 11.4967 17.9353 11.4967H18.9607C19.8175 11.4967 20.5444 11.7952 21.1414 12.3922C21.7384 12.9892 22.0369 13.7047 22.0369 14.5387Z" fill="#EEEEEE"/>
</svg>
