<svg width="27" height="27" viewBox="0 0 27 27" fill="none" xmlns="http://www.w3.org/2000/svg">
<rect x="2" y="1.5" width="23" height="24" rx="5" fill="#326EDD"/>
<path d="M10.8499 13.1049V21.1713C10.8499 21.3901 10.7678 21.5815 10.6038 21.7455C10.4397 21.9096 10.2369 21.9916 9.99536 21.9916C9.75382 21.9916 9.55103 21.9096 9.38696 21.7455C9.2229 21.5815 9.14087 21.3901 9.14087 21.1713V13.1049H7.26099C7.01945 13.1049 6.81665 13.0229 6.65259 12.8588C6.48853 12.6948 6.40649 12.5034 6.40649 12.2846C6.40649 12.0659 6.48853 11.8745 6.65259 11.7104C6.81665 11.5463 7.01945 11.4643 7.26099 11.4643H12.7297C12.9713 11.4643 13.1741 11.5463 13.3381 11.7104C13.5022 11.8745 13.5842 12.0659 13.5842 12.2846C13.5842 12.5034 13.5022 12.6948 13.3381 12.8588C13.1741 13.0229 12.9713 13.1049 12.7297 13.1049H10.8499ZM21.7874 14.5063C21.7874 14.725 21.7053 14.9164 21.5413 15.0805C21.3772 15.2446 21.1744 15.3266 20.9329 15.3266C20.6913 15.3266 20.4885 15.2446 20.3245 15.0805C20.1604 14.9164 20.0784 14.725 20.0784 14.5063C20.0784 14.1144 19.9417 13.784 19.6682 13.5151C19.3993 13.2416 19.0803 13.1049 18.7112 13.1049H17.6858C17.3167 13.1049 16.9954 13.2416 16.7219 13.5151C16.453 13.784 16.3186 14.1144 16.3186 14.5063C16.3186 14.8982 16.453 15.2309 16.7219 15.5043C16.9954 15.7732 17.3167 15.9077 17.6858 15.9077H18.7112C19.568 15.9077 20.2948 16.2062 20.8918 16.8032C21.4889 17.4002 21.7874 18.1157 21.7874 18.9496C21.7874 19.7836 21.4889 20.4991 20.8918 21.0961C20.2948 21.6931 19.568 21.9916 18.7112 21.9916H17.6858C16.829 21.9916 16.1021 21.6931 15.5051 21.0961C14.9081 20.4991 14.6096 19.7836 14.6096 18.9496C14.6096 18.7309 14.6917 18.5395 14.8557 18.3754C15.0198 18.2114 15.2226 18.1293 15.4641 18.1293C15.7056 18.1293 15.9084 18.2114 16.0725 18.3754C16.2366 18.5395 16.3186 18.7309 16.3186 18.9496C16.3186 19.3416 16.453 19.6743 16.7219 19.9477C16.9954 20.2166 17.3167 20.351 17.6858 20.351H18.7112C19.0803 20.351 19.3993 20.2166 19.6682 19.9477C19.9417 19.6743 20.0784 19.3416 20.0784 18.9496C20.0784 18.5577 19.9417 18.2273 19.6682 17.9584C19.3993 17.685 19.0803 17.5483 18.7112 17.5483H17.6858C16.829 17.5483 16.1021 17.2498 15.5051 16.6528C14.9081 16.0558 14.6096 15.3403 14.6096 14.5063C14.6096 13.6723 14.9081 12.9568 15.5051 12.3598C16.1021 11.7628 16.829 11.4643 17.6858 11.4643H18.7112C19.568 11.4643 20.2948 11.7628 20.8918 12.3598C21.4889 12.9568 21.7874 13.6723 21.7874 14.5063Z" fill="#EEEEEE"/>
</svg>
