<svg width="27" height="27" viewBox="0 0 27 27" fill="none" xmlns="http://www.w3.org/2000/svg">
<rect x="2" y="1.5" width="23" height="24" rx="5" fill="#326EDD"/>
<path d="M9.77195 11.2767H8.13995C6.98395 11.2767 6.98395 9.61068 8.13995 9.61068H13.1379C14.1749 9.61068 14.2089 11.2767 13.1379 11.2767H11.4209V20.6437C11.4209 21.7997 9.77195 21.7997 9.77195 20.6437V11.2767ZM17.5055 16.1047C15.9245 15.5947 15.1255 14.3367 15.1255 12.9087C15.1255 11.1067 16.6895 9.61068 18.5085 9.61068C20.3275 9.61068 21.8745 11.0897 21.8745 12.9087C21.8745 13.9627 20.2085 14.0647 20.2085 12.9087C20.2085 12.0587 19.4095 11.2767 18.5085 11.2767C17.5565 11.2767 16.7915 12.0077 16.7915 12.9087C16.7915 13.6567 17.2165 14.2687 17.9135 14.4727L19.6815 15.1017C21.0075 15.5267 21.8745 16.8697 21.8745 18.1447C21.8745 19.9807 20.3445 21.5107 18.5085 21.5107C16.6385 21.5107 15.1255 19.9977 15.1255 18.1447C15.1255 17.1077 16.7915 17.1077 16.7915 18.1447C16.7915 19.0967 17.5395 19.8447 18.5085 19.8447C19.4095 19.8447 20.2085 19.0457 20.2085 18.1447C20.2085 17.5327 19.5625 16.8017 18.9845 16.6147L17.5055 16.1047Z" fill="#EEEEEE"/>
</svg>
