<svg width="27" height="28" viewBox="0 0 27 28" fill="none" xmlns="http://www.w3.org/2000/svg">
<rect x="2" y="2.26385" width="23" height="24" rx="5" fill="#326EDD"/>
<path d="M11.2789 22.2025C11.0549 22.2025 10.8709 22.1345 10.7269 21.9985C10.5829 21.8545 10.5109 21.6785 10.5109 21.4705V14.5105H12.0709V21.4705C12.0709 21.6785 11.9949 21.8545 11.8429 21.9985C11.6989 22.1345 11.5109 22.2025 11.2789 22.2025ZM8.62691 15.1825C8.41891 15.1825 8.24291 15.1185 8.09891 14.9905C7.96291 14.8625 7.89491 14.6945 7.89491 14.4865C7.89491 14.2785 7.96291 14.1145 8.09891 13.9945C8.24291 13.8665 8.41891 13.8025 8.62691 13.8025H13.9549C14.1629 13.8025 14.3349 13.8665 14.4709 13.9945C14.6149 14.1225 14.6869 14.2905 14.6869 14.4985C14.6869 14.7065 14.6149 14.8745 14.4709 15.0025C14.3349 15.1225 14.1629 15.1825 13.9549 15.1825H8.62691ZM18.6466 22.3225C18.0866 22.3225 17.5826 22.2545 17.1346 22.1185C16.6866 21.9745 16.2586 21.7265 15.8506 21.3745C15.7466 21.2865 15.6666 21.1865 15.6106 21.0745C15.5546 20.9625 15.5266 20.8505 15.5266 20.7385C15.5266 20.5545 15.5906 20.3945 15.7186 20.2585C15.8546 20.1145 16.0226 20.0425 16.2226 20.0425C16.3746 20.0425 16.5106 20.0905 16.6306 20.1865C16.9346 20.4345 17.2346 20.6225 17.5306 20.7505C17.8346 20.8785 18.2066 20.9425 18.6466 20.9425C18.9426 20.9425 19.2146 20.8985 19.4626 20.8105C19.7106 20.7145 19.9106 20.5905 20.0626 20.4385C20.2146 20.2785 20.2906 20.0985 20.2906 19.8985C20.2906 19.6585 20.2186 19.4545 20.0746 19.2865C19.9306 19.1185 19.7106 18.9785 19.4146 18.8665C19.1186 18.7465 18.7426 18.6545 18.2866 18.5905C17.8546 18.5265 17.4746 18.4305 17.1466 18.3025C16.8186 18.1665 16.5426 17.9985 16.3186 17.7985C16.1026 17.5905 15.9386 17.3505 15.8266 17.0785C15.7146 16.7985 15.6586 16.4865 15.6586 16.1425C15.6586 15.6225 15.7906 15.1785 16.0546 14.8105C16.3266 14.4425 16.6906 14.1625 17.1466 13.9705C17.6026 13.7785 18.1066 13.6825 18.6586 13.6825C19.1786 13.6825 19.6586 13.7625 20.0986 13.9225C20.5466 14.0745 20.9106 14.2705 21.1906 14.5105C21.4226 14.6945 21.5386 14.9065 21.5386 15.1465C21.5386 15.3225 21.4706 15.4825 21.3346 15.6265C21.1986 15.7705 21.0386 15.8425 20.8546 15.8425C20.7346 15.8425 20.6266 15.8065 20.5306 15.7345C20.4026 15.6225 20.2306 15.5185 20.0146 15.4225C19.7986 15.3185 19.5706 15.2345 19.3306 15.1705C19.0906 15.0985 18.8666 15.0625 18.6586 15.0625C18.3146 15.0625 18.0226 15.1065 17.7826 15.1945C17.5506 15.2825 17.3746 15.4025 17.2546 15.5545C17.1346 15.7065 17.0746 15.8825 17.0746 16.0825C17.0746 16.3225 17.1426 16.5225 17.2786 16.6825C17.4226 16.8345 17.6266 16.9585 17.8906 17.0545C18.1546 17.1425 18.4706 17.2225 18.8386 17.2945C19.3186 17.3825 19.7386 17.4865 20.0986 17.6065C20.4666 17.7265 20.7706 17.8825 21.0106 18.0745C21.2506 18.2585 21.4306 18.4945 21.5506 18.7825C21.6706 19.0625 21.7306 19.4065 21.7306 19.8145C21.7306 20.3345 21.5866 20.7825 21.2986 21.1585C21.0106 21.5345 20.6306 21.8225 20.1586 22.0225C19.6946 22.2225 19.1906 22.3225 18.6466 22.3225Z" fill="#EEEEEE"/>
</svg>
