<svg width="27" height="27" viewBox="0 0 27 27" fill="none" xmlns="http://www.w3.org/2000/svg">
<path d="M20.0893 16.8214L23.0357 20.625C23.1786 20.7857 23.3438 20.9152 23.5313 21.0134C23.7188 21.1116 23.9196 21.1607 24.1339 21.1607C24.5089 21.1607 24.8304 21.0268 25.0982 20.7589C25.3661 20.4911 25.5 20.1696 25.5 19.7946V7.20534C25.5 6.83034 25.3661 6.50892 25.0982 6.24106C24.8304 5.9732 24.5089 5.83927 24.1339 5.83927C23.9196 5.83927 23.7188 5.88838 23.5313 5.98659C23.3438 6.08481 23.1875 6.21427 23.0625 6.37499H23.0357L20.1964 10.0178C20.0536 10.2143 19.9509 10.3571 19.8884 10.4464C19.8259 10.5357 19.7679 10.625 19.7143 10.7143C19.6786 10.7857 19.6473 10.8661 19.6205 10.9553C19.5938 11.0446 19.5714 11.1339 19.5536 11.2232L19.5268 11.3839C19.5089 11.4553 19.5 11.5357 19.5 11.625V11.8661V11.8795V11.8928V14.9196C19.5 15.1696 19.5045 15.3482 19.5134 15.4553C19.5223 15.5625 19.5357 15.6696 19.5536 15.7768C19.5714 15.8661 19.5938 15.9509 19.6205 16.0312C19.6473 16.1116 19.6786 16.1964 19.7143 16.2857L19.7946 16.4196C19.8482 16.5089 19.8973 16.5848 19.942 16.6473C19.9866 16.7098 20.0357 16.7768 20.0893 16.8482V16.8214ZM6.61607 22.0714H11.4375C12.3839 22.0714 13.0848 22.0223 13.5402 21.9241C13.9955 21.8259 14.3929 21.6875 14.7321 21.5089C15.0893 21.3125 15.4018 21.0803 15.6696 20.8125C15.9375 20.5446 16.1696 20.2321 16.3661 19.875L16.5 19.6071C16.6429 19.2857 16.75 18.9062 16.8214 18.4687C16.8929 18.0312 16.9286 17.4018 16.9286 16.5803V10.4196V9.7232C16.8929 9.02677 16.8304 8.49552 16.7411 8.12945C16.6518 7.76338 16.5268 7.42856 16.3661 7.12499C16.1696 6.76784 15.9375 6.45534 15.6696 6.18749C15.4018 5.91963 15.0982 5.69642 14.7589 5.51784L14.7321 5.49106L14.4643 5.35713C14.1429 5.21427 13.7634 5.10713 13.3259 5.0357C12.8884 4.96427 12.2589 4.92856 11.4375 4.92856H6.99107C6.04464 4.92856 5.34375 4.97767 4.88839 5.07588C4.43304 5.17409 4.03571 5.31249 3.69643 5.49106C3.33929 5.68749 3.02679 5.91963 2.75893 6.18749C2.49107 6.45534 2.26786 6.75892 2.08929 7.0982L2.0625 7.12499C1.88393 7.46427 1.74554 7.86159 1.64732 8.31695C1.54911 8.77231 1.5 9.4732 1.5 10.4196V16.5803C1.5 17.5268 1.54911 18.2277 1.64732 18.683C1.74554 19.1384 1.88393 19.5357 2.0625 19.875C2.25893 20.2321 2.49107 20.5446 2.75893 20.8125C3.02679 21.0803 3.33929 21.3125 3.69643 21.5089C4.01786 21.6696 4.38393 21.7991 4.79464 21.8973C5.20536 21.9955 5.8125 22.0536 6.61607 22.0714Z" fill="#A2AAD3"/>
</svg>
