<svg width="27" height="27" viewBox="0 0 27 27" fill="none" xmlns="http://www.w3.org/2000/svg">
<g clip-path="url(#clip0_154_331)">
<path d="M24.3844 7.97355C24.1397 7.94529 23.8921 7.9892 23.672 8.09987L17.9207 10.9736V16.0264L23.672 18.9002C23.8643 18.9963 24.078 19.0417 24.2928 19.0321C24.5076 19.0226 24.7164 18.9583 24.8995 18.8455C25.0825 18.7327 25.2337 18.575 25.3388 18.3874C25.4438 18.1997 25.4993 17.9884 25.4998 17.7734V9.22664C25.4995 8.91746 25.3857 8.61914 25.1802 8.3882C24.9746 8.15726 24.6915 8.00973 24.3844 7.97355Z" fill="#5BAFD4"/>
<path d="M5.28884 4.65765C3.21089 4.65765 1.49927 6.36928 1.49927 8.44723V18.5528C1.49927 20.6307 3.21089 22.3423 5.28884 22.3423H15.3944C17.4723 22.3423 19.184 20.6307 19.184 18.5528V8.44723C19.184 6.36928 17.4723 4.65765 15.3944 4.65765H5.28884Z" fill="#5BAFD4"/>
</g>
<defs>
<clipPath id="clip0_154_331">
<rect width="24" height="24" fill="white" transform="translate(1.5 1.5)"/>
</clipPath>
</defs>
</svg>
