<svg width="30" height="30" viewBox="0 0 30 30" fill="none" xmlns="http://www.w3.org/2000/svg">
<g clip-path="url(#clip0_154_331)">
<path d="M25.8844 9.47355C25.6397 9.44529 25.3921 9.4892 25.172 9.59987L19.4207 12.4736V17.5264L25.172 20.4002C25.3643 20.4963 25.578 20.5417 25.7928 20.5321C26.0076 20.5226 26.2164 20.4583 26.3995 20.3455C26.5825 20.2327 26.7337 20.075 26.8388 19.8874C26.9438 19.6997 26.9993 19.4884 26.9998 19.2734V10.7266C26.9995 10.4175 26.8857 10.1191 26.6802 9.8882C26.4746 9.65726 26.1915 9.50973 25.8844 9.47355Z" fill="#5BAFD4"/>
<path d="M6.78884 6.15765C4.71089 6.15765 2.99927 7.86928 2.99927 9.94723V20.0528C2.99927 22.1307 4.71089 23.8423 6.78884 23.8423H16.8944C18.9723 23.8423 20.684 22.1307 20.684 20.0528V9.94723C20.684 7.86928 18.9723 6.15765 16.8944 6.15765H6.78884Z" fill="#5BAFD4"/>
</g>
<defs>
<clipPath id="clip0_154_331">
<rect width="24" height="24" fill="white" transform="translate(3 3)"/>
</clipPath>
</defs>
</svg>
