<svg width="30" height="30" viewBox="0 0 30 30" fill="none" xmlns="http://www.w3.org/2000/svg">
<path d="M13.9 10.6H16.1M20.5 11.5966L20.6386 11.4822C22.9662 9.56161 24.13 8.60131 25.065 9.06551C26 9.52861 26 11.0664 26 14.1398V15.8602C26 18.9336 26 20.4714 25.065 20.9345C24.13 21.3976 22.9662 20.4384 20.6386 18.5178L20.5 18.4034M4 13.9C4 10.27 4 8.45501 5.1275 7.32751C6.255 6.20001 8.07 6.20001 11.7 6.20001H12.8C16.43 6.20001 18.245 6.20001 19.3725 7.32751C20.5 8.45501 20.5 10.27 20.5 13.9V16.1C20.5 19.73 20.5 21.545 19.3725 22.6725C18.245 23.8 16.43 23.8 12.8 23.8H11.7C8.07 23.8 6.255 23.8 5.1275 22.6725C4 21.545 4 19.73 4 16.1V13.9Z" stroke="#5BAFD4" stroke-width="2" stroke-linecap="round" stroke-linejoin="round"/>
</svg>
