<svg width="27" height="27" viewBox="0 0 27 27" fill="none" xmlns="http://www.w3.org/2000/svg">
<path fill-rule="evenodd" clip-rule="evenodd" d="M15.3999 8.78581L14.6028 9.08195H15.3632L15.3999 8.78581ZM12.3974 9.08195L10.6563 8.43512V9.08195H12.3974ZM21.2908 6.59724C22.2107 7.49191 22.5062 8.98417 21.7164 10.223L15.9567 19.2578C14.6412 21.3214 11.4688 20.382 11.4688 17.9287V13.1786H10.2501C8.23079 13.1786 6.59383 11.5279 6.59383 9.49161V6.92582L4.98994 6.32996C2.7853 5.51089 0.82082 8.00163 2.10841 9.98342L11.4612 24.3786C12.4236 25.86 14.5766 25.86 15.539 24.3786L24.8918 9.98342C26.1793 8.00163 24.2148 5.51089 22.0102 6.32996L21.2908 6.59724ZM15.5313 11.1303V9.90128H17.092L15.5313 12.3494V11.1303Z" fill="#7380F9"/>
<path d="M16.2251 1.65969L9.98285 2.7088C9.19929 2.84049 8.625 3.52413 8.625 4.32517V9.49163C8.625 10.3966 9.35254 11.1303 10.25 11.1303H13.5V17.9287C13.5 18.3376 14.0287 18.4942 14.248 18.1503L20.0078 9.11537C20.3554 8.57009 19.9672 7.85298 19.3243 7.85298H17.5625L18.1046 3.47931C18.2395 2.39143 17.2975 1.47946 16.2251 1.65969Z" fill="#F5AA52"/>
</svg>
