<svg width="30" height="30" viewBox="0 0 30 30" fill="none" xmlns="http://www.w3.org/2000/svg">
<path fill-rule="evenodd" clip-rule="evenodd" d="M16.8999 10.2858L16.1028 10.582H16.8632L16.8999 10.2858ZM13.8974 10.582L12.1563 9.93512V10.582H13.8974ZM22.7908 8.09724C23.7107 8.99191 24.0062 10.4842 23.2164 11.723L17.4567 20.7578C16.1412 22.8214 12.9688 21.882 12.9688 19.4287V14.6786H11.7501C9.73079 14.6786 8.09383 13.0279 8.09383 10.9916V8.42582L6.48994 7.82996C4.2853 7.01089 2.32082 9.50163 3.60841 11.4834L12.9612 25.8786C13.9236 27.36 16.0766 27.36 17.039 25.8786L26.3918 11.4834C27.6793 9.50163 25.7148 7.01089 23.5102 7.82996L22.7908 8.09724ZM17.0313 12.6303V11.4013H18.592L17.0313 13.8494V12.6303Z" fill="#7380F9"/>
<path d="M17.7251 3.15966L11.4828 4.20877C10.6993 4.34046 10.125 5.02409 10.125 5.82513V10.9916C10.125 11.8966 10.8525 12.6303 11.75 12.6303H15V19.4287C15 19.8376 15.5287 19.9942 15.748 19.6503L21.5078 10.6153C21.8554 10.0701 21.4672 9.35295 20.8243 9.35295H19.0625L19.6046 4.97928C19.7395 3.8914 18.7975 2.97942 17.7251 3.15966Z" fill="#F5AA52"/>
</svg>
