<svg width="27" height="27" viewBox="0 0 27 27" fill="none" xmlns="http://www.w3.org/2000/svg">
<path fill-rule="evenodd" clip-rule="evenodd" d="M15.3998 8.7858L14.6027 9.08194H15.3631L15.3998 8.7858ZM12.3973 9.08194L10.6562 8.43511V9.08194H12.3973ZM21.2907 6.59723C22.2106 7.4919 22.5061 8.98416 21.7163 10.223L15.9566 19.2578C14.6411 21.3214 11.4687 20.3819 11.4687 17.9287V13.1786H10.25C8.23071 13.1786 6.59375 11.5279 6.59375 9.4916V6.92581L4.98986 6.32994C2.78522 5.51088 0.820736 8.00162 2.10833 9.98341L11.4611 24.3786C12.4235 25.86 14.5765 25.86 15.5389 24.3786L24.8917 9.98341C26.1792 8.00162 24.2148 5.51088 22.0101 6.32994L21.2907 6.59723ZM15.5312 11.1303V9.90126H17.0919L15.5312 12.3494V11.1303Z" fill="#7380F9"/>
<path d="M16.2251 1.65966L9.98285 2.70877C9.19929 2.84046 8.625 3.52409 8.625 4.32514V9.4916C8.625 10.3966 9.35254 11.1303 10.25 11.1303H13.5V17.9287C13.5 18.3376 14.0287 18.4942 14.248 18.1503L20.0078 9.11533C20.3554 8.57006 19.9672 7.85295 19.3243 7.85295H17.5625L18.1046 3.47928C18.2395 2.3914 17.2975 1.47942 16.2251 1.65966Z" fill="#F5AA52"/>
</svg>
