<svg width="27" height="28" viewBox="0 0 27 28" fill="none" xmlns="http://www.w3.org/2000/svg">
<path fill-rule="evenodd" clip-rule="evenodd" d="M15.3999 9.54967L14.6028 9.84581H15.3632L15.3999 9.54967ZM12.3974 9.84581L10.6563 9.19898V9.84581H12.3974ZM21.2908 7.3611C22.2107 8.25577 22.5062 9.74803 21.7164 10.9869L15.9567 20.0217C14.6412 22.0852 11.4688 21.1458 11.4688 18.6926V13.9424H10.2501C8.23079 13.9424 6.59383 12.2917 6.59383 10.2555V7.68968L4.98994 7.09381C2.7853 6.27475 0.82082 8.76549 2.10841 10.7473L11.4612 25.1425C12.4236 26.6238 14.5766 26.6238 15.539 25.1425L24.8918 10.7473C26.1793 8.76549 24.2148 6.27475 22.0102 7.09381L21.2908 7.3611ZM15.5313 11.8941V10.6651H17.092L15.5313 13.1133V11.8941Z" fill="#7380F9"/>
<path d="M16.2251 2.42352L9.98285 3.47263C9.19929 3.60432 8.625 4.28795 8.625 5.08899V10.2555C8.625 11.1605 9.35254 11.8941 10.25 11.8941H13.5V18.6926C13.5 19.1014 14.0287 19.2581 14.248 18.9141L20.0078 9.87919C20.3554 9.33391 19.9672 8.6168 19.3243 8.6168H17.5625L18.1046 4.24313C18.2395 3.15525 17.2975 2.24328 16.2251 2.42352Z" fill="#F5AA52"/>
</svg>
