<svg width="30" height="30" viewBox="0 0 30 30" fill="none" xmlns="http://www.w3.org/2000/svg">
<path d="M12.8936 23.4641C13.991 24.9405 16.0272 24.9405 17.0521 23.4641L24.9173 9.71963C25.6654 8.31759 26.0394 7.61657 25.9967 7.03872C25.9595 6.53496 25.7361 6.07402 25.3836 5.77342C24.9793 5.42859 24.2654 5.42859 22.838 5.42859L20.2192 5.42859C19.7032 5.42859 19.4453 5.42859 19.2144 5.51545C19.0103 5.59229 18.8226 5.71797 18.6634 5.88424C18.4835 6.07219 18.3555 6.33052 18.0995 6.84719L15.512 11.9416C15.3268 12.3061 14.8062 12.3064 14.6207 11.9421L12.0258 6.8472C11.7698 6.33052 11.6418 6.07219 11.462 5.88424C11.3028 5.71797 11.115 5.59229 10.9109 5.51545C10.6801 5.42859 10.4221 5.42859 9.90611 5.42859H7.16204C5.73452 5.42859 5.02076 5.42859 4.6164 5.77342C4.2639 6.07402 4.04055 6.53496 4.00329 7.03872C3.96056 7.61657 4.33463 8.31759 5.0828 9.71963L12.8936 23.4641Z" fill="#56B292"/>
<path d="M12.2539 14.7486C13.1667 16.3837 13.6231 17.2012 14.224 17.4729C14.7478 17.7097 15.3482 17.7097 15.872 17.4729C16.4728 17.2012 16.9292 16.3836 17.842 14.7485L23.0479 5.42338L20.5132 5.36832C19.9721 5.36832 19.5902 5.34443 19.3481 5.42341C19.134 5.49328 18.9372 5.60755 18.7703 5.75874C18.5817 5.92963 18.4475 6.16453 18.1791 6.63432L15.7724 11.3552C15.5391 11.8127 15.4225 12.0415 15.2664 12.1142C15.1305 12.1775 14.9734 12.1765 14.8383 12.1114C14.6831 12.0367 14.5695 11.8064 14.3422 11.3459L12.0444 6.68938C11.7759 6.21958 11.6417 5.98469 11.4531 5.81379C11.2862 5.66261 11.0893 5.54834 10.8752 5.47846C10.6333 5.39949 10.2672 5.42338 9.72608 5.42338H7.04785L12.2539 14.7486Z" fill="#35445A"/>
</svg>
