<svg width="27" height="27" viewBox="0 0 27 27" fill="none" xmlns="http://www.w3.org/2000/svg">
<g clip-path="url(#clip0_154_310)">
<path d="M10.8936 22.9641C11.991 24.4405 14.0272 24.4405 15.0521 22.9641L22.9173 9.21963C23.6654 7.81759 24.0394 7.11657 23.9967 6.53872C23.9595 6.03496 23.7361 5.57402 23.3836 5.27342C22.9793 4.92859 22.2654 4.92859 20.838 4.92859L18.2192 4.92859C17.7032 4.92859 17.4453 4.92859 17.2144 5.01545C17.0103 5.09229 16.8226 5.21797 16.6634 5.38424C16.4835 5.57219 16.3555 5.83052 16.0995 6.34719L13.512 11.4416C13.3268 11.8061 12.8062 11.8064 12.6207 11.4421L10.0258 6.3472C9.76983 5.83052 9.64183 5.57219 9.46196 5.38424C9.30282 5.21797 9.11503 5.09229 8.91087 5.01545C8.68014 4.92859 8.42213 4.92859 7.90611 4.92859H5.16204C3.73452 4.92859 3.02076 4.92859 2.6164 5.27342C2.2639 5.57402 2.04055 6.03496 2.00329 6.53872C1.96056 7.11657 2.33463 7.81759 3.0828 9.21963L10.8936 22.9641Z" fill="#56B292"/>
<path d="M10.2539 14.2486C11.1667 15.8837 11.6231 16.7012 12.224 16.9729C12.7478 17.2097 13.3482 17.2097 13.872 16.9729C14.4728 16.7012 14.9292 15.8836 15.842 14.2485L21.0479 4.92338L18.5132 4.86832C17.9721 4.86832 17.5902 4.84443 17.3481 4.92341C17.134 4.99328 16.9372 5.10755 16.7703 5.25874C16.5817 5.42963 16.4475 5.66453 16.1791 6.13432L13.7724 10.8552C13.5391 11.3127 13.4225 11.5415 13.2664 11.6142C13.1305 11.6775 12.9734 11.6765 12.8383 11.6114C12.6831 11.5367 12.5695 11.3064 12.3422 10.8459L10.0444 6.18938C9.77592 5.71958 9.64169 5.48469 9.45308 5.31379C9.28622 5.16261 9.08931 5.04834 8.87523 4.97846C8.63329 4.89949 8.26716 4.92338 7.72608 4.92338H5.04785L10.2539 14.2486Z" fill="#35445A"/>
</g>
<defs>
<clipPath id="clip0_154_310">
<rect x="1.5" y="4.5" width="23" height="20" rx="1" fill="white"/>
</clipPath>
</defs>
</svg>
