<svg width="27" height="27" viewBox="0 0 27 27" fill="none" xmlns="http://www.w3.org/2000/svg">
<g clip-path="url(#clip0_154_310)">
<path d="M11.2304 21.3902C11.9809 22.6098 12.3562 23.2197 12.8384 23.4279C13.2595 23.6098 13.737 23.6098 14.1581 23.4279C14.6404 23.2197 15.0157 22.6098 15.7662 21.3902L24.3156 7.49759C25.1316 6.17149 25.5396 5.50844 25.493 4.96188C25.4524 4.48541 25.2087 4.04943 24.8242 3.76511C24.3832 3.43896 23.6046 3.43896 22.0476 3.43896H18.3724C17.8095 3.43896 17.5282 3.43896 17.2764 3.52112C17.0537 3.5938 16.849 3.71267 16.6753 3.86993C16.4792 4.0477 16.3395 4.29205 16.0603 4.78073L14.3665 7.74479C13.9826 8.4166 13.0139 8.4166 12.6301 7.74479L10.9363 4.78073C10.6571 4.29205 10.5174 4.0477 10.3212 3.86993C10.1477 3.71267 9.94283 3.5938 9.72014 3.52112C9.46847 3.43896 9.18705 3.43896 8.6242 3.43896H4.949C3.39193 3.43896 2.6134 3.43896 2.17234 3.76511C1.78785 4.04943 1.54423 4.48541 1.50359 4.96188C1.45698 5.50844 1.865 6.17149 2.68107 7.49759L11.2304 21.3902Z" fill="#56B292"/>
<path d="M12.652 15.397C13.0437 16.0237 13.9563 16.0237 14.348 15.397L21.8218 3.43896H18.3741C17.8112 3.43896 17.5299 3.43896 17.2781 3.52112C17.0554 3.5938 16.8507 3.71267 16.6771 3.86993C16.4809 4.0477 16.3412 4.29205 16.062 4.78073L14.3682 7.74479C13.9843 8.4166 13.0156 8.4166 12.6318 7.74479L10.938 4.78073C10.6588 4.29205 10.5191 4.0477 10.3229 3.86993C10.1494 3.71267 9.94454 3.5938 9.72185 3.52112C9.47018 3.43896 9.18875 3.43896 8.6259 3.43896H5.17822L12.652 15.397Z" fill="#35445A"/>
</g>
<defs>
<clipPath id="clip0_154_310">
<rect x="1.5" y="3.43896" width="24" height="20.1221" rx="1" fill="white"/>
</clipPath>
</defs>
</svg>
