<svg width="27" height="28" viewBox="0 0 27 28" fill="none" xmlns="http://www.w3.org/2000/svg">
<g clip-path="url(#clip0_154_310)">
<path d="M11.2275 22.4812C12.4114 23.9576 14.6082 23.9576 15.714 22.4812L24.1996 8.73672C25.0068 7.33467 25.4103 6.63366 25.3642 6.0558C25.324 5.55205 25.083 5.09111 24.7027 4.7905C24.2665 4.44568 23.4963 4.44568 21.9563 4.44568H18.3211C17.7643 4.44568 17.4861 4.44568 17.237 4.53254C17.0167 4.60938 16.8143 4.73506 16.6425 4.90133C16.4485 5.08927 16.3104 5.34761 16.0341 5.86428L14.3819 8.95486C14.0052 9.65959 12.9949 9.65959 12.6181 8.95486L10.9659 5.86428C10.6897 5.34761 10.5516 5.08927 10.3576 4.90133C10.1859 4.73506 9.98327 4.60938 9.763 4.53254C9.51407 4.44568 9.23571 4.44568 8.67899 4.44568H5.04379C3.50366 4.44568 2.7336 4.44568 2.29735 4.7905C1.91704 5.09111 1.67607 5.55205 1.63588 6.0558C1.58977 6.63366 1.99335 7.33467 2.80054 8.73672L11.2275 22.4812Z" fill="#56B292"/>
<path d="M10.8804 12.9582C11.7619 14.215 12.2027 14.8434 12.7516 15.065C13.2318 15.2589 13.7686 15.2589 14.2488 15.065C14.7977 14.8434 15.2385 14.215 16.12 12.9582L22.0881 4.44932H18.5301C17.9492 4.44932 17.5393 4.42368 17.2794 4.50846C17.0496 4.58347 16.8383 4.70614 16.6591 4.86843C16.4567 5.05188 16.3126 5.30404 16.0244 5.80835L14.8914 7.83107C14.4365 8.64324 14.2091 9.04932 13.9095 9.18486C13.6484 9.30303 13.3491 9.30347 13.0876 9.18605C12.7877 9.05137 12.5591 8.64594 12.1018 7.83509L10.9589 5.80835C10.6707 5.30403 10.5266 5.05188 10.3242 4.86842C10.1451 4.70613 9.93367 4.58346 9.70386 4.50845C9.44415 4.42367 9.05111 4.44932 8.47027 4.44932H4.91235L10.8804 12.9582Z" fill="#35445A"/>
</g>
<defs>
<clipPath id="clip0_154_310">
<rect x="1.5" y="4.44568" width="24" height="19.6364" rx="1" fill="white"/>
</clipPath>
</defs>
</svg>
