<svg width="27" height="27" viewBox="0 0 27 27" fill="none" xmlns="http://www.w3.org/2000/svg">
<path d="M11.3936 21.9641C12.491 23.4405 14.5272 23.4405 15.5521 21.9641L23.4173 8.21963C24.1654 6.81759 24.5394 6.11657 24.4967 5.53872C24.4595 5.03496 24.2361 4.57402 23.8836 4.27342C23.4793 3.92859 22.7654 3.92859 21.338 3.92859L18.7192 3.92859C18.2032 3.92859 17.9453 3.92859 17.7144 4.01545C17.5103 4.09229 17.3226 4.21797 17.1634 4.38424C16.9835 4.57219 16.8555 4.83052 16.5995 5.34719L14.012 10.4416C13.8268 10.8061 13.3062 10.8064 13.1207 10.4421L10.5258 5.3472C10.2698 4.83052 10.1418 4.57219 9.96196 4.38424C9.80282 4.21797 9.61503 4.09229 9.41087 4.01545C9.18014 3.92859 8.92213 3.92859 8.40611 3.92859H5.66204C4.23452 3.92859 3.52076 3.92859 3.1164 4.27342C2.7639 4.57402 2.54055 5.03496 2.50329 5.53872C2.46056 6.11657 2.83463 6.81759 3.5828 8.21963L11.3936 21.9641Z" fill="#56B292"/>
<path d="M10.7539 13.2486C11.6667 14.8837 12.1231 15.7012 12.724 15.9729C13.2478 16.2097 13.8482 16.2097 14.372 15.9729C14.9728 15.7012 15.4292 14.8836 16.342 13.2485L21.5479 3.92338L19.0132 3.86832C18.4721 3.86832 18.0902 3.84443 17.8481 3.92341C17.634 3.99328 17.4372 4.10755 17.2703 4.25874C17.0817 4.42963 16.9475 4.66453 16.6791 5.13432L14.2724 9.85521C14.0391 10.3127 13.9225 10.5415 13.7664 10.6142C13.6305 10.6775 13.4734 10.6765 13.3383 10.6114C13.1831 10.5367 13.0695 10.3064 12.8422 9.84589L10.5444 5.18938C10.2759 4.71958 10.1417 4.48469 9.95308 4.31379C9.78622 4.16261 9.58931 4.04834 9.37523 3.97846C9.13329 3.89949 8.76716 3.92338 8.22608 3.92338H5.54785L10.7539 13.2486Z" fill="#35445A"/>
</svg>
