<svg width="115" height="115" viewBox="0 0 115 115" fill="none" xmlns="http://www.w3.org/2000/svg">
<g clip-path="url(#clip0_121_159)">
<path d="M48.0432 90.4379C51.1704 95.5293 52.734 98.075 54.7435 98.9442C56.4981 99.7036 58.4877 99.7036 60.2423 98.9442C62.2518 98.075 63.8154 95.5293 66.9426 90.4379L102.565 32.4428C105.965 26.907 107.665 24.1391 107.471 21.8575C107.301 19.8684 106.286 18.0484 104.684 16.8615C102.847 15.5 99.6025 15.5 93.1149 15.5H77.8015C75.4561 15.5 74.2842 15.5 73.2349 15.8429C72.307 16.1464 71.4541 16.6426 70.7306 17.2991C69.9131 18.0412 69.3314 19.0612 68.1679 21.1013L57.4929 39.8176L46.8179 21.1013C45.6544 19.0612 45.0726 18.0412 44.2552 17.2991C43.5319 16.6426 42.6785 16.1464 41.7506 15.8429C40.702 15.5 39.5294 15.5 37.1842 15.5H21.8708C15.383 15.5 12.1391 15.5 10.3014 16.8615C8.69937 18.0484 7.68428 19.8684 7.51496 21.8575C7.32074 24.1391 9.02084 26.907 12.4211 32.4428L48.0432 90.4379Z" fill="#56B292"/>
<path d="M57.4929 83.2392L92.167 27.7607H77.8015C75.4562 27.7607 74.2842 27.7607 73.235 28.103C72.3071 28.4059 71.4541 28.9012 70.7307 29.5564C69.9132 30.2971 69.3314 31.3152 68.1679 33.3514L57.4929 52.0326L46.818 33.3514C45.6545 31.3152 45.0727 30.2971 44.2552 29.5564C43.532 28.9012 42.6785 28.4059 41.7506 28.103C40.702 27.7607 39.5294 27.7607 37.1842 27.7607H22.8189L57.4929 83.2392Z" fill="#35445A"/>
</g>
<defs>
<clipPath id="clip0_121_159">
<rect width="100" height="84" fill="white" transform="translate(7.5 15.5)"/>
</clipPath>
</defs>
</svg>
