<svg width="27" height="28" viewBox="0 0 27 28" fill="none" xmlns="http://www.w3.org/2000/svg">
<g clip-path="url(#clip0_160_605)">
<path d="M1.5 8.88516C1.5954 8.45335 2.33787 8.67912 4.40514 8.65163C4.89103 9.80778 5.35594 11.466 5.69636 13.3288C5.9015 11.8369 6.34537 10.269 6.70158 9.14991C6.85825 8.719 6.86476 8.6472 7.4016 8.64056L9.65726 8.65489L6.97104 15.6903L6.91897 19.5492C6.91828 20.0808 6.731 19.9896 6.01048 19.9992L4.26093 19.9976L4.24812 16.0095L1.5 8.88516ZM11.3808 13.1052C10.2142 13.9842 10.1171 15.5155 10.2518 17.7081C10.3584 19.4431 10.8297 20.4682 13.9863 20.2997C15.3953 20.2245 16.2564 20.0021 16.7828 19.5319C16.779 16.1187 16.887 11.5592 16.8349 10.1349C16.6438 8.32848 15.3132 8.14722 13.8473 8.22428C12.7387 8.28258 11.1202 8.5717 10.9466 9.17964C10.8597 10.2913 10.8928 10.9072 11.3982 11.0208C11.8671 10.986 14.1426 10.4129 14.1773 11.3335V13.1052C13.691 12.8968 12.0788 12.5793 11.3808 13.1052ZM14.1252 17.3433C14.1079 18.125 13.7006 18.1423 13.4478 18.1423C12.753 18.1423 12.9615 15.9711 12.9615 15.9711C12.9615 14.9984 13.7448 14.3406 14.1599 15.1374C14.1599 15.1374 14.1476 16.3356 14.1252 17.3433ZM18.3814 19.9977H24.9634C25.3079 19.9829 25.4527 19.8957 25.5 19.5741V17.5321H21.2059V8.65461C19.4403 8.59631 18.3814 8.40218 18.3814 9.59065V19.9977ZM25.3496 10.0493C25.3496 8.72474 23.9618 7.89241 22.8577 8.5547C21.7535 9.217 21.7535 10.8817 22.8577 11.544C23.9618 12.2063 25.3496 11.3739 25.3496 10.0493ZM25.3496 14.8298C25.3496 13.5052 23.9618 12.6728 22.8577 13.3351C21.7535 13.9974 21.7535 15.6621 22.8577 16.3244C23.9618 16.9867 25.3496 16.1543 25.3496 14.8298Z" fill="#F1667F"/>
</g>
<defs>
<clipPath id="clip0_160_605">
<rect width="24" height="24" fill="white" transform="translate(1.5 2.26385)"/>
</clipPath>
</defs>
</svg>
