<svg width="30" height="30" viewBox="0 0 30 30" fill="none" xmlns="http://www.w3.org/2000/svg">
<path d="M3 9.62131C3.0954 9.18949 3.83787 9.41526 5.90514 9.38778C6.39103 10.5439 6.85594 12.2022 7.19636 14.0649C7.4015 12.573 7.84537 11.0052 8.20158 9.88606C8.35825 9.45514 8.36476 9.38335 8.9016 9.3767L11.1573 9.39103L8.47104 16.4264L8.41897 20.2853C8.41828 20.817 8.231 20.7257 7.51048 20.7354L5.76093 20.7338L5.74812 16.7457L3 9.62131ZM12.8808 13.8413C11.7142 14.7203 11.6171 16.2516 11.7518 18.4443C11.8584 20.1793 12.3297 21.2043 15.4863 21.0359C16.8953 20.9607 17.7564 20.7383 18.2828 20.2681C18.279 16.8548 18.387 12.2954 18.3349 10.8711C18.1438 9.06462 16.8132 8.88337 15.3473 8.96042C14.2387 9.01872 12.6202 9.30784 12.4466 9.91579C12.3597 11.0274 12.3928 11.6433 12.8982 11.7569C13.3671 11.7222 15.6426 11.1491 15.6773 12.0696V13.8413C15.191 13.6329 13.5788 13.3154 12.8808 13.8413ZM15.6252 18.0795C15.6079 18.8611 15.2006 18.8784 14.9478 18.8784C14.253 18.8784 14.4615 16.7073 14.4615 16.7073C14.4615 15.7345 15.2448 15.0767 15.6599 15.8735C15.6599 15.8735 15.6476 17.0717 15.6252 18.0795ZM19.8814 20.7338H26.4634C26.8079 20.7191 26.9527 20.6318 27 20.3103V18.2683H22.7059V9.39075C20.9403 9.33246 19.8814 9.13832 19.8814 10.3268V20.7338ZM26.8496 10.7855C26.8496 9.46089 25.4618 8.62855 24.3577 9.29085C23.2535 9.95314 23.2535 11.6178 24.3577 12.2801C25.4618 12.9424 26.8496 12.1101 26.8496 10.7855ZM26.8496 15.5659C26.8496 14.2413 25.4618 13.409 24.3577 14.0713C23.2535 14.7336 23.2535 16.3982 24.3577 17.0605C25.4618 17.7228 26.8496 16.8905 26.8496 15.5659Z" fill="#F1667F"/>
</svg>
