<svg width="27" height="27" viewBox="0 0 27 27" fill="none" xmlns="http://www.w3.org/2000/svg">
<g clip-path="url(#clip0_160_605)">
<path d="M1.5 8.12131C1.5954 7.68949 2.33787 7.91526 4.40514 7.88778C4.89103 9.04392 5.35594 10.7022 5.69636 12.5649C5.9015 11.073 6.34537 9.50516 6.70158 8.38606C6.85825 7.95514 6.86476 7.88335 7.4016 7.8767L9.65726 7.89103L6.97104 14.9264L6.91897 18.7853C6.91828 19.317 6.731 19.2257 6.01048 19.2354L4.26093 19.2338L4.24812 15.2457L1.5 8.12131ZM11.3808 12.3413C10.2142 13.2203 10.1171 14.7516 10.2518 16.9443C10.3584 18.6793 10.8297 19.7043 13.9863 19.5359C15.3953 19.4607 16.2564 19.2383 16.7828 18.7681C16.779 15.3548 16.887 10.7954 16.8349 9.37108C16.6438 7.56462 15.3132 7.38337 13.8473 7.46042C12.7387 7.51872 11.1202 7.80784 10.9466 8.41579C10.8597 9.52742 10.8928 10.1433 11.3982 10.2569C11.8671 10.2222 14.1426 9.64906 14.1773 10.5696V12.3413C13.691 12.1329 12.0788 11.8154 11.3808 12.3413ZM14.1252 16.5795C14.1079 17.3611 13.7006 17.3784 13.4478 17.3784C12.753 17.3784 12.9615 15.2073 12.9615 15.2073C12.9615 14.2345 13.7448 13.5767 14.1599 14.3735C14.1599 14.3735 14.1476 15.5717 14.1252 16.5795ZM18.3814 19.2338H24.9634C25.3079 19.2191 25.4527 19.1318 25.5 18.8103V16.7683H21.2059V7.89075C19.4403 7.83246 18.3814 7.63832 18.3814 8.8268V19.2338ZM25.3496 9.28548C25.3496 7.96089 23.9618 7.12855 22.8577 7.79085C21.7535 8.45314 21.7535 10.1178 22.8577 10.7801C23.9618 11.4424 25.3496 10.6101 25.3496 9.28548ZM25.3496 14.0659C25.3496 12.7413 23.9618 11.909 22.8577 12.5713C21.7535 13.2336 21.7535 14.8982 22.8577 15.5605C23.9618 16.2228 25.3496 15.3905 25.3496 14.0659Z" fill="#F1667F"/>
</g>
<defs>
<clipPath id="clip0_160_605">
<rect width="24" height="24" fill="white" transform="translate(1.5 1.5)"/>
</clipPath>
</defs>
</svg>
