<svg width="27" height="27" viewBox="0 0 27 27" fill="none" xmlns="http://www.w3.org/2000/svg">
<path fill-rule="evenodd" clip-rule="evenodd" d="M2 9.5C2 6.69974 2 5.2996 2.52225 4.23004C2.98166 3.28924 3.71469 2.52434 4.61629 2.04496C5.64128 1.5 6.98308 1.5 9.66667 1.5V2.3C9.66667 3.4201 9.66667 3.98016 9.87556 4.40798C10.0593 4.7843 10.3525 5.09026 10.7132 5.28202C11.1232 5.5 11.6599 5.5 12.7333 5.5H13.5V9.5H11.5833C10.5248 9.5 9.66667 10.3954 9.66667 11.5C9.66667 12.6046 10.5248 13.5 11.5833 13.5H13.5V17.5H11.5833C10.5248 17.5 9.66667 18.3954 9.66667 19.5C9.66667 20.6046 10.5248 21.5 11.5833 21.5H13.5V25.5H9.66667C6.98308 25.5 5.64128 25.5 4.61629 24.955C3.71469 24.4756 2.98166 23.7108 2.52225 22.77C2 21.7004 2 20.3002 2 17.5V9.5ZM13.5 21.5V17.5H15.4167C16.4752 17.5 17.3333 16.6046 17.3333 15.5C17.3333 14.3954 16.4752 13.5 15.4167 13.5H13.5V9.5H15.4167C16.4752 9.5 17.3333 8.60456 17.3333 7.5C17.3333 6.39544 16.4752 5.5 15.4167 5.5H13.5V1.5H17.3333C20.0169 1.5 21.3587 1.5 22.3838 2.04496C23.2854 2.52434 24.0183 3.28924 24.4777 4.23004C25 5.2996 25 6.69974 25 9.5V17.5C25 20.3002 25 21.7004 24.4777 22.77C24.0183 23.7108 23.2854 24.4756 22.3838 24.955C21.3587 25.5 20.0169 25.5 17.3333 25.5V24.7C17.3333 23.5798 17.3333 23.0198 17.1244 22.592C16.9407 22.2156 16.6475 21.9098 16.2868 21.718C15.8768 21.5 15.3401 21.5 14.2667 21.5H13.5Z" fill="#8CC162"/>
</svg>
