<svg width="30" height="30" viewBox="0 0 30 30" fill="none" xmlns="http://www.w3.org/2000/svg">
<path fill-rule="evenodd" clip-rule="evenodd" d="M3.5 11C3.5 8.19974 3.5 6.7996 4.02225 5.73004C4.48166 4.78924 5.21469 4.02434 6.11629 3.54496C7.14128 3 8.48308 3 11.1667 3V3.8C11.1667 4.9201 11.1667 5.48016 11.3756 5.90798C11.5593 6.2843 11.8525 6.59026 12.2132 6.78202C12.6232 7 13.1599 7 14.2333 7H15V11H13.0833C12.0248 11 11.1667 11.8954 11.1667 13C11.1667 14.1046 12.0248 15 13.0833 15H15V19H13.0833C12.0248 19 11.1667 19.8954 11.1667 21C11.1667 22.1046 12.0248 23 13.0833 23H15V27H11.1667C8.48308 27 7.14128 27 6.11629 26.455C5.21469 25.9756 4.48166 25.2108 4.02225 24.27C3.5 23.2004 3.5 21.8002 3.5 19V11ZM15 23V19H16.9167C17.9752 19 18.8333 18.1046 18.8333 17C18.8333 15.8954 17.9752 15 16.9167 15H15V11H16.9167C17.9752 11 18.8333 10.1046 18.8333 9C18.8333 7.89544 17.9752 7 16.9167 7H15V3H18.8333C21.5169 3 22.8587 3 23.8838 3.54496C24.7854 4.02434 25.5183 4.78924 25.9777 5.73004C26.5 6.7996 26.5 8.19974 26.5 11V19C26.5 21.8002 26.5 23.2004 25.9777 24.27C25.5183 25.2108 24.7854 25.9756 23.8838 26.455C22.8587 27 21.5169 27 18.8333 27V26.2C18.8333 25.0798 18.8333 24.5198 18.6244 24.092C18.4407 23.7156 18.1475 23.4098 17.7868 23.218C17.3768 23 16.8401 23 15.7667 23H15Z" fill="#8CC162"/>
</svg>
